<svg xmlns="http://www.w3.org/2000/svg" xmlns:xlink="http://www.w3.org/1999/xlink" contentStyleType="text/css" data-diagram-type="DESCRIPTION" height="106px" preserveAspectRatio="none" style="width:303px;height:106px;background:#FFFFFF;" version="1.1" viewBox="0 0 303 106" width="303px" zoomAndPan="magnify"><defs/><g><!--cluster Bank / Payment Gateway--><g class="cluster" data-entity="Bank . Payment Gateway" data-source-line="9" data-uid="ent0003" id="cluster_Bank . Payment Gateway"><rect fill="none" height="90" rx="2.5" ry="2.5" style="stroke:#181818;stroke-width:1;" width="193" x="104.5" y="7"/><text fill="#000000" font-family="sans-serif" font-size="14" font-weight="bold" lengthAdjust="spacing" textLength="165.7373" x="118.1313" y="23.5332">Bank / Payment Gateway</text></g><!--entity UC_Proc--><g class="entity" data-entity="UC_Proc" data-source-line="10" data-uid="ent0004" id="entity_UC_Proc"><ellipse cx="201.0172" cy="62.0034" fill="#F1F1F1" rx="80.5172" ry="18.5034" style="stroke:#181818;stroke-width:0.5;"/><text fill="#000000" font-family="sans-serif" font-size="14" lengthAdjust="spacing" textLength="127.6064" x="137.214" y="67.3081">Process Transaction</text></g><!--entity B--><g class="entity" data-entity="B" data-source-line="7" data-uid="ent0002" id="entity_B"><ellipse cx="33" cy="39" fill="#F1F1F1" rx="16" ry="16" style="stroke:#181818;stroke-width:0.5;"/><path d="M33,59 C37,59 40,59 44,55 C52,55 60,63 60,71 L60,75 C60,79 56,83 52,83 L14,83 C10,83 6,79 6,75 L6,71 C6,63 14,55 22,55 C26,59 29,59 33,59" fill="#F1F1F1" style="stroke:#181818;stroke-width:0.5;"/><text fill="#000000" font-family="sans-serif" font-size="14" lengthAdjust="spacing" textLength="31.9102" x="17.0449" y="98.0332">Bank</text></g><!--link B to UC_Proc--><g class="link" data-entity-1="B" data-entity-2="UC_Proc" data-source-line="13" data-uid="lnk5" id="link_B_UC_Proc"><path d="M60.67,62 C76.98,62 98.79,62 120.31,62" fill="none" id="B-UC_Proc" style="stroke:#181818;stroke-width:1;"/></g><!--SRC=[JOv12eD054Ft_nJ1lVGETj6jq7PTmlZLGPsH-LD4Ik_UQg6uJ5uICcgRaIEIx_gCnYTrsSSWDlWmCt72J3UmqsjUHyM66RfH3m7hsSJ5XmujHpiIkXpJhyX5BKugidke60RGK8dy9r7ixWarrqb3neLP5wu5NW8yJHtj6wfJT6g6Ms8mxc-BRUf-Vcn8tY8LolAlFm00]--></g></svg>