<svg xmlns="http://www.w3.org/2000/svg" xmlns:xlink="http://www.w3.org/1999/xlink" contentStyleType="text/css" data-diagram-type="DESCRIPTION" height="5210.9375px" preserveAspectRatio="none" style="width:1325px;height:5210px;background:#FFFFFF;" version="1.1" viewBox="0 0 1325 5210" width="1325px" zoomAndPan="magnify"><defs/><g><!--cluster E-Learning System--><g class="cluster" data-entity="E-Learning System" data-source-line="96" data-uid="ent0006" id="cluster_E-Learning System"><rect fill="none" height="5190.625" rx="3.9063" ry="3.9063" style="stroke:#181818;stroke-width:1.5625;" width="396.875" x="250" y="10.9375"/><text fill="#000000" font-family="sans-serif" font-size="21.875" font-weight="bold" lengthAdjust="spacing" textLength="198.1461" x="349.3645" y="36.7706">E-Learning System</text></g><!--cluster Student Flows--><g class="cluster" data-entity="Student Flows" data-source-line="99" data-uid="ent0007" id="cluster_Student Flows"><rect fill="none" height="1428.125" rx="3.9063" ry="3.9063" style="stroke:#181818;stroke-width:1.5625;" width="309.375" x="293.75" y="1145.3125"/><text fill="#000000" font-family="sans-serif" font-size="21.875" font-weight="bold" lengthAdjust="spacing" textLength="149.472" x="373.7015" y="1171.1456">Student Flows</text></g><!--cluster Teacher Flows--><g class="cluster" data-entity="Teacher Flows" data-source-line="110" data-uid="ent0016" id="cluster_Teacher Flows"><rect fill="none" height="1023.4375" rx="3.9063" ry="3.9063" style="stroke:#181818;stroke-width:1.5625;" width="321.875" x="287.5" y="79.6875"/><text fill="#000000" font-family="sans-serif" font-size="21.875" font-weight="bold" lengthAdjust="spacing" textLength="151.9608" x="372.4571" y="105.5206">Teacher Flows</text></g><!--cluster System / Admin--><g class="cluster" data-entity="System . Admin" data-source-line="119" data-uid="ent0023" id="cluster_System . Admin"><rect fill="none" height="2546.875" rx="3.9063" ry="3.9063" style="stroke:#181818;stroke-width:1.5625;" width="301.5625" x="297.6563" y="2617.1875"/><text fill="#000000" font-family="sans-serif" font-size="21.875" font-weight="bold" lengthAdjust="spacing" textLength="164.1052" x="366.3849" y="2643.0206">System / Admin</text></g><!--entity Subscribe to Courses--><g class="entity" data-entity="Subscribe to Courses" data-source-line="100" data-uid="ent0008" id="entity_Subscribe to Courses"><ellipse cx="448.5976" cy="1959.407" fill="#F1F1F1" rx="129.8476" ry="29.7195" style="stroke:#181818;stroke-width:0.7813;"/><text fill="#000000" font-family="sans-serif" font-size="21.875" lengthAdjust="spacing" textLength="209.1263" x="344.0345" y="1967.6956">Subscribe to Courses</text></g><!--entity Make Payments--><g class="entity" data-entity="Make Payments" data-source-line="101" data-uid="ent0009" id="entity_Make Payments"><ellipse cx="448.0602" cy="1227.8933" fill="#F1F1F1" rx="108.9977" ry="25.5495" style="stroke:#181818;stroke-width:0.7813;"/><text fill="#000000" font-family="sans-serif" font-size="21.875" lengthAdjust="spacing" textLength="156.8314" x="369.6445" y="1236.1819">Make Payments</text></g><!--entity Choose Slot--><g class="entity" data-entity="Choose Slot" data-source-line="102" data-uid="ent0010" id="entity_Choose Slot"><ellipse cx="448.3281" cy="1753.0495" fill="#F1F1F1" rx="88.9531" ry="24.1433" style="stroke:#181818;stroke-width:0.7813;"/><text fill="#000000" font-family="sans-serif" font-size="21.875" lengthAdjust="spacing" textLength="119.1696" x="388.7433" y="1761.3381">Choose Slot</text></g><!--entity Attend Lessons--><g class="entity" data-entity="Attend Lessons" data-source-line="103" data-uid="ent0011" id="entity_Attend Lessons"><ellipse cx="448.155" cy="2342.2872" fill="#F1F1F1" rx="106.7487" ry="25.0997" style="stroke:#181818;stroke-width:0.7813;"/><text fill="#000000" font-family="sans-serif" font-size="21.875" lengthAdjust="spacing" textLength="150.7965" x="372.7567" y="2350.5758">Attend Lessons</text></g><!--entity Report Problem--><g class="entity" data-entity="Report Problem" data-source-line="104" data-uid="ent0012" id="entity_Report Problem"><ellipse cx="448.2607" cy="2139.3396" fill="#F1F1F1" rx="107.6357" ry="25.2771" style="stroke:#181818;stroke-width:0.7813;"/><text fill="#000000" font-family="sans-serif" font-size="21.875" lengthAdjust="spacing" textLength="153.1891" x="371.6661" y="2147.6282">Report Problem</text></g><!--entity Reschedule Lesson--><g class="entity" data-entity="Reschedule Lesson" data-source-line="105" data-uid="ent0013" id="entity_Reschedule Lesson"><ellipse cx="448.6269" cy="2520.5066" fill="#F1F1F1" rx="122.8457" ry="28.3191" style="stroke:#181818;stroke-width:0.7813;"/><text fill="#000000" font-family="sans-serif" font-size="21.875" lengthAdjust="spacing" textLength="192.1432" x="352.5553" y="2528.7952">Reschedule Lesson</text></g><!--entity Join Lesson--><g class="entity" data-entity="Join Lesson" data-source-line="106" data-uid="ent0014" id="entity_Join Lesson"><ellipse cx="448.1762" cy="1403.0495" fill="#F1F1F1" rx="87.2387" ry="24.1433" style="stroke:#181818;stroke-width:0.7813;"/><text fill="#000000" font-family="sans-serif" font-size="21.875" lengthAdjust="spacing" textLength="116.745" x="389.8037" y="1411.3381">Join Lesson</text></g><!--entity View Recording--><g class="entity" data-entity="View Recording" data-source-line="107" data-uid="ent0015" id="entity_View Recording"><ellipse cx="448.2646" cy="1578.4029" fill="#F1F1F1" rx="107.6396" ry="25.2779" style="stroke:#181818;stroke-width:0.7813;"/><text fill="#000000" font-family="sans-serif" font-size="21.875" lengthAdjust="spacing" textLength="153.1998" x="371.6647" y="1586.6915">View Recording</text></g><!--entity Create Lesson--><g class="entity" data-entity="Create Lesson" data-source-line="111" data-uid="ent0017" id="entity_Create Lesson"><ellipse cx="448.1733" cy="879.9472" fill="#F1F1F1" rx="103.642" ry="24.4784" style="stroke:#181818;stroke-width:0.7813;"/><text fill="#000000" font-family="sans-serif" font-size="21.875" lengthAdjust="spacing" textLength="142.2729" x="377.0368" y="888.2357">Create Lesson</text></g><!--entity Start Lesson--><g class="entity" data-entity="Start Lesson" data-source-line="112" data-uid="ent0018" id="entity_Start Lesson"><ellipse cx="448.5599" cy="1053.0495" fill="#F1F1F1" rx="91.5286" ry="24.1433" style="stroke:#181818;stroke-width:0.7813;"/><text fill="#000000" font-family="sans-serif" font-size="21.875" lengthAdjust="spacing" textLength="122.8119" x="387.1539" y="1061.3381">Start Lesson</text></g><!--entity Conduct Lesson--><g class="entity" data-entity="Conduct Lesson" data-source-line="113" data-uid="ent0019" id="entity_Conduct Lesson"><ellipse cx="448.5348" cy="531.1132" fill="#F1F1F1" rx="109.4723" ry="25.6445" style="stroke:#181818;stroke-width:0.7813;"/><text fill="#000000" font-family="sans-serif" font-size="21.875" lengthAdjust="spacing" textLength="158.0917" x="369.4889" y="539.4018">Conduct Lesson</text></g><!--entity Upload PDFs & Videos--><g class="entity" data-entity="Upload PDFs . Videos" data-source-line="114" data-uid="ent0020" id="entity_Upload PDFs . Videos"><ellipse cx="448.5035" cy="348.1382" fill="#F1F1F1" rx="136.0035" ry="30.9507" style="stroke:#181818;stroke-width:0.7813;"/><text fill="#000000" font-family="sans-serif" font-size="21.875" lengthAdjust="spacing" textLength="223.7167" x="336.6451" y="356.4268">Upload PDFs &amp; Videos</text></g><!--entity Upload Recording--><g class="entity" data-entity="Upload Recording" data-source-line="115" data-uid="ent0021" id="entity_Upload Recording"><ellipse cx="448.0615" cy="163.6748" fill="#F1F1F1" rx="116.0302" ry="26.956" style="stroke:#181818;stroke-width:0.7813;"/><text fill="#000000" font-family="sans-serif" font-size="21.875" lengthAdjust="spacing" textLength="175.1068" x="360.508" y="171.9634">Upload Recording</text></g><!--entity Set Schedule--><g class="entity" data-entity="Set Schedule" data-source-line="116" data-uid="ent0022" id="entity_Set Schedule"><ellipse cx="448.2647" cy="706.1745" fill="#F1F1F1" rx="96.7022" ry="24.1433" style="stroke:#181818;stroke-width:0.7813;"/><text fill="#000000" font-family="sans-serif" font-size="21.875" lengthAdjust="spacing" textLength="130.1285" x="383.2005" y="714.4631">Set Schedule</text></g><!--entity Check Availability--><g class="entity" data-entity="Check Availability" data-source-line="120" data-uid="ent0024" id="entity_Check Availability"><ellipse cx="448.181" cy="3440.73" fill="#F1F1F1" rx="114.5873" ry="26.6675" style="stroke:#181818;stroke-width:0.7813;"/><text fill="#000000" font-family="sans-serif" font-size="21.875" lengthAdjust="spacing" textLength="171.4218" x="362.4701" y="3449.0185">Check Availability</text></g><!--entity Send Notification--><g class="entity" data-entity="Send Notification" data-source-line="121" data-uid="ent0025" id="entity_Send Notification"><ellipse cx="448.184" cy="3234.0118" fill="#F1F1F1" rx="112.2465" ry="26.1993" style="stroke:#181818;stroke-width:0.7813;"/><text fill="#000000" font-family="sans-serif" font-size="21.875" lengthAdjust="spacing" textLength="165.3763" x="365.4958" y="3242.3004">Send Notification</text></g><!--entity Authenticate User--><g class="entity" data-entity="Authenticate User" data-source-line="122" data-uid="ent0026" id="entity_Authenticate User"><ellipse cx="448.3604" cy="3797.1721" fill="#F1F1F1" rx="115.5479" ry="26.8596" style="stroke:#181818;stroke-width:0.7813;"/><text fill="#000000" font-family="sans-serif" font-size="21.875" lengthAdjust="spacing" textLength="173.8785" x="361.4212" y="3805.4607">Authenticate User</text></g><!--entity Login--><g class="entity" data-entity="Login" data-source-line="123" data-uid="ent0027" id="entity_Login"><ellipse cx="448.7842" cy="3999.9245" fill="#F1F1F1" rx="42.5342" ry="24.1433" style="stroke:#181818;stroke-width:0.7813;"/><text fill="#000000" font-family="sans-serif" font-size="21.875" lengthAdjust="spacing" textLength="53.5233" x="422.0225" y="4008.2131">Login</text></g><!--entity Reset Password--><g class="entity" data-entity="Reset Password" data-source-line="124" data-uid="ent0028" id="entity_Reset Password"><ellipse cx="448.1974" cy="3618.702" fill="#F1F1F1" rx="109.9161" ry="25.7332" style="stroke:#181818;stroke-width:0.7813;"/><text fill="#000000" font-family="sans-serif" font-size="21.875" lengthAdjust="spacing" textLength="159.2667" x="368.5641" y="3626.9906">Reset Password</text></g><!--entity Create Account--><g class="entity" data-entity="Create Account" data-source-line="125" data-uid="ent0029" id="entity_Create Account"><ellipse cx="448.1471" cy="4375.0982" fill="#F1F1F1" rx="106.7408" ry="25.0982" style="stroke:#181818;stroke-width:0.7813;"/><text fill="#000000" font-family="sans-serif" font-size="21.875" lengthAdjust="spacing" textLength="150.7751" x="372.7595" y="4383.3867">Create Account</text></g><!--entity Verify Email--><g class="entity" data-entity="Verify Email" data-source-line="126" data-uid="ent0030" id="entity_Verify Email"><ellipse cx="448.1384" cy="4173.362" fill="#F1F1F1" rx="87.2009" ry="24.1433" style="stroke:#181818;stroke-width:0.7813;"/><text fill="#000000" font-family="sans-serif" font-size="21.875" lengthAdjust="spacing" textLength="116.6916" x="389.7926" y="4181.6506">Verify Email</text></g><!--entity Approval--><g class="entity" data-entity="Approval" data-source-line="127" data-uid="ent0031" id="entity_Approval"><ellipse cx="448.5486" cy="4576.487" fill="#F1F1F1" rx="65.7361" ry="24.1433" style="stroke:#181818;stroke-width:0.7813;"/><text fill="#000000" font-family="sans-serif" font-size="21.875" lengthAdjust="spacing" textLength="86.3358" x="405.3807" y="4584.7756">Approval</text></g><!--entity Replace/Delete File--><g class="entity" data-entity="Replace.Delete File" data-source-line="128" data-uid="ent0032" id="entity_Replace.Delete File"><ellipse cx="448.1194" cy="2701.6551" fill="#F1F1F1" rx="122.3382" ry="28.2176" style="stroke:#181818;stroke-width:0.7813;"/><text fill="#000000" font-family="sans-serif" font-size="21.875" lengthAdjust="spacing" textLength="190.8936" x="352.6727" y="2709.9437">Replace/Delete File</text></g><!--entity Validate File--><g class="entity" data-entity="Validate File" data-source-line="129" data-uid="ent0033" id="entity_Validate File"><ellipse cx="448.4004" cy="2879.612" fill="#F1F1F1" rx="89.8066" ry="24.1433" style="stroke:#181818;stroke-width:0.7813;"/><text fill="#000000" font-family="sans-serif" font-size="21.875" lengthAdjust="spacing" textLength="120.3766" x="388.2121" y="2887.9006">Validate File</text></g><!--entity Confirm Schedule--><g class="entity" data-entity="Confirm Schedule" data-source-line="130" data-uid="ent0034" id="entity_Confirm Schedule"><ellipse cx="448.3562" cy="4753.4212" fill="#F1F1F1" rx="115.5437" ry="26.8587" style="stroke:#181818;stroke-width:0.7813;"/><text fill="#000000" font-family="sans-serif" font-size="21.875" lengthAdjust="spacing" textLength="173.8678" x="361.4223" y="4761.7098">Confirm Schedule</text></g><!--entity Update Schedule--><g class="entity" data-entity="Update Schedule" data-source-line="131" data-uid="ent0035" id="entity_Update Schedule"><ellipse cx="448.3499" cy="3056.0762" fill="#F1F1F1" rx="113.1936" ry="26.3887" style="stroke:#181818;stroke-width:0.7813;"/><text fill="#000000" font-family="sans-serif" font-size="21.875" lengthAdjust="spacing" textLength="167.8329" x="364.4334" y="3064.3648">Update Schedule</text></g><!--entity Process Transaction--><g class="entity" data-entity="Process Transaction" data-source-line="132" data-uid="ent0036" id="entity_Process Transaction"><ellipse cx="448.4644" cy="4934.3804" fill="#F1F1F1" rx="125.8081" ry="28.9116" style="stroke:#181818;stroke-width:0.7813;"/><text fill="#000000" font-family="sans-serif" font-size="21.875" lengthAdjust="spacing" textLength="199.3851" x="348.7718" y="4942.6689">Process Transaction</text></g><!--entity Apply Discount--><g class="entity" data-entity="Apply Discount" data-source-line="133" data-uid="ent0037" id="entity_Apply Discount"><ellipse cx="448.7053" cy="5113.8036" fill="#F1F1F1" rx="104.9553" ry="24.7411" style="stroke:#181818;stroke-width:0.7813;"/><text fill="#000000" font-family="sans-serif" font-size="21.875" lengthAdjust="spacing" textLength="145.9045" x="375.753" y="5122.0921">Apply Discount</text></g><!--entity Teacher--><g class="entity" data-entity="Teacher" data-source-line="91" data-uid="ent0002" id="entity_Teacher"><ellipse cx="49.4987" cy="582.0313" fill="#F1F1F1" rx="12.5" ry="12.5" style="stroke:#181818;stroke-width:0.7813;"/><path d="M49.4987,594.5313 L49.4987,636.7188 M29.1862,607.0313 L69.8112,607.0313 M49.4987,636.7188 L29.1862,660.1563 M49.4987,636.7188 L69.8112,660.1563" fill="none" style="stroke:#181818;stroke-width:0.7813;"/><text fill="#000000" font-family="sans-serif" font-size="21.875" lengthAdjust="spacing" textLength="80.2475" x="9.375" y="685.2081">Teacher</text></g><!--entity Student--><g class="entity" data-entity="Student" data-source-line="92" data-uid="ent0003" id="entity_Student"><ellipse cx="49.4232" cy="2294.5313" fill="#F1F1F1" rx="12.5" ry="12.5" style="stroke:#181818;stroke-width:0.7813;"/><path d="M49.4232,2307.0313 L49.4232,2349.2188 M29.1107,2319.5313 L69.7357,2319.5313 M49.4232,2349.2188 L29.1107,2372.6563 M49.4232,2349.2188 L69.7357,2372.6563" fill="none" style="stroke:#181818;stroke-width:0.7813;"/><text fill="#000000" font-family="sans-serif" font-size="21.875" lengthAdjust="spacing" textLength="75.4089" x="11.7188" y="2397.7081">Student</text></g><!--entity Admin--><g class="entity" data-entity="Admin" data-source-line="93" data-uid="ent0004" id="entity_Admin"><ellipse cx="48.9708" cy="4592.9688" fill="#F1F1F1" rx="12.5" ry="12.5" style="stroke:#181818;stroke-width:0.7813;"/><path d="M48.9708,4605.4688 L48.9708,4647.6563 M28.6583,4617.9688 L69.2833,4617.9688 M48.9708,4647.6563 L28.6583,4671.0938 M48.9708,4647.6563 L69.2833,4671.0938" fill="none" style="stroke:#181818;stroke-width:0.7813;"/><text fill="#000000" font-family="sans-serif" font-size="21.875" lengthAdjust="spacing" textLength="62.0041" x="17.9688" y="4696.1456">Admin</text></g><!--entity Bank--><g class="entity" data-entity="Bank" data-source-line="94" data-uid="ent0005" id="entity_Bank"><ellipse cx="49.1486" cy="4886.7188" fill="#F1F1F1" rx="12.5" ry="12.5" style="stroke:#181818;stroke-width:0.7813;"/><path d="M49.1486,4899.2188 L49.1486,4941.4063 M28.8361,4911.7188 L69.4611,4911.7188 M49.1486,4941.4063 L28.8361,4964.8438 M49.1486,4941.4063 L69.4611,4964.8438" fill="none" style="stroke:#181818;stroke-width:0.7813;"/><text fill="#000000" font-family="sans-serif" font-size="21.875" lengthAdjust="spacing" textLength="49.8596" x="24.2188" y="4989.8956">Bank</text></g><g class="entity" data-entity="GMN69" data-source-line="177" data-uid="ent0070" id="entity_GMN69"><path d="M720.3125,1207.8125 L720.3125,1221.875 L557.875,1228.125 L720.3125,1234.375 L720.3125,1248.9868 A0,0 0 0 0 720.3125,1248.9868 L1315.21,1248.9868 A0,0 0 0 0 1315.21,1248.9868 L1315.21,1223.4375 L1299.585,1207.8125 L720.3125,1207.8125 A0,0 0 0 0 720.3125,1207.8125" fill="#FEFFDD" style="stroke:#181818;stroke-width:0.7813;"/><path d="M1299.585,1207.8125 L1299.585,1223.4375 L1315.21,1223.4375 L1299.585,1207.8125" fill="#FEFFDD" style="stroke:#181818;stroke-width:0.7813;"/><text fill="#000000" font-family="sans-serif" font-size="20.3125" lengthAdjust="spacing" textLength="562.085" x="729.6875" y="1236.7111">Bank processes transactions; 'Process Transaction' is external</text></g><!--link Subscribe to Courses to Make Payments--><g class="link" data-entity-1="Subscribe to Courses" data-entity-2="Make Payments" data-source-line="137" data-uid="lnk38" id="link_Subscribe to Courses_Make Payments"><path d="M380.875,1933.7812 C335.5,1913.7656 277,1882.0781 237.5,1839.0625 C196.0938,1793.9844 192.8438,1773.8438 179.6875,1714.0625 C164.7656,1646.2344 78.0938,1518.4063 237.5,1315.625 C267.5156,1277.4375 308.083,1258.2983 351.6298,1246.0796" fill="none" id="Subscribe to Courses-to-Make Payments" style="stroke:#181818;stroke-width:1.5625;stroke-dasharray:10.9375,10.9375;"/><polygon fill="#181818" points="360.6563,1243.5469,345.4282,1241.3283,353.1342,1245.6575,348.8051,1253.3635,360.6563,1243.5469" style="stroke:#181818;stroke-width:1.5625;"/><text fill="#000000" font-family="sans-serif" font-size="20.3125" lengthAdjust="spacing" textLength="86.9629" x="137.5" y="1708.5861">&#171;include&#187;</text></g><!--link Make Payments to Process Transaction--><g class="link" data-entity-1="Make Payments" data-entity-2="Process Transaction" data-source-line="138" data-uid="lnk39" id="link_Make Payments_Process Transaction"><path d="M356.9375,1242.4375 C313.2031,1254.3281 264.5938,1276.0469 237.5,1315.625 C78.6719,1547.6094 171.5469,3564.2813 179.6875,3845.3125 C186.1094,4067.125 110.6875,4660.0938 237.5,4842.1875 C263.875,4880.0625 300.4497,4899.7116 342.4653,4912.9616" fill="none" id="Make Payments-to-Process Transaction" style="stroke:#181818;stroke-width:1.5625;stroke-dasharray:10.9375,10.9375;"/><polygon fill="#181818" points="351.4063,4915.7813,339.8746,4905.5912,343.9555,4913.4316,336.1151,4917.5125,351.4063,4915.7813" style="stroke:#181818;stroke-width:1.5625;"/><text fill="#000000" font-family="sans-serif" font-size="20.3125" lengthAdjust="spacing" textLength="86.9629" x="137.5" y="3839.8361">&#171;include&#187;</text></g><!--link Subscribe to Courses to Choose Slot--><g class="link" data-entity-1="Subscribe to Courses" data-entity-2="Choose Slot" data-source-line="139" data-uid="lnk40" id="link_Subscribe to Courses_Choose Slot"><path d="M448.4375,1929.3906 C448.4375,1888.2656 448.4375,1824.5781 448.4375,1786.7344" fill="none" id="Subscribe to Courses-to-Choose Slot" style="stroke:#181818;stroke-width:1.5625;stroke-dasharray:10.9375,10.9375;"/><polygon fill="#181818" points="448.4375,1777.3594,442.1875,1791.4219,448.4375,1785.1719,454.6875,1791.4219,448.4375,1777.3594" style="stroke:#181818;stroke-width:1.5625;"/><text fill="#000000" font-family="sans-serif" font-size="20.3125" lengthAdjust="spacing" textLength="86.9629" x="386.7188" y="1862.1017">&#171;include&#187;</text></g><!--link Attend Lessons to Report Problem--><g class="link" data-entity-1="Attend Lessons" data-entity-2="Report Problem" data-source-line="140" data-uid="lnk41" id="link_Attend Lessons_Report Problem"><path d="M448.4375,2316.875 C448.4375,2277.9531 448.4375,2213.1875 448.4375,2174.0781" fill="none" id="Attend Lessons-to-Report Problem" style="stroke:#181818;stroke-width:1.5625;stroke-dasharray:10.9375,10.9375;"/><polygon fill="#181818" points="448.4375,2164.7031,442.1875,2178.7656,448.4375,2172.5156,454.6875,2178.7656,448.4375,2164.7031" style="stroke:#181818;stroke-width:1.5625;"/><text fill="#000000" font-family="sans-serif" font-size="20.3125" lengthAdjust="spacing" textLength="83.5808" x="388.2813" y="2249.2111">&#171;extend&#187;</text></g><!--link Reschedule Lesson to Check Availability--><g class="link" data-entity-1="Reschedule Lesson" data-entity-2="Check Availability" data-source-line="141" data-uid="lnk42" id="link_Reschedule Lesson_Check Availability"><path d="M367.3438,2541.4844 C321.5781,2557.8281 267.6406,2585.3438 237.5,2629.6875 C95.0469,2839.25 192.5469,2943.8125 179.6875,3196.875 C179.0469,3209.3594 176.4063,3212.9375 179.6875,3225 C193,3273.9531 201.2031,3288 237.5,3323.4375 C281.1094,3366.0156 334.6946,3394.3197 380.2415,3414.0541" fill="none" id="Reschedule Lesson-to-Check Availability" style="stroke:#181818;stroke-width:1.5625;stroke-dasharray:10.9375,10.9375;"/><polygon fill="#181818" points="388.8438,3417.7813,378.4251,3406.4557,381.6752,3414.6753,373.4556,3417.9254,388.8438,3417.7813" style="stroke:#181818;stroke-width:1.5625;"/><text fill="#000000" font-family="sans-serif" font-size="20.3125" lengthAdjust="spacing" textLength="86.9629" x="137.5" y="3219.5236">&#171;include&#187;</text></g><!--link Check Availability to Send Notification--><g class="link" data-entity-1="Check Availability" data-entity-2="Send Notification" data-source-line="142" data-uid="lnk43" id="link_Check Availability_Send Notification"><path d="M448.4375,3413.6562 C448.4375,3374.1406 448.4375,3310.25 448.4375,3270.7188" fill="none" id="Check Availability-to-Send Notification" style="stroke:#181818;stroke-width:1.5625;stroke-dasharray:10.9375,10.9375;"/><polygon fill="#181818" points="448.4375,3261.3438,442.1875,3275.4063,448.4375,3269.1563,454.6875,3275.4063,448.4375,3261.3438" style="stroke:#181818;stroke-width:1.5625;"/><text fill="#000000" font-family="sans-serif" font-size="20.3125" lengthAdjust="spacing" textLength="86.9629" x="386.7188" y="3346.0861">&#171;include&#187;</text></g><!--link Login to Authenticate User--><g class="link" data-entity-1="Login" data-entity-2="Authenticate User" data-source-line="143" data-uid="lnk44" id="link_Login_Authenticate User"><path d="M448.4375,3975.5 C448.4375,3937.2969 448.4375,3873.2031 448.4375,3833.4219" fill="none" id="Login-to-Authenticate User" style="stroke:#181818;stroke-width:1.5625;stroke-dasharray:10.9375,10.9375;"/><polygon fill="#181818" points="448.4375,3824.0469,442.1875,3838.1094,448.4375,3831.8594,454.6875,3838.1094,448.4375,3824.0469" style="stroke:#181818;stroke-width:1.5625;"/><text fill="#000000" font-family="sans-serif" font-size="20.3125" lengthAdjust="spacing" textLength="86.9629" x="386.7188" y="3908.1955">&#171;include&#187;</text></g><!--link Login to Reset Password--><g class="link" data-entity-1="Login" data-entity-2="Reset Password" data-source-line="144" data-uid="lnk45" id="link_Login_Reset Password"><path d="M410.25,3989.2656 C362.8906,3974.0313 282.9063,3941.5781 237.5,3885.9375 C175.3125,3809.7188 118.8438,3747.9063 181.25,3671.875 C219.8125,3624.8906 277.597,3611.9483 334.9407,3610.4483" fill="none" id="Login-to-Reset Password" style="stroke:#181818;stroke-width:1.5625;stroke-dasharray:10.9375,10.9375;"/><polygon fill="#181818" points="344.3125,3610.2031,330.0914,3604.323,336.5027,3610.4074,330.4182,3616.8187,344.3125,3610.2031" style="stroke:#181818;stroke-width:1.5625;"/><text fill="#000000" font-family="sans-serif" font-size="20.3125" lengthAdjust="spacing" textLength="83.5808" x="139.0625" y="3694.5236">&#171;extend&#187;</text></g><!--link Create Account to Verify Email--><g class="link" data-entity-1="Create Account" data-entity-2="Verify Email" data-source-line="145" data-uid="lnk46" id="link_Create Account_Verify Email"><path d="M448.4375,4349.875 C448.4375,4311.0469 448.4375,4246.2656 448.4375,4207.6094" fill="none" id="Create Account-to-Verify Email" style="stroke:#181818;stroke-width:1.5625;stroke-dasharray:10.9375,10.9375;"/><polygon fill="#181818" points="448.4375,4198.2344,442.1875,4212.2969,448.4375,4206.0469,454.6875,4212.2969,448.4375,4198.2344" style="stroke:#181818;stroke-width:1.5625;"/><text fill="#000000" font-family="sans-serif" font-size="20.3125" lengthAdjust="spacing" textLength="86.9629" x="386.7188" y="4282.4142">&#171;include&#187;</text></g><!--link Create Account to Approval--><g class="link" data-entity-1="Create Account" data-entity-2="Approval" data-source-line="146" data-uid="lnk47" id="link_Create Account_Approval"><path d="M448.4375,4400.0313 C448.4375,4439.0156 448.4375,4504.3438 448.4375,4542.875" fill="none" id="Create Account-to-Approval" style="stroke:#181818;stroke-width:1.5625;stroke-dasharray:10.9375,10.9375;"/><polygon fill="#181818" points="448.4375,4552.25,454.6875,4538.1875,448.4375,4544.4375,442.1875,4538.1875,448.4375,4552.25" style="stroke:#181818;stroke-width:1.5625;"/><text fill="#000000" font-family="sans-serif" font-size="20.3125" lengthAdjust="spacing" textLength="83.5808" x="388.2813" y="4484.758">&#171;extend&#187;</text></g><!--link Conduct Lesson to Upload Recording--><g class="link" data-entity-1="Conduct Lesson" data-entity-2="Upload Recording" data-source-line="147" data-uid="lnk48" id="link_Conduct Lesson_Upload Recording"><path d="M338.7813,530.8125 C282.2656,524.2656 217.7031,505.6406 181.25,457.8125 C161.5625,431.9844 148.2656,352.8125 237.5,254.6875 C270.3438,218.5625 311.116,199.0675 354.0222,185.63" fill="none" id="Conduct Lesson-to-Upload Recording" style="stroke:#181818;stroke-width:1.5625;stroke-dasharray:10.9375,10.9375;"/><polygon fill="#181818" points="362.9688,182.8281,347.6811,181.0666,355.5133,185.163,351.4169,192.9953,362.9688,182.8281" style="stroke:#181818;stroke-width:1.5625;"/><text fill="#000000" font-family="sans-serif" font-size="20.3125" lengthAdjust="spacing" textLength="83.5808" x="139.0625" y="452.3361">&#171;extend&#187;</text></g><!--link Upload PDFs & Videos to Replace/Delete File--><g class="link" data-entity-1="Upload PDFs . Videos" data-entity-2="Replace.Delete File" data-source-line="148" data-uid="lnk49" id="link_Upload PDFs . Videos_Replace.Delete File"><path d="M346.2969,369.2813 C305.6563,383 262.6563,405.5 237.5,442.1875 C91.0469,655.7812 173.875,1347.375 181.25,1606.25 C187.5,1825.6094 118.2031,2407.9844 237.5,2592.1875 C266.5469,2637.0313 311.3311,2661.365 357.2529,2677.5681" fill="none" id="Upload PDFs &amp; Videos-to-Replace/Delete File" style="stroke:#181818;stroke-width:1.5625;stroke-dasharray:10.9375,10.9375;"/><polygon fill="#181818" points="366.0938,2680.6875,354.9121,2670.1145,358.7264,2678.088,350.7529,2681.9023,366.0938,2680.6875" style="stroke:#181818;stroke-width:1.5625;"/><text fill="#000000" font-family="sans-serif" font-size="20.3125" lengthAdjust="spacing" textLength="83.5808" x="139.0625" y="1600.7736">&#171;extend&#187;</text></g><!--link Upload PDFs & Videos to Validate File--><g class="link" data-entity-1="Upload PDFs . Videos" data-entity-2="Validate File" data-source-line="149" data-uid="lnk50" id="link_Upload PDFs . Videos_Validate File"><path d="M346.2813,369.2813 C305.6563,383 262.6563,405.5 237.5,442.1875 C86.5469,662.3906 172.9844,1375.2969 179.6875,1642.1875 C186.1094,1897.9844 90.0938,2583.0313 237.5,2792.1875 C267.6406,2834.9688 313.6687,2854.6878 360.0125,2865.8909" fill="none" id="Upload PDFs &amp; Videos-to-Validate File" style="stroke:#181818;stroke-width:1.5625;stroke-dasharray:10.9375,10.9375;"/><polygon fill="#181818" points="369.125,2868.0938,356.9248,2858.7144,361.5312,2866.258,353.9876,2870.8645,369.125,2868.0938" style="stroke:#181818;stroke-width:1.5625;"/><text fill="#000000" font-family="sans-serif" font-size="20.3125" lengthAdjust="spacing" textLength="86.9629" x="137.5" y="1636.7111">&#171;include&#187;</text></g><!--link Set Schedule to Confirm Schedule--><g class="link" data-entity-1="Set Schedule" data-entity-2="Confirm Schedule" data-source-line="150" data-uid="lnk51" id="link_Set Schedule_Confirm Schedule"><path d="M364.1719,718.2344 C318.8125,729.375 266.375,750.8594 237.5,792.1875 C134.0313,940.2969 182.9063,2236.5469 179.6875,2417.1875 C175.25,2666.7031 97.5,4455.9063 237.5,4662.5 C264.3281,4702.0938 303.3558,4721.8717 346.8089,4734.4811" fill="none" id="Set Schedule-to-Confirm Schedule" style="stroke:#181818;stroke-width:1.5625;stroke-dasharray:10.9375,10.9375;"/><polygon fill="#181818" points="355.8125,4737.0938,344.0489,4727.1723,348.3095,4734.9165,340.5653,4739.1771,355.8125,4737.0938" style="stroke:#181818;stroke-width:1.5625;"/><text fill="#000000" font-family="sans-serif" font-size="20.3125" lengthAdjust="spacing" textLength="86.9629" x="137.5" y="2439.8361">&#171;include&#187;</text></g><!--link Set Schedule to Update Schedule--><g class="link" data-entity-1="Set Schedule" data-entity-2="Update Schedule" data-source-line="151" data-uid="lnk52" id="link_Set Schedule_Update Schedule"><path d="M364.3906,718.375 C319.0938,729.5781 266.6563,751.0469 237.5,792.1875 C86.5625,1005.1875 173.9219,1704.6719 181.25,1965.625 C187.5,2188.1094 109.8906,2783.2656 237.5,2965.625 C265.1563,3005.1406 304.7769,3024.9369 348.3863,3037.5775" fill="none" id="Set Schedule-to-Update Schedule" style="stroke:#181818;stroke-width:1.5625;stroke-dasharray:10.9375,10.9375;"/><polygon fill="#181818" points="357.3906,3040.1875,345.6241,3030.2696,349.887,3038.0125,342.1441,3042.2754,357.3906,3040.1875" style="stroke:#181818;stroke-width:1.5625;"/><text fill="#000000" font-family="sans-serif" font-size="20.3125" lengthAdjust="spacing" textLength="83.5808" x="139.0625" y="1960.1486">&#171;extend&#187;</text></g><!--link Student to Subscribe to Courses--><g class="link" data-entity-1="Student" data-entity-2="Subscribe to Courses" data-source-line="156" data-uid="lnk53" id="link_Student_Subscribe to Courses"><path d="M62.125,2280.9375 C73.7969,2231.5469 96.0625,2162.5469 135.9375,2114.0625 C193.1875,2044.4375 280.6659,2006.1866 350.994,1984.0772" fill="none" id="Student-to-Subscribe to Courses" style="stroke:#181818;stroke-width:1.5625;"/><polygon fill="#181818" points="359.9375,1981.2656,344.6479,1979.5207,352.4846,1983.6086,348.3967,1991.4453,359.9375,1981.2656" style="stroke:#181818;stroke-width:1.5625;"/></g><!--link Student to Attend Lessons--><g class="link" data-entity-1="Student" data-entity-2="Attend Lessons" data-source-line="157" data-uid="lnk54" id="link_Student_Attend Lessons"><path d="M87.3281,2342.1875 C144.5,2342.1875 247.8438,2342.1875 331.9063,2342.1875" fill="none" id="Student-to-Attend Lessons" style="stroke:#181818;stroke-width:1.5625;"/><polygon fill="#181818" points="341.2813,2342.1875,327.2188,2335.9375,333.4688,2342.1875,327.2188,2348.4375,341.2813,2342.1875" style="stroke:#181818;stroke-width:1.5625;"/></g><!--link Student to Reschedule Lesson--><g class="link" data-entity-1="Student" data-entity-2="Reschedule Lesson" data-source-line="158" data-uid="lnk55" id="link_Student_Reschedule Lesson"><path d="M86.9063,2401.2188 C100.2969,2418.7656 116.9219,2436.4844 135.9375,2448.4375 C194.3438,2485.1406 260.203,2501.8347 321.9842,2510.6316" fill="none" id="Student-to-Reschedule Lesson" style="stroke:#181818;stroke-width:1.5625;"/><polygon fill="#181818" points="331.2656,2511.9531,318.2246,2503.7832,323.5311,2510.8518,316.4625,2516.1584,331.2656,2511.9531" style="stroke:#181818;stroke-width:1.5625;"/></g><!--link Student to Login--><g class="link" data-entity-1="Student" data-entity-2="Login" data-source-line="159" data-uid="lnk56" id="link_Student_Login"><path d="M50.3438,2403.3438 C48.9063,2673.9219 48.7188,3755.4688 135.9375,3876.5625 C199.75,3965.1719 328.2052,3989.2463 396.8927,3996.2932" fill="none" id="Student-to-Login" style="stroke:#181818;stroke-width:1.5625;"/><polygon fill="#181818" points="406.2188,3997.25,392.8675,3989.5974,398.447,3996.4527,391.5918,4002.0322,406.2188,3997.25" style="stroke:#181818;stroke-width:1.5625;"/></g><!--link Student to Create Account--><g class="link" data-entity-1="Student" data-entity-2="Create Account" data-source-line="160" data-uid="lnk57" id="link_Student_Create Account"><path d="M51.5781,2403.3438 C55.3281,2661.9688 73.6719,3666.8437 135.9375,3976.5625 C162.2656,4107.5 150.9063,4157.7031 237.5,4259.375 C276.6719,4305.375 330.226,4333.013 376.6947,4351.2473" fill="none" id="Student-to-Create Account" style="stroke:#181818;stroke-width:1.5625;"/><polygon fill="#181818" points="385.4219,4354.6719,374.6142,4343.717,378.1493,4351.8181,370.0481,4355.3532,385.4219,4354.6719" style="stroke:#181818;stroke-width:1.5625;"/></g><!--link Student to Join Lesson--><g class="link" data-entity-1="Student" data-entity-2="Join Lesson" data-source-line="161" data-uid="lnk58" id="link_Student_Join Lesson"><path d="M51.8125,2281.0469 C55.4063,2121.8594 71,1698.4219 135.9375,1576.5625 C184.7813,1484.9219 294.382,1441.3434 370.1788,1420.5153" fill="none" id="Student-to-Join Lesson" style="stroke:#181818;stroke-width:1.5625;"/><polygon fill="#181818" points="379.2188,1418.0313,364.0028,1415.7307,371.6855,1420.1013,367.3149,1427.784,379.2188,1418.0313" style="stroke:#181818;stroke-width:1.5625;"/></g><!--link Student to View Recording--><g class="link" data-entity-1="Student" data-entity-2="View Recording" data-source-line="162" data-uid="lnk59" id="link_Student_View Recording"><path d="M55.1562,2280.9063 C63.0469,2192.875 83.9688,2026.7813 135.9375,1895.3125 C163.1406,1826.5156 199.5,1824.125 225,1754.6875 C238.7813,1717.1719 213.0781,1697.2656 237.5,1665.625 C267.3438,1626.9531 308.3738,1607.7297 352.0457,1595.5891" fill="none" id="Student-to-View Recording" style="stroke:#181818;stroke-width:1.5625;"/><polygon fill="#181818" points="361.0781,1593.0781,345.8554,1590.823,353.5511,1595.1706,349.2034,1602.8663,361.0781,1593.0781" style="stroke:#181818;stroke-width:1.5625;"/></g><!--link Teacher to Create Lesson--><g class="link" data-entity-1="Teacher" data-entity-2="Create Lesson" data-source-line="164" data-uid="lnk60" id="link_Teacher_Create Lesson"><path d="M89.3125,669.8906 C125.1406,705.5469 181.2969,757.2656 237.5,792.1875 C284.5156,821.4062 334.145,841.7829 377.3481,857.0485" fill="none" id="Teacher-to-Create Lesson" style="stroke:#181818;stroke-width:1.5625;"/><polygon fill="#181818" points="386.1875,860.1719,375.0106,849.5939,378.8213,857.5691,370.8461,861.3798,386.1875,860.1719" style="stroke:#181818;stroke-width:1.5625;"/></g><!--link Teacher to Start Lesson--><g class="link" data-entity-1="Teacher" data-entity-2="Start Lesson" data-source-line="165" data-uid="lnk61" id="link_Teacher_Start Lesson"><path d="M69.2656,690.9219 C95.0313,766.1406 148.8438,892.7344 237.5,965.625 C279.5,1000.1562 328.1045,1020.1099 372.2452,1033.7349" fill="none" id="Teacher-to-Start Lesson" style="stroke:#181818;stroke-width:1.5625;"/><polygon fill="#181818" points="381.2031,1036.5,369.6096,1026.3804,373.7382,1034.1958,365.9228,1038.3244,381.2031,1036.5" style="stroke:#181818;stroke-width:1.5625;"/></g><!--link Teacher to Conduct Lesson--><g class="link" data-entity-1="Teacher" data-entity-2="Conduct Lesson" data-source-line="166" data-uid="lnk62" id="link_Teacher_Conduct Lesson"><path d="M89.4844,620.0625 C154.6875,603.8594 278.4802,573.106 362.5583,552.1997" fill="none" id="Teacher-to-Conduct Lesson" style="stroke:#181818;stroke-width:1.5625;"/><polygon fill="#181818" points="371.6563,549.9375,356.5012,547.2655,364.0746,551.8227,359.5175,559.3962,371.6563,549.9375" style="stroke:#181818;stroke-width:1.5625;"/></g><!--link Teacher to Upload PDFs & Videos--><g class="link" data-entity-1="Teacher" data-entity-2="Upload PDFs . Videos" data-source-line="167" data-uid="lnk63" id="link_Teacher_Upload PDFs . Videos"><path d="M60.3594,568.5156 C70.8906,521.6719 92.5,458.9687 135.9375,421.875 C184.8594,380.0781 244.0093,362.3713 304.2125,354.09" fill="none" id="Teacher-to-Upload PDFs &amp; Videos" style="stroke:#181818;stroke-width:1.5625;"/><polygon fill="#181818" points="313.5,352.8125,298.717,348.5371,305.7604,353.8771,300.4204,360.9205,313.5,352.8125" style="stroke:#181818;stroke-width:1.5625;"/></g><!--link Teacher to Set Schedule--><g class="link" data-entity-1="Teacher" data-entity-2="Set Schedule" data-source-line="168" data-uid="lnk64" id="link_Teacher_Set Schedule"><path d="M89.4844,637.1719 C154.5,649.7344 277.5768,673.5169 361.6862,689.7825" fill="none" id="Teacher-to-Set Schedule" style="stroke:#181818;stroke-width:1.5625;"/><polygon fill="#181818" points="370.8906,691.5625,358.2706,682.7562,363.2202,690.0792,355.8972,695.0288,370.8906,691.5625" style="stroke:#181818;stroke-width:1.5625;"/></g><!--link Teacher to Upload Recording--><g class="link" data-entity-1="Teacher" data-entity-2="Upload Recording" data-source-line="169" data-uid="lnk65" id="link_Teacher_Upload Recording"><path d="M52.0312,568.4219 C56.5469,497.5313 73.7656,380.8125 135.9375,304.6875 C191.5938,236.5469 278.2302,202.5252 348.8083,183.9627" fill="none" id="Teacher-to-Upload Recording" style="stroke:#181818;stroke-width:1.5625;"/><polygon fill="#181818" points="357.875,181.5781,342.6853,179.1106,350.3194,183.5653,345.8647,191.1995,357.875,181.5781" style="stroke:#181818;stroke-width:1.5625;"/></g><!--link Admin to Confirm Schedule--><g class="link" data-entity-1="Admin" data-entity-2="Confirm Schedule" data-source-line="171" data-uid="lnk66" id="link_Admin_Confirm Schedule"><path d="M80.5469,4649.0781 C142.4375,4666.6563 277.5131,4705.0162 365.4037,4729.9849" fill="none" id="Admin-to-Confirm Schedule" style="stroke:#181818;stroke-width:1.5625;"/><polygon fill="#181818" points="374.4219,4732.5469,362.6026,4722.6918,366.9068,4730.4119,359.1867,4734.716,374.4219,4732.5469" style="stroke:#181818;stroke-width:1.5625;"/></g><!--link Admin to Approval--><g class="link" data-entity-1="Admin" data-entity-2="Approval" data-source-line="172" data-uid="lnk67" id="link_Admin_Approval"><path d="M80.5469,4635.8125 C145.6875,4625.2813 292.589,4601.5121 378.4952,4587.6215" fill="none" id="Admin-to-Approval" style="stroke:#181818;stroke-width:1.5625;"/><polygon fill="#181818" points="387.75,4586.125,372.8702,4582.1998,380.0377,4587.372,374.8654,4594.5395,387.75,4586.125" style="stroke:#181818;stroke-width:1.5625;"/></g><!--link Bank to Process Transaction--><g class="link" data-entity-1="Bank" data-entity-2="Process Transaction" data-source-line="174" data-uid="lnk68" id="link_Bank_Process Transaction"><path d="M74.375,4934.375 C122.25,4934.375 224.4375,4934.375 313.0625,4934.375" fill="none" id="Bank-to-Process Transaction" style="stroke:#181818;stroke-width:1.5625;"/><polygon fill="#181818" points="322.4375,4934.375,308.375,4928.125,314.625,4934.375,308.375,4940.625,322.4375,4934.375" style="stroke:#181818;stroke-width:1.5625;"/></g><!--SRC=[ZLLDJnin43tZNp7Yq9G31GwLgXOXfG4E5QqY5hWxtabYnMklR2yqglhVwuzTOdkNYbjsPjvyFhy8N5km2ZJVR2tKN2EpN4bYTbosLDC6MifsT8ELtGi4xwPo8p09aAf6WoryEK-CTSlXudDgwGmoQd19wvhB3LoS4qAPLHeUaB8jwlwhibsDqlPVyxhXil_zdSeT8NqxS7npUeTKIv-hsXkBpJ7y8KVYZNd8qIkmhm2tGhsO03hwM7KhmpHVeSSkLASDcXFl-4bt24kwRnmYMXPRfGn29PGDttDhKTPmXyOe6KFkiLNQmbAhbS2cDnatPDsv7SR8OFsXk4o_dpY-m3qofVsEdEblsdY_gApnXKPgivoLfQvsObWeMNSiCpssGj4QbjUt1Zx04wzHcTIHjk0oeeMgxxxiAQuUpkAbXgQso7OmVwPSq1KNtExxF6vFlvJbQywelqhSNsUtRhdUXF1eK0VhdTfmEMpErLzIOrvSJoV9q7F6L2VZ5PvGy_KURXfNCwPjMwsUgHWE8YZ3isiKw82tF0pYK5JmcgOMjwmrrqqwhzzA2CfixhZCBHGUD9M6iiCuRIlsSCtDq9jVrynjL8IHpPQtXhn1EFXq1GNZu2jSNdB9XEFirHKf2HaGKwsCS6yNJ0azWXNi3e22tW63ltrSW8oftfSPaM9KRIh6OyVC6K4ZOKBqc57_YoxuLKvJS2r0ChADXvX0lB9nb3v_d25uz0XBqEJp7Kup8lhxqVbp65CerO5uq_Arl0DJFgQyFUAUoypjpWk-EubYF3uRCgZswQddmwHSPo6bB6VE2JNE_BtwPBPIT39d9kIPfvHqCgXucdH0PhvSo7DO8UcPSrhSyzIPea-Xquw3jByMBkGnSHuab_Z_wcYSr4aYbPiw_aUhDOp-PGEyZKWqO0zOymrc4obdm0ru4cb91V67znN8Fm00]--></g></svg>