<svg xmlns="http://www.w3.org/2000/svg" xmlns:xlink="http://www.w3.org/1999/xlink" contentStyleType="text/css" data-diagram-type="DESCRIPTION" height="318px" preserveAspectRatio="none" style="width:297px;height:318px;background:#FFFFFF;" version="1.1" viewBox="0 0 297 318" width="297px" zoomAndPan="magnify"><defs/><g><!--entity Teacher--><g class="entity" data-entity="Teacher" data-source-line="4" data-uid="ent0002" id="entity_Teacher"><ellipse cx="31.6792" cy="191" fill="#F1F1F1" rx="8" ry="8" style="stroke:#181818;stroke-width:0.5;"/><path d="M31.6792,199 L31.6792,226 M18.6792,207 L44.6792,207 M31.6792,226 L18.6792,241 M31.6792,226 L44.6792,241" fill="none" style="stroke:#181818;stroke-width:0.5;"/><text fill="#000000" font-family="sans-serif" font-size="14" lengthAdjust="spacing" textLength="51.3584" x="6" y="257.0332">Teacher</text></g><!--entity Student--><g class="entity" data-entity="Student" data-source-line="5" data-uid="ent0003" id="entity_Student"><ellipse cx="31.6309" cy="25" fill="#F1F1F1" rx="8" ry="8" style="stroke:#181818;stroke-width:0.5;"/><path d="M31.6309,33 L31.6309,60 M18.6309,41 L44.6309,41 M31.6309,60 L18.6309,75 M31.6309,60 L44.6309,75" fill="none" style="stroke:#181818;stroke-width:0.5;"/><text fill="#000000" font-family="sans-serif" font-size="14" lengthAdjust="spacing" textLength="48.2617" x="7.5" y="91.0332">Student</text></g><!--entity Create Lesson--><g class="entity" data-entity="Create Lesson" data-source-line="7" data-uid="ent0004" id="entity_Create Lesson"><ellipse cx="204.3309" cy="155.6662" fill="#F1F1F1" rx="66.3309" ry="15.6662" style="stroke:#181818;stroke-width:0.5;"/><text fill="#000000" font-family="sans-serif" font-size="14" lengthAdjust="spacing" textLength="91.0547" x="158.8035" y="160.9709">Create Lesson</text></g><!--entity Start Lesson--><g class="entity" data-entity="Start Lesson" data-source-line="8" data-uid="ent0006" id="entity_Start Lesson"><ellipse cx="204.5783" cy="221.4517" fill="#F1F1F1" rx="58.5783" ry="15.4517" style="stroke:#181818;stroke-width:0.5;"/><text fill="#000000" font-family="sans-serif" font-size="14" lengthAdjust="spacing" textLength="78.5996" x="165.2785" y="226.7564">Start Lesson</text></g><!--entity Schedule / Reschedule--><g class="entity" data-entity="Schedule . Reschedule" data-source-line="9" data-uid="ent0008" id="entity_Schedule . Reschedule"><ellipse cx="204.3861" cy="292.3772" fill="#F1F1F1" rx="87.3861" ry="19.8772" style="stroke:#181818;stroke-width:0.5;"/><text fill="#000000" font-family="sans-serif" font-size="14" lengthAdjust="spacing" textLength="143.9854" x="132.3934" y="297.6819">Schedule / Reschedule</text></g><!--entity Join Lesson--><g class="entity" data-entity="Join Lesson" data-source-line="10" data-uid="ent0010" id="entity_Join Lesson"><ellipse cx="204.3328" cy="21.4517" fill="#F1F1F1" rx="55.8328" ry="15.4517" style="stroke:#181818;stroke-width:0.5;"/><text fill="#000000" font-family="sans-serif" font-size="14" lengthAdjust="spacing" textLength="74.7168" x="166.9744" y="26.7564">Join Lesson</text></g><!--entity View Recording--><g class="entity" data-entity="View Recording" data-source-line="11" data-uid="ent0012" id="entity_View Recording"><ellipse cx="204.3894" cy="88.6779" fill="#F1F1F1" rx="68.8894" ry="16.1779" style="stroke:#181818;stroke-width:0.5;"/><text fill="#000000" font-family="sans-serif" font-size="14" lengthAdjust="spacing" textLength="98.0479" x="155.3654" y="93.9826">View Recording</text></g><!--link Teacher to Create Lesson--><g class="link" data-entity-1="Teacher" data-entity-2="Create Lesson" data-source-line="7" data-uid="lnk5" id="link_Teacher_Create Lesson"><path d="M57.25,211.77 C74.09,205.17 96.87,196.27 117,188.5 C134.09,181.9 147.5126,176.7746 163.3526,170.7446" fill="none" id="Teacher-to-Create Lesson" style="stroke:#181818;stroke-width:1;"/><polygon fill="#181818" points="168.96,168.61,159.1258,168.0737,164.2871,170.3889,161.972,175.5503,168.96,168.61" style="stroke:#181818;stroke-width:1;"/></g><!--link Teacher to Start Lesson--><g class="link" data-entity-1="Teacher" data-entity-2="Start Lesson" data-source-line="8" data-uid="lnk7" id="link_Teacher_Start Lesson"><path d="M57,221.5 C80.09,221.5 109.56,221.5 139.81,221.5" fill="none" id="Teacher-to-Start Lesson" style="stroke:#181818;stroke-width:1;"/><polygon fill="#181818" points="145.81,221.5,136.81,217.5,140.81,221.5,136.81,225.5,145.81,221.5" style="stroke:#181818;stroke-width:1;"/></g><!--link Teacher to Schedule / Reschedule--><g class="link" data-entity-1="Teacher" data-entity-2="Schedule . Reschedule" data-source-line="9" data-uid="lnk9" id="link_Teacher_Schedule . Reschedule"><path d="M57,231.67 C84.15,242.95 122.8886,259.0293 155.6686,272.6393" fill="none" id="Teacher-to-Schedule / Reschedule" style="stroke:#181818;stroke-width:1;"/><polygon fill="#181818" points="161.21,274.94,154.4318,267.7947,156.5922,273.0227,151.3641,275.1831,161.21,274.94" style="stroke:#181818;stroke-width:1;"/></g><!--link Student to Join Lesson--><g class="link" data-entity-1="Student" data-entity-2="Join Lesson" data-source-line="10" data-uid="lnk11" id="link_Student_Join Lesson"><path d="M55.56,50.91 C81.82,45.69 119.4551,38.2095 152.5151,31.6395" fill="none" id="Student-to-Join Lesson" style="stroke:#181818;stroke-width:1;"/><polygon fill="#181818" points="158.4,30.47,148.793,28.301,153.4959,31.4446,150.3523,36.1475,158.4,30.47" style="stroke:#181818;stroke-width:1;"/></g><!--link Student to View Recording--><g class="link" data-entity-1="Student" data-entity-2="View Recording" data-source-line="11" data-uid="lnk13" id="link_Student_View Recording"><path d="M55.56,59.95 C79.9,64.65 113.1986,71.0734 145.1286,77.2334" fill="none" id="Student-to-View Recording" style="stroke:#181818;stroke-width:1;"/><polygon fill="#181818" points="151.02,78.37,142.9407,72.7376,146.1105,77.4229,141.4252,80.5927,151.02,78.37" style="stroke:#181818;stroke-width:1;"/></g><!--SRC=[TOsn3i8m34HtVuL7EbJy0GiROgA8tKfCQhKubUCAyVS44I5rOBkxTwUR-Uxe6KtIw1Z5EBXaXJA9BcJqm8N2H8a7VysC7qoQPWQWuDdmoXH6jkO6NoEh0xGO-_w0kwCnEUEPIydQRTdWPFu7LHdNUhh72vTcEcWVtyufY_xM6t8JVjPTo1P5KmTl]--></g></svg>