<svg xmlns="http://www.w3.org/2000/svg" xmlns:xlink="http://www.w3.org/1999/xlink" contentStyleType="text/css" data-diagram-type="DESCRIPTION" height="1031px" preserveAspectRatio="none" style="width:974px;height:1031px;background:#FFFFFF;" version="1.1" viewBox="0 0 974 1031" width="974px" zoomAndPan="magnify"><defs/><g><!--cluster E-Learning System--><g class="cluster" data-entity="E-Learning System" data-source-line="11" data-uid="ent0004" id="cluster_E-Learning System"><rect fill="none" height="924" rx="2.5" ry="2.5" style="stroke:#181818;stroke-width:1;" width="758" x="107.5" y="7"/><text fill="#000000" font-family="sans-serif" font-size="14" font-weight="bold" lengthAdjust="spacing" textLength="126.8135" x="423.0933" y="23.5332">E-Learning System</text></g><!--entity UC_Sub--><g class="entity" data-entity="UC_Sub" data-source-line="14" data-uid="ent0005" id="entity_UC_Sub"><ellipse cx="210.6025" cy="126.0205" fill="#F1F1F1" rx="83.1025" ry="19.0205" style="stroke:#181818;stroke-width:0.5;"/><text fill="#000000" font-family="sans-serif" font-size="14" lengthAdjust="spacing" textLength="133.8408" x="143.6821" y="131.3252">Subscribe to Courses</text></g><!--entity UC_Slot--><g class="entity" data-entity="UC_Slot" data-source-line="15" data-uid="ent0006" id="entity_UC_Slot"><ellipse cx="492.93" cy="58.9517" fill="#F1F1F1" rx="56.93" ry="15.4517" style="stroke:#181818;stroke-width:0.5;"/><text fill="#000000" font-family="sans-serif" font-size="14" lengthAdjust="spacing" textLength="76.2686" x="454.7957" y="64.2564">Choose Slot</text></g><!--entity UC_Pay--><g class="entity" data-entity="UC_Pay" data-source-line="16" data-uid="ent0007" id="entity_UC_Pay"><ellipse cx="492.7585" cy="125.8517" fill="#F1F1F1" rx="69.7585" ry="16.3517" style="stroke:#181818;stroke-width:0.5;"/><text fill="#000000" font-family="sans-serif" font-size="14" lengthAdjust="spacing" textLength="100.3721" x="442.5725" y="131.1564">Make Payments</text></g><!--entity UC_Proc--><g class="entity" data-entity="UC_Proc" data-source-line="17" data-uid="ent0008" id="entity_UC_Proc"><ellipse cx="769.0172" cy="159.0034" fill="#F1F1F1" rx="80.5172" ry="18.5034" style="stroke:#181818;stroke-width:0.5;"/><text fill="#000000" font-family="sans-serif" font-size="14" lengthAdjust="spacing" textLength="127.6064" x="705.214" y="164.3081">Process Transaction</text></g><!--entity UC_Disc--><g class="entity" data-entity="UC_Disc" data-source-line="18" data-uid="ent0009" id="entity_UC_Disc"><ellipse cx="769.1714" cy="88.8343" fill="#F1F1F1" rx="67.1714" ry="15.8343" style="stroke:#181818;stroke-width:0.5;"/><text fill="#000000" font-family="sans-serif" font-size="14" lengthAdjust="spacing" textLength="93.3789" x="722.4819" y="94.139">Apply Discount</text></g><!--entity UC_Attend--><g class="entity" data-entity="UC_Attend" data-source-line="21" data-uid="ent0010" id="entity_UC_Attend"><ellipse cx="210.3192" cy="211.0638" fill="#F1F1F1" rx="68.3192" ry="16.0638" style="stroke:#181818;stroke-width:0.5;"/><text fill="#000000" font-family="sans-serif" font-size="14" lengthAdjust="spacing" textLength="96.5098" x="162.0643" y="216.3685">Attend Lessons</text></g><!--entity UC_Prob--><g class="entity" data-entity="UC_Prob" data-source-line="22" data-uid="ent0011" id="entity_UC_Prob"><ellipse cx="492.8868" cy="194.1774" fill="#F1F1F1" rx="68.8868" ry="16.1774" style="stroke:#181818;stroke-width:0.5;"/><text fill="#000000" font-family="sans-serif" font-size="14" lengthAdjust="spacing" textLength="98.041" x="443.8663" y="199.4821">Report Problem</text></g><!--entity UC_Conduct--><g class="entity" data-entity="UC_Conduct" data-source-line="23" data-uid="ent0012" id="entity_UC_Conduct"><ellipse cx="210.5623" cy="856.9125" fill="#F1F1F1" rx="70.0623" ry="16.4125" style="stroke:#181818;stroke-width:0.5;"/><text fill="#000000" font-family="sans-serif" font-size="14" lengthAdjust="spacing" textLength="101.1787" x="159.9729" y="862.2171">Conduct Lesson</text></g><!--entity UC_Rec--><g class="entity" data-entity="UC_Rec" data-source-line="24" data-uid="ent0013" id="entity_UC_Rec"><ellipse cx="492.7593" cy="896.7519" fill="#F1F1F1" rx="74.2593" ry="17.2519" style="stroke:#181818;stroke-width:0.5;"/><text fill="#000000" font-family="sans-serif" font-size="14" lengthAdjust="spacing" textLength="112.0684" x="436.7252" y="902.0566">Upload Recording</text></g><!--entity UC_Log--><g class="entity" data-entity="UC_Log" data-source-line="27" data-uid="ent0014" id="entity_UC_Log"><ellipse cx="210.7219" cy="391.9517" fill="#F1F1F1" rx="27.2219" ry="15.4517" style="stroke:#181818;stroke-width:0.5;"/><text fill="#000000" font-family="sans-serif" font-size="14" lengthAdjust="spacing" textLength="34.2549" x="193.5944" y="397.2564">Login</text></g><!--entity UC_Auth--><g class="entity" data-entity="UC_Auth" data-source-line="28" data-uid="ent0015" id="entity_UC_Auth"><ellipse cx="492.9507" cy="331.1901" fill="#F1F1F1" rx="73.9507" ry="17.1901" style="stroke:#181818;stroke-width:0.5;"/><text fill="#000000" font-family="sans-serif" font-size="14" lengthAdjust="spacing" textLength="111.2822" x="437.3095" y="336.4948">Authenticate User</text></g><!--entity UC_Reset--><g class="entity" data-entity="UC_Reset" data-source-line="29" data-uid="ent0016" id="entity_UC_Reset"><ellipse cx="492.8463" cy="399.9693" fill="#F1F1F1" rx="70.3463" ry="16.4693" style="stroke:#181818;stroke-width:0.5;"/><text fill="#000000" font-family="sans-serif" font-size="14" lengthAdjust="spacing" textLength="101.9307" x="441.881" y="405.274">Reset Password</text></g><!--entity UC_Create--><g class="entity" data-entity="UC_Create" data-source-line="30" data-uid="ent0017" id="entity_UC_Create"><ellipse cx="210.3141" cy="500.0628" fill="#F1F1F1" rx="68.3141" ry="16.0628" style="stroke:#181818;stroke-width:0.5;"/><text fill="#000000" font-family="sans-serif" font-size="14" lengthAdjust="spacing" textLength="96.4961" x="162.0661" y="505.3675">Create Account</text></g><!--entity UC_Verify--><g class="entity" data-entity="UC_Verify" data-source-line="31" data-uid="ent0018" id="entity_UC_Verify"><ellipse cx="492.8086" cy="532.9517" fill="#F1F1F1" rx="55.8086" ry="15.4517" style="stroke:#181818;stroke-width:0.5;"/><text fill="#000000" font-family="sans-serif" font-size="14" lengthAdjust="spacing" textLength="74.6826" x="455.4673" y="538.2564">Verify Email</text></g><!--entity UC_Approve--><g class="entity" data-entity="UC_Approve" data-source-line="32" data-uid="ent0019" id="entity_UC_Approve"><ellipse cx="493.0711" cy="466.9517" fill="#F1F1F1" rx="42.0711" ry="15.4517" style="stroke:#181818;stroke-width:0.5;"/><text fill="#000000" font-family="sans-serif" font-size="14" lengthAdjust="spacing" textLength="55.2549" x="465.4437" y="472.2564">Approval</text></g><!--entity UC_Resched--><g class="entity" data-entity="UC_Resched" data-source-line="35" data-uid="ent0020" id="entity_UC_Resched"><ellipse cx="210.6212" cy="292.1242" fill="#F1F1F1" rx="78.6212" ry="18.1242" style="stroke:#181818;stroke-width:0.5;"/><text fill="#000000" font-family="sans-serif" font-size="14" lengthAdjust="spacing" textLength="122.9717" x="149.1354" y="297.4289">Reschedule Lesson</text></g><!--entity UC_Check--><g class="entity" data-entity="UC_Check" data-source-line="36" data-uid="ent0021" id="entity_UC_Check"><ellipse cx="492.8359" cy="262.0672" fill="#F1F1F1" rx="73.3359" ry="17.0672" style="stroke:#181818;stroke-width:0.5;"/><text fill="#000000" font-family="sans-serif" font-size="14" lengthAdjust="spacing" textLength="109.71" x="437.9809" y="267.3719">Check Availability</text></g><!--entity UC_Note--><g class="entity" data-entity="UC_Note" data-source-line="37" data-uid="ent0022" id="entity_UC_Note"><ellipse cx="768.8377" cy="261.7675" fill="#F1F1F1" rx="71.8377" ry="16.7675" style="stroke:#181818;stroke-width:0.5;"/><text fill="#000000" font-family="sans-serif" font-size="14" lengthAdjust="spacing" textLength="105.8408" x="715.9173" y="267.0722">Send Notification</text></g><!--entity UC_SetSch--><g class="entity" data-entity="UC_SetSch" data-source-line="38" data-uid="ent0023" id="entity_UC_SetSch"><ellipse cx="210.3894" cy="600.9517" fill="#F1F1F1" rx="61.8894" ry="15.4517" style="stroke:#181818;stroke-width:0.5;"/><text fill="#000000" font-family="sans-serif" font-size="14" lengthAdjust="spacing" textLength="83.2822" x="168.7483" y="606.2564">Set Schedule</text></g><!--entity UC_UpdtSch--><g class="entity" data-entity="UC_UpdtSch" data-source-line="39" data-uid="ent0024" id="entity_UC_UpdtSch"><ellipse cx="492.9439" cy="600.8888" fill="#F1F1F1" rx="72.4439" ry="16.8888" style="stroke:#181818;stroke-width:0.5;"/><text fill="#000000" font-family="sans-serif" font-size="14" lengthAdjust="spacing" textLength="107.4131" x="439.2374" y="606.1935">Update Schedule</text></g><!--entity UC_ConfSch--><g class="entity" data-entity="UC_ConfSch" data-source-line="40" data-uid="ent0025" id="entity_UC_ConfSch"><ellipse cx="768.948" cy="643.1896" fill="#F1F1F1" rx="73.948" ry="17.1896" style="stroke:#181818;stroke-width:0.5;"/><text fill="#000000" font-family="sans-serif" font-size="14" lengthAdjust="spacing" textLength="111.2754" x="713.3103" y="648.4943">Confirm Schedule</text></g><!--entity UC_Upload--><g class="entity" data-entity="UC_Upload" data-source-line="43" data-uid="ent0026" id="entity_UC_Upload"><ellipse cx="210.5422" cy="756.8084" fill="#F1F1F1" rx="87.0422" ry="19.8084" style="stroke:#181818;stroke-width:0.5;"/><text fill="#000000" font-family="sans-serif" font-size="14" lengthAdjust="spacing" textLength="143.1787" x="138.9529" y="762.1131">Upload PDFs &amp; Videos</text></g><!--entity UC_Valid--><g class="entity" data-entity="UC_Valid" data-source-line="44" data-uid="ent0027" id="entity_UC_Valid"><ellipse cx="492.9762" cy="756.9517" fill="#F1F1F1" rx="57.4762" ry="15.4517" style="stroke:#181818;stroke-width:0.5;"/><text fill="#000000" font-family="sans-serif" font-size="14" lengthAdjust="spacing" textLength="77.041" x="454.4557" y="762.2564">Validate File</text></g><!--entity UC_Rep--><g class="entity" data-entity="UC_Rep" data-source-line="45" data-uid="ent0028" id="entity_UC_Rep"><ellipse cx="492.7964" cy="826.0593" fill="#F1F1F1" rx="78.2964" ry="18.0593" style="stroke:#181818;stroke-width:0.5;"/><text fill="#000000" font-family="sans-serif" font-size="14" lengthAdjust="spacing" textLength="122.1719" x="431.7105" y="831.364">Replace/Delete File</text></g><!--entity S--><g class="entity" data-entity="S" data-source-line="8" data-uid="ent0002" id="entity_S"><ellipse cx="33" cy="269" fill="#F1F1F1" rx="16" ry="16" style="stroke:#181818;stroke-width:0.5;"/><path d="M33,289 C37,289 40,289 44,285 C52,285 60,293 60,301 L60,305 C60,309 56,313 52,313 L14,313 C10,313 6,309 6,305 L6,301 C6,293 14,285 22,285 C26,289 29,289 33,289" fill="#F1F1F1" style="stroke:#181818;stroke-width:0.5;"/><text fill="#000000" font-family="sans-serif" font-size="14" lengthAdjust="spacing" textLength="48.2617" x="8.8691" y="328.0332">Student</text></g><!--entity T--><g class="entity" data-entity="T" data-source-line="9" data-uid="ent0003" id="entity_T"><ellipse cx="33" cy="553" fill="#F1F1F1" rx="16" ry="16" style="stroke:#181818;stroke-width:0.5;"/><path d="M33,573 C37,573 40,573 44,569 C52,569 60,577 60,585 L60,589 C60,593 56,597 52,597 L14,597 C10,597 6,593 6,589 L6,585 C6,577 14,569 22,569 C26,573 29,573 33,573" fill="#F1F1F1" style="stroke:#181818;stroke-width:0.5;"/><text fill="#000000" font-family="sans-serif" font-size="14" lengthAdjust="spacing" textLength="51.3584" x="7.3208" y="612.0332">Teacher</text></g><!--entity B--><g class="entity" data-entity="B" data-source-line="49" data-uid="ent0029" id="entity_B"><ellipse cx="940" cy="136" fill="#F1F1F1" rx="16" ry="16" style="stroke:#181818;stroke-width:0.5;"/><path d="M940,156 C944,156 947,156 951,152 C959,152 967,160 967,168 L967,172 C967,176 963,180 959,180 L921,180 C917,180 913,176 913,172 L913,168 C913,160 921,152 929,152 C933,156 936,156 940,156" fill="#F1F1F1" style="stroke:#181818;stroke-width:0.5;"/><text fill="#000000" font-family="sans-serif" font-size="14" lengthAdjust="spacing" textLength="31.9102" x="924.0449" y="195.0332">Bank</text></g><!--entity A--><g class="entity" data-entity="A" data-source-line="50" data-uid="ent0030" id="entity_A"><ellipse cx="769" cy="964" fill="#F1F1F1" rx="16" ry="16" style="stroke:#181818;stroke-width:0.5;"/><path d="M769,984 C773,984 776,984 780,980 C788,980 796,988 796,996 L796,1000 C796,1004 792,1008 788,1008 L750,1008 C746,1008 742,1004 742,1000 L742,996 C742,988 750,980 758,980 C762,984 765,984 769,984" fill="#F1F1F1" style="stroke:#181818;stroke-width:0.5;"/><text fill="#000000" font-family="sans-serif" font-size="14" lengthAdjust="spacing" textLength="39.6826" x="749.1587" y="1023.0332">Admin</text></g><!--link S to UC_Sub--><g class="link" data-entity-1="S" data-entity-2="UC_Sub" data-source-line="55" data-uid="lnk31" id="link_S_UC_Sub"><path d="M49.13,252.47 C60.08,228.15 76.92,197.76 99.5,177 C116.78,161.11 139.87,149.39 160.44,141.22" fill="none" id="S-UC_Sub" style="stroke:#181818;stroke-width:1;"/></g><!--link S to UC_Attend--><g class="link" data-entity-1="S" data-entity-2="UC_Attend" data-source-line="56" data-uid="lnk32" id="link_S_UC_Attend"><path d="M60.73,276.41 C72.46,269.8 86.5,262.21 99.5,256 C123.71,244.44 151.69,233.02 173.38,224.57" fill="none" id="S-UC_Attend" style="stroke:#181818;stroke-width:1;"/></g><!--link S to UC_Resched--><g class="link" data-entity-1="S" data-entity-2="UC_Resched" data-source-line="57" data-uid="lnk33" id="link_S_UC_Resched"><path d="M60.65,292 C79.64,292 106.2,292 131.64,292" fill="none" id="S-UC_Resched" style="stroke:#181818;stroke-width:1;"/></g><!--link S to UC_Log--><g class="link" data-entity-1="S" data-entity-2="UC_Log" data-source-line="58" data-uid="lnk34" id="link_S_UC_Log"><path d="M60.65,307.19 C96.52,327.62 159.41,363.46 190.71,381.29" fill="none" id="S-UC_Log" style="stroke:#181818;stroke-width:1;"/></g><!--link S to UC_Create--><g class="link" data-entity-1="S" data-entity-2="UC_Create" data-source-line="59" data-uid="lnk35" id="link_S_UC_Create"><path d="M47.26,331.51 C58.13,359.77 75.62,397.5 99.5,425 C122.23,451.18 156.09,472.43 180.23,485.54" fill="none" id="S-UC_Create" style="stroke:#181818;stroke-width:1;"/></g><!--link T to UC_Resched--><g class="link" data-entity-1="T" data-entity-2="UC_Resched" data-source-line="62" data-uid="lnk36" id="link_T_UC_Resched"><path d="M37.4,536.49 C43.2,489.78 58.69,411.76 99.5,359 C117.56,335.65 146.24,318.57 169.79,307.5" fill="none" id="T-UC_Resched" style="stroke:#181818;stroke-width:1;"/></g><!--link T to UC_Log--><g class="link" data-entity-1="T" data-entity-2="UC_Log" data-source-line="63" data-uid="lnk37" id="link_T_UC_Log"><path d="M60.71,541.39 C71.33,526.47 83.01,508.47 91.5,491 C96.6,480.51 92.49,475.33 99.5,466 C122.86,434.9 163.32,412.61 188.12,401.05" fill="none" id="T-UC_Log" style="stroke:#181818;stroke-width:1;"/></g><!--link T to UC_Create--><g class="link" data-entity-1="T" data-entity-2="UC_Create" data-source-line="64" data-uid="lnk38" id="link_T_UC_Create"><path d="M60.65,564.46 C91.82,550.96 143.39,528.63 176.91,514.11" fill="none" id="T-UC_Create" style="stroke:#181818;stroke-width:1;"/></g><!--link T to UC_Conduct--><g class="link" data-entity-1="T" data-entity-2="UC_Conduct" data-source-line="65" data-uid="lnk39" id="link_T_UC_Conduct"><path d="M37.11,615.88 C42.63,662.99 57.84,741.55 99.5,794 C117.77,817.01 146.9,833.15 170.6,843.33" fill="none" id="T-UC_Conduct" style="stroke:#181818;stroke-width:1;"/></g><!--link T to UC_Upload--><g class="link" data-entity-1="T" data-entity-2="UC_Upload" data-source-line="66" data-uid="lnk40" id="link_T_UC_Upload"><path d="M60.65,603.49 C96.42,640.38 159.07,704.99 190.45,737.36" fill="none" id="T-UC_Upload" style="stroke:#181818;stroke-width:1;"/></g><!--link T to UC_SetSch--><g class="link" data-entity-1="T" data-entity-2="UC_SetSch" data-source-line="67" data-uid="lnk41" id="link_T_UC_SetSch"><path d="M60.65,579.8 C85.97,583.4 124.75,588.93 156.38,593.43" fill="none" id="T-UC_SetSch" style="stroke:#181818;stroke-width:1;"/></g><!--link UC_Sub to UC_Pay--><g class="link" data-entity-1="UC_Sub" data-entity-2="UC_Pay" data-source-line="70" data-uid="lnk42" id="link_UC_Sub_UC_Pay"><path d="M293.76,126 C334.82,126 377.93,126 417,126" fill="none" id="UC_Sub-to-UC_Pay" style="stroke:#181818;stroke-width:1;stroke-dasharray:7,7;"/><polygon fill="#181818" points="423,126,414,122,418,126,414,130,423,126" style="stroke:#181818;stroke-width:1;"/><text fill="#000000" font-family="sans-serif" font-size="13" lengthAdjust="spacing" textLength="55.6563" x="328.5" y="122.4951">&#171;include&#187;</text></g><!--link UC_Sub to UC_Slot--><g class="link" data-entity-1="UC_Sub" data-entity-2="UC_Slot" data-source-line="71" data-uid="lnk43" id="link_UC_Sub_UC_Slot"><path d="M268.6,112.36 C322.26,99.54 395.504,82.0431 443.764,70.5231" fill="none" id="UC_Sub-to-UC_Slot" style="stroke:#181818;stroke-width:1;stroke-dasharray:7,7;"/><polygon fill="#181818" points="449.6,69.13,439.9172,67.329,444.7366,70.2909,441.7747,75.1103,449.6,69.13" style="stroke:#181818;stroke-width:1;"/><text fill="#000000" font-family="sans-serif" font-size="13" lengthAdjust="spacing" textLength="55.6563" x="328.5" y="83.4951">&#171;include&#187;</text></g><!--link UC_Pay to UC_Proc--><g class="link" data-entity-1="UC_Pay" data-entity-2="UC_Proc" data-source-line="72" data-uid="lnk44" id="link_UC_Pay_UC_Proc"><path d="M532.26,139.75 C552.54,146.34 578.06,153.54 601.5,157 C630.1,161.22 655.76,162.455 683.73,162.385" fill="none" id="UC_Pay-to-UC_Proc" style="stroke:#181818;stroke-width:1;stroke-dasharray:7,7;"/><polygon fill="#181818" points="689.73,162.37,680.72,158.3925,684.73,162.3825,680.74,166.3925,689.73,162.37" style="stroke:#181818;stroke-width:1;"/><text fill="#000000" font-family="sans-serif" font-size="13" lengthAdjust="spacing" textLength="55.6563" x="602.5" y="153.4951">&#171;include&#187;</text></g><!--reverse link UC_Pay to UC_Disc--><g class="link" data-entity-1="UC_Pay" data-entity-2="UC_Disc" data-source-line="73" data-uid="lnk45" id="link_UC_Pay_UC_Disc"><path d="M560.0759,117.0765 C606.5459,110.7965 664.52,102.97 710.36,96.78" fill="none" id="UC_Pay-backto-UC_Disc" style="stroke:#181818;stroke-width:1;stroke-dasharray:7,7;"/><polygon fill="#181818" points="554.13,117.88,563.5846,120.6387,559.085,117.2104,562.5132,112.7107,554.13,117.88" style="stroke:#181818;stroke-width:1;"/><text fill="#000000" font-family="sans-serif" font-size="13" lengthAdjust="spacing" textLength="53.4917" x="603.5" y="101.4951">&#171;extend&#187;</text></g><!--link UC_Proc to B--><g class="link" data-entity-1="UC_Proc" data-entity-2="B" data-source-line="74" data-uid="lnk46" id="link_UC_Proc_B"><path d="M849.55,159 C872.15,159 895.23,159 912.28,159" fill="none" id="UC_Proc-B" style="stroke:#181818;stroke-width:1;"/></g><!--reverse link UC_Attend to UC_Prob--><g class="link" data-entity-1="UC_Attend" data-entity-2="UC_Prob" data-source-line="76" data-uid="lnk47" id="link_UC_Attend_UC_Prob"><path d="M282.899,206.6767 C327.739,203.9567 381.03,200.73 426,198" fill="none" id="UC_Attend-backto-UC_Prob" style="stroke:#181818;stroke-width:1;stroke-dasharray:7,7;"/><polygon fill="#181818" points="276.91,207.04,286.1357,210.4877,281.9008,206.7373,285.6513,202.5024,276.91,207.04" style="stroke:#181818;stroke-width:1;"/><text fill="#000000" font-family="sans-serif" font-size="13" lengthAdjust="spacing" textLength="53.4917" x="329.5" y="197.4951">&#171;extend&#187;</text></g><!--link UC_Resched to UC_Check--><g class="link" data-entity-1="UC_Resched" data-entity-2="UC_Check" data-source-line="78" data-uid="lnk48" id="link_UC_Resched_UC_Check"><path d="M281.92,284.47 C326.06,279.75 376.624,274.3379 419.924,269.7079" fill="none" id="UC_Resched-to-UC_Check" style="stroke:#181818;stroke-width:1;stroke-dasharray:7,7;"/><polygon fill="#181818" points="425.89,269.07,416.5157,266.0496,420.9183,269.6016,417.3663,274.0042,425.89,269.07" style="stroke:#181818;stroke-width:1;"/><text fill="#000000" font-family="sans-serif" font-size="13" lengthAdjust="spacing" textLength="55.6563" x="328.5" y="271.4951">&#171;include&#187;</text></g><!--link UC_Check to UC_Note--><g class="link" data-entity-1="UC_Check" data-entity-2="UC_Note" data-source-line="79" data-uid="lnk49" id="link_UC_Check_UC_Note"><path d="M566.71,262 C606.98,262 650.83,262 690.85,262" fill="none" id="UC_Check-to-UC_Note" style="stroke:#181818;stroke-width:1;stroke-dasharray:7,7;"/><polygon fill="#181818" points="696.85,262,687.85,258,691.85,262,687.85,266,696.85,262" style="stroke:#181818;stroke-width:1;"/><text fill="#000000" font-family="sans-serif" font-size="13" lengthAdjust="spacing" textLength="55.6563" x="602.5" y="258.4951">&#171;include&#187;</text></g><!--link UC_Log to UC_Auth--><g class="link" data-entity-1="UC_Log" data-entity-2="UC_Auth" data-source-line="81" data-uid="lnk50" id="link_UC_Log_UC_Auth"><path d="M235.9,386.69 C280.89,376.91 371.9771,357.1053 432.8471,343.8653" fill="none" id="UC_Log-to-UC_Auth" style="stroke:#181818;stroke-width:1;stroke-dasharray:7,7;"/><polygon fill="#181818" points="438.71,342.59,429.0655,340.5943,433.8242,343.6527,430.7658,348.4115,438.71,342.59" style="stroke:#181818;stroke-width:1;"/><text fill="#000000" font-family="sans-serif" font-size="13" lengthAdjust="spacing" textLength="55.6563" x="328.5" y="353.4951">&#171;include&#187;</text></g><!--reverse link UC_Log to UC_Reset--><g class="link" data-entity-1="UC_Log" data-entity-2="UC_Reset" data-source-line="82" data-uid="lnk51" id="link_UC_Log_UC_Reset"><path d="M243.6376,392.9204 C285.5276,394.1104 363.07,396.32 422.99,398.03" fill="none" id="UC_Log-backto-UC_Reset" style="stroke:#181818;stroke-width:1;stroke-dasharray:7,7;"/><polygon fill="#181818" points="237.64,392.75,246.5228,397.004,242.638,392.892,246.75,389.0072,237.64,392.75" style="stroke:#181818;stroke-width:1;"/><text fill="#000000" font-family="sans-serif" font-size="13" lengthAdjust="spacing" textLength="53.4917" x="329.5" y="392.4951">&#171;extend&#187;</text></g><!--link UC_Create to UC_Verify--><g class="link" data-entity-1="UC_Create" data-entity-2="UC_Verify" data-source-line="84" data-uid="lnk52" id="link_UC_Create_UC_Verify"><path d="M251.57,512.84 C273.7,519.31 301.84,526.5 327.5,530 C363.87,534.96 399.1707,535.7934 431.2907,535.2934" fill="none" id="UC_Create-to-UC_Verify" style="stroke:#181818;stroke-width:1;stroke-dasharray:7,7;"/><polygon fill="#181818" points="437.29,535.2,428.2288,531.3406,432.2906,535.2778,428.3533,539.3396,437.29,535.2" style="stroke:#181818;stroke-width:1;"/><text fill="#000000" font-family="sans-serif" font-size="13" lengthAdjust="spacing" textLength="55.6563" x="328.5" y="526.4951">&#171;include&#187;</text></g><!--reverse link UC_Create to UC_Approve--><g class="link" data-entity-1="UC_Create" data-entity-2="UC_Approve" data-source-line="85" data-uid="lnk53" id="link_UC_Create_UC_Approve"><path d="M277.9789,492.1792 C332.7389,485.7392 405.82,477.14 452.74,471.62" fill="none" id="UC_Create-backto-UC_Approve" style="stroke:#181818;stroke-width:1;stroke-dasharray:7,7;"/><polygon fill="#181818" points="272.02,492.88,281.4256,495.8014,276.9858,492.296,280.4912,487.8562,272.02,492.88" style="stroke:#181818;stroke-width:1;"/><text fill="#000000" font-family="sans-serif" font-size="13" lengthAdjust="spacing" textLength="53.4917" x="329.5" y="477.4951">&#171;extend&#187;</text></g><!--link UC_Approve to A--><g class="link" data-entity-1="UC_Approve" data-entity-2="A" data-source-line="86" data-uid="lnk54" id="link_UC_Approve_A"><path d="M530.03,474.63 C544.88,479.52 561.02,487.41 571.5,500 C610.55,546.9 586.25,574.91 601.5,634 C635.88,767.18 608.46,819.14 688.5,931 C701.96,949.81 723.78,964.53 741.16,974.14" fill="none" id="UC_Approve-A" style="stroke:#181818;stroke-width:1;"/></g><!--reverse link UC_Conduct to UC_Rec--><g class="link" data-entity-1="UC_Conduct" data-entity-2="UC_Rec" data-source-line="88" data-uid="lnk55" id="link_UC_Conduct_UC_Rec"><path d="M270.9901,868.5303 C290.5801,872.1503 307.05,874.97 327.5,878 C359.21,882.7 394.5,886.91 424.24,890.16" fill="none" id="UC_Conduct-backto-UC_Rec" style="stroke:#181818;stroke-width:1;stroke-dasharray:7,7;"/><polygon fill="#181818" points="265.09,867.44,273.2133,873.0088,270.0068,868.3486,274.667,865.142,265.09,867.44" style="stroke:#181818;stroke-width:1;"/><text fill="#000000" font-family="sans-serif" font-size="13" lengthAdjust="spacing" textLength="53.4917" x="329.5" y="874.4951">&#171;extend&#187;</text></g><!--link UC_Upload to UC_Valid--><g class="link" data-entity-1="UC_Upload" data-entity-2="UC_Valid" data-source-line="90" data-uid="lnk56" id="link_UC_Upload_UC_Valid"><path d="M297.57,757 C342.34,757 389.81,757 429.34,757" fill="none" id="UC_Upload-to-UC_Valid" style="stroke:#181818;stroke-width:1;stroke-dasharray:7,7;"/><polygon fill="#181818" points="435.34,757,426.34,753,430.34,757,426.34,761,435.34,757" style="stroke:#181818;stroke-width:1;"/><text fill="#000000" font-family="sans-serif" font-size="13" lengthAdjust="spacing" textLength="55.6563" x="328.5" y="753.4951">&#171;include&#187;</text></g><!--reverse link UC_Upload to UC_Rep--><g class="link" data-entity-1="UC_Upload" data-entity-2="UC_Rep" data-source-line="91" data-uid="lnk57" id="link_UC_Upload_UC_Rep"><path d="M276.4663,772.9834 C326.1363,785.2034 390.65,801.07 438.62,812.87" fill="none" id="UC_Upload-backto-UC_Rep" style="stroke:#181818;stroke-width:1;stroke-dasharray:7,7;"/><polygon fill="#181818" points="270.64,771.55,278.4238,777.5843,275.4952,772.7445,280.335,769.8159,270.64,771.55" style="stroke:#181818;stroke-width:1;"/><text fill="#000000" font-family="sans-serif" font-size="13" lengthAdjust="spacing" textLength="53.4917" x="329.5" y="784.4951">&#171;extend&#187;</text></g><!--link UC_SetSch to UC_ConfSch--><g class="link" data-entity-1="UC_SetSch" data-entity-2="UC_ConfSch" data-source-line="93" data-uid="lnk58" id="link_UC_SetSch_UC_ConfSch"><path d="M248.37,613.43 C288.64,626.3 355.3,645.54 414.5,653 C514.55,665.61 625.7699,658.5184 696.9099,651.3884" fill="none" id="UC_SetSch-to-UC_ConfSch" style="stroke:#181818;stroke-width:1;stroke-dasharray:7,7;"/><polygon fill="#181818" points="702.88,650.79,693.526,647.7075,697.9049,651.2886,694.3238,655.6676,702.88,650.79" style="stroke:#181818;stroke-width:1;"/><text fill="#000000" font-family="sans-serif" font-size="13" lengthAdjust="spacing" textLength="55.6563" x="465.5" y="649.4951">&#171;include&#187;</text></g><!--reverse link UC_SetSch to UC_UpdtSch--><g class="link" data-entity-1="UC_SetSch" data-entity-2="UC_UpdtSch" data-source-line="94" data-uid="lnk59" id="link_UC_SetSch_UC_UpdtSch"><path d="M278.71,601 C322.15,601 374.62,601 420.26,601" fill="none" id="UC_SetSch-backto-UC_UpdtSch" style="stroke:#181818;stroke-width:1;stroke-dasharray:7,7;"/><polygon fill="#181818" points="272.71,601,281.71,605,277.71,601,281.71,597,272.71,601" style="stroke:#181818;stroke-width:1;"/><text fill="#000000" font-family="sans-serif" font-size="13" lengthAdjust="spacing" textLength="53.4917" x="329.5" y="597.4951">&#171;extend&#187;</text></g><!--link UC_UpdtSch to UC_ConfSch--><g class="link" data-entity-1="UC_UpdtSch" data-entity-2="UC_ConfSch" data-source-line="95" data-uid="lnk60" id="link_UC_UpdtSch_UC_ConfSch"><path d="M554.13,610.22 C599.5,617.17 655.5694,625.7601 701.1294,632.7501" fill="none" id="UC_UpdtSch-to-UC_ConfSch" style="stroke:#181818;stroke-width:1;stroke-dasharray:7,7;"/><polygon fill="#181818" points="707.06,633.66,698.7707,628.3414,702.1178,632.9018,697.5575,636.2489,707.06,633.66" style="stroke:#181818;stroke-width:1;"/><text fill="#000000" font-family="sans-serif" font-size="13" lengthAdjust="spacing" textLength="55.6563" x="602.5" y="615.4951">&#171;include&#187;</text></g><!--SRC=[VLHBRzim3BxhLmWzhATqzw4euBvEsH3KwQw38ZE945ao9BcTCUo_ZxGUYUrWkSGaFtvyYEGjNwrMl9P2AtFWmZHyBGRR1r8p3Vl0W-LE7Ow1Dyg13CeQva_ATCA9bdT2diG1wZ1eu6GMvg3X0k2Feh6VnBqNsbzQX0pMHKVn2TwsmDZjcCt6gLQuWLU4y6Cc8vZNeM_012uyhvDg2q8UmP5gorZ9WD-yhDOWdA78zU03j3Vy3sCSVxTy8uPsvC5owtxdfLFTM1YPUmzIU6H8bXrG2vvixppu6mhq_lGBRLFmqz5Q_A-r3GM3trFGTt627BnGeJn5RPoLuB4U9umNOySB5arJSDLrUk3FoalRcnAQv16N2buZdpL-B1WvTXfQF-C90UZn8p3pHEqK-GQTTI7JN6GsxuWrJIz3eiouf9r2tpjjHSFVG5hNu8jbC2ekgwZwSCJEAIcMZxMs1rM2e32hxkm9_Ds3AmMYOLwU1wnEUF-9oPmpGUsiFWV4Lib9vwDsYlm9Jkq7_j8AfJCkwXPlwUo7A9WemsKBQXpsfgTTNMGTBJ3hTpBCXnNaYLSVc8_OAQt2KD8dosmDQ2v-sA3sgV4PYpgOGqFE4CeMG43L_BqRQjqSYkeb5WTchrox09C-WrDpNfK6VtMoDi-ldd_XFrK3rf_3aMtsL7W7nzo8gxmLAHTBe8M4hy-WOOP64_kRJrcD8ssQgyViKPWJkJmckMfQPKXHPMSiqSIB6_rGdIuWgr6Hxr3-JikQnVpoMQQboDzfIf4mtK-sdNbjBxosKwyYfbNESkfd5jF3OmpQJOdRhSVnyKVLUHPpvtTt3-a6yc_y_buPgR70XuUPdKxf4a1UcG0FutN0_TrTleWZ07vJbvATl33RHyPA_x837RIf0pkt9uUDYxI86zK9GsioWx3Os8oW8xGa8K3A9TwaHJBf0YMMT6MMoKHKeaetPT6AhCTkL94ydU-IWbmcaBOh9q1hieoVG8MdM_B4KIbDZPjzPI0YB36bQx6e9El_o_OF]--></g></svg>