<svg xmlns="http://www.w3.org/2000/svg" xmlns:xlink="http://www.w3.org/1999/xlink" contentStyleType="text/css" data-diagram-type="DESCRIPTION" height="232px" preserveAspectRatio="none" style="width:290px;height:232px;background:#FFFFFF;" version="1.1" viewBox="0 0 290 232" width="290px" zoomAndPan="magnify"><defs/><g><!--cluster Admin Use-Cases--><g class="cluster" data-entity="Admin Use-Cases" data-source-line="9" data-uid="ent0003" id="cluster_Admin Use-Cases"><rect fill="none" height="219" rx="2.5" ry="2.5" style="stroke:#181818;stroke-width:1;" width="180" x="104.5" y="7"/><text fill="#000000" font-family="sans-serif" font-size="14" font-weight="bold" lengthAdjust="spacing" textLength="119.041" x="134.9795" y="23.5332">Admin Use-Cases</text></g><!--entity UC_ConfSch--><g class="entity" data-entity="UC_ConfSch" data-source-line="10" data-uid="ent0004" id="entity_UC_ConfSch"><ellipse cx="194.448" cy="60.1896" fill="#F1F1F1" rx="73.948" ry="17.1896" style="stroke:#181818;stroke-width:0.5;"/><text fill="#000000" font-family="sans-serif" font-size="14" lengthAdjust="spacing" textLength="111.2754" x="138.8103" y="65.4943">Confirm Schedule</text></g><!--entity UC_Approve--><g class="entity" data-entity="UC_Approve" data-source-line="11" data-uid="ent0005" id="entity_UC_Approve"><ellipse cx="194.5711" cy="127.9517" fill="#F1F1F1" rx="42.0711" ry="15.4517" style="stroke:#181818;stroke-width:0.5;"/><text fill="#000000" font-family="sans-serif" font-size="14" lengthAdjust="spacing" textLength="55.2549" x="166.9437" y="133.2564">Approval</text></g><!--entity UC_Manage--><g class="entity" data-entity="UC_Manage" data-source-line="12" data-uid="ent0006" id="entity_UC_Manage"><ellipse cx="194.326" cy="194.1652" fill="#F1F1F1" rx="66.326" ry="15.6652" style="stroke:#181818;stroke-width:0.5;"/><text fill="#000000" font-family="sans-serif" font-size="14" lengthAdjust="spacing" textLength="91.041" x="148.8055" y="199.4699">Manage Users</text></g><!--entity A--><g class="entity" data-entity="A" data-source-line="7" data-uid="ent0002" id="entity_A"><ellipse cx="33" cy="71" fill="#F1F1F1" rx="16" ry="16" style="stroke:#181818;stroke-width:0.5;"/><path d="M33,91 C37,91 40,91 44,87 C52,87 60,95 60,103 L60,107 C60,111 56,115 52,115 L14,115 C10,115 6,111 6,107 L6,103 C6,95 14,87 22,87 C26,91 29,91 33,91" fill="#F1F1F1" style="stroke:#181818;stroke-width:0.5;"/><text fill="#000000" font-family="sans-serif" font-size="14" lengthAdjust="spacing" textLength="39.6826" x="13.1587" y="130.0332">Admin</text></g><!--link A to UC_ConfSch--><g class="link" data-entity-1="A" data-entity-2="UC_ConfSch" data-source-line="15" data-uid="lnk7" id="link_A_UC_ConfSch"><path d="M60.7,88.31 C82.16,83.73 113,77.16 139.56,71.5" fill="none" id="A-UC_ConfSch" style="stroke:#181818;stroke-width:1;"/></g><!--link A to UC_Approve--><g class="link" data-entity-1="A" data-entity-2="UC_Approve" data-source-line="16" data-uid="lnk8" id="link_A_UC_Approve"><path d="M60.7,99.69 C87.3,105.36 128.32,114.11 157.73,120.38" fill="none" id="A-UC_Approve" style="stroke:#181818;stroke-width:1;"/></g><!--SRC=[JO-x2iCm34LtVONmdeymcJk5p4KuIcBYHx2SbbBwxuqRN3pUewChv7ZEc2CckwmP9vlOP1i3o6R3JeayxcGsMdZ8ByTOnXGMnuqWAqtnQSE2Cpbf9sHoJDSYFLcYPu0VGprv6v04DS2_4zM5H-6k9s5H-0R4GzYS2LKVmsoJny6iF1sELIaO-tlX9sjLlUyfFiXLvShSAZSAvrlbM9AgNGm-01gxhkskkHPz0G00]--></g></svg>