<svg xmlns="http://www.w3.org/2000/svg" xmlns:xlink="http://www.w3.org/1999/xlink" contentStyleType="text/css" data-diagram-type="CLASS" height="919px" preserveAspectRatio="none" style="width:1570px;height:919px;background:#FFFFFF;" version="1.1" viewBox="0 0 1570 919" width="1570px" zoomAndPan="magnify"><title>EduFlow Class Diagram - Legacy Version (Visual Match)</title><defs/><g><g class="title" data-source-line="1"><text fill="#000000" font-family="sans-serif" font-size="14" font-weight="bold" lengthAdjust="spacing" textLength="374.2061" x="591.3394" y="24.5332">EduFlow Class Diagram - Legacy Version (Visual Match)</text></g><!--class User--><g class="entity" data-entity="User" data-source-line="3" data-uid="ent0002" id="entity_User"><rect fill="#F1F1F1" height="188.875" rx="2.5" ry="2.5" style="stroke:#181818;stroke-width:0.5;" width="317.8193" x="454" y="45.6094"/><ellipse cx="593.8804" cy="61.6094" fill="#A9DCDF" rx="11" ry="11" style="stroke:#181818;stroke-width:1;"/><path d="M596.0679,63.375 L591.9272,63.375 L591.5054,64.4063 L591.9272,64.4063 Q592.5366,64.4063 592.8022,64.6406 Q593.0679,64.875 593.0679,65.2656 Q593.0679,65.6406 592.8022,65.875 Q592.5366,66.1094 591.9272,66.1094 L589.6304,66.1094 Q589.021,66.1094 588.771,65.875 Q588.5054,65.6406 588.5054,65.25 Q588.5054,64.875 588.7866,64.6406 Q589.0522,64.3906 589.6772,64.4063 L592.3491,57.75 L591.2397,57.75 Q590.6304,57.75 590.3647,57.5156 Q590.0991,57.2813 590.0991,56.8906 Q590.0991,56.5156 590.3647,56.2813 Q590.6304,56.0469 591.2397,56.0469 L594.9116,56.0469 L598.3022,64.4063 Q598.896,64.4063 599.0835,64.5469 Q599.4741,64.8125 599.4741,65.2656 Q599.4741,65.6406 599.2085,65.875 Q598.9585,66.1094 598.3491,66.1094 L596.0522,66.1094 Q595.4429,66.1094 595.1772,65.875 Q594.9116,65.6406 594.9116,65.25 Q594.9116,64.875 595.1772,64.6406 Q595.4429,64.4063 596.0522,64.4063 L596.4741,64.4063 L596.0679,63.375 Z M595.3491,61.6719 L593.9897,58.2969 L592.6147,61.6719 L595.3491,61.6719 Z " fill="#000000"/><text fill="#000000" font-family="sans-serif" font-size="14" font-style="italic" lengthAdjust="spacing" textLength="29.5586" x="614.3804" y="67.3379">User</text><line style="stroke:#181818;stroke-width:0.5;" x1="455" x2="770.8193" y1="77.6094" y2="77.6094"/><rect fill="none" height="6" style="stroke:#C82930;stroke-width:1;" width="6" x="462" y="88.9141"/><text fill="#000000" font-family="sans-serif" font-size="14" lengthAdjust="spacing" textLength="61.4756" x="474" y="96.1426">userId: int</text><rect fill="none" height="6" style="stroke:#C82930;stroke-width:1;" width="6" x="462" y="106.5234"/><text fill="#000000" font-family="sans-serif" font-size="14" lengthAdjust="spacing" textLength="79.3721" x="474" y="113.752">name: String</text><rect fill="none" height="6" style="stroke:#C82930;stroke-width:1;" width="6" x="462" y="124.1328"/><text fill="#000000" font-family="sans-serif" font-size="14" lengthAdjust="spacing" textLength="77.8066" x="474" y="131.3613">email: String</text><rect fill="none" height="6" style="stroke:#C82930;stroke-width:1;" width="6" x="462" y="141.7422"/><text fill="#000000" font-family="sans-serif" font-size="14" lengthAdjust="spacing" textLength="104.2686" x="474" y="148.9707">password: String</text><rect fill="none" height="6" style="stroke:#C82930;stroke-width:1;" width="6" x="462" y="159.3516"/><text fill="#000000" font-family="sans-serif" font-size="14" lengthAdjust="spacing" textLength="133.0752" x="474" y="166.5801">phoneNumber: String</text><line style="stroke:#181818;stroke-width:0.5;" x1="455" x2="770.8193" y1="173.6563" y2="173.6563"/><ellipse cx="465" cy="187.9609" fill="#84BE84" rx="3" ry="3" style="stroke:#038048;stroke-width:1;"/><text fill="#000000" font-family="sans-serif" font-size="14" lengthAdjust="spacing" textLength="291.8193" x="474" y="192.1895">login(userId: String, password: String): boolean</text><ellipse cx="465" cy="205.5703" fill="#84BE84" rx="3" ry="3" style="stroke:#038048;stroke-width:1;"/><text fill="#000000" font-family="sans-serif" font-size="14" lengthAdjust="spacing" textLength="222.5234" x="474" y="209.7988">resetPasswordE(email: String): void</text><ellipse cx="465" cy="223.1797" fill="#84BE84" rx="3" ry="3" style="stroke:#038048;stroke-width:1;"/><text fill="#000000" font-family="sans-serif" font-size="14" lengthAdjust="spacing" textLength="277.792" x="474" y="227.4082">resetPasswordP(phoneNumber: String): void</text></g><!--class Student--><g class="entity" data-entity="Student" data-source-line="14" data-uid="ent0003" id="entity_Student"><rect fill="#F1F1F1" height="118.4375" rx="2.5" ry="2.5" style="stroke:#181818;stroke-width:0.5;" width="422.1289" x="815" y="330.6094"/><ellipse cx="997.6836" cy="346.6094" fill="#ADD1B2" rx="11" ry="11" style="stroke:#181818;stroke-width:1;"/><path d="M1000.4492,342.4844 Q1000.6055,342.2656 1000.793,342.1563 Q1000.9805,342.0469 1001.1992,342.0469 Q1001.5742,342.0469 1001.8086,342.3125 Q1002.043,342.5625 1002.043,343.1719 L1002.043,344.625 Q1002.043,345.2344 1001.8086,345.5 Q1001.5742,345.7656 1001.1992,345.7656 Q1000.8555,345.7656 1000.6523,345.5625 Q1000.4492,345.375 1000.3398,344.8594 Q1000.293,344.5 1000.1055,344.3125 Q999.7773,343.9375 999.168,343.7188 Q998.5586,343.5 997.9336,343.5 Q997.168,343.5 996.5273,343.8281 Q995.9023,344.1563 995.4023,344.9063 Q994.918,345.6563 994.918,346.6875 L994.918,347.7813 Q994.918,349.0156 995.8086,349.8438 Q996.6992,350.6563 998.293,350.6563 Q999.2305,350.6563 999.8867,350.4063 Q1000.2773,350.25 1000.6992,349.8125 Q1000.9648,349.5469 1001.1055,349.4688 Q1001.2617,349.3906 1001.4648,349.3906 Q1001.793,349.3906 1002.043,349.6563 Q1002.3086,349.9063 1002.3086,350.25 Q1002.3086,350.5938 1001.9648,351 Q1001.4648,351.5781 1000.668,351.9063 Q999.5898,352.3594 998.293,352.3594 Q996.7773,352.3594 995.5742,351.7344 Q994.5898,351.2344 993.9023,350.1719 Q993.2148,349.0938 993.2148,347.8125 L993.2148,346.6563 Q993.2148,345.3281 993.8242,344.1875 Q994.4492,343.0313 995.543,342.4219 Q996.6367,341.7969 997.8711,341.7969 Q998.6055,341.7969 999.2461,341.9688 Q999.9023,342.125 1000.4492,342.4844 Z " fill="#000000"/><text fill="#000000" font-family="sans-serif" font-size="14" lengthAdjust="spacing" textLength="48.2617" x="1018.1836" y="352.3379">Student</text><line style="stroke:#181818;stroke-width:0.5;" x1="816" x2="1236.1289" y1="362.6094" y2="362.6094"/><line style="stroke:#181818;stroke-width:0.5;" x1="816" x2="1236.1289" y1="370.6094" y2="370.6094"/><ellipse cx="826" cy="384.9141" fill="#84BE84" rx="3" ry="3" style="stroke:#038048;stroke-width:1;"/><text fill="#000000" font-family="sans-serif" font-size="14" lengthAdjust="spacing" textLength="197.6338" x="835" y="389.1426">browseCourses(): List&lt;Course&gt;</text><ellipse cx="826" cy="402.5234" fill="#84BE84" rx="3" ry="3" style="stroke:#038048;stroke-width:1;"/><text fill="#000000" font-family="sans-serif" font-size="14" lengthAdjust="spacing" textLength="189.0889" x="835" y="406.752">chooseSlot(lessonID: int): void</text><ellipse cx="826" cy="420.1328" fill="#84BE84" rx="3" ry="3" style="stroke:#038048;stroke-width:1;"/><text fill="#000000" font-family="sans-serif" font-size="14" lengthAdjust="spacing" textLength="186.0195" x="835" y="424.3613">pay(amount: double): boolean</text><ellipse cx="826" cy="437.7422" fill="#84BE84" rx="3" ry="3" style="stroke:#038048;stroke-width:1;"/><text fill="#000000" font-family="sans-serif" font-size="14" lengthAdjust="spacing" textLength="396.1289" x="835" y="441.9707">rescheduleLesson(oldLessonID: int, newLessonID: int): boolean</text></g><!--class Teacher--><g class="entity" data-entity="Teacher" data-source-line="21" data-uid="ent0004" id="entity_Teacher"><rect fill="#F1F1F1" height="153.6563" rx="2.5" ry="2.5" style="stroke:#181818;stroke-width:0.5;" width="404.1982" x="7" y="312.6094"/><ellipse cx="179.1699" cy="328.6094" fill="#ADD1B2" rx="11" ry="11" style="stroke:#181818;stroke-width:1;"/><path d="M181.9355,324.4844 Q182.0918,324.2656 182.2793,324.1563 Q182.4668,324.0469 182.6855,324.0469 Q183.0605,324.0469 183.2949,324.3125 Q183.5293,324.5625 183.5293,325.1719 L183.5293,326.625 Q183.5293,327.2344 183.2949,327.5 Q183.0605,327.7656 182.6855,327.7656 Q182.3418,327.7656 182.1387,327.5625 Q181.9355,327.375 181.8262,326.8594 Q181.7793,326.5 181.5918,326.3125 Q181.2637,325.9375 180.6543,325.7188 Q180.0449,325.5 179.4199,325.5 Q178.6543,325.5 178.0137,325.8281 Q177.3887,326.1563 176.8887,326.9063 Q176.4043,327.6563 176.4043,328.6875 L176.4043,329.7813 Q176.4043,331.0156 177.2949,331.8438 Q178.1855,332.6563 179.7793,332.6563 Q180.7168,332.6563 181.373,332.4063 Q181.7637,332.25 182.1855,331.8125 Q182.4512,331.5469 182.5918,331.4688 Q182.748,331.3906 182.9512,331.3906 Q183.2793,331.3906 183.5293,331.6563 Q183.7949,331.9063 183.7949,332.25 Q183.7949,332.5938 183.4512,333 Q182.9512,333.5781 182.1543,333.9063 Q181.0762,334.3594 179.7793,334.3594 Q178.2637,334.3594 177.0605,333.7344 Q176.0762,333.2344 175.3887,332.1719 Q174.7012,331.0938 174.7012,329.8125 L174.7012,328.6563 Q174.7012,327.3281 175.3105,326.1875 Q175.9355,325.0313 177.0293,324.4219 Q178.123,323.7969 179.3574,323.7969 Q180.0918,323.7969 180.7324,323.9688 Q181.3887,324.125 181.9355,324.4844 Z " fill="#000000"/><text fill="#000000" font-family="sans-serif" font-size="14" lengthAdjust="spacing" textLength="51.3584" x="199.6699" y="334.3379">Teacher</text><line style="stroke:#181818;stroke-width:0.5;" x1="8" x2="410.1982" y1="344.6094" y2="344.6094"/><rect fill="none" height="6" style="stroke:#C82930;stroke-width:1;" width="6" x="15" y="355.9141"/><text fill="#000000" font-family="sans-serif" font-size="14" lengthAdjust="spacing" textLength="128.3994" x="27" y="363.1426">specialization: String</text><rect fill="none" height="6" style="stroke:#C82930;stroke-width:1;" width="6" x="15" y="373.5234"/><text fill="#000000" font-family="sans-serif" font-size="14" lengthAdjust="spacing" textLength="63.0342" x="27" y="380.752">bio: String</text><line style="stroke:#181818;stroke-width:0.5;" x1="8" x2="410.1982" y1="387.8281" y2="387.8281"/><ellipse cx="18" cy="402.1328" fill="#84BE84" rx="3" ry="3" style="stroke:#038048;stroke-width:1;"/><text fill="#000000" font-family="sans-serif" font-size="14" lengthAdjust="spacing" textLength="306.626" x="27" y="406.3613">setSchedule(schedule: List&lt;DateTime&gt;): boolean</text><ellipse cx="18" cy="419.7422" fill="#84BE84" rx="3" ry="3" style="stroke:#038048;stroke-width:1;"/><text fill="#000000" font-family="sans-serif" font-size="14" lengthAdjust="spacing" textLength="378.1982" x="27" y="423.9707">updateSchedule(lessonID: int, newTime: DateTime): boolean</text><ellipse cx="18" cy="437.3516" fill="#84BE84" rx="3" ry="3" style="stroke:#038048;stroke-width:1;"/><text fill="#000000" font-family="sans-serif" font-size="14" lengthAdjust="spacing" textLength="196.8682" x="27" y="441.5801">uploadDocument(file: File): void</text><ellipse cx="18" cy="454.9609" fill="#84BE84" rx="3" ry="3" style="stroke:#038048;stroke-width:1;"/><text fill="#000000" font-family="sans-serif" font-size="14" lengthAdjust="spacing" textLength="213.999" x="27" y="459.1895">conductLesson(lessonID: int): void</text></g><!--class Admin--><g class="entity" data-entity="Admin" data-source-line="30" data-uid="ent0005" id="entity_Admin"><rect fill="#F1F1F1" height="83.2188" rx="2.5" ry="2.5" style="stroke:#181818;stroke-width:0.5;" width="332.5986" x="446.5" y="348.1094"/><ellipse cx="588.708" cy="364.1094" fill="#ADD1B2" rx="11" ry="11" style="stroke:#181818;stroke-width:1;"/><path d="M591.4736,359.9844 Q591.6299,359.7656 591.8174,359.6563 Q592.0049,359.5469 592.2236,359.5469 Q592.5986,359.5469 592.833,359.8125 Q593.0674,360.0625 593.0674,360.6719 L593.0674,362.125 Q593.0674,362.7344 592.833,363 Q592.5986,363.2656 592.2236,363.2656 Q591.8799,363.2656 591.6768,363.0625 Q591.4736,362.875 591.3643,362.3594 Q591.3174,362 591.1299,361.8125 Q590.8018,361.4375 590.1924,361.2188 Q589.583,361 588.958,361 Q588.1924,361 587.5518,361.3281 Q586.9268,361.6563 586.4268,362.4063 Q585.9424,363.1563 585.9424,364.1875 L585.9424,365.2813 Q585.9424,366.5156 586.833,367.3438 Q587.7236,368.1563 589.3174,368.1563 Q590.2549,368.1563 590.9111,367.9063 Q591.3018,367.75 591.7236,367.3125 Q591.9893,367.0469 592.1299,366.9688 Q592.2861,366.8906 592.4893,366.8906 Q592.8174,366.8906 593.0674,367.1563 Q593.333,367.4063 593.333,367.75 Q593.333,368.0938 592.9893,368.5 Q592.4893,369.0781 591.6924,369.4063 Q590.6143,369.8594 589.3174,369.8594 Q587.8018,369.8594 586.5986,369.2344 Q585.6143,368.7344 584.9268,367.6719 Q584.2393,366.5938 584.2393,365.3125 L584.2393,364.1563 Q584.2393,362.8281 584.8486,361.6875 Q585.4736,360.5313 586.5674,359.9219 Q587.6611,359.2969 588.8955,359.2969 Q589.6299,359.2969 590.2705,359.4688 Q590.9268,359.625 591.4736,359.9844 Z " fill="#000000"/><text fill="#000000" font-family="sans-serif" font-size="14" lengthAdjust="spacing" textLength="39.6826" x="609.208" y="369.8379">Admin</text><line style="stroke:#181818;stroke-width:0.5;" x1="447.5" x2="778.0986" y1="380.1094" y2="380.1094"/><line style="stroke:#181818;stroke-width:0.5;" x1="447.5" x2="778.0986" y1="388.1094" y2="388.1094"/><ellipse cx="457.5" cy="402.4141" fill="#84BE84" rx="3" ry="3" style="stroke:#038048;stroke-width:1;"/><text fill="#000000" font-family="sans-serif" font-size="14" lengthAdjust="spacing" textLength="221.7441" x="466.5" y="406.6426">reviewRegistration(userID: int): void</text><ellipse cx="457.5" cy="420.0234" fill="#84BE84" rx="3" ry="3" style="stroke:#038048;stroke-width:1;"/><text fill="#000000" font-family="sans-serif" font-size="14" lengthAdjust="spacing" textLength="306.5986" x="466.5" y="424.252">updateStatus(userID: int, newStatus: Enum): void</text></g><!--class Course--><g class="entity" data-entity="Course" data-source-line="35" data-uid="ent0006" id="entity_Course"><rect fill="#F1F1F1" height="153.6563" rx="2.5" ry="2.5" style="stroke:#181818;stroke-width:0.5;" width="246.9717" x="708.5" y="544.6094"/><ellipse cx="805.1704" cy="560.6094" fill="#ADD1B2" rx="11" ry="11" style="stroke:#181818;stroke-width:1;"/><path d="M807.936,556.4844 Q808.0923,556.2656 808.2798,556.1563 Q808.4673,556.0469 808.686,556.0469 Q809.061,556.0469 809.2954,556.3125 Q809.5298,556.5625 809.5298,557.1719 L809.5298,558.625 Q809.5298,559.2344 809.2954,559.5 Q809.061,559.7656 808.686,559.7656 Q808.3423,559.7656 808.1392,559.5625 Q807.936,559.375 807.8267,558.8594 Q807.7798,558.5 807.5923,558.3125 Q807.2642,557.9375 806.6548,557.7188 Q806.0454,557.5 805.4204,557.5 Q804.6548,557.5 804.0142,557.8281 Q803.3892,558.1563 802.8892,558.9063 Q802.4048,559.6563 802.4048,560.6875 L802.4048,561.7813 Q802.4048,563.0156 803.2954,563.8438 Q804.186,564.6563 805.7798,564.6563 Q806.7173,564.6563 807.3735,564.4063 Q807.7642,564.25 808.186,563.8125 Q808.4517,563.5469 808.5923,563.4688 Q808.7485,563.3906 808.9517,563.3906 Q809.2798,563.3906 809.5298,563.6563 Q809.7954,563.9063 809.7954,564.25 Q809.7954,564.5938 809.4517,565 Q808.9517,565.5781 808.1548,565.9063 Q807.0767,566.3594 805.7798,566.3594 Q804.2642,566.3594 803.061,565.7344 Q802.0767,565.2344 801.3892,564.1719 Q800.7017,563.0938 800.7017,561.8125 L800.7017,560.6563 Q800.7017,559.3281 801.311,558.1875 Q801.936,557.0313 803.0298,556.4219 Q804.1235,555.7969 805.3579,555.7969 Q806.0923,555.7969 806.7329,555.9688 Q807.3892,556.125 807.936,556.4844 Z " fill="#000000"/><text fill="#000000" font-family="sans-serif" font-size="14" lengthAdjust="spacing" textLength="45.1309" x="825.6704" y="566.3379">Course</text><line style="stroke:#181818;stroke-width:0.5;" x1="709.5" x2="954.4717" y1="576.6094" y2="576.6094"/><rect fill="none" height="6" style="stroke:#C82930;stroke-width:1;" width="6" x="716.5" y="587.9141"/><text fill="#000000" font-family="sans-serif" font-size="14" lengthAdjust="spacing" textLength="78.5859" x="728.5" y="595.1426">courseID: int</text><rect fill="none" height="6" style="stroke:#C82930;stroke-width:1;" width="6" x="716.5" y="605.5234"/><text fill="#000000" font-family="sans-serif" font-size="14" lengthAdjust="spacing" textLength="66.1377" x="728.5" y="612.752">title: String</text><rect fill="none" height="6" style="stroke:#C82930;stroke-width:1;" width="6" x="716.5" y="623.1328"/><text fill="#000000" font-family="sans-serif" font-size="14" lengthAdjust="spacing" textLength="112.0547" x="728.5" y="630.3613">description: String</text><rect fill="none" height="6" style="stroke:#C82930;stroke-width:1;" width="6" x="716.5" y="640.7422"/><text fill="#000000" font-family="sans-serif" font-size="14" lengthAdjust="spacing" textLength="80.165" x="728.5" y="647.9707">price: double</text><line style="stroke:#181818;stroke-width:0.5;" x1="709.5" x2="954.4717" y1="655.0469" y2="655.0469"/><ellipse cx="719.5" cy="669.3516" fill="#84BE84" rx="3" ry="3" style="stroke:#038048;stroke-width:1;"/><text fill="#000000" font-family="sans-serif" font-size="14" lengthAdjust="spacing" textLength="220.9717" x="728.5" y="673.5801">retrieveCoursesList(): List&lt;Course&gt;</text><ellipse cx="719.5" cy="686.9609" fill="#84BE84" rx="3" ry="3" style="stroke:#038048;stroke-width:1;"/><text fill="#000000" font-family="sans-serif" font-size="14" lengthAdjust="spacing" textLength="203.082" x="728.5" y="691.1895">getCourseDetails(id: int): Course</text></g><!--class Lesson--><g class="entity" data-entity="Lesson" data-source-line="44" data-uid="ent0007" id="entity_Lesson"><rect fill="#F1F1F1" height="136.0469" rx="2.5" ry="2.5" style="stroke:#181818;stroke-width:0.5;" width="290.5508" x="783.5" y="776.6094"/><ellipse cx="901.9531" cy="792.6094" fill="#ADD1B2" rx="11" ry="11" style="stroke:#181818;stroke-width:1;"/><path d="M904.7188,788.4844 Q904.875,788.2656 905.0625,788.1563 Q905.25,788.0469 905.4688,788.0469 Q905.8438,788.0469 906.0781,788.3125 Q906.3125,788.5625 906.3125,789.1719 L906.3125,790.625 Q906.3125,791.2344 906.0781,791.5 Q905.8438,791.7656 905.4688,791.7656 Q905.125,791.7656 904.9219,791.5625 Q904.7188,791.375 904.6094,790.8594 Q904.5625,790.5 904.375,790.3125 Q904.0469,789.9375 903.4375,789.7188 Q902.8281,789.5 902.2031,789.5 Q901.4375,789.5 900.7969,789.8281 Q900.1719,790.1563 899.6719,790.9063 Q899.1875,791.6563 899.1875,792.6875 L899.1875,793.7813 Q899.1875,795.0156 900.0781,795.8438 Q900.9688,796.6563 902.5625,796.6563 Q903.5,796.6563 904.1563,796.4063 Q904.5469,796.25 904.9688,795.8125 Q905.2344,795.5469 905.375,795.4688 Q905.5313,795.3906 905.7344,795.3906 Q906.0625,795.3906 906.3125,795.6563 Q906.5781,795.9063 906.5781,796.25 Q906.5781,796.5938 906.2344,797 Q905.7344,797.5781 904.9375,797.9063 Q903.8594,798.3594 902.5625,798.3594 Q901.0469,798.3594 899.8438,797.7344 Q898.8594,797.2344 898.1719,796.1719 Q897.4844,795.0938 897.4844,793.8125 L897.4844,792.6563 Q897.4844,791.3281 898.0938,790.1875 Q898.7188,789.0313 899.8125,788.4219 Q900.9063,787.7969 902.1406,787.7969 Q902.875,787.7969 903.5156,787.9688 Q904.1719,788.125 904.7188,788.4844 Z " fill="#000000"/><text fill="#000000" font-family="sans-serif" font-size="14" lengthAdjust="spacing" textLength="45.1445" x="922.4531" y="798.3379">Lesson</text><line style="stroke:#181818;stroke-width:0.5;" x1="784.5" x2="1073.0508" y1="808.6094" y2="808.6094"/><rect fill="none" height="6" style="stroke:#C82930;stroke-width:1;" width="6" x="791.5" y="819.9141"/><text fill="#000000" font-family="sans-serif" font-size="14" lengthAdjust="spacing" textLength="77.0342" x="803.5" y="827.1426">lessonID: int</text><rect fill="none" height="6" style="stroke:#C82930;stroke-width:1;" width="6" x="791.5" y="837.5234"/><text fill="#000000" font-family="sans-serif" font-size="14" lengthAdjust="spacing" textLength="126.7998" x="803.5" y="844.752">startTime: DateTime</text><rect fill="none" height="6" style="stroke:#C82930;stroke-width:1;" width="6" x="791.5" y="855.1328"/><text fill="#000000" font-family="sans-serif" font-size="14" lengthAdjust="spacing" textLength="122.9307" x="803.5" y="862.3613">endTime: DateTime</text><rect fill="none" height="6" style="stroke:#C82930;stroke-width:1;" width="6" x="791.5" y="872.7422"/><text fill="#000000" font-family="sans-serif" font-size="14" lengthAdjust="spacing" textLength="124.5303" x="803.5" y="879.9707">isAvailable: boolean</text><line style="stroke:#181818;stroke-width:0.5;" x1="784.5" x2="1073.0508" y1="887.0469" y2="887.0469"/><ellipse cx="794.5" cy="901.3516" fill="#84BE84" rx="3" ry="3" style="stroke:#038048;stroke-width:1;"/><text fill="#000000" font-family="sans-serif" font-size="14" lengthAdjust="spacing" textLength="264.5508" x="803.5" y="905.5801">checkAvailability(time: DateTime): boolean</text></g><!--class Payment--><g class="entity" data-entity="Payment" data-source-line="52" data-uid="ent0008" id="entity_Payment"><rect fill="#F1F1F1" height="118.4375" rx="2.5" ry="2.5" style="stroke:#181818;stroke-width:0.5;" width="197.1992" x="1177.5" y="81.1094"/><ellipse cx="1244.2256" cy="97.1094" fill="#ADD1B2" rx="11" ry="11" style="stroke:#181818;stroke-width:1;"/><path d="M1246.9912,92.9844 Q1247.1475,92.7656 1247.335,92.6563 Q1247.5225,92.5469 1247.7412,92.5469 Q1248.1162,92.5469 1248.3506,92.8125 Q1248.585,93.0625 1248.585,93.6719 L1248.585,95.125 Q1248.585,95.7344 1248.3506,96 Q1248.1162,96.2656 1247.7412,96.2656 Q1247.3975,96.2656 1247.1943,96.0625 Q1246.9912,95.875 1246.8818,95.3594 Q1246.835,95 1246.6475,94.8125 Q1246.3193,94.4375 1245.71,94.2188 Q1245.1006,94 1244.4756,94 Q1243.71,94 1243.0693,94.3281 Q1242.4443,94.6563 1241.9443,95.4063 Q1241.46,96.1563 1241.46,97.1875 L1241.46,98.2813 Q1241.46,99.5156 1242.3506,100.3438 Q1243.2412,101.1563 1244.835,101.1563 Q1245.7725,101.1563 1246.4287,100.9063 Q1246.8193,100.75 1247.2412,100.3125 Q1247.5068,100.0469 1247.6475,99.9688 Q1247.8037,99.8906 1248.0068,99.8906 Q1248.335,99.8906 1248.585,100.1563 Q1248.8506,100.4063 1248.8506,100.75 Q1248.8506,101.0938 1248.5068,101.5 Q1248.0068,102.0781 1247.21,102.4063 Q1246.1318,102.8594 1244.835,102.8594 Q1243.3193,102.8594 1242.1162,102.2344 Q1241.1318,101.7344 1240.4443,100.6719 Q1239.7568,99.5938 1239.7568,98.3125 L1239.7568,97.1563 Q1239.7568,95.8281 1240.3662,94.6875 Q1240.9912,93.5313 1242.085,92.9219 Q1243.1787,92.2969 1244.4131,92.2969 Q1245.1475,92.2969 1245.7881,92.4688 Q1246.4443,92.625 1246.9912,92.9844 Z " fill="#000000"/><text fill="#000000" font-family="sans-serif" font-size="14" lengthAdjust="spacing" textLength="55.248" x="1264.7256" y="102.8379">Payment</text><line style="stroke:#181818;stroke-width:0.5;" x1="1178.5" x2="1373.6992" y1="113.1094" y2="113.1094"/><rect fill="none" height="6" style="stroke:#C82930;stroke-width:1;" width="6" x="1185.5" y="124.4141"/><text fill="#000000" font-family="sans-serif" font-size="14" lengthAdjust="spacing" textLength="105.0479" x="1197.5" y="131.6426">transactionID: int</text><rect fill="none" height="6" style="stroke:#C82930;stroke-width:1;" width="6" x="1185.5" y="142.0234"/><text fill="#000000" font-family="sans-serif" font-size="14" lengthAdjust="spacing" textLength="96.5166" x="1197.5" y="149.252">amount: double</text><line style="stroke:#181818;stroke-width:0.5;" x1="1178.5" x2="1373.6992" y1="156.3281" y2="156.3281"/><ellipse cx="1188.5" cy="170.6328" fill="#84BE84" rx="3" ry="3" style="stroke:#038048;stroke-width:1;"/><text fill="#000000" font-family="sans-serif" font-size="14" lengthAdjust="spacing" textLength="155.6133" x="1197.5" y="174.8613">recordTransaction(): void</text><ellipse cx="1188.5" cy="188.2422" fill="#84BE84" rx="3" ry="3" style="stroke:#038048;stroke-width:1;"/><text fill="#000000" font-family="sans-serif" font-size="14" lengthAdjust="spacing" textLength="171.1992" x="1197.5" y="192.4707">processPayment(): boolean</text></g><!--class Coupon--><g class="entity" data-entity="Coupon" data-source-line="59" data-uid="ent0009" id="entity_Coupon"><rect fill="#F1F1F1" height="100.8281" rx="2.5" ry="2.5" style="stroke:#181818;stroke-width:0.5;" width="291.3848" x="1272.5" y="339.1094"/><ellipse cx="1389.4219" cy="355.1094" fill="#ADD1B2" rx="11" ry="11" style="stroke:#181818;stroke-width:1;"/><path d="M1392.1875,350.9844 Q1392.3438,350.7656 1392.5313,350.6563 Q1392.7188,350.5469 1392.9375,350.5469 Q1393.3125,350.5469 1393.5469,350.8125 Q1393.7813,351.0625 1393.7813,351.6719 L1393.7813,353.125 Q1393.7813,353.7344 1393.5469,354 Q1393.3125,354.2656 1392.9375,354.2656 Q1392.5938,354.2656 1392.3906,354.0625 Q1392.1875,353.875 1392.0781,353.3594 Q1392.0313,353 1391.8438,352.8125 Q1391.5156,352.4375 1390.9063,352.2188 Q1390.2969,352 1389.6719,352 Q1388.9063,352 1388.2656,352.3281 Q1387.6406,352.6563 1387.1406,353.4063 Q1386.6563,354.1563 1386.6563,355.1875 L1386.6563,356.2813 Q1386.6563,357.5156 1387.5469,358.3438 Q1388.4375,359.1563 1390.0313,359.1563 Q1390.9688,359.1563 1391.625,358.9063 Q1392.0156,358.75 1392.4375,358.3125 Q1392.7031,358.0469 1392.8438,357.9688 Q1393,357.8906 1393.2031,357.8906 Q1393.5313,357.8906 1393.7813,358.1563 Q1394.0469,358.4063 1394.0469,358.75 Q1394.0469,359.0938 1393.7031,359.5 Q1393.2031,360.0781 1392.4063,360.4063 Q1391.3281,360.8594 1390.0313,360.8594 Q1388.5156,360.8594 1387.3125,360.2344 Q1386.3281,359.7344 1385.6406,358.6719 Q1384.9531,357.5938 1384.9531,356.3125 L1384.9531,355.1563 Q1384.9531,353.8281 1385.5625,352.6875 Q1386.1875,351.5313 1387.2813,350.9219 Q1388.375,350.2969 1389.6094,350.2969 Q1390.3438,350.2969 1390.9844,350.4688 Q1391.6406,350.625 1392.1875,350.9844 Z " fill="#000000"/><text fill="#000000" font-family="sans-serif" font-size="14" lengthAdjust="spacing" textLength="49.041" x="1409.9219" y="360.8379">Coupon</text><line style="stroke:#181818;stroke-width:0.5;" x1="1273.5" x2="1562.8848" y1="371.1094" y2="371.1094"/><rect fill="none" height="6" style="stroke:#C82930;stroke-width:1;" width="6" x="1280.5" y="382.4141"/><text fill="#000000" font-family="sans-serif" font-size="14" lengthAdjust="spacing" textLength="123.751" x="1292.5" y="389.6426">couponCode: String</text><rect fill="none" height="6" style="stroke:#C82930;stroke-width:1;" width="6" x="1280.5" y="400.0234"/><text fill="#000000" font-family="sans-serif" font-size="14" lengthAdjust="spacing" textLength="137.7715" x="1292.5" y="407.252">discountValue: double</text><line style="stroke:#181818;stroke-width:0.5;" x1="1273.5" x2="1562.8848" y1="414.3281" y2="414.3281"/><ellipse cx="1283.5" cy="428.6328" fill="#84BE84" rx="3" ry="3" style="stroke:#038048;stroke-width:1;"/><text fill="#000000" font-family="sans-serif" font-size="14" lengthAdjust="spacing" textLength="265.3848" x="1292.5" y="432.8613">verifyCoupon(couponCode: String): double</text></g><!--class Document--><g class="entity" data-entity="Document" data-source-line="65" data-uid="ent0010" id="entity_Document"><rect fill="#F1F1F1" height="136.0469" rx="2.5" ry="2.5" style="stroke:#181818;stroke-width:0.5;" width="336.4814" x="41" y="553.6094"/><ellipse cx="173.0874" cy="569.6094" fill="#ADD1B2" rx="11" ry="11" style="stroke:#181818;stroke-width:1;"/><path d="M175.853,565.4844 Q176.0093,565.2656 176.1968,565.1563 Q176.3843,565.0469 176.603,565.0469 Q176.978,565.0469 177.2124,565.3125 Q177.4468,565.5625 177.4468,566.1719 L177.4468,567.625 Q177.4468,568.2344 177.2124,568.5 Q176.978,568.7656 176.603,568.7656 Q176.2593,568.7656 176.0562,568.5625 Q175.853,568.375 175.7437,567.8594 Q175.6968,567.5 175.5093,567.3125 Q175.1812,566.9375 174.5718,566.7188 Q173.9624,566.5 173.3374,566.5 Q172.5718,566.5 171.9312,566.8281 Q171.3062,567.1563 170.8062,567.9063 Q170.3218,568.6563 170.3218,569.6875 L170.3218,570.7813 Q170.3218,572.0156 171.2124,572.8438 Q172.103,573.6563 173.6968,573.6563 Q174.6343,573.6563 175.2905,573.4063 Q175.6812,573.25 176.103,572.8125 Q176.3687,572.5469 176.5093,572.4688 Q176.6655,572.3906 176.8687,572.3906 Q177.1968,572.3906 177.4468,572.6563 Q177.7124,572.9063 177.7124,573.25 Q177.7124,573.5938 177.3687,574 Q176.8687,574.5781 176.0718,574.9063 Q174.9937,575.3594 173.6968,575.3594 Q172.1812,575.3594 170.978,574.7344 Q169.9937,574.2344 169.3062,573.1719 Q168.6187,572.0938 168.6187,570.8125 L168.6187,569.6563 Q168.6187,568.3281 169.228,567.1875 Q169.853,566.0313 170.9468,565.4219 Q172.0405,564.7969 173.2749,564.7969 Q174.0093,564.7969 174.6499,564.9688 Q175.3062,565.125 175.853,565.4844 Z " fill="#000000"/><text fill="#000000" font-family="sans-serif" font-size="14" lengthAdjust="spacing" textLength="63.8066" x="193.5874" y="575.3379">Document</text><line style="stroke:#181818;stroke-width:0.5;" x1="42" x2="376.4814" y1="585.6094" y2="585.6094"/><rect fill="none" height="6" style="stroke:#C82930;stroke-width:1;" width="6" x="49" y="596.9141"/><text fill="#000000" font-family="sans-serif" font-size="14" lengthAdjust="spacing" textLength="54.4619" x="61" y="604.1426">fileID: int</text><rect fill="none" height="6" style="stroke:#C82930;stroke-width:1;" width="6" x="49" y="614.5234"/><text fill="#000000" font-family="sans-serif" font-size="14" lengthAdjust="spacing" textLength="99.5928" x="61" y="621.752">fileName: String</text><line style="stroke:#181818;stroke-width:0.5;" x1="42" x2="376.4814" y1="628.8281" y2="628.8281"/><ellipse cx="52" cy="643.1328" fill="#84BE84" rx="3" ry="3" style="stroke:#038048;stroke-width:1;"/><text fill="#000000" font-family="sans-serif" font-size="14" lengthAdjust="spacing" textLength="310.4814" x="61" y="647.3613">updateDocument(id: int, newFile: Document): void</text><ellipse cx="52" cy="660.7422" fill="#84BE84" rx="3" ry="3" style="stroke:#038048;stroke-width:1;"/><text fill="#000000" font-family="sans-serif" font-size="14" lengthAdjust="spacing" textLength="178.1992" x="61" y="664.9707">deleteDocument(id: int): void</text><ellipse cx="52" cy="678.3516" fill="#84BE84" rx="3" ry="3" style="stroke:#038048;stroke-width:1;"/><text fill="#000000" font-family="sans-serif" font-size="14" lengthAdjust="spacing" textLength="253.668" x="61" y="682.5801">verifyDocument(file: Document): boolean</text></g><!--reverse link User to Student--><g class="link" data-entity-1="User" data-entity-2="Student" data-source-line="74" data-uid="lnk11" id="link_User_Student"><path codeLine="74" d="M784.5797,243.9323 C838.2597,276.1023 881.33,301.9194 928.94,330.4394" fill="none" id="User-backto-Student" style="stroke:#181818;stroke-width:1;"/><polygon fill="none" points="769.14,234.6794,781.4954,249.0788,787.664,238.7857,769.14,234.6794" style="stroke:#181818;stroke-width:1;"/></g><!--reverse link User to Teacher--><g class="link" data-entity-1="User" data-entity-2="Teacher" data-source-line="75" data-uid="lnk12" id="link_User_Teacher"><path codeLine="75" d="M444.9124,244.0843 C403.0224,269.7543 373.46,287.8594 333.37,312.4194" fill="none" id="User-backto-Teacher" style="stroke:#181818;stroke-width:1;"/><polygon fill="none" points="460.26,234.6794,441.7775,238.9684,448.0474,249.2001,460.26,234.6794" style="stroke:#181818;stroke-width:1;"/></g><!--reverse link User to Admin--><g class="link" data-entity-1="User" data-entity-2="Admin" data-source-line="76" data-uid="lnk13" id="link_User_Admin"><path codeLine="76" d="M613,252.6794 C613,291.8294 613,317.2694 613,347.9994" fill="none" id="User-backto-Admin" style="stroke:#181818;stroke-width:1;"/><polygon fill="none" points="613,234.6794,607,252.6794,619,252.6794,613,234.6794" style="stroke:#181818;stroke-width:1;"/></g><!--reverse link Course to Lesson--><g class="link" data-entity-1="Course" data-entity-2="Lesson" data-source-line="78" data-uid="lnk14" id="link_Course_Lesson"><path codeLine="78" d="M870.2031,709.6575 C881.2731,734.8775 888.69,751.7694 899.45,776.2894" fill="none" id="Course-backto-Lesson" style="stroke:#181818;stroke-width:1;"/><polygon fill="#181818" points="865.38,698.6694,864.1288,705.7711,870.2031,709.6575,871.4542,702.5557,865.38,698.6694" style="stroke:#181818;stroke-width:1;"/><text fill="#000000" font-family="sans-serif" font-size="13" lengthAdjust="spacing" textLength="19.5127" x="887" y="743.1045">1..*</text></g><!--link Teacher to Course--><g class="link" data-entity-1="Teacher" data-entity-2="Course" data-source-line="79" data-uid="lnk15" id="link_Teacher_Course"><path codeLine="79" d="M411.27,465.2794 C509.15,501.4194 623.52,543.6394 708.28,574.9294" fill="none" id="Teacher-Course" style="stroke:#181818;stroke-width:1;"/><text fill="#000000" font-family="sans-serif" font-size="13" lengthAdjust="spacing" textLength="7.23" x="541" y="511.1045">1</text></g><!--link Teacher to Document--><g class="link" data-entity-1="Teacher" data-entity-2="Document" data-source-line="80" data-uid="lnk16" id="link_Teacher_Document"><path codeLine="80" d="M209,466.8794 C209,494.8594 209,526.3094 209,553.4394" fill="none" id="Teacher-Document" style="stroke:#181818;stroke-width:1;"/><text fill="#000000" font-family="sans-serif" font-size="13" lengthAdjust="spacing" textLength="5.0591" x="210" y="511.1045">*</text></g><!--link Student to Course--><g class="link" data-entity-1="Student" data-entity-2="Course" data-source-line="81" data-uid="lnk17" id="link_Student_Course"><path codeLine="81" d="M977.05,448.6494 C952.58,477.6594 922.65,513.1394 896.35,544.3194" fill="none" id="Student-Course" style="stroke:#181818;stroke-width:1;"/><text fill="#000000" font-family="sans-serif" font-size="13" lengthAdjust="spacing" textLength="5.0591" x="935" y="511.1045">*</text></g><!--link Student to Lesson--><g class="link" data-entity-1="Student" data-entity-2="Lesson" data-source-line="82" data-uid="lnk18" id="link_Student_Lesson"><path codeLine="82" d="M1018.21,448.6594 C1009.34,510.8994 993.41,612.4194 973,698.6094 C966.91,724.3394 958.82,752.2094 951.24,776.5794" fill="none" id="Student-Lesson" style="stroke:#181818;stroke-width:1;"/><text fill="#000000" font-family="sans-serif" font-size="13" lengthAdjust="spacing" textLength="5.0591" x="1004" y="627.1045">*</text></g><!--link Payment to Student--><g class="link" data-entity-1="Payment" data-entity-2="Student" data-source-line="83" data-uid="lnk19" id="link_Payment_Student"><path codeLine="83" d="M1217.39,199.1394 C1177.41,238.7094 1124.67,290.9294 1084.68,330.5194" fill="none" id="Payment-Student" style="stroke:#181818;stroke-width:1;"/><text fill="#000000" font-family="sans-serif" font-size="13" lengthAdjust="spacing" textLength="7.23" x="1152" y="279.1045">1</text></g><!--link Payment to Coupon--><g class="link" data-entity-1="Payment" data-entity-2="Coupon" data-source-line="84" data-uid="lnk20" id="link_Payment_Coupon"><path codeLine="84" d="M1309.29,199.1394 C1333.64,241.5694 1363.3347,293.3248 1386.4847,333.6848" fill="none" id="Payment-to-Coupon" style="stroke:#181818;stroke-width:1;stroke-dasharray:7,7;"/><polygon fill="#181818" points="1389.47,338.8894,1388.4618,329.0923,1386.9822,334.5522,1381.5223,333.0727,1389.47,338.8894" style="stroke:#181818;stroke-width:1;"/><text fill="#000000" font-family="sans-serif" font-size="13" lengthAdjust="spacing" textLength="21.6836" x="1356" y="279.1045">0..1</text></g><!--SRC=[TLN9Rjim4BthAuXSoZInqLwD840G9q00DmZYD7UAdDY3KgJ0nOQx_7ifYQIrnJUzsT-yeHqw2UH1-4UfZ-HUCcl96jdEi8eio0PsZ9_8EnYBMX7wZjOpINumn_UNHS5AwmpZZl0sxgS5G_uK9FmMn8UF9x4Yg5n45AjWHRREeDf522g6SeJL8TLH6p66zrh1iwzAC0FB5P5wXugcUftfUfBcSaLAhIKm5SCCM70lqUk13be9pWUDOixpXSvqalp_5KL7nTPv0Sf5Dgv8QVJHmhtsneAbmNs3rjrqtxVHX- -rjh2Lsb49rchrj6xf6pPJinDbbVRAhOZGlfGmDndVW_0IDcqUggNOz3DU4mN7pQX6of5dU0CMqfmtQclWo2J-PYw8ORIU4lLeBO6pRMo3fdxYt6lcu0qhk9sqxciHR3bEJhfkmbOa9PY9bvg9jUQ-2lJJ3sngFc9BKez4hfNmt4LwPjdEDDo92bLUf843ml4LTjX8lo6YKzxSgk8mZZbl-rxj81sy8W_ALvEQdJ0oyxpzZD4HSytXZfOWmk8DrZFhgGroI8B9emGFE2HLDflvH9axS1sm1XUkn58KQTmEFtVUKPex7r2RTEIOSSCzfkT0YLaSxTqXr6LbC_5muK4f_5UqeaHtekupXUGUNzYfEXzdeD8mPSCpXkDEXtUMQUFX6NWxnz3HWHhDmzIn29rh891MzqZYxUUz5fDzekLD1-zC-l7s3c3muzHbejCCbzazLqrNaUisrp4Sk46Unyzq4dA-ghZzLiQFxOKbqv090HAcOKEVRepHmVRIzRZxGbv1jYTdzrZRelsxkVcxMAJNjeV4jwk7j6TS5F6olYuMIQehSl5zkVnwKQJtBfYYLsCQu9d2O0aHwPKVH0pnSv609-6TMuubac6vl4tY28PlosMm_GS0]--></g></svg>