<svg xmlns="http://www.w3.org/2000/svg" xmlns:xlink="http://www.w3.org/1999/xlink" contentStyleType="text/css" data-diagram-type="CLASS" height="848px" preserveAspectRatio="none" style="width:896px;height:848px;background:#FFFFFF;" version="1.1" viewBox="0 0 896 848" width="896px" zoomAndPan="magnify"><title>EduFlow Class Diagram - Architectural Best Practice Version</title><defs/><g><g class="title" data-source-line="1"><text fill="#000000" font-family="sans-serif" font-size="14" font-weight="bold" lengthAdjust="spacing" textLength="406.1299" x="238.252" y="24.5332">EduFlow Class Diagram - Architectural Best Practice Version</text></g><!--class UserRole--><g class="entity" data-entity="UserRole" data-source-line="4" data-uid="ent0002" id="entity_UserRole"><rect fill="#F1F1F1" height="100.8281" rx="2.5" ry="2.5" style="stroke:#181818;stroke-width:0.5;" width="90.3516" x="118" y="80.6094"/><ellipse cx="133" cy="96.6094" fill="#EB937F" rx="11" ry="11" style="stroke:#181818;stroke-width:1;"/><path d="M131.8594,97.4063 L131.8594,99.9063 L136.1875,99.9063 L136.1875,98.9844 Q136.1875,98.375 136.4219,98.1094 Q136.6719,97.8438 137.0469,97.8438 Q137.4219,97.8438 137.6563,98.1094 Q137.8906,98.375 137.8906,98.9844 L137.8906,101.6094 L129.8906,101.6094 Q129.2656,101.6094 129,101.375 Q128.75,101.1406 128.75,100.75 Q128.75,100.375 129.0156,100.1406 Q129.2813,99.9063 129.8906,99.9063 L130.1563,99.9063 L130.1563,93.25 L129.8906,93.25 Q129.2656,93.25 129,93.0156 Q128.75,92.7813 128.75,92.3906 Q128.75,92.0156 129,91.7813 Q129.2656,91.5469 129.8906,91.5469 L137.5156,91.5469 L137.5156,94.1406 Q137.5156,94.75 137.2813,95.0156 Q137.0625,95.2656 136.6719,95.2656 Q136.2969,95.2656 136.0625,95.0156 Q135.8281,94.75 135.8281,94.1406 L135.8281,93.25 L131.8594,93.25 L131.8594,95.7031 L133.3438,95.7031 Q133.3438,95.0469 133.4688,94.8594 Q133.7344,94.4531 134.2031,94.4531 Q134.5781,94.4531 134.8125,94.7188 Q135.0469,94.9688 135.0469,95.5781 L135.0469,97.5469 Q135.0469,98.0938 134.9219,98.2813 Q134.6563,98.6719 134.2031,98.6719 Q133.7344,98.6719 133.4688,98.2656 Q133.3438,98.0781 133.3438,97.4063 L131.8594,97.4063 Z " fill="#000000"/><text fill="#000000" font-family="sans-serif" font-size="14" lengthAdjust="spacing" textLength="58.3516" x="147" y="102.3379">UserRole</text><line style="stroke:#181818;stroke-width:0.5;" x1="119" x2="207.3516" y1="112.6094" y2="112.6094"/><text fill="#000000" font-family="sans-serif" font-size="14" lengthAdjust="spacing" textLength="66.1104" x="124" y="131.1426">STUDENT</text><text fill="#000000" font-family="sans-serif" font-size="14" lengthAdjust="spacing" textLength="66.8965" x="124" y="148.752">TEACHER</text><text fill="#000000" font-family="sans-serif" font-size="14" lengthAdjust="spacing" textLength="45.1104" x="124" y="166.3613">ADMIN</text><line style="stroke:#181818;stroke-width:0.5;" x1="119" x2="207.3516" y1="173.4375" y2="173.4375"/></g><!--class TransactionStatus--><g class="entity" data-entity="TransactionStatus" data-source-line="10" data-uid="ent0003" id="entity_TransactionStatus"><rect fill="#F1F1F1" height="118.4375" rx="2.5" ry="2.5" style="stroke:#181818;stroke-width:0.5;" width="144.834" x="243.5" y="72.1094"/><ellipse cx="258.5" cy="88.1094" fill="#EB937F" rx="11" ry="11" style="stroke:#181818;stroke-width:1;"/><path d="M257.3594,88.9063 L257.3594,91.4063 L261.6875,91.4063 L261.6875,90.4844 Q261.6875,89.875 261.9219,89.6094 Q262.1719,89.3438 262.5469,89.3438 Q262.9219,89.3438 263.1563,89.6094 Q263.3906,89.875 263.3906,90.4844 L263.3906,93.1094 L255.3906,93.1094 Q254.7656,93.1094 254.5,92.875 Q254.25,92.6406 254.25,92.25 Q254.25,91.875 254.5156,91.6406 Q254.7813,91.4063 255.3906,91.4063 L255.6563,91.4063 L255.6563,84.75 L255.3906,84.75 Q254.7656,84.75 254.5,84.5156 Q254.25,84.2813 254.25,83.8906 Q254.25,83.5156 254.5,83.2813 Q254.7656,83.0469 255.3906,83.0469 L263.0156,83.0469 L263.0156,85.6406 Q263.0156,86.25 262.7813,86.5156 Q262.5625,86.7656 262.1719,86.7656 Q261.7969,86.7656 261.5625,86.5156 Q261.3281,86.25 261.3281,85.6406 L261.3281,84.75 L257.3594,84.75 L257.3594,87.2031 L258.8438,87.2031 Q258.8438,86.5469 258.9688,86.3594 Q259.2344,85.9531 259.7031,85.9531 Q260.0781,85.9531 260.3125,86.2188 Q260.5469,86.4688 260.5469,87.0781 L260.5469,89.0469 Q260.5469,89.5938 260.4219,89.7813 Q260.1563,90.1719 259.7031,90.1719 Q259.2344,90.1719 258.9688,89.7656 Q258.8438,89.5781 258.8438,88.9063 L257.3594,88.9063 Z " fill="#000000"/><text fill="#000000" font-family="sans-serif" font-size="14" lengthAdjust="spacing" textLength="112.834" x="272.5" y="93.8379">TransactionStatus</text><line style="stroke:#181818;stroke-width:0.5;" x1="244.5" x2="387.334" y1="104.1094" y2="104.1094"/><text fill="#000000" font-family="sans-serif" font-size="14" lengthAdjust="spacing" textLength="63.7861" x="249.5" y="122.6426">PENDING</text><text fill="#000000" font-family="sans-serif" font-size="14" lengthAdjust="spacing" textLength="67.6826" x="249.5" y="140.252">SUCCESS</text><text fill="#000000" font-family="sans-serif" font-size="14" lengthAdjust="spacing" textLength="49.0137" x="249.5" y="157.8613">FAILED</text><text fill="#000000" font-family="sans-serif" font-size="14" lengthAdjust="spacing" textLength="77.7793" x="249.5" y="175.4707">REFUNDED</text><line style="stroke:#181818;stroke-width:0.5;" x1="244.5" x2="387.334" y1="182.5469" y2="182.5469"/></g><!--class User--><g class="entity" data-entity="User" data-source-line="18" data-uid="ent0004" id="entity_User"><rect fill="#F1F1F1" height="171.2656" rx="2.5" ry="2.5" style="stroke:#181818;stroke-width:0.5;" width="169.2129" x="423.5" y="45.6094"/><ellipse cx="489.0771" cy="61.6094" fill="#A9DCDF" rx="11" ry="11" style="stroke:#181818;stroke-width:1;"/><path d="M491.2646,63.375 L487.124,63.375 L486.7021,64.4063 L487.124,64.4063 Q487.7334,64.4063 487.999,64.6406 Q488.2646,64.875 488.2646,65.2656 Q488.2646,65.6406 487.999,65.875 Q487.7334,66.1094 487.124,66.1094 L484.8271,66.1094 Q484.2178,66.1094 483.9678,65.875 Q483.7021,65.6406 483.7021,65.25 Q483.7021,64.875 483.9834,64.6406 Q484.249,64.3906 484.874,64.4063 L487.5459,57.75 L486.4365,57.75 Q485.8271,57.75 485.5615,57.5156 Q485.2959,57.2813 485.2959,56.8906 Q485.2959,56.5156 485.5615,56.2813 Q485.8271,56.0469 486.4365,56.0469 L490.1084,56.0469 L493.499,64.4063 Q494.0928,64.4063 494.2803,64.5469 Q494.6709,64.8125 494.6709,65.2656 Q494.6709,65.6406 494.4053,65.875 Q494.1553,66.1094 493.5459,66.1094 L491.249,66.1094 Q490.6396,66.1094 490.374,65.875 Q490.1084,65.6406 490.1084,65.25 Q490.1084,64.875 490.374,64.6406 Q490.6396,64.4063 491.249,64.4063 L491.6709,64.4063 L491.2646,63.375 Z M490.5459,61.6719 L489.1865,58.2969 L487.8115,61.6719 L490.5459,61.6719 Z " fill="#000000"/><text fill="#000000" font-family="sans-serif" font-size="14" font-style="italic" lengthAdjust="spacing" textLength="29.5586" x="509.5771" y="67.3379">User</text><line style="stroke:#181818;stroke-width:0.5;" x1="424.5" x2="591.7129" y1="77.6094" y2="77.6094"/><polygon fill="none" points="434.5,86.9141,438.5,90.9141,434.5,94.9141,430.5,90.9141" style="stroke:#B38D22;stroke-width:1;"/><text fill="#000000" font-family="sans-serif" font-size="14" lengthAdjust="spacing" textLength="52.8965" x="443.5" y="96.1426">id: UUID</text><polygon fill="none" points="434.5,104.5234,438.5,108.5234,434.5,112.5234,430.5,108.5234" style="stroke:#B38D22;stroke-width:1;"/><text fill="#000000" font-family="sans-serif" font-size="14" lengthAdjust="spacing" textLength="79.3721" x="443.5" y="113.752">name: String</text><polygon fill="none" points="434.5,122.1328,438.5,126.1328,434.5,130.1328,430.5,126.1328" style="stroke:#B38D22;stroke-width:1;"/><text fill="#000000" font-family="sans-serif" font-size="14" lengthAdjust="spacing" textLength="77.8066" x="443.5" y="131.3613">email: String</text><polygon fill="none" points="434.5,139.7422,438.5,143.7422,434.5,147.7422,430.5,143.7422" style="stroke:#B38D22;stroke-width:1;"/><text fill="#000000" font-family="sans-serif" font-size="14" lengthAdjust="spacing" textLength="136.9512" x="443.5" y="148.9707">passwordHash: String</text><polygon fill="none" points="434.5,157.3516,438.5,161.3516,434.5,165.3516,430.5,161.3516" style="stroke:#B38D22;stroke-width:1;"/><text fill="#000000" font-family="sans-serif" font-size="14" lengthAdjust="spacing" textLength="89.4756" x="443.5" y="166.5801">role: UserRole</text><line style="stroke:#181818;stroke-width:0.5;" x1="424.5" x2="591.7129" y1="173.6563" y2="173.6563"/><ellipse cx="434.5" cy="187.9609" fill="#84BE84" rx="3" ry="3" style="stroke:#038048;stroke-width:1;"/><text fill="#000000" font-family="sans-serif" font-size="14" lengthAdjust="spacing" textLength="143.2129" x="443.5" y="192.1895">authenticate(): boolean</text><ellipse cx="434.5" cy="205.5703" fill="#84BE84" rx="3" ry="3" style="stroke:#038048;stroke-width:1;"/><text fill="#000000" font-family="sans-serif" font-size="14" lengthAdjust="spacing" textLength="135.3789" x="443.5" y="209.7988">resetPassword(): void</text></g><!--class Student--><g class="entity" data-entity="Student" data-source-line="28" data-uid="ent0005" id="entity_Student"><rect fill="#F1F1F1" height="118.4375" rx="2.5" ry="2.5" style="stroke:#181818;stroke-width:0.5;" width="310.7715" x="39.5" y="286.6094"/><ellipse cx="166.5049" cy="302.6094" fill="#ADD1B2" rx="11" ry="11" style="stroke:#181818;stroke-width:1;"/><path d="M169.2705,298.4844 Q169.4268,298.2656 169.6143,298.1563 Q169.8018,298.0469 170.0205,298.0469 Q170.3955,298.0469 170.6299,298.3125 Q170.8643,298.5625 170.8643,299.1719 L170.8643,300.625 Q170.8643,301.2344 170.6299,301.5 Q170.3955,301.7656 170.0205,301.7656 Q169.6768,301.7656 169.4736,301.5625 Q169.2705,301.375 169.1611,300.8594 Q169.1143,300.5 168.9268,300.3125 Q168.5986,299.9375 167.9893,299.7188 Q167.3799,299.5 166.7549,299.5 Q165.9893,299.5 165.3486,299.8281 Q164.7236,300.1563 164.2236,300.9063 Q163.7393,301.6563 163.7393,302.6875 L163.7393,303.7813 Q163.7393,305.0156 164.6299,305.8438 Q165.5205,306.6563 167.1143,306.6563 Q168.0518,306.6563 168.708,306.4063 Q169.0986,306.25 169.5205,305.8125 Q169.7861,305.5469 169.9268,305.4688 Q170.083,305.3906 170.2861,305.3906 Q170.6143,305.3906 170.8643,305.6563 Q171.1299,305.9063 171.1299,306.25 Q171.1299,306.5938 170.7861,307 Q170.2861,307.5781 169.4893,307.9063 Q168.4111,308.3594 167.1143,308.3594 Q165.5986,308.3594 164.3955,307.7344 Q163.4111,307.2344 162.7236,306.1719 Q162.0361,305.0938 162.0361,303.8125 L162.0361,302.6563 Q162.0361,301.3281 162.6455,300.1875 Q163.2705,299.0313 164.3643,298.4219 Q165.458,297.7969 166.6924,297.7969 Q167.4268,297.7969 168.0674,297.9688 Q168.7236,298.125 169.2705,298.4844 Z " fill="#000000"/><text fill="#000000" font-family="sans-serif" font-size="14" lengthAdjust="spacing" textLength="48.2617" x="187.0049" y="308.3379">Student</text><line style="stroke:#181818;stroke-width:0.5;" x1="40.5" x2="349.2715" y1="318.6094" y2="318.6094"/><rect fill="none" height="6" style="stroke:#C82930;stroke-width:1;" width="6" x="47.5" y="329.9141"/><text fill="#000000" font-family="sans-serif" font-size="14" lengthAdjust="spacing" textLength="192.9922" x="59.5" y="337.1426">enrolledCourses: List&lt;Course&gt;</text><line style="stroke:#181818;stroke-width:0.5;" x1="40.5" x2="349.2715" y1="344.2188" y2="344.2188"/><ellipse cx="50.5" cy="358.5234" fill="#84BE84" rx="3" ry="3" style="stroke:#038048;stroke-width:1;"/><text fill="#000000" font-family="sans-serif" font-size="14" lengthAdjust="spacing" textLength="193.7578" x="59.5" y="362.752">browseCatalog(): List&lt;Course&gt;</text><ellipse cx="50.5" cy="376.1328" fill="#84BE84" rx="3" ry="3" style="stroke:#038048;stroke-width:1;"/><text fill="#000000" font-family="sans-serif" font-size="14" lengthAdjust="spacing" textLength="242.0195" x="59.5" y="380.3613">bookSlot(lesson: Lesson): Subscription</text><ellipse cx="50.5" cy="393.7422" fill="#84BE84" rx="3" ry="3" style="stroke:#038048;stroke-width:1;"/><text fill="#000000" font-family="sans-serif" font-size="14" lengthAdjust="spacing" textLength="284.7715" x="59.5" y="397.9707">makePayment(amount: Decimal): Transaction</text></g><!--class Teacher--><g class="entity" data-entity="Teacher" data-source-line="35" data-uid="ent0006" id="entity_Teacher"><rect fill="#F1F1F1" height="136.0469" rx="2.5" ry="2.5" style="stroke:#181818;stroke-width:0.5;" width="245.4404" x="385.5" y="277.6094"/><ellipse cx="478.291" cy="293.6094" fill="#ADD1B2" rx="11" ry="11" style="stroke:#181818;stroke-width:1;"/><path d="M481.0566,289.4844 Q481.2129,289.2656 481.4004,289.1563 Q481.5879,289.0469 481.8066,289.0469 Q482.1816,289.0469 482.416,289.3125 Q482.6504,289.5625 482.6504,290.1719 L482.6504,291.625 Q482.6504,292.2344 482.416,292.5 Q482.1816,292.7656 481.8066,292.7656 Q481.4629,292.7656 481.2598,292.5625 Q481.0566,292.375 480.9473,291.8594 Q480.9004,291.5 480.7129,291.3125 Q480.3848,290.9375 479.7754,290.7188 Q479.166,290.5 478.541,290.5 Q477.7754,290.5 477.1348,290.8281 Q476.5098,291.1563 476.0098,291.9063 Q475.5254,292.6563 475.5254,293.6875 L475.5254,294.7813 Q475.5254,296.0156 476.416,296.8438 Q477.3066,297.6563 478.9004,297.6563 Q479.8379,297.6563 480.4941,297.4063 Q480.8848,297.25 481.3066,296.8125 Q481.5723,296.5469 481.7129,296.4688 Q481.8691,296.3906 482.0723,296.3906 Q482.4004,296.3906 482.6504,296.6563 Q482.916,296.9063 482.916,297.25 Q482.916,297.5938 482.5723,298 Q482.0723,298.5781 481.2754,298.9063 Q480.1973,299.3594 478.9004,299.3594 Q477.3848,299.3594 476.1816,298.7344 Q475.1973,298.2344 474.5098,297.1719 Q473.8223,296.0938 473.8223,294.8125 L473.8223,293.6563 Q473.8223,292.3281 474.4316,291.1875 Q475.0566,290.0313 476.1504,289.4219 Q477.2441,288.7969 478.4785,288.7969 Q479.2129,288.7969 479.8535,288.9688 Q480.5098,289.125 481.0566,289.4844 Z " fill="#000000"/><text fill="#000000" font-family="sans-serif" font-size="14" lengthAdjust="spacing" textLength="51.3584" x="498.791" y="299.3379">Teacher</text><line style="stroke:#181818;stroke-width:0.5;" x1="386.5" x2="629.9404" y1="309.6094" y2="309.6094"/><rect fill="none" height="6" style="stroke:#C82930;stroke-width:1;" width="6" x="393.5" y="320.9141"/><text fill="#000000" font-family="sans-serif" font-size="14" lengthAdjust="spacing" textLength="128.3994" x="405.5" y="328.1426">specialization: String</text><rect fill="none" height="6" style="stroke:#C82930;stroke-width:1;" width="6" x="393.5" y="338.5234"/><text fill="#000000" font-family="sans-serif" font-size="14" lengthAdjust="spacing" textLength="127.6475" x="405.5" y="345.752">isApproved: boolean</text><line style="stroke:#181818;stroke-width:0.5;" x1="386.5" x2="629.9404" y1="352.8281" y2="352.8281"/><ellipse cx="396.5" cy="367.1328" fill="#84BE84" rx="3" ry="3" style="stroke:#038048;stroke-width:1;"/><text fill="#000000" font-family="sans-serif" font-size="14" lengthAdjust="spacing" textLength="151.7578" x="405.5" y="371.3613">manageSchedule(): void</text><ellipse cx="396.5" cy="384.7422" fill="#84BE84" rx="3" ry="3" style="stroke:#038048;stroke-width:1;"/><text fill="#000000" font-family="sans-serif" font-size="14" lengthAdjust="spacing" textLength="219.4404" x="405.5" y="388.9707">uploadMaterial(data: Material): void</text><ellipse cx="396.5" cy="402.3516" fill="#84BE84" rx="3" ry="3" style="stroke:#038048;stroke-width:1;"/><text fill="#000000" font-family="sans-serif" font-size="14" lengthAdjust="spacing" textLength="192.1787" x="405.5" y="406.5801">startLesson(id: UUID): Session</text></g><!--class Admin--><g class="entity" data-entity="Admin" data-source-line="43" data-uid="ent0007" id="entity_Admin"><rect fill="#F1F1F1" height="83.2188" rx="2.5" ry="2.5" style="stroke:#181818;stroke-width:0.5;" width="223.6338" x="666" y="304.1094"/><ellipse cx="753.7256" cy="320.1094" fill="#ADD1B2" rx="11" ry="11" style="stroke:#181818;stroke-width:1;"/><path d="M756.4912,315.9844 Q756.6475,315.7656 756.835,315.6563 Q757.0225,315.5469 757.2412,315.5469 Q757.6162,315.5469 757.8506,315.8125 Q758.085,316.0625 758.085,316.6719 L758.085,318.125 Q758.085,318.7344 757.8506,319 Q757.6162,319.2656 757.2412,319.2656 Q756.8975,319.2656 756.6943,319.0625 Q756.4912,318.875 756.3818,318.3594 Q756.335,318 756.1475,317.8125 Q755.8193,317.4375 755.21,317.2188 Q754.6006,317 753.9756,317 Q753.21,317 752.5693,317.3281 Q751.9443,317.6563 751.4443,318.4063 Q750.96,319.1563 750.96,320.1875 L750.96,321.2813 Q750.96,322.5156 751.8506,323.3438 Q752.7412,324.1563 754.335,324.1563 Q755.2725,324.1563 755.9287,323.9063 Q756.3193,323.75 756.7412,323.3125 Q757.0068,323.0469 757.1475,322.9688 Q757.3037,322.8906 757.5068,322.8906 Q757.835,322.8906 758.085,323.1563 Q758.3506,323.4063 758.3506,323.75 Q758.3506,324.0938 758.0068,324.5 Q757.5068,325.0781 756.71,325.4063 Q755.6318,325.8594 754.335,325.8594 Q752.8193,325.8594 751.6162,325.2344 Q750.6318,324.7344 749.9443,323.6719 Q749.2568,322.5938 749.2568,321.3125 L749.2568,320.1563 Q749.2568,318.8281 749.8662,317.6875 Q750.4912,316.5313 751.585,315.9219 Q752.6787,315.2969 753.9131,315.2969 Q754.6475,315.2969 755.2881,315.4688 Q755.9443,315.625 756.4912,315.9844 Z " fill="#000000"/><text fill="#000000" font-family="sans-serif" font-size="14" lengthAdjust="spacing" textLength="39.6826" x="774.2256" y="325.8379">Admin</text><line style="stroke:#181818;stroke-width:0.5;" x1="667" x2="888.6338" y1="336.1094" y2="336.1094"/><line style="stroke:#181818;stroke-width:0.5;" x1="667" x2="888.6338" y1="344.1094" y2="344.1094"/><ellipse cx="677" cy="358.4141" fill="#84BE84" rx="3" ry="3" style="stroke:#038048;stroke-width:1;"/><text fill="#000000" font-family="sans-serif" font-size="14" lengthAdjust="spacing" textLength="197.6338" x="686" y="362.6426">approveTeacher(id: UUID): void</text><ellipse cx="677" cy="376.0234" fill="#84BE84" rx="3" ry="3" style="stroke:#038048;stroke-width:1;"/><text fill="#000000" font-family="sans-serif" font-size="14" lengthAdjust="spacing" textLength="188.2822" x="686" y="380.252">resolveDispute(id: UUID): void</text></g><!--class Course--><g class="entity" data-entity="Course" data-source-line="48" data-uid="ent0008" id="entity_Course"><rect fill="#F1F1F1" height="136.0469" rx="2.5" ry="2.5" style="stroke:#181818;stroke-width:0.5;" width="204.2266" x="226" y="491.6094"/><ellipse cx="301.2979" cy="507.6094" fill="#ADD1B2" rx="11" ry="11" style="stroke:#181818;stroke-width:1;"/><path d="M304.0635,503.4844 Q304.2197,503.2656 304.4072,503.1563 Q304.5947,503.0469 304.8135,503.0469 Q305.1885,503.0469 305.4229,503.3125 Q305.6572,503.5625 305.6572,504.1719 L305.6572,505.625 Q305.6572,506.2344 305.4229,506.5 Q305.1885,506.7656 304.8135,506.7656 Q304.4697,506.7656 304.2666,506.5625 Q304.0635,506.375 303.9541,505.8594 Q303.9072,505.5 303.7197,505.3125 Q303.3916,504.9375 302.7822,504.7188 Q302.1729,504.5 301.5479,504.5 Q300.7822,504.5 300.1416,504.8281 Q299.5166,505.1563 299.0166,505.9063 Q298.5322,506.6563 298.5322,507.6875 L298.5322,508.7813 Q298.5322,510.0156 299.4229,510.8438 Q300.3135,511.6563 301.9072,511.6563 Q302.8447,511.6563 303.501,511.4063 Q303.8916,511.25 304.3135,510.8125 Q304.5791,510.5469 304.7197,510.4688 Q304.876,510.3906 305.0791,510.3906 Q305.4072,510.3906 305.6572,510.6563 Q305.9229,510.9063 305.9229,511.25 Q305.9229,511.5938 305.5791,512 Q305.0791,512.5781 304.2822,512.9063 Q303.2041,513.3594 301.9072,513.3594 Q300.3916,513.3594 299.1885,512.7344 Q298.2041,512.2344 297.5166,511.1719 Q296.8291,510.0938 296.8291,508.8125 L296.8291,507.6563 Q296.8291,506.3281 297.4385,505.1875 Q298.0635,504.0313 299.1572,503.4219 Q300.251,502.7969 301.4854,502.7969 Q302.2197,502.7969 302.8604,502.9688 Q303.5166,503.125 304.0635,503.4844 Z " fill="#000000"/><text fill="#000000" font-family="sans-serif" font-size="14" lengthAdjust="spacing" textLength="45.1309" x="321.7979" y="513.3379">Course</text><line style="stroke:#181818;stroke-width:0.5;" x1="227" x2="429.2266" y1="523.6094" y2="523.6094"/><rect fill="none" height="6" style="stroke:#C82930;stroke-width:1;" width="6" x="234" y="534.9141"/><text fill="#000000" font-family="sans-serif" font-size="14" lengthAdjust="spacing" textLength="52.8965" x="246" y="542.1426">id: UUID</text><rect fill="none" height="6" style="stroke:#C82930;stroke-width:1;" width="6" x="234" y="552.5234"/><text fill="#000000" font-family="sans-serif" font-size="14" lengthAdjust="spacing" textLength="66.1377" x="246" y="559.752">title: String</text><rect fill="none" height="6" style="stroke:#C82930;stroke-width:1;" width="6" x="234" y="570.1328"/><text fill="#000000" font-family="sans-serif" font-size="14" lengthAdjust="spacing" textLength="88.6895" x="246" y="577.3613">price: Decimal</text><rect fill="none" height="6" style="stroke:#C82930;stroke-width:1;" width="6" x="234" y="587.7422"/><text fill="#000000" font-family="sans-serif" font-size="14" lengthAdjust="spacing" textLength="105.834" x="246" y="594.9707">teacher: Teacher</text><line style="stroke:#181818;stroke-width:0.5;" x1="227" x2="429.2266" y1="602.0469" y2="602.0469"/><ellipse cx="237" cy="616.3516" fill="#84BE84" rx="3" ry="3" style="stroke:#038048;stroke-width:1;"/><text fill="#000000" font-family="sans-serif" font-size="14" lengthAdjust="spacing" textLength="178.2266" x="246" y="620.5801">getSchedule(): List&lt;Lesson&gt;</text></g><!--class Lesson--><g class="entity" data-entity="Lesson" data-source-line="56" data-uid="ent0009" id="entity_Lesson"><rect fill="#F1F1F1" height="136.0469" rx="2.5" ry="2.5" style="stroke:#181818;stroke-width:0.5;" width="152.7998" x="251.5" y="705.6094"/><ellipse cx="301.0776" cy="721.6094" fill="#ADD1B2" rx="11" ry="11" style="stroke:#181818;stroke-width:1;"/><path d="M303.8433,717.4844 Q303.9995,717.2656 304.187,717.1563 Q304.3745,717.0469 304.5933,717.0469 Q304.9683,717.0469 305.2026,717.3125 Q305.437,717.5625 305.437,718.1719 L305.437,719.625 Q305.437,720.2344 305.2026,720.5 Q304.9683,720.7656 304.5933,720.7656 Q304.2495,720.7656 304.0464,720.5625 Q303.8433,720.375 303.7339,719.8594 Q303.687,719.5 303.4995,719.3125 Q303.1714,718.9375 302.562,718.7188 Q301.9526,718.5 301.3276,718.5 Q300.562,718.5 299.9214,718.8281 Q299.2964,719.1563 298.7964,719.9063 Q298.312,720.6563 298.312,721.6875 L298.312,722.7813 Q298.312,724.0156 299.2026,724.8438 Q300.0933,725.6563 301.687,725.6563 Q302.6245,725.6563 303.2808,725.4063 Q303.6714,725.25 304.0933,724.8125 Q304.3589,724.5469 304.4995,724.4688 Q304.6558,724.3906 304.8589,724.3906 Q305.187,724.3906 305.437,724.6563 Q305.7026,724.9063 305.7026,725.25 Q305.7026,725.5938 305.3589,726 Q304.8589,726.5781 304.062,726.9063 Q302.9839,727.3594 301.687,727.3594 Q300.1714,727.3594 298.9683,726.7344 Q297.9839,726.2344 297.2964,725.1719 Q296.6089,724.0938 296.6089,722.8125 L296.6089,721.6563 Q296.6089,720.3281 297.2183,719.1875 Q297.8433,718.0313 298.937,717.4219 Q300.0308,716.7969 301.2651,716.7969 Q301.9995,716.7969 302.6401,716.9688 Q303.2964,717.125 303.8433,717.4844 Z " fill="#000000"/><text fill="#000000" font-family="sans-serif" font-size="14" lengthAdjust="spacing" textLength="45.1445" x="321.5776" y="727.3379">Lesson</text><line style="stroke:#181818;stroke-width:0.5;" x1="252.5" x2="403.2998" y1="737.6094" y2="737.6094"/><rect fill="none" height="6" style="stroke:#C82930;stroke-width:1;" width="6" x="259.5" y="748.9141"/><text fill="#000000" font-family="sans-serif" font-size="14" lengthAdjust="spacing" textLength="52.8965" x="271.5" y="756.1426">id: UUID</text><rect fill="none" height="6" style="stroke:#C82930;stroke-width:1;" width="6" x="259.5" y="766.5234"/><text fill="#000000" font-family="sans-serif" font-size="14" lengthAdjust="spacing" textLength="126.7998" x="271.5" y="773.752">startTime: DateTime</text><rect fill="none" height="6" style="stroke:#C82930;stroke-width:1;" width="6" x="259.5" y="784.1328"/><text fill="#000000" font-family="sans-serif" font-size="14" lengthAdjust="spacing" textLength="73.1582" x="271.5" y="791.3613">duration: int</text><rect fill="none" height="6" style="stroke:#C82930;stroke-width:1;" width="6" x="259.5" y="801.7422"/><text fill="#000000" font-family="sans-serif" font-size="14" lengthAdjust="spacing" textLength="73.9238" x="271.5" y="808.9707">capacity: int</text><line style="stroke:#181818;stroke-width:0.5;" x1="252.5" x2="403.2998" y1="816.0469" y2="816.0469"/><ellipse cx="262.5" cy="830.3516" fill="#84BE84" rx="3" ry="3" style="stroke:#038048;stroke-width:1;"/><text fill="#000000" font-family="sans-serif" font-size="14" lengthAdjust="spacing" textLength="99.5996" x="271.5" y="834.5801">isFull(): boolean</text></g><!--class Transaction--><g class="entity" data-entity="Transaction" data-source-line="64" data-uid="ent0010" id="entity_Transaction"><rect fill="#F1F1F1" height="136.0469" rx="2.5" ry="2.5" style="stroke:#181818;stroke-width:0.5;" width="183.9648" x="7" y="491.6094"/><ellipse cx="58.1602" cy="507.6094" fill="#ADD1B2" rx="11" ry="11" style="stroke:#181818;stroke-width:1;"/><path d="M60.9258,503.4844 Q61.082,503.2656 61.2695,503.1563 Q61.457,503.0469 61.6758,503.0469 Q62.0508,503.0469 62.2852,503.3125 Q62.5195,503.5625 62.5195,504.1719 L62.5195,505.625 Q62.5195,506.2344 62.2852,506.5 Q62.0508,506.7656 61.6758,506.7656 Q61.332,506.7656 61.1289,506.5625 Q60.9258,506.375 60.8164,505.8594 Q60.7695,505.5 60.582,505.3125 Q60.2539,504.9375 59.6445,504.7188 Q59.0352,504.5 58.4102,504.5 Q57.6445,504.5 57.0039,504.8281 Q56.3789,505.1563 55.8789,505.9063 Q55.3945,506.6563 55.3945,507.6875 L55.3945,508.7813 Q55.3945,510.0156 56.2852,510.8438 Q57.1758,511.6563 58.7695,511.6563 Q59.707,511.6563 60.3633,511.4063 Q60.7539,511.25 61.1758,510.8125 Q61.4414,510.5469 61.582,510.4688 Q61.7383,510.3906 61.9414,510.3906 Q62.2695,510.3906 62.5195,510.6563 Q62.7852,510.9063 62.7852,511.25 Q62.7852,511.5938 62.4414,512 Q61.9414,512.5781 61.1445,512.9063 Q60.0664,513.3594 58.7695,513.3594 Q57.2539,513.3594 56.0508,512.7344 Q55.0664,512.2344 54.3789,511.1719 Q53.6914,510.0938 53.6914,508.8125 L53.6914,507.6563 Q53.6914,506.3281 54.3008,505.1875 Q54.9258,504.0313 56.0195,503.4219 Q57.1133,502.7969 58.3477,502.7969 Q59.082,502.7969 59.7227,502.9688 Q60.3789,503.125 60.9258,503.4844 Z " fill="#000000"/><text fill="#000000" font-family="sans-serif" font-size="14" lengthAdjust="spacing" textLength="73.1445" x="78.6602" y="513.3379">Transaction</text><line style="stroke:#181818;stroke-width:0.5;" x1="8" x2="189.9648" y1="523.6094" y2="523.6094"/><rect fill="none" height="6" style="stroke:#C82930;stroke-width:1;" width="6" x="15" y="534.9141"/><text fill="#000000" font-family="sans-serif" font-size="14" lengthAdjust="spacing" textLength="52.8965" x="27" y="542.1426">id: UUID</text><rect fill="none" height="6" style="stroke:#C82930;stroke-width:1;" width="6" x="15" y="552.5234"/><text fill="#000000" font-family="sans-serif" font-size="14" lengthAdjust="spacing" textLength="105.041" x="27" y="559.752">amount: Decimal</text><rect fill="none" height="6" style="stroke:#C82930;stroke-width:1;" width="6" x="15" y="570.1328"/><text fill="#000000" font-family="sans-serif" font-size="14" lengthAdjust="spacing" textLength="157.9648" x="27" y="577.3613">status: TransactionStatus</text><rect fill="none" height="6" style="stroke:#C82930;stroke-width:1;" width="6" x="15" y="587.7422"/><text fill="#000000" font-family="sans-serif" font-size="14" lengthAdjust="spacing" textLength="133.0342" x="27" y="594.9707">timestamp: DateTime</text><line style="stroke:#181818;stroke-width:0.5;" x1="8" x2="189.9648" y1="602.0469" y2="602.0469"/><ellipse cx="18" cy="616.3516" fill="#84BE84" rx="3" ry="3" style="stroke:#038048;stroke-width:1;"/><text fill="#000000" font-family="sans-serif" font-size="14" lengthAdjust="spacing" textLength="115.9648" x="27" y="620.5801">execute(): boolean</text></g><!--class Material--><g class="entity" data-entity="Material" data-source-line="72" data-uid="ent0011" id="entity_Material"><rect fill="#F1F1F1" height="118.4375" rx="2.5" ry="2.5" style="stroke:#181818;stroke-width:0.5;" width="141.1855" x="465.5" y="500.6094"/><ellipse cx="507.2267" cy="516.6094" fill="#ADD1B2" rx="11" ry="11" style="stroke:#181818;stroke-width:1;"/><path d="M509.9923,512.4844 Q510.1485,512.2656 510.336,512.1563 Q510.5235,512.0469 510.7423,512.0469 Q511.1173,512.0469 511.3517,512.3125 Q511.586,512.5625 511.586,513.1719 L511.586,514.625 Q511.586,515.2344 511.3517,515.5 Q511.1173,515.7656 510.7423,515.7656 Q510.3985,515.7656 510.1954,515.5625 Q509.9923,515.375 509.8829,514.8594 Q509.836,514.5 509.6485,514.3125 Q509.3204,513.9375 508.711,513.7188 Q508.1017,513.5 507.4767,513.5 Q506.711,513.5 506.0704,513.8281 Q505.4454,514.1563 504.9454,514.9063 Q504.461,515.6563 504.461,516.6875 L504.461,517.7813 Q504.461,519.0156 505.3517,519.8438 Q506.2423,520.6563 507.836,520.6563 Q508.7735,520.6563 509.4298,520.4063 Q509.8204,520.25 510.2423,519.8125 Q510.5079,519.5469 510.6485,519.4688 Q510.8048,519.3906 511.0079,519.3906 Q511.336,519.3906 511.586,519.6563 Q511.8517,519.9063 511.8517,520.25 Q511.8517,520.5938 511.5079,521 Q511.0079,521.5781 510.211,521.9063 Q509.1329,522.3594 507.836,522.3594 Q506.3204,522.3594 505.1173,521.7344 Q504.1329,521.2344 503.4454,520.1719 Q502.7579,519.0938 502.7579,517.8125 L502.7579,516.6563 Q502.7579,515.3281 503.3673,514.1875 Q503.9923,513.0313 505.086,512.4219 Q506.1798,511.7969 507.4142,511.7969 Q508.1485,511.7969 508.7892,511.9688 Q509.4454,512.125 509.9923,512.4844 Z " fill="#000000"/><text fill="#000000" font-family="sans-serif" font-size="14" lengthAdjust="spacing" textLength="49.793" x="527.1659" y="522.3379">Material</text><line style="stroke:#181818;stroke-width:0.5;" x1="466.5" x2="605.6855" y1="532.6094" y2="532.6094"/><rect fill="none" height="6" style="stroke:#C82930;stroke-width:1;" width="6" x="473.5" y="543.9141"/><text fill="#000000" font-family="sans-serif" font-size="14" lengthAdjust="spacing" textLength="52.8965" x="485.5" y="551.1426">id: UUID</text><rect fill="none" height="6" style="stroke:#C82930;stroke-width:1;" width="6" x="473.5" y="561.5234"/><text fill="#000000" font-family="sans-serif" font-size="14" lengthAdjust="spacing" textLength="70.8135" x="485.5" y="568.752">type: String</text><rect fill="none" height="6" style="stroke:#C82930;stroke-width:1;" width="6" x="473.5" y="579.1328"/><text fill="#000000" font-family="sans-serif" font-size="14" lengthAdjust="spacing" textLength="77.0205" x="485.5" y="586.3613">s3Url: String</text><line style="stroke:#181818;stroke-width:0.5;" x1="466.5" x2="605.6855" y1="593.4375" y2="593.4375"/><ellipse cx="476.5" cy="607.7422" fill="#84BE84" rx="3" ry="3" style="stroke:#038048;stroke-width:1;"/><text fill="#000000" font-family="sans-serif" font-size="14" lengthAdjust="spacing" textLength="115.1855" x="485.5" y="611.9707">validate(): boolean</text></g><!--class Coupon--><g class="entity" data-entity="Coupon" data-source-line="88" data-uid="ent0019" id="entity_Coupon"><rect fill="#F1F1F1" height="48" rx="2.5" ry="2.5" style="stroke:#181818;stroke-width:0.5;" width="81.041" x="58.5" y="749.6094"/><ellipse cx="73.5" cy="765.6094" fill="#ADD1B2" rx="11" ry="11" style="stroke:#181818;stroke-width:1;"/><path d="M76.2656,761.4844 Q76.4219,761.2656 76.6094,761.1563 Q76.7969,761.0469 77.0156,761.0469 Q77.3906,761.0469 77.625,761.3125 Q77.8594,761.5625 77.8594,762.1719 L77.8594,763.625 Q77.8594,764.2344 77.625,764.5 Q77.3906,764.7656 77.0156,764.7656 Q76.6719,764.7656 76.4688,764.5625 Q76.2656,764.375 76.1563,763.8594 Q76.1094,763.5 75.9219,763.3125 Q75.5938,762.9375 74.9844,762.7188 Q74.375,762.5 73.75,762.5 Q72.9844,762.5 72.3438,762.8281 Q71.7188,763.1563 71.2188,763.9063 Q70.7344,764.6563 70.7344,765.6875 L70.7344,766.7813 Q70.7344,768.0156 71.625,768.8438 Q72.5156,769.6563 74.1094,769.6563 Q75.0469,769.6563 75.7031,769.4063 Q76.0938,769.25 76.5156,768.8125 Q76.7813,768.5469 76.9219,768.4688 Q77.0781,768.3906 77.2813,768.3906 Q77.6094,768.3906 77.8594,768.6563 Q78.125,768.9063 78.125,769.25 Q78.125,769.5938 77.7813,770 Q77.2813,770.5781 76.4844,770.9063 Q75.4063,771.3594 74.1094,771.3594 Q72.5938,771.3594 71.3906,770.7344 Q70.4063,770.2344 69.7188,769.1719 Q69.0313,768.0938 69.0313,766.8125 L69.0313,765.6563 Q69.0313,764.3281 69.6406,763.1875 Q70.2656,762.0313 71.3594,761.4219 Q72.4531,760.7969 73.6875,760.7969 Q74.4219,760.7969 75.0625,760.9688 Q75.7188,761.125 76.2656,761.4844 Z " fill="#000000"/><text fill="#000000" font-family="sans-serif" font-size="14" lengthAdjust="spacing" textLength="49.041" x="87.5" y="771.3379">Coupon</text><line style="stroke:#181818;stroke-width:0.5;" x1="59.5" x2="138.541" y1="781.6094" y2="781.6094"/><line style="stroke:#181818;stroke-width:0.5;" x1="59.5" x2="138.541" y1="789.6094" y2="789.6094"/></g><!--reverse link User to Student--><g class="link" data-entity-1="User" data-entity-2="Student" data-source-line="80" data-uid="lnk12" id="link_User_Student"><path codeLine="80" d="M408.9924,214.7515 C403.2024,219.1715 411.71,212.5394 406,216.6094 C371.7,241.0194 332.65,265.5494 297.55,286.5094" fill="none" id="User-backto-Student" style="stroke:#181818;stroke-width:1;"/><polygon fill="none" points="423.3,203.8294,405.3517,209.9824,412.6332,219.5207,423.3,203.8294" style="stroke:#181818;stroke-width:1;"/></g><!--reverse link User to Teacher--><g class="link" data-entity-1="User" data-entity-2="Teacher" data-source-line="81" data-uid="lnk13" id="link_User_Teacher"><path codeLine="81" d="M508,234.7094 C508,254.8494 508,258.0694 508,277.3094" fill="none" id="User-backto-Teacher" style="stroke:#181818;stroke-width:1;"/><polygon fill="none" points="508,216.7094,502,234.7094,514,234.7094,508,216.7094" style="stroke:#181818;stroke-width:1;"/></g><!--reverse link User to Admin--><g class="link" data-entity-1="User" data-entity-2="Admin" data-source-line="82" data-uid="lnk14" id="link_User_Admin"><path codeLine="82" d="M606.8344,209.892 C650.6044,244.342 688.45,274.1294 726.21,303.8494" fill="none" id="User-backto-Admin" style="stroke:#181818;stroke-width:1;"/><polygon fill="none" points="592.69,198.7594,603.1235,214.6068,610.5453,205.1772,592.69,198.7594" style="stroke:#181818;stroke-width:1;"/></g><!--link Teacher to Course--><g class="link" data-entity-1="Teacher" data-entity-2="Course" data-source-line="84" data-uid="lnk15" id="link_Teacher_Course"><path codeLine="84" d="M451.05,413.6894 C429.93,438.5594 406,466.7394 384.89,491.5994" fill="none" id="Teacher-Course" style="stroke:#181818;stroke-width:1;"/><text fill="#000000" font-family="sans-serif" font-size="13" lengthAdjust="spacing" textLength="42.6309" x="425" y="458.1045">creates</text><text fill="#000000" font-family="sans-serif" font-size="13" lengthAdjust="spacing" textLength="7.23" x="437.8052" y="435.046">1</text><text fill="#000000" font-family="sans-serif" font-size="13" lengthAdjust="spacing" textLength="5.0591" x="385.8297" y="480.7976">*</text></g><!--reverse link Course to Lesson--><g class="link" data-entity-1="Course" data-entity-2="Lesson" data-source-line="85" data-uid="lnk16" id="link_Course_Lesson"><path codeLine="85" d="M328,639.6894 C328,664.5594 328,680.7394 328,705.5994" fill="none" id="Course-backto-Lesson" style="stroke:#181818;stroke-width:1;"/><polygon fill="#181818" points="328,627.6894,324,633.6894,328,639.6894,332,633.6894,328,627.6894" style="stroke:#181818;stroke-width:1;"/><text fill="#000000" font-family="sans-serif" font-size="13" lengthAdjust="spacing" textLength="48.4199" x="329" y="672.1045">contains</text><text fill="#000000" font-family="sans-serif" font-size="13" lengthAdjust="spacing" textLength="7.23" x="320.6392" y="649.046">1</text><text fill="#000000" font-family="sans-serif" font-size="13" lengthAdjust="spacing" textLength="5.0591" x="322.7407" y="694.7976">*</text></g><!--link Student to Course--><g class="link" data-entity-1="Student" data-entity-2="Course" data-source-line="86" data-uid="lnk17" id="link_Student_Course"><path codeLine="86" d="M231.52,404.8194 C248.36,431.6694 268.45,463.6794 285.92,491.5294" fill="none" id="Student-Course" style="stroke:#181818;stroke-width:1;"/><text fill="#000000" font-family="sans-serif" font-size="13" lengthAdjust="spacing" textLength="52.0254" x="267" y="458.1045">enrolls in</text><text fill="#000000" font-family="sans-serif" font-size="13" lengthAdjust="spacing" textLength="5.0591" x="230.6837" y="426.5005">*</text><text fill="#000000" font-family="sans-serif" font-size="13" lengthAdjust="spacing" textLength="5.0591" x="276.0349" y="480.7199">*</text></g><!--link Student to Transaction--><g class="link" data-entity-1="Student" data-entity-2="Transaction" data-source-line="87" data-uid="lnk18" id="link_Student_Transaction"><path codeLine="87" d="M168.64,404.8194 C156.48,431.6694 141.99,463.6794 129.37,491.5294" fill="none" id="Student-Transaction" style="stroke:#181818;stroke-width:1;"/><text fill="#000000" font-family="sans-serif" font-size="13" lengthAdjust="spacing" textLength="51.2891" x="151" y="458.1045">performs</text><text fill="#000000" font-family="sans-serif" font-size="13" lengthAdjust="spacing" textLength="7.23" x="158.0288" y="426.5005">1</text><text fill="#000000" font-family="sans-serif" font-size="13" lengthAdjust="spacing" textLength="5.0591" x="127.4234" y="480.7199">*</text></g><!--link Transaction to Coupon--><g class="link" data-entity-1="Transaction" data-entity-2="Coupon" data-source-line="88" data-uid="lnk20" id="link_Transaction_Coupon"><path codeLine="88" d="M99,627.6894 C99,669.4194 99,720.4894 99,749.5194" fill="none" id="Transaction-Coupon" style="stroke:#181818;stroke-width:1;"/><text fill="#000000" font-family="sans-serif" font-size="13" lengthAdjust="spacing" textLength="41.1963" x="100" y="672.1045">applies</text><text fill="#000000" font-family="sans-serif" font-size="13" lengthAdjust="spacing" textLength="21.6836" x="76.9542" y="649.046">0..1</text><text fill="#000000" font-family="sans-serif" font-size="13" lengthAdjust="spacing" textLength="7.23" x="91.1273" y="738.8365">1</text></g><!--link Teacher to Material--><g class="link" data-entity-1="Teacher" data-entity-2="Material" data-source-line="89" data-uid="lnk21" id="link_Teacher_Material"><path codeLine="89" d="M516.86,413.6894 C520.54,441.5894 524.78,473.6694 528.33,500.5394" fill="none" id="Teacher-Material" style="stroke:#181818;stroke-width:1;"/><text fill="#000000" font-family="sans-serif" font-size="13" lengthAdjust="spacing" textLength="53.479" x="524" y="458.1045">manages</text><text fill="#000000" font-family="sans-serif" font-size="13" lengthAdjust="spacing" textLength="7.23" x="510.4019" y="435.046">1</text><text fill="#000000" font-family="sans-serif" font-size="13" lengthAdjust="spacing" textLength="5.0591" x="522.0828" y="489.8551">*</text></g><!--SRC=[TLLDRzim3BtxLn3POTcA32jsCue1MUnk1TgWg9FTMPjBXCcI8Sdjkgt_VTI77ITTSub4KjJZUnJjX9C4PTDVIlq8AudMGY5mPx251InDlHUEQjSRbF25h8DRWxKJDS5tCbPebMLlOR5OGAdwri8FRM3pr15K-8FSa_Tan1xOMZ9tcg_wam7_gissADURiDwKozMtyYwibyNDrJfxpkAXZK5b_NLQLGvTRzFfst9TNAs_napRrQgigh2-N5vTbqLOtfMNstN1c-S1u4eRYWMI3RZmtZfV3DIXQeymvNy3eibXkxqgqbPXIpbKpWYrIoPgKSWJMyTv7hLflg7TdxWCrvwFB0JZ6M3lzgIOJNGqVvV3lMOVgkGrPCdTffJU_Q15u-k9U2lNDtmuGLu0ARv3KhFIlU4ISxWMrbt4tUUKyjxeHqihT2ZrpgVyNupMFokftLoIjLfnJFZduAg_jxKHdTSZ1RVuasxngMKWSsnrhrmE1TMYHSa79leTS6y8w_r8zG9in_4enM_qSKUqBK3OPTSP_K3DAJijAjnHnQcQNj98JtJsdTJOt32jXbFF6ouuXs5x76eT6XTBd0-g-rhPSWHxsRH29T2iN4ILQfaUdAHc0RLye4BOhcU1JuF6r97_aP2Ztbk0yo_qX9REy0iScHu28vXyO3YXs96RiXGKZ_L-Fa28XjSW18usmh-1Wadqg-HfU314sOHooLPZXxLmJmVR6UjusKivxV53FnoQvBNxJphhW8f7GlvoIep4jJomiErEK9y1_QAwFtvo8voXIrwLWwVRYHhsqzOSZu8pUE2ERl357N4KtP4ChDczwE8i2iFduY_xqhEUM0Ov3vRGYraslAJP-OoJmEpzR6Yb76Qr8RxUph9aya7lKrHIsqTfvL0e3Xl6YVU_I1PdYsL19u67MwSISdH7Xhy3BIUTEcOVFtn8Hyv3xYv6yrEImWFzJpcZ61mN7pp7CObhxU8qXLgtdROYtE0_FgaqPAmEx5xtib5l7IlERG-Fmh750QRIE9FFWRkTeLrG13W5Tu7cYJIcB4FnViJPx1y0]--></g></svg>