<svg xmlns="http://www.w3.org/2000/svg" xmlns:xlink="http://www.w3.org/1999/xlink" contentStyleType="text/css" data-diagram-type="SEQUENCE" height="974px" preserveAspectRatio="none" style="width:768px;height:974px;background:#FFFFFF;" version="1.1" viewBox="0 0 768 974" width="768px" zoomAndPan="magnify"><title>Conduct Lesson &#8212; Teacher View (Detailed)</title><defs><filter height="300%" id="f23csbekrag86" width="300%" x="-1" y="-1"><feGaussianBlur result="blurOut" stdDeviation="2"/><feColorMatrix in="blurOut" result="blurOut2" type="matrix" values="0 0 0 0 0 0 0 0 0 0 0 0 0 0 0 0 0 0 .4 0"/><feOffset dx="4" dy="4" in="blurOut2" result="blurOut3"/><feBlend in="SourceGraphic" in2="blurOut3" mode="normal"/></filter></defs><g><text fill="#000000" font-family="sans-serif" font-size="14" font-weight="bold" lengthAdjust="spacing" textLength="289.0508" x="237.3337" y="29.5332">Conduct Lesson &#8212; Teacher View (Detailed)</text><g><title>LMS .App Server.</title><rect fill="#FFFFFF" filter="url(#f23csbekrag86)" height="762.7891" style="stroke:#181818;stroke-width:1;" width="10" x="294.209" y="111.5703"/></g><g><title>Media Server</title><rect fill="#FFFFFF" filter="url(#f23csbekrag86)" height="30.3516" style="stroke:#181818;stroke-width:1;" width="10" x="487.9434" y="141.9219"/></g><g><title>Recording Service</title><rect fill="#FFFFFF" filter="url(#f23csbekrag86)" height="519.9766" style="stroke:#181818;stroke-width:1;" width="10" x="689.0254" y="324.0313"/></g><rect fill="none" filter="url(#f23csbekrag86)" height="79.0547" style="stroke:#000000;stroke-width:1.5;" width="403.6406" x="224.6919" y="339.0313"/><rect fill="none" filter="url(#f23csbekrag86)" height="139.7578" style="stroke:#000000;stroke-width:1.5;" width="618.3325" x="10" y="553.4922"/><g><title>Teacher</title><rect fill="#000000" fill-opacity="0.00000" height="852.4922" width="8" x="50.1792" y="79.2188"/><line style="stroke:#181818;stroke-width:0.5;stroke-dasharray:5,5;" x1="54" x2="54" y1="79.2188" y2="931.7109"/></g><g><title>LMS .App Server.</title><rect fill="#000000" fill-opacity="0.00000" height="852.4922" width="8" x="295.209" y="79.2188"/><line style="stroke:#181818;stroke-width:0.5;stroke-dasharray:5,5;" x1="298.6919" x2="298.6919" y1="79.2188" y2="931.7109"/></g><g><title>Media Server</title><rect fill="#000000" fill-opacity="0.00000" height="852.4922" width="8" x="488.9434" y="79.2188"/><line style="stroke:#181818;stroke-width:0.5;stroke-dasharray:5,5;" x1="492.8159" x2="492.8159" y1="79.2188" y2="931.7109"/></g><g><title>Student</title><rect fill="#000000" fill-opacity="0.00000" height="852.4922" width="8" x="581.7017" y="79.2188"/><line style="stroke:#181818;stroke-width:0.5;stroke-dasharray:5,5;" x1="585.0708" x2="585.0708" y1="79.2188" y2="931.7109"/></g><g><title>Recording Service</title><rect fill="#000000" fill-opacity="0.00000" height="852.4922" width="8" x="690.0254" y="79.2188"/><line style="stroke:#181818;stroke-width:0.5;stroke-dasharray:5,5;" x1="693.3325" x2="693.3325" y1="79.2188" y2="931.7109"/></g><g class="participant participant-head" data-participant="T"><rect fill="#E2E2F0" filter="url(#f23csbekrag86)" height="31.6094" rx="2.5" ry="2.5" style="stroke:#181818;stroke-width:0.5;" width="65.3584" x="20" y="43.6094"/><text fill="#000000" font-family="sans-serif" font-size="14" lengthAdjust="spacing" textLength="51.3584" x="27" y="65.1426">Teacher</text></g><g class="participant participant-tail" data-participant="T"><rect fill="#E2E2F0" filter="url(#f23csbekrag86)" height="31.6094" rx="2.5" ry="2.5" style="stroke:#181818;stroke-width:0.5;" width="65.3584" x="20" y="930.7109"/><text fill="#000000" font-family="sans-serif" font-size="14" lengthAdjust="spacing" textLength="51.3584" x="27" y="952.2441">Teacher</text></g><g class="participant participant-head" data-participant="LMS"><rect fill="#E2E2F0" filter="url(#f23csbekrag86)" height="31.6094" rx="2.5" ry="2.5" style="stroke:#181818;stroke-width:0.5;" width="126.0342" x="234.6919" y="43.6094"/><text fill="#000000" font-family="sans-serif" font-size="14" lengthAdjust="spacing" textLength="112.0342" x="241.6919" y="65.1426">LMS (App Server)</text></g><g class="participant participant-tail" data-participant="LMS"><rect fill="#E2E2F0" filter="url(#f23csbekrag86)" height="31.6094" rx="2.5" ry="2.5" style="stroke:#181818;stroke-width:0.5;" width="126.0342" x="234.6919" y="930.7109"/><text fill="#000000" font-family="sans-serif" font-size="14" lengthAdjust="spacing" textLength="112.0342" x="241.6919" y="952.2441">LMS (App Server)</text></g><g class="participant participant-head" data-participant="MS"><rect fill="#E2E2F0" filter="url(#f23csbekrag86)" height="31.6094" rx="2.5" ry="2.5" style="stroke:#181818;stroke-width:0.5;" width="97.2549" x="442.8159" y="43.6094"/><text fill="#000000" font-family="sans-serif" font-size="14" lengthAdjust="spacing" textLength="83.2549" x="449.8159" y="65.1426">Media Server</text></g><g class="participant participant-tail" data-participant="MS"><rect fill="#E2E2F0" filter="url(#f23csbekrag86)" height="31.6094" rx="2.5" ry="2.5" style="stroke:#181818;stroke-width:0.5;" width="97.2549" x="442.8159" y="930.7109"/><text fill="#000000" font-family="sans-serif" font-size="14" lengthAdjust="spacing" textLength="83.2549" x="449.8159" y="952.2441">Media Server</text></g><g class="participant participant-head" data-participant="S"><rect fill="#E2E2F0" filter="url(#f23csbekrag86)" height="31.6094" rx="2.5" ry="2.5" style="stroke:#181818;stroke-width:0.5;" width="62.2617" x="553.0708" y="43.6094"/><text fill="#000000" font-family="sans-serif" font-size="14" lengthAdjust="spacing" textLength="48.2617" x="560.0708" y="65.1426">Student</text></g><g class="participant participant-tail" data-participant="S"><rect fill="#E2E2F0" filter="url(#f23csbekrag86)" height="31.6094" rx="2.5" ry="2.5" style="stroke:#181818;stroke-width:0.5;" width="62.2617" x="553.0708" y="930.7109"/><text fill="#000000" font-family="sans-serif" font-size="14" lengthAdjust="spacing" textLength="48.2617" x="560.0708" y="952.2441">Student</text></g><g class="participant participant-head" data-participant="RS"><rect fill="#E2E2F0" filter="url(#f23csbekrag86)" height="31.6094" rx="2.5" ry="2.5" style="stroke:#181818;stroke-width:0.5;" width="128.3857" x="628.3325" y="43.6094"/><text fill="#000000" font-family="sans-serif" font-size="14" lengthAdjust="spacing" textLength="114.3857" x="635.3325" y="65.1426">Recording Service</text></g><g class="participant participant-tail" data-participant="RS"><rect fill="#E2E2F0" filter="url(#f23csbekrag86)" height="31.6094" rx="2.5" ry="2.5" style="stroke:#181818;stroke-width:0.5;" width="128.3857" x="628.3325" y="930.7109"/><text fill="#000000" font-family="sans-serif" font-size="14" lengthAdjust="spacing" textLength="114.3857" x="635.3325" y="952.2441">Recording Service</text></g><g><title>LMS .App Server.</title><rect fill="#FFFFFF" filter="url(#f23csbekrag86)" height="762.7891" style="stroke:#181818;stroke-width:1;" width="10" x="294.209" y="111.5703"/></g><g><title>Media Server</title><rect fill="#FFFFFF" filter="url(#f23csbekrag86)" height="30.3516" style="stroke:#181818;stroke-width:1;" width="10" x="487.9434" y="141.9219"/></g><g><title>Recording Service</title><rect fill="#FFFFFF" filter="url(#f23csbekrag86)" height="519.9766" style="stroke:#181818;stroke-width:1;" width="10" x="689.0254" y="324.0313"/></g><g class="message" data-participant-1="T" data-participant-2="LMS"><polygon fill="#181818" points="282.209,107.5703,292.209,111.5703,282.209,115.5703,286.209,111.5703" style="stroke:#181818;stroke-width:1;"/><line style="stroke:#181818;stroke-width:1;" x1="54.1792" x2="288.209" y1="111.5703" y2="111.5703"/><text fill="#000000" font-family="sans-serif" font-size="13" lengthAdjust="spacing" textLength="143.0698" x="61.1792" y="106.7139">Create lesson(metadata)</text></g><g class="message" data-participant-1="LMS" data-participant-2="MS"><polygon fill="#181818" points="475.9434,137.9219,485.9434,141.9219,475.9434,145.9219,479.9434,141.9219" style="stroke:#181818;stroke-width:1;"/><line style="stroke:#181818;stroke-width:1;" x1="304.209" x2="481.9434" y1="141.9219" y2="141.9219"/><text fill="#000000" font-family="sans-serif" font-size="13" lengthAdjust="spacing" textLength="164.7344" x="311.209" y="137.0654">Provision session(sessionId)</text></g><g class="message" data-participant-1="MS" data-participant-2="LMS"><polygon fill="#181818" points="315.209,168.2734,305.209,172.2734,315.209,176.2734,311.209,172.2734" style="stroke:#181818;stroke-width:1;"/><line style="stroke:#181818;stroke-width:1;stroke-dasharray:2,2;" x1="309.209" x2="491.9434" y1="172.2734" y2="172.2734"/><text fill="#000000" font-family="sans-serif" font-size="13" lengthAdjust="spacing" textLength="147.3735" x="321.209" y="167.417">Session ready(streamUrl)</text></g><g class="message" data-participant-1="LMS" data-participant-2="T"><polygon fill="#181818" points="65.1792,198.625,55.1792,202.625,65.1792,206.625,61.1792,202.625" style="stroke:#181818;stroke-width:1;"/><line style="stroke:#181818;stroke-width:1;stroke-dasharray:2,2;" x1="59.1792" x2="293.209" y1="202.625" y2="202.625"/><text fill="#000000" font-family="sans-serif" font-size="13" lengthAdjust="spacing" textLength="216.0298" x="71.1792" y="197.7686">Lesson created(sessionId, streamUrl)</text></g><g class="message" data-participant-1="T" data-participant-2="LMS"><polygon fill="#181818" points="282.209,228.9766,292.209,232.9766,282.209,236.9766,286.209,232.9766" style="stroke:#181818;stroke-width:1;"/><line style="stroke:#181818;stroke-width:1;" x1="54.1792" x2="288.209" y1="232.9766" y2="232.9766"/><text fill="#000000" font-family="sans-serif" font-size="13" lengthAdjust="spacing" textLength="132.2217" x="61.1792" y="228.1201">Start lesson(sessionId)</text></g><g class="message" data-participant-1="LMS" data-participant-2="MS"><polygon fill="#181818" points="480.9434,259.3281,490.9434,263.3281,480.9434,267.3281,484.9434,263.3281" style="stroke:#181818;stroke-width:1;"/><line style="stroke:#181818;stroke-width:1;" x1="304.209" x2="486.9434" y1="263.3281" y2="263.3281"/><text fill="#000000" font-family="sans-serif" font-size="13" lengthAdjust="spacing" textLength="134.3735" x="311.209" y="258.4717">Start stream(sessionId)</text></g><g class="message" data-participant-1="MS" data-participant-2="LMS"><polygon fill="#181818" points="315.209,289.6797,305.209,293.6797,315.209,297.6797,311.209,293.6797" style="stroke:#181818;stroke-width:1;"/><line style="stroke:#181818;stroke-width:1;stroke-dasharray:2,2;" x1="309.209" x2="491.9434" y1="293.6797" y2="293.6797"/><text fill="#000000" font-family="sans-serif" font-size="13" lengthAdjust="spacing" textLength="102.6035" x="321.209" y="288.8232">Streaming started</text></g><g class="message" data-participant-1="LMS" data-participant-2="RS"><polygon fill="#181818" points="677.0254,320.0313,687.0254,324.0313,677.0254,328.0313,681.0254,324.0313" style="stroke:#181818;stroke-width:1;"/><line style="stroke:#181818;stroke-width:1;" x1="304.209" x2="683.0254" y1="324.0313" y2="324.0313"/><text fill="#000000" font-family="sans-serif" font-size="13" lengthAdjust="spacing" textLength="148.8398" x="311.209" y="319.1748">Start recording(sessionId)</text></g><path d="M224.6919,339.0313 L297.1265,339.0313 L297.1265,347.3828 L287.1265,357.3828 L224.6919,357.3828 L224.6919,339.0313" fill="#EEEEEE" style="stroke:#000000;stroke-width:1.5;"/><rect fill="none" height="79.0547" style="stroke:#000000;stroke-width:1.5;" width="403.6406" x="224.6919" y="339.0313"/><text fill="#000000" font-family="sans-serif" font-size="13" font-weight="bold" lengthAdjust="spacing" textLength="27.4346" x="239.6919" y="353.5264">loop</text><text fill="#000000" font-family="sans-serif" font-size="11" font-weight="bold" lengthAdjust="spacing" textLength="75.77" x="312.1265" y="352.4502">[students join]</text><g class="message" data-participant-1="S" data-participant-2="LMS"><polygon fill="#181818" points="315.209,375.7344,305.209,379.7344,315.209,383.7344,311.209,379.7344" style="stroke:#181818;stroke-width:1;"/><line style="stroke:#181818;stroke-width:1;" x1="309.209" x2="584.7017" y1="379.7344" y2="379.7344"/><text fill="#000000" font-family="sans-serif" font-size="13" lengthAdjust="spacing" textLength="87.4263" x="321.209" y="374.8779">Join(sessionId)</text></g><g class="message" data-participant-1="LMS" data-participant-2="S"><polygon fill="#181818" points="573.7017,406.0859,583.7017,410.0859,573.7017,414.0859,577.7017,410.0859" style="stroke:#181818;stroke-width:1;"/><line style="stroke:#181818;stroke-width:1;stroke-dasharray:2,2;" x1="304.209" x2="579.7017" y1="410.0859" y2="410.0859"/><text fill="#000000" font-family="sans-serif" font-size="13" lengthAdjust="spacing" textLength="192.5625" x="311.209" y="405.2295">Join confirmation + participant list</text></g><g class="message" data-participant-1="T" data-participant-2="LMS"><polygon fill="#181818" points="282.209,443.4375,292.209,447.4375,282.209,451.4375,286.209,447.4375" style="stroke:#181818;stroke-width:1;"/><line style="stroke:#181818;stroke-width:1;" x1="54.1792" x2="288.209" y1="447.4375" y2="447.4375"/><text fill="#000000" font-family="sans-serif" font-size="13" lengthAdjust="spacing" textLength="156.0508" x="61.1792" y="442.5811">Share materials(slideDeck)</text></g><g class="message" data-participant-1="LMS" data-participant-2="S"><polygon fill="#181818" points="573.7017,473.7891,583.7017,477.7891,573.7017,481.7891,577.7017,477.7891" style="stroke:#181818;stroke-width:1;"/><line style="stroke:#181818;stroke-width:1;" x1="304.209" x2="579.7017" y1="477.7891" y2="477.7891"/><text fill="#000000" font-family="sans-serif" font-size="13" lengthAdjust="spacing" textLength="148.1606" x="311.209" y="472.9326">Push slide update(page#)</text></g><g class="message" data-participant-1="T" data-participant-2="S"><polygon fill="#181818" points="573.7017,504.1406,583.7017,508.1406,573.7017,512.1406,577.7017,508.1406" style="stroke:#181818;stroke-width:1;"/><line style="stroke:#181818;stroke-width:1;" x1="54.1792" x2="579.7017" y1="508.1406" y2="508.1406"/><text fill="#000000" font-family="sans-serif" font-size="13" lengthAdjust="spacing" textLength="97.5508" x="61.1792" y="503.2842">Ask question(q1)</text></g><g class="message" data-participant-1="S" data-participant-2="T"><polygon fill="#181818" points="65.1792,534.4922,55.1792,538.4922,65.1792,542.4922,61.1792,538.4922" style="stroke:#181818;stroke-width:1;"/><line style="stroke:#181818;stroke-width:1;stroke-dasharray:2,2;" x1="59.1792" x2="584.7017" y1="538.4922" y2="538.4922"/><text fill="#000000" font-family="sans-serif" font-size="13" lengthAdjust="spacing" textLength="93.9136" x="71.1792" y="533.6357">Answer(answer)</text></g><path d="M10,553.4922 L70.1709,553.4922 L70.1709,561.8438 L60.1709,571.8438 L10,571.8438 L10,553.4922" fill="#EEEEEE" style="stroke:#000000;stroke-width:1.5;"/><rect fill="none" height="139.7578" style="stroke:#000000;stroke-width:1.5;" width="618.3325" x="10" y="553.4922"/><text fill="#000000" font-family="sans-serif" font-size="13" font-weight="bold" lengthAdjust="spacing" textLength="15.1709" x="25" y="567.9873">alt</text><text fill="#000000" font-family="sans-serif" font-size="11" font-weight="bold" lengthAdjust="spacing" textLength="26.877" x="85.1709" y="566.9111">[poll]</text><g class="message" data-participant-1="T" data-participant-2="LMS"><polygon fill="#181818" points="282.209,590.1953,292.209,594.1953,282.209,598.1953,286.209,594.1953" style="stroke:#181818;stroke-width:1;"/><line style="stroke:#181818;stroke-width:1;" x1="54.1792" x2="288.209" y1="594.1953" y2="594.1953"/><text fill="#000000" font-family="sans-serif" font-size="13" lengthAdjust="spacing" textLength="91.0381" x="61.1792" y="589.3389">Start poll(pollId)</text></g><g class="message" data-participant-1="LMS" data-participant-2="S"><polygon fill="#181818" points="573.7017,620.5469,583.7017,624.5469,573.7017,628.5469,577.7017,624.5469" style="stroke:#181818;stroke-width:1;"/><line style="stroke:#181818;stroke-width:1;" x1="304.209" x2="579.7017" y1="624.5469" y2="624.5469"/><text fill="#000000" font-family="sans-serif" font-size="13" lengthAdjust="spacing" textLength="56.3672" x="311.209" y="619.6904">Show poll</text></g><g class="message" data-participant-1="S" data-participant-2="LMS"><polygon fill="#181818" points="315.209,650.8984,305.209,654.8984,315.209,658.8984,311.209,654.8984" style="stroke:#181818;stroke-width:1;"/><line style="stroke:#181818;stroke-width:1;stroke-dasharray:2,2;" x1="309.209" x2="584.7017" y1="654.8984" y2="654.8984"/><text fill="#000000" font-family="sans-serif" font-size="13" lengthAdjust="spacing" textLength="68.6436" x="321.209" y="650.042">Submit vote</text></g><g class="message" data-participant-1="LMS" data-participant-2="T"><polygon fill="#181818" points="65.1792,681.25,55.1792,685.25,65.1792,689.25,61.1792,685.25" style="stroke:#181818;stroke-width:1;"/><line style="stroke:#181818;stroke-width:1;stroke-dasharray:2,2;" x1="59.1792" x2="293.209" y1="685.25" y2="685.25"/><text fill="#000000" font-family="sans-serif" font-size="13" lengthAdjust="spacing" textLength="63.5781" x="71.1792" y="680.3936">Poll results</text></g><g class="message" data-participant-1="T" data-participant-2="LMS"><polygon fill="#181818" points="282.209,718.6016,292.209,722.6016,282.209,726.6016,286.209,722.6016" style="stroke:#181818;stroke-width:1;"/><line style="stroke:#181818;stroke-width:1;" x1="54.1792" x2="288.209" y1="722.6016" y2="722.6016"/><text fill="#000000" font-family="sans-serif" font-size="13" lengthAdjust="spacing" textLength="127.8989" x="61.1792" y="717.7451">End lesson(sessionId)</text></g><g class="message" data-participant-1="LMS" data-participant-2="MS"><polygon fill="#181818" points="480.9434,748.9531,490.9434,752.9531,480.9434,756.9531,484.9434,752.9531" style="stroke:#181818;stroke-width:1;"/><line style="stroke:#181818;stroke-width:1;" x1="304.209" x2="486.9434" y1="752.9531" y2="752.9531"/><text fill="#000000" font-family="sans-serif" font-size="13" lengthAdjust="spacing" textLength="133.6626" x="311.209" y="748.0967">Stop stream(sessionId)</text></g><g class="message" data-participant-1="MS" data-participant-2="LMS"><polygon fill="#181818" points="315.209,779.3047,305.209,783.3047,315.209,787.3047,311.209,783.3047" style="stroke:#181818;stroke-width:1;"/><line style="stroke:#181818;stroke-width:1;stroke-dasharray:2,2;" x1="309.209" x2="491.9434" y1="783.3047" y2="783.3047"/><text fill="#000000" font-family="sans-serif" font-size="13" lengthAdjust="spacing" textLength="91.7744" x="321.209" y="778.4482">Stream stopped</text></g><g class="message" data-participant-1="LMS" data-participant-2="RS"><polygon fill="#181818" points="677.0254,809.6563,687.0254,813.6563,677.0254,817.6563,681.0254,813.6563" style="stroke:#181818;stroke-width:1;"/><line style="stroke:#181818;stroke-width:1;" x1="304.209" x2="683.0254" y1="813.6563" y2="813.6563"/><text fill="#000000" font-family="sans-serif" font-size="13" lengthAdjust="spacing" textLength="148.1289" x="311.209" y="808.7998">Stop recording(sessionId)</text></g><g class="message" data-participant-1="RS" data-participant-2="LMS"><polygon fill="#181818" points="315.209,840.0078,305.209,844.0078,315.209,848.0078,311.209,844.0078" style="stroke:#181818;stroke-width:1;"/><line style="stroke:#181818;stroke-width:1;stroke-dasharray:2,2;" x1="309.209" x2="693.0254" y1="844.0078" y2="844.0078"/><text fill="#000000" font-family="sans-serif" font-size="13" lengthAdjust="spacing" textLength="120.6626" x="321.209" y="839.1514">Recording saved(url)</text></g><g class="message" data-participant-1="LMS" data-participant-2="T"><polygon fill="#181818" points="65.1792,870.3594,55.1792,874.3594,65.1792,878.3594,61.1792,874.3594" style="stroke:#181818;stroke-width:1;"/><line style="stroke:#181818;stroke-width:1;stroke-dasharray:2,2;" x1="59.1792" x2="298.209" y1="874.3594" y2="874.3594"/><text fill="#000000" font-family="sans-serif" font-size="13" lengthAdjust="spacing" textLength="198.0278" x="71.1792" y="869.5029">Lesson ended, recording available</text></g><path d="M236,887.3594 L236,913.3594 L756,913.3594 L756,897.3594 L746,887.3594 L236,887.3594" fill="#FEFFDD" filter="url(#f23csbekrag86)" style="stroke:#181818;stroke-width:0.5;"/><path d="M746,887.3594 L746,897.3594 L756,897.3594 L746,887.3594" fill="#FEFFDD" style="stroke:#181818;stroke-width:0.5;"/><text fill="#000000" font-family="sans-serif" font-size="13" lengthAdjust="spacing" textLength="244.9751" x="367.5256" y="905.8545">Recording retained for on-demand viewing</text><!--SRC=[XLInRjim49tDhpYaYuGcGzSC1OmaGmi722It-qKyHwmfKY4f6Ttw4Vt2VacFiYHJWe4iEeZt7k_UEv911KtmO8tigW0xyjuQ-FVdB-m9gveS_5HqWkoH0YfDCXV-g4oB3XjehB5LxMn3S43jAKdv6gKzAVC6mNKa1Ay6LQaMJPWtHW_xHU9czrn2jcrRACdrvFARYE759UgPfC8HCY1MW39qaZXoPiKigB9EnguYMrKqq8jIY3tSVOsLxk714GO2FHYHDInROi1SO1LK7pEndzWe4oB-nTbUUSMcUQPmpCRuJIOavaJALAGyGu1hoT-P3noR7qxdGb9AsOsS_Vqqc6heJbvgt4B2JcIKWOLFAfAEaixFa3CzXImQ7RBHCH_H9ASDYda3DvbwLNWqLrlRCd-OYeTVLXcnAUTEl_D_IjrCgiSSLDOSb6imHCS-GpfHhNmGPEH2UOsEWE7a59_Ap6ibwP6guom-JgtpDGmPw5eUC6Kjlj6doK96RFqHtZloiMhs_YKNyoYsnf_8PJW4Pg0Eq5gjnMPjVrpDukUYQzYxhErffAHUTw-D2j3RG1SJkDuB0zbbt-dWrsAVZFneo8Ft7y-OGRPjrmDcyjNv5Wd_SgiyzdmskzL1BguTPDP1V7ZdpG5xVb_mLLDAZNTD63O4B5_s-7jRB2gw-2mPad2m3govazGWMzBpcyLfyHy0]--></g></svg>