<svg xmlns="http://www.w3.org/2000/svg" xmlns:xlink="http://www.w3.org/1999/xlink" contentStyleType="text/css" data-diagram-type="DESCRIPTION" height="1547px" preserveAspectRatio="none" style="width:1468px;height:1547px;background:#FFFFFF;" version="1.1" viewBox="0 0 1468 1547" width="1468px" zoomAndPan="magnify"><title>EduFlow Misuse Case Diagram - Legacy Version (Visual Match)</title><defs/><g><g class="title" data-source-line="1"><text fill="#000000" font-family="sans-serif" font-size="14" font-weight="bold" lengthAdjust="spacing" textLength="421.668" x="516.166" y="24.5332">EduFlow Misuse Case Diagram - Legacy Version (Visual Match)</text></g><!--cluster E-Learning System--><g class="cluster" data-entity="E-Learning System" data-source-line="12" data-uid="ent0007" id="cluster_E-Learning System"><rect fill="none" height="764" rx="2.5" ry="2.5" style="stroke:#181818;stroke-width:1;" width="1358" x="104" y="256.7494"/><text fill="#000000" font-family="sans-serif" font-size="14" font-weight="bold" lengthAdjust="spacing" textLength="126.8135" x="719.5933" y="273.2826">E-Learning System</text></g><!--entity UC_Sub--><g class="entity" data-entity="UC_Sub" data-source-line="14" data-uid="ent0008" id="entity_UC_Sub"><ellipse cx="221.8078" cy="379.5109" fill="#F1F1F1" rx="81.8078" ry="18.7616" style="stroke:#181818;stroke-width:0.5;"/><text fill="#000000" font-family="sans-serif" font-size="14" lengthAdjust="spacing" textLength="130.7305" x="156.4426" y="384.8156">Subscribe to courses</text></g><!--entity UC_Pay--><g class="entity" data-entity="UC_Pay" data-source-line="15" data-uid="ent0009" id="entity_UC_Pay"><ellipse cx="530.6772" cy="442.9848" fill="#F1F1F1" rx="69.1772" ry="16.2354" style="stroke:#181818;stroke-width:0.5;"/><text fill="#000000" font-family="sans-serif" font-size="14" lengthAdjust="spacing" textLength="98.8203" x="481.2671" y="448.2895">make payments</text></g><!--entity UC_Proc--><g class="entity" data-entity="UC_Proc" data-source-line="16" data-uid="ent0010" id="entity_UC_Proc"><ellipse cx="817.6101" cy="851.8714" fill="#F1F1F1" rx="78.6101" ry="18.122" style="stroke:#181818;stroke-width:0.5;"/><text fill="#000000" font-family="sans-serif" font-size="14" lengthAdjust="spacing" textLength="122.9443" x="756.138" y="857.1761">Process transaction</text></g><!--entity UC_Slot--><g class="entity" data-entity="UC_Slot" data-source-line="17" data-uid="ent0011" id="entity_UC_Slot"><ellipse cx="530.5775" cy="375.7011" fill="#F1F1F1" rx="53.0775" ry="15.4517" style="stroke:#181818;stroke-width:0.5;"/><text fill="#000000" font-family="sans-serif" font-size="14" lengthAdjust="spacing" textLength="70.8203" x="495.1674" y="381.0058">choose slot</text></g><!--entity UC_Attend--><g class="entity" data-entity="UC_Attend" data-source-line="18" data-uid="ent0012" id="entity_UC_Attend"><ellipse cx="222.1116" cy="309.9717" fill="#F1F1F1" rx="66.6116" ry="15.7223" style="stroke:#181818;stroke-width:0.5;"/><text fill="#000000" font-family="sans-serif" font-size="14" lengthAdjust="spacing" textLength="91.834" x="176.1946" y="315.2764">Attend lessons</text></g><!--entity UC_Report--><g class="entity" data-entity="UC_Report" data-source-line="19" data-uid="ent0013" id="entity_UC_Report"><ellipse cx="530.3868" cy="308.9267" fill="#F1F1F1" rx="68.8868" ry="16.1774" style="stroke:#181818;stroke-width:0.5;"/><text fill="#000000" font-family="sans-serif" font-size="14" lengthAdjust="spacing" textLength="98.041" x="481.3663" y="314.2314">Report Problem</text></g><!--entity UC_Login--><g class="entity" data-entity="UC_Login" data-source-line="20" data-uid="ent0014" id="entity_UC_Login"><ellipse cx="817.4156" cy="627.7011" fill="#F1F1F1" rx="23.9156" ry="15.4517" style="stroke:#181818;stroke-width:0.5;"/><text fill="#000000" font-family="sans-serif" font-size="14" lengthAdjust="spacing" textLength="29.5791" x="802.626" y="633.0058">login</text></g><!--entity UC_Auth--><g class="entity" data-entity="UC_Auth" data-source-line="21" data-uid="ent0015" id="entity_UC_Auth"><ellipse cx="1097.9507" cy="849.9395" fill="#F1F1F1" rx="73.9507" ry="17.1901" style="stroke:#181818;stroke-width:0.5;"/><text fill="#000000" font-family="sans-serif" font-size="14" lengthAdjust="spacing" textLength="111.2822" x="1042.3095" y="855.2442">Authenticate User</text></g><!--entity UC_Reset--><g class="entity" data-entity="UC_Reset" data-source-line="22" data-uid="ent0016" id="entity_UC_Reset"><ellipse cx="1097.8463" cy="627.7186" fill="#F1F1F1" rx="70.3463" ry="16.4693" style="stroke:#181818;stroke-width:0.5;"/><text fill="#000000" font-family="sans-serif" font-size="14" lengthAdjust="spacing" textLength="101.9307" x="1046.881" y="633.0233">Reset Password</text></g><!--entity UC_Create--><g class="entity" data-entity="UC_Create" data-source-line="23" data-uid="ent0017" id="entity_UC_Create"><ellipse cx="817.3141" cy="694.8122" fill="#F1F1F1" rx="68.3141" ry="16.0628" style="stroke:#181818;stroke-width:0.5;"/><text fill="#000000" font-family="sans-serif" font-size="14" lengthAdjust="spacing" textLength="96.4961" x="769.0661" y="700.1169">Create Account</text></g><!--entity UC_Verify--><g class="entity" data-entity="UC_Verify" data-source-line="24" data-uid="ent0018" id="entity_UC_Verify"><ellipse cx="1097.8046" cy="917.7011" fill="#F1F1F1" rx="28.3046" ry="15.4517" style="stroke:#181818;stroke-width:0.5;"/><text fill="#000000" font-family="sans-serif" font-size="14" lengthAdjust="spacing" textLength="35.7861" x="1079.9116" y="923.0058">Verfiy</text></g><!--entity UC_Resched--><g class="entity" data-entity="UC_Resched" data-source-line="25" data-uid="ent0019" id="entity_UC_Resched"><ellipse cx="222.1212" cy="581.8736" fill="#F1F1F1" rx="78.6212" ry="18.1242" style="stroke:#181818;stroke-width:0.5;"/><text fill="#000000" font-family="sans-serif" font-size="14" lengthAdjust="spacing" textLength="122.9717" x="160.6354" y="587.1783">Reschedule Lesson</text></g><!--entity UC_Check--><g class="entity" data-entity="UC_Check" data-source-line="26" data-uid="ent0020" id="entity_UC_Check"><ellipse cx="530.3359" cy="581.8165" fill="#F1F1F1" rx="73.3359" ry="17.0672" style="stroke:#181818;stroke-width:0.5;"/><text fill="#000000" font-family="sans-serif" font-size="14" lengthAdjust="spacing" textLength="109.71" x="475.4809" y="587.1212">Check Availability</text></g><!--entity UC_SetSched--><g class="entity" data-entity="UC_SetSched" data-source-line="27" data-uid="ent0021" id="entity_UC_SetSched"><ellipse cx="530.3894" cy="919.7011" fill="#F1F1F1" rx="61.8894" ry="15.4517" style="stroke:#181818;stroke-width:0.5;"/><text fill="#000000" font-family="sans-serif" font-size="14" lengthAdjust="spacing" textLength="83.2822" x="488.7483" y="925.0058">Set Schedule</text></g><!--entity UC_ConfSched--><g class="entity" data-entity="UC_ConfSched" data-source-line="28" data-uid="ent0022" id="entity_UC_ConfSched"><ellipse cx="1098.2351" cy="780.6964" fill="#F1F1F1" rx="72.7351" ry="16.947" style="stroke:#181818;stroke-width:0.5;"/><text fill="#000000" font-family="sans-serif" font-size="14" lengthAdjust="spacing" textLength="108.165" x="1044.1526" y="786.0011">confirm Schedule</text></g><!--entity UC_UpdSched--><g class="entity" data-entity="UC_UpdSched" data-source-line="29" data-uid="ent0023" id="entity_UC_UpdSched"><ellipse cx="817.5439" cy="921.9581" fill="#F1F1F1" rx="71.5439" ry="16.7088" style="stroke:#181818;stroke-width:0.5;"/><text fill="#000000" font-family="sans-serif" font-size="14" lengthAdjust="spacing" textLength="105.0752" x="765.0063" y="927.2628">Update schedule</text></g><!--entity UC_Notify--><g class="entity" data-entity="UC_Notify" data-source-line="30" data-uid="ent0024" id="entity_UC_Notify"><ellipse cx="1373.8377" cy="969.5169" fill="#F1F1F1" rx="71.8377" ry="16.7675" style="stroke:#181818;stroke-width:0.5;"/><text fill="#000000" font-family="sans-serif" font-size="14" lengthAdjust="spacing" textLength="105.8408" x="1320.9173" y="974.8216">Send Notification</text></g><!--entity UC_Init--><g class="entity" data-entity="UC_Init" data-source-line="31" data-uid="ent0025" id="entity_UC_Init"><ellipse cx="222.0538" cy="511.8601" fill="#F1F1F1" rx="66.0538" ry="15.6108" style="stroke:#181818;stroke-width:0.5;"/><text fill="#000000" font-family="sans-serif" font-size="14" lengthAdjust="spacing" textLength="90.2822" x="176.9127" y="517.1648">Initiate Lesson</text></g><!--entity UC_Rec--><g class="entity" data-entity="UC_Rec" data-source-line="32" data-uid="ent0026" id="entity_UC_Rec"><ellipse cx="530.2593" cy="511.5012" fill="#F1F1F1" rx="74.2593" ry="17.2519" style="stroke:#181818;stroke-width:0.5;"/><text fill="#000000" font-family="sans-serif" font-size="14" lengthAdjust="spacing" textLength="112.0684" x="474.2252" y="516.8059">Upload Recording</text></g><!--entity UC_Upload--><g class="entity" data-entity="UC_Upload" data-source-line="33" data-uid="ent0027" id="entity_UC_Upload"><ellipse cx="222.0422" cy="654.5578" fill="#F1F1F1" rx="87.0422" ry="19.8084" style="stroke:#181818;stroke-width:0.5;"/><text fill="#000000" font-family="sans-serif" font-size="14" lengthAdjust="spacing" textLength="143.1787" x="150.4529" y="659.8625">Upload PDFs &amp; Videos</text></g><!--entity UC_Val--><g class="entity" data-entity="UC_Val" data-source-line="34" data-uid="ent0028" id="entity_UC_Val"><ellipse cx="530.4762" cy="649.7011" fill="#F1F1F1" rx="57.4762" ry="15.4517" style="stroke:#181818;stroke-width:0.5;"/><text fill="#000000" font-family="sans-serif" font-size="14" lengthAdjust="spacing" textLength="77.041" x="491.9557" y="655.0058">Validate File</text></g><!--entity UC_Del--><g class="entity" data-entity="UC_Del" data-source-line="35" data-uid="ent0029" id="entity_UC_Del"><ellipse cx="530.2964" cy="718.8087" fill="#F1F1F1" rx="78.2964" ry="18.0593" style="stroke:#181818;stroke-width:0.5;"/><text fill="#000000" font-family="sans-serif" font-size="14" lengthAdjust="spacing" textLength="122.1719" x="469.2105" y="724.1134">Replace/Delete File</text></g><!--entity MC_IDTheft--><g class="entity" data-entity="MC_IDTheft" data-source-line="38" data-uid="ent0030" id="entity_MC_IDTheft"><ellipse cx="530.379" cy="787.7011" fill="#000000" rx="56.379" ry="15.4517" style="stroke:#181818;stroke-width:0.5;"/><text fill="#FFFFFF" font-family="sans-serif" font-size="14" lengthAdjust="spacing" textLength="75.4893" x="492.6343" y="793.0058">identity theft</text></g><!--entity MC_Flood--><g class="entity" data-entity="MC_Flood" data-source-line="39" data-uid="ent0031" id="entity_MC_Flood"><ellipse cx="530.4738" cy="853.7011" fill="#000000" rx="40.9738" ry="15.4517" style="stroke:#181818;stroke-width:0.5;"/><text fill="#FFFFFF" font-family="sans-serif" font-size="14" lengthAdjust="spacing" textLength="53.7031" x="503.6223" y="859.0058">Flooding</text></g><!--entity MC_MITM--><g class="entity" data-entity="MC_MITM" data-source-line="40" data-uid="ent0032" id="entity_MC_MITM"><ellipse cx="1098.1455" cy="985.8785" fill="#000000" rx="73.6455" ry="17.1291" style="stroke:#181818;stroke-width:0.5;"/><text fill="#FFFFFF" font-family="sans-serif" font-size="14" lengthAdjust="spacing" textLength="110.5029" x="1042.894" y="991.1832">Man in the middle</text></g><!--entity MC_Corrupt--><g class="entity" data-entity="MC_Corrupt" data-source-line="41" data-uid="ent0033" id="entity_MC_Corrupt"><ellipse cx="530.7404" cy="987.6975" fill="#000000" rx="72.7404" ry="16.9481" style="stroke:#181818;stroke-width:0.5;"/><text fill="#FFFFFF" font-family="sans-serif" font-size="14" lengthAdjust="spacing" textLength="108.1787" x="476.651" y="993.0021">Corrupt database</text></g><!--entity Mit_MFA--><g class="entity" data-entity="Mit_MFA" data-source-line="44" data-uid="ent0034" id="entity_Mit_MFA"><ellipse cx="221.9095" cy="766.6313" fill="#F1F1F1" rx="92.4095" ry="20.8819" style="stroke:#181818;stroke-width:0.5;"/><text fill="#000000" font-family="sans-serif" font-size="14" lengthAdjust="spacing" textLength="155.6406" x="144.0892" y="771.936">multifactor authentication</text></g><!--entity Mit_Monitor--><g class="entity" data-entity="Mit_Monitor" data-source-line="45" data-uid="ent0035" id="entity_Mit_Monitor"><ellipse cx="222.0207" cy="912.5535" fill="#F1F1F1" rx="102.0207" ry="22.8041" style="stroke:#181818;stroke-width:0.5;"/><text fill="#000000" font-family="sans-serif" font-size="14" lengthAdjust="spacing" textLength="177.3926" x="133.3244" y="917.8582">monitor system performance</text></g><!--entity Mit_Rate--><g class="entity" data-entity="Mit_Rate" data-source-line="46" data-uid="ent0036" id="entity_Mit_Rate"><ellipse cx="221.953" cy="838.64" fill="#F1F1F1" rx="67.453" ry="15.8906" style="stroke:#181818;stroke-width:0.5;"/><text fill="#000000" font-family="sans-serif" font-size="14" lengthAdjust="spacing" textLength="94.1514" x="174.8773" y="843.9447">rating limitation</text></g><!--entity Mit_Encrypt--><g class="entity" data-entity="Mit_Encrypt" data-source-line="47" data-uid="ent0037" id="entity_Mit_Encrypt"><ellipse cx="817.674" cy="988.7011" fill="#F1F1F1" rx="48.674" ry="15.4517" style="stroke:#181818;stroke-width:0.5;"/><text fill="#000000" font-family="sans-serif" font-size="14" lengthAdjust="spacing" textLength="64.5928" x="785.3776" y="994.0058">encryption</text></g><!--entity Mit_Backup--><g class="entity" data-entity="Mit_Backup" data-source-line="48" data-uid="ent0038" id="entity_Mit_Backup"><ellipse cx="222.1901" cy="986.7011" fill="#F1F1F1" rx="59.6901" ry="15.4517" style="stroke:#181818;stroke-width:0.5;"/><text fill="#000000" font-family="sans-serif" font-size="14" lengthAdjust="spacing" textLength="80.1719" x="182.1041" y="992.0058">back up data</text></g><!--entity Student--><g class="entity" data-entity="Student" data-source-line="6" data-uid="ent0002" id="entity_Student"><ellipse cx="31.6309" cy="279.2494" fill="#F1F1F1" rx="8" ry="8" style="stroke:#181818;stroke-width:0.5;"/><path d="M31.6309,287.2494 L31.6309,314.2494 M18.6309,295.2494 L44.6309,295.2494 M31.6309,314.2494 L18.6309,329.2494 M31.6309,314.2494 L44.6309,329.2494" fill="none" style="stroke:#181818;stroke-width:0.5;"/><text fill="#000000" font-family="sans-serif" font-size="14" lengthAdjust="spacing" textLength="48.2617" x="7.5" y="345.2826">Student</text></g><!--entity Teacher--><g class="entity" data-entity="Teacher" data-source-line="7" data-uid="ent0003" id="entity_Teacher"><ellipse cx="31.6792" cy="601.2494" fill="#F1F1F1" rx="8" ry="8" style="stroke:#181818;stroke-width:0.5;"/><path d="M31.6792,609.2494 L31.6792,636.2494 M18.6792,617.2494 L44.6792,617.2494 M31.6792,636.2494 L18.6792,651.2494 M31.6792,636.2494 L44.6792,651.2494" fill="none" style="stroke:#181818;stroke-width:0.5;"/><text fill="#000000" font-family="sans-serif" font-size="14" lengthAdjust="spacing" textLength="51.3584" x="6" y="667.2826">Teacher</text></g><!--entity Admin--><g class="entity" data-entity="Admin" data-source-line="8" data-uid="ent0004" id="entity_Admin"><ellipse cx="31.3413" cy="1261.2494" fill="#F1F1F1" rx="8" ry="8" style="stroke:#181818;stroke-width:0.5;"/><path d="M31.3413,1269.2494 L31.3413,1296.2494 M18.3413,1277.2494 L44.3413,1277.2494 M31.3413,1296.2494 L18.3413,1311.2494 M31.3413,1296.2494 L44.3413,1311.2494" fill="none" style="stroke:#181818;stroke-width:0.5;"/><text fill="#000000" font-family="sans-serif" font-size="14" lengthAdjust="spacing" textLength="39.6826" x="11.5" y="1327.2826">Admin</text></g><!--entity Bank--><g class="entity" data-entity="Bank" data-source-line="9" data-uid="ent0005" id="entity_Bank"><ellipse cx="530.4551" cy="1048.2494" fill="#F1F1F1" rx="8" ry="8" style="stroke:#181818;stroke-width:0.5;"/><path d="M530.4551,1056.2494 L530.4551,1083.2494 M517.4551,1064.2494 L543.4551,1064.2494 M530.4551,1083.2494 L517.4551,1098.2494 M530.4551,1083.2494 L543.4551,1098.2494" fill="none" style="stroke:#181818;stroke-width:0.5;"/><text fill="#000000" font-family="sans-serif" font-size="14" lengthAdjust="spacing" textLength="31.9102" x="514.5" y="1114.2826">Bank</text></g><!--entity Attacker--><g class="entity" data-entity="Attacker" data-source-line="10" data-uid="ent0006" id="entity_Attacker"><ellipse cx="221.9585" cy="1063.3588" fill="#F1F1F1" rx="8" ry="8" style="stroke:#181818;stroke-width:0.5;"/><path d="M221.9585,1071.3588 L221.9585,1098.3588 M208.9585,1079.3588 L234.9585,1079.3588 M221.9585,1098.3588 L208.9585,1113.3588 M221.9585,1098.3588 L234.9585,1113.3588" fill="none" style="stroke:#181818;stroke-width:0.5;"/><text fill="#000000" font-family="sans-serif" font-size="14" lengthAdjust="spacing" textLength="51.3516" x="196.2827" y="1129.392">Attacker</text><text fill="#000000" font-family="sans-serif" font-size="14" font-style="italic" lengthAdjust="spacing" textLength="59.917" x="192" y="1051.7826">&#171;Misuse&#187;</text></g><!--entity UC_Apply--><g class="entity" data-entity="UC_Apply" data-source-line="83" data-uid="ent0060" id="entity_UC_Apply"><ellipse cx="817.5137" cy="1069.2494" fill="#F1F1F1" rx="8" ry="8" style="stroke:#181818;stroke-width:0.5;"/><path d="M817.5137,1077.2494 L817.5137,1104.2494 M804.5137,1085.2494 L830.5137,1085.2494 M817.5137,1104.2494 L804.5137,1119.2494 M817.5137,1104.2494 L830.5137,1119.2494" fill="none" style="stroke:#181818;stroke-width:0.5;"/><text fill="#000000" font-family="sans-serif" font-size="14" lengthAdjust="spacing" textLength="63.0273" x="786" y="1135.2826">UC_Apply</text></g><!--link Student to UC_Sub--><g class="link" data-entity-1="Student" data-entity-2="UC_Sub" data-source-line="52" data-uid="lnk39" id="link_Student_UC_Sub"><path d="M55.52,323.0694 C67.36,329.5694 82.17,337.1694 96,342.7494 C118.35,351.7694 143.74,359.6894 165.77,365.8594" fill="none" id="Student-UC_Sub" style="stroke:#181818;stroke-width:1;"/></g><!--link Student to UC_Attend--><g class="link" data-entity-1="Student" data-entity-2="UC_Attend" data-source-line="53" data-uid="lnk40" id="link_Student_UC_Attend"><path d="M55.61,309.7494 C80.29,309.7494 120.52,309.7494 155.12,309.7494" fill="none" id="Student-UC_Attend" style="stroke:#181818;stroke-width:1;"/></g><!--link Student to UC_Login--><g class="link" data-entity-1="Student" data-entity-2="UC_Login" data-source-line="54" data-uid="lnk41" id="link_Student_UC_Login"><path d="M44.05,270.5194 C52.39,249.7194 65.97,225.9994 87,213.7494 C325.9,74.6594 490.34,44.6094 709,213.7494 C774.64,264.5194 807.6,542.1994 814.92,611.8794" fill="none" id="Student-UC_Login" style="stroke:#181818;stroke-width:1;"/></g><!--link Student to UC_Create--><g class="link" data-entity-1="Student" data-entity-2="UC_Create" data-source-line="55" data-uid="lnk42" id="link_Student_UC_Create"><path d="M55.56,294.3894 C67.17,287.5594 81.77,280.2694 96,276.7494 C206.67,249.3794 516.41,208.2394 609,274.7494 C756.02,380.3694 616.79,527.2094 739,660.7494 C747.93,670.5094 760.16,677.5994 772.26,682.7094" fill="none" id="Student-UC_Create" style="stroke:#181818;stroke-width:1;"/></g><!--link Student to UC_Resched--><g class="link" data-entity-1="Student" data-entity-2="UC_Resched" data-source-line="56" data-uid="lnk43" id="link_Student_UC_Resched"><path d="M32.02,349.0994 C33.57,400.9294 44.18,491.6794 96,544.7494 C110.55,559.6494 130.78,568.6194 150.74,573.9894" fill="none" id="Student-UC_Resched" style="stroke:#181818;stroke-width:1;"/></g><!--link Teacher to UC_SetSched--><g class="link" data-entity-1="Teacher" data-entity-2="UC_SetSched" data-source-line="59" data-uid="lnk44" id="link_Teacher_UC_SetSched"><path d="M34.36,670.7894 C40.23,785.9294 60.17,1118.0394 96,1149.7494 C205.88,1246.9794 333.97,1215.1294 422,1097.7494 C461.48,1045.0994 410.31,1003.6694 452,952.7494 C460.43,942.4494 472.66,935.3094 484.92,930.3694" fill="none" id="Teacher-UC_SetSched" style="stroke:#181818;stroke-width:1;"/></g><!--link Teacher to UC_Init--><g class="link" data-entity-1="Teacher" data-entity-2="UC_Init" data-source-line="60" data-uid="lnk45" id="link_Teacher_UC_Init"><path d="M53.6,592.3094 C64.29,575.7394 78.69,557.5894 96,545.7494 C115.86,532.1594 140.95,523.9894 163.44,519.0794" fill="none" id="Teacher-UC_Init" style="stroke:#181818;stroke-width:1;"/></g><!--link Teacher to UC_Upload--><g class="link" data-entity-1="Teacher" data-entity-2="UC_Upload" data-source-line="61" data-uid="lnk46" id="link_Teacher_UC_Upload"><path d="M57.14,634.7594 C79.4,637.4694 113.35,641.6094 144.59,645.4294" fill="none" id="Teacher-UC_Upload" style="stroke:#181818;stroke-width:1;"/></g><!--link Teacher to UC_Resched--><g class="link" data-entity-1="Teacher" data-entity-2="UC_Resched" data-source-line="62" data-uid="lnk47" id="link_Teacher_UC_Resched"><path d="M57.14,625.2094 C85.68,617.6394 133.47,604.9694 170.09,595.2494" fill="none" id="Teacher-UC_Resched" style="stroke:#181818;stroke-width:1;"/></g><!--link Admin to UC_Verify--><g class="link" data-entity-1="Admin" data-entity-2="UC_Verify" data-source-line="65" data-uid="lnk48" id="link_Admin_UC_Verify"><path d="M51.54,1297.8594 C85.3,1308.1294 158.03,1327.7494 221,1327.7494 C221,1327.7494 221,1327.7494 818.5,1327.7494 C899.02,1327.7494 941.82,1344.0794 994,1282.7494 C1042,1226.3294 981.07,1011.1194 1024,950.7494 C1034.88,935.4494 1054.59,927.1094 1070.78,922.6394" fill="none" id="Admin-UC_Verify" style="stroke:#181818;stroke-width:1;"/></g><!--link Admin to UC_Auth--><g class="link" data-entity-1="Admin" data-entity-2="UC_Auth" data-source-line="66" data-uid="lnk49" id="link_Admin_UC_Auth"><path d="M51.55,1285.8094 C85.33,1275.8294 158.09,1256.7494 221,1256.7494 C221,1256.7494 221,1256.7494 818.5,1256.7494 C874.73,1256.7494 864.11,1203.0594 896,1156.7494 C943.51,1087.7594 960.96,1072.7294 994,995.7494 C1014.15,948.7894 991.32,924.0394 1024,884.7494 C1031.64,875.5694 1042.25,868.6194 1053.03,863.4394" fill="none" id="Admin-UC_Auth" style="stroke:#181818;stroke-width:1;"/></g><!--link Admin to Mit_Monitor--><g class="link" data-entity-1="Admin" data-entity-2="Mit_Monitor" data-source-line="67" data-uid="lnk50" id="link_Admin_Mit_Monitor"><path d="M34.93,1252.6094 C40.61,1173.3994 57.33,997.8594 96,953.7494 C107.22,940.9594 122.49,932.1394 138.51,926.0594" fill="none" id="Admin-Mit_Monitor" style="stroke:#181818;stroke-width:1;"/></g><!--link Admin to UC_Notify--><g class="link" data-entity-1="Admin" data-entity-2="UC_Notify" data-source-line="68" data-uid="lnk51" id="link_Admin_UC_Notify"><path d="M51.53,1330.3694 C80.37,1382.7194 140.43,1469.7494 221,1469.7494 C221,1469.7494 221,1469.7494 1099,1469.7494 C1324.19,1469.7494 1365.53,1074.8794 1371.94,986.9594" fill="none" id="Admin-UC_Notify" style="stroke:#181818;stroke-width:1;"/></g><!--link Bank to UC_Proc--><g class="link" data-entity-1="Bank" data-entity-2="UC_Proc" data-source-line="71" data-uid="lnk52" id="link_Bank_UC_Proc"><path d="M546.72,1073.6294 C580.73,1061.4294 663.43,1027.4494 709,971.7494 C734.1,941.0694 712.28,917.0394 739,887.7494 C747.4,878.5394 758.63,871.4994 769.93,866.1994" fill="none" id="Bank-UC_Proc" style="stroke:#181818;stroke-width:1;"/></g><!--link Attacker to MC_IDTheft--><g class="link" data-entity-1="Attacker" data-entity-2="MC_IDTheft" data-source-line="74" data-uid="lnk53" id="link_Attacker_MC_IDTheft"><path d="M253.05,1080.3094 C297.46,1072.0694 379.88,1050.0194 422,995.7494 C470.38,933.4094 403.06,882.6494 452,820.7494 C460.62,809.8494 473.51,802.4994 486.32,797.5594" fill="none" id="Attacker-MC_IDTheft" style="stroke:#181818;stroke-width:1;"/></g><!--link Attacker to MC_Flood--><g class="link" data-entity-1="Attacker" data-entity-2="MC_Flood" data-source-line="75" data-uid="lnk54" id="link_Attacker_MC_Flood"><path d="M253.24,1090.5294 C296.76,1096.9294 376.77,1101.2594 422,1057.7494 C477.61,1004.2594 404.03,947.1794 452,886.7494 C462.37,873.6894 478.87,865.7194 493.99,860.8894" fill="none" id="Attacker-MC_Flood" style="stroke:#181818;stroke-width:1;"/></g><!--link Attacker to MC_MITM--><g class="link" data-entity-1="Attacker" data-entity-2="MC_MITM" data-source-line="76" data-uid="lnk55" id="link_Attacker_MC_MITM"><path d="M253.02,1113.4694 C362.69,1214.8794 748.05,1540.3094 994,1353.7494 C1052.14,1309.6494 1086.42,1069.5694 1094.91,1002.9194" fill="none" id="Attacker-MC_MITM" style="stroke:#181818;stroke-width:1;"/></g><!--link Attacker to MC_Corrupt--><g class="link" data-entity-1="Attacker" data-entity-2="MC_Corrupt" data-source-line="77" data-uid="lnk56" id="link_Attacker_MC_Corrupt"><path d="M253.1,1099.5794 C295.01,1117.8894 371.49,1142.4894 422,1106.7494 C454.7,1083.6094 424.74,1051.1094 452,1021.7494 C460.5,1012.5994 471.9,1005.7794 483.33,1000.7394" fill="none" id="Attacker-MC_Corrupt" style="stroke:#181818;stroke-width:1;"/></g><!--link UC_Sub to UC_Pay--><g class="link" data-entity-1="UC_Sub" data-entity-2="UC_Pay" data-source-line="80" data-uid="lnk57" id="link_UC_Sub_UC_Pay"><path d="M283.92,392.2694 C340.83,403.9694 418.9528,420.0314 472.4728,431.0314" fill="none" id="UC_Sub-to-UC_Pay" style="stroke:#181818;stroke-width:1;stroke-dasharray:7,7;"/><polygon fill="#181818" points="478.35,432.2394,470.3396,426.5094,473.4524,431.2328,468.729,434.3456,478.35,432.2394" style="stroke:#181818;stroke-width:1;"/><text fill="#000000" font-family="sans-serif" font-size="13" lengthAdjust="spacing" textLength="55.6563" x="360.5" y="404.2445">&#171;include&#187;</text></g><!--link UC_Sub to UC_Slot--><g class="link" data-entity-1="UC_Sub" data-entity-2="UC_Slot" data-source-line="81" data-uid="lnk58" id="link_UC_Sub_UC_Slot"><path d="M303.93,378.6894 C358.91,377.9794 424.0105,377.1276 471.5505,376.5076" fill="none" id="UC_Sub-to-UC_Slot" style="stroke:#181818;stroke-width:1;stroke-dasharray:7,7;"/><polygon fill="#181818" points="477.55,376.4294,468.4986,372.5471,472.5504,376.4946,468.6029,380.5464,477.55,376.4294" style="stroke:#181818;stroke-width:1;"/><text fill="#000000" font-family="sans-serif" font-size="13" lengthAdjust="spacing" textLength="55.6563" x="360.5" y="374.2445">&#171;include&#187;</text></g><!--link UC_Pay to UC_Proc--><g class="link" data-entity-1="UC_Pay" data-entity-2="UC_Proc" data-source-line="82" data-uid="lnk59" id="link_UC_Pay_UC_Proc"><path d="M578.82,454.2894 C590.4,459.3294 601.58,466.5194 609,476.7494 C688.75,586.6194 557.45,672.1994 639,780.7494 C665.22,815.6394 705.4876,832.0532 744.1476,841.0932" fill="none" id="UC_Pay-to-UC_Proc" style="stroke:#181818;stroke-width:1;stroke-dasharray:7,7;"/><polygon fill="#181818" points="749.99,842.4594,742.1372,836.5152,745.1213,841.3209,740.3156,844.3051,749.99,842.4594" style="stroke:#181818;stroke-width:1;"/><text fill="#000000" font-family="sans-serif" font-size="13" lengthAdjust="spacing" textLength="55.6563" x="646.5" y="777.2445">&#171;include&#187;</text></g><!--reverse link UC_Pay to UC_Apply--><g class="link" data-entity-1="UC_Pay" data-entity-2="UC_Apply" data-source-line="83" data-uid="lnk61" id="link_UC_Pay_UC_Apply"><path d="M584.9808,456.6884 C596.4208,461.7284 601.87,466.4994 609,476.7494 C674.22,570.4894 580.56,891.6394 639,989.7494 C671.93,1045.0394 744.53,1076.5394 785.95,1090.6594" fill="none" id="UC_Pay-backto-UC_Apply" style="stroke:#181818;stroke-width:1;stroke-dasharray:7,7;"/><polygon fill="#181818" points="579.49,454.2694,586.1135,461.5584,584.0656,456.2852,589.3388,454.2374,579.49,454.2694" style="stroke:#181818;stroke-width:1;"/><text fill="#000000" font-family="sans-serif" font-size="13" lengthAdjust="spacing" textLength="53.4917" x="647.5" y="986.2445">&#171;extend&#187;</text></g><!--reverse link UC_Attend to UC_Report--><g class="link" data-entity-1="UC_Attend" data-entity-2="UC_Report" data-source-line="84" data-uid="lnk62" id="link_UC_Attend_UC_Report"><path d="M294.75,309.5193 C345.67,309.3493 409.98,309.1394 461.47,308.9694" fill="none" id="UC_Attend-backto-UC_Report" style="stroke:#181818;stroke-width:1;stroke-dasharray:7,7;"/><polygon fill="#181818" points="288.75,309.5394,297.7633,313.5093,293.75,309.5227,297.7366,305.5094,288.75,309.5394" style="stroke:#181818;stroke-width:1;"/><text fill="#000000" font-family="sans-serif" font-size="13" lengthAdjust="spacing" textLength="53.4917" x="361.5" y="306.2445">&#171;extend&#187;</text></g><!--link UC_Login to UC_Auth--><g class="link" data-entity-1="UC_Login" data-entity-2="UC_Auth" data-source-line="85" data-uid="lnk63" id="link_UC_Login_UC_Auth"><path d="M841.15,631.2894 C858.89,635.2994 882.72,643.6594 896,660.7494 C949.55,729.6294 859.76,797.9694 926,854.7494 C962.19,885.7694 1014.4807,877.6789 1052.7307,866.0189" fill="none" id="UC_Login-to-UC_Auth" style="stroke:#181818;stroke-width:1;stroke-dasharray:7,7;"/><polygon fill="#181818" points="1058.47,864.2694,1048.6948,863.0675,1053.6873,865.7273,1051.0275,870.7199,1058.47,864.2694" style="stroke:#181818;stroke-width:1;"/><text fill="#000000" font-family="sans-serif" font-size="13" lengthAdjust="spacing" textLength="55.6563" x="932.5" y="851.2445">&#171;include&#187;</text></g><!--reverse link UC_Login to UC_Reset--><g class="link" data-entity-1="UC_Login" data-entity-2="UC_Reset" data-source-line="86" data-uid="lnk64" id="link_UC_Login_UC_Reset"><path d="M847.77,627.7494 C888.16,627.7494 966.76,627.7494 1027.5,627.7494" fill="none" id="UC_Login-backto-UC_Reset" style="stroke:#181818;stroke-width:1;stroke-dasharray:7,7;"/><polygon fill="#181818" points="841.77,627.7494,850.77,631.7494,846.77,627.7494,850.77,623.7494,841.77,627.7494" style="stroke:#181818;stroke-width:1;"/><text fill="#000000" font-family="sans-serif" font-size="13" lengthAdjust="spacing" textLength="53.4917" x="933.5" y="624.2445">&#171;extend&#187;</text></g><!--link UC_Create to UC_Verify--><g class="link" data-entity-1="UC_Create" data-entity-2="UC_Verify" data-source-line="87" data-uid="lnk65" id="link_UC_Create_UC_Verify"><path d="M856.94,707.8994 C871.28,714.6694 886.4,724.3694 896,737.7494 C939.21,797.9494 871.36,851.6994 926,901.7494 C965.69,938.0994 1028.532,932.3035 1065.622,925.0335" fill="none" id="UC_Create-to-UC_Verify" style="stroke:#181818;stroke-width:1;stroke-dasharray:7,7;"/><polygon fill="#181818" points="1071.51,923.8794,1061.9087,921.6852,1066.6034,924.8411,1063.4475,929.5358,1071.51,923.8794" style="stroke:#181818;stroke-width:1;"/><text fill="#000000" font-family="sans-serif" font-size="13" lengthAdjust="spacing" textLength="55.6563" x="932.5" y="898.2445">&#171;include&#187;</text></g><!--link UC_Resched to UC_Check--><g class="link" data-entity-1="UC_Resched" data-entity-2="UC_Check" data-source-line="88" data-uid="lnk66" id="link_UC_Resched_UC_Check"><path d="M300.74,581.7494 C348.71,581.7494 403.85,581.7494 450.85,581.7494" fill="none" id="UC_Resched-to-UC_Check" style="stroke:#181818;stroke-width:1;stroke-dasharray:7,7;"/><polygon fill="#181818" points="456.85,581.7494,447.85,577.7494,451.85,581.7494,447.85,585.7494,456.85,581.7494" style="stroke:#181818;stroke-width:1;"/><text fill="#000000" font-family="sans-serif" font-size="13" lengthAdjust="spacing" textLength="55.6563" x="360.5" y="578.2445">&#171;include&#187;</text></g><!--link UC_SetSched to UC_ConfSched--><g class="link" data-entity-1="UC_SetSched" data-entity-2="UC_ConfSched" data-source-line="89" data-uid="lnk67" id="link_UC_SetSched_UC_ConfSched"><path d="M575.39,909.0494 C587.77,904.0994 600.24,896.9694 609,886.7494 C644.22,845.6594 596.28,801.9694 639,768.7494 C643.15,765.5194 768.59,759.0394 994,770.7494 C1006.38,771.3894 1013.5946,771.8766 1026.2546,773.0266" fill="none" id="UC_SetSched-to-UC_ConfSched" style="stroke:#181818;stroke-width:1;stroke-dasharray:7,7;"/><polygon fill="#181818" points="1032.23,773.5694,1023.6288,768.7716,1027.2505,773.1171,1022.905,776.7388,1032.23,773.5694" style="stroke:#181818;stroke-width:1;"/><text fill="#000000" font-family="sans-serif" font-size="13" lengthAdjust="spacing" textLength="55.6563" x="790" y="761.2445">&#171;include&#187;</text></g><!--link UC_UpdSched to UC_ConfSched--><g class="link" data-entity-1="UC_UpdSched" data-entity-2="UC_ConfSched" data-source-line="90" data-uid="lnk68" id="link_UC_UpdSched_UC_ConfSched"><path d="M861.03,908.5694 C873.36,903.2394 886.14,896.0994 896,886.7494 C917.06,866.7794 903.5,847.0794 926,828.7494 C955.29,804.8894 989.7918,793.9248 1023.9818,787.8748" fill="none" id="UC_UpdSched-to-UC_ConfSched" style="stroke:#181818;stroke-width:1;stroke-dasharray:7,7;"/><polygon fill="#181818" points="1029.89,786.8294,1020.3307,784.4588,1024.9665,787.7006,1021.7247,792.3364,1029.89,786.8294" style="stroke:#181818;stroke-width:1;"/><text fill="#000000" font-family="sans-serif" font-size="13" lengthAdjust="spacing" textLength="55.6563" x="932.5" y="793.2445">&#171;include&#187;</text></g><!--reverse link UC_SetSched to UC_UpdSched--><g class="link" data-entity-1="UC_SetSched" data-entity-2="UC_UpdSched" data-source-line="91" data-uid="lnk69" id="link_UC_SetSched_UC_UpdSched"><path d="M598.6399,920.2207 C643.6199,920.5307 698.86,920.9194 745.92,921.2494" fill="none" id="UC_SetSched-backto-UC_UpdSched" style="stroke:#181818;stroke-width:1;stroke-dasharray:7,7;"/><polygon fill="#181818" points="592.64,920.1794,601.6122,924.2413,597.6399,920.2138,601.6674,916.2415,592.64,920.1794" style="stroke:#181818;stroke-width:1;"/><text fill="#000000" font-family="sans-serif" font-size="13" lengthAdjust="spacing" textLength="53.4917" x="647.5" y="917.2445">&#171;extend&#187;</text></g><!--link UC_Init to UC_Rec--><g class="link" data-entity-1="UC_Init" data-entity-2="UC_Rec" data-source-line="92" data-uid="lnk70" id="link_UC_Init_UC_Rec"><path d="M288,511.7494 C337.2,511.7494 398.82,511.7494 449.99,511.7494" fill="none" id="UC_Init-to-UC_Rec" style="stroke:#181818;stroke-width:1;stroke-dasharray:7,7;"/><polygon fill="#181818" points="455.99,511.7494,446.99,507.7494,450.99,511.7494,446.99,515.7494,455.99,511.7494" style="stroke:#181818;stroke-width:1;"/><text fill="#000000" font-family="sans-serif" font-size="13" lengthAdjust="spacing" textLength="55.6563" x="360.5" y="508.2445">&#171;include&#187;</text></g><!--link UC_Upload to UC_Val--><g class="link" data-entity-1="UC_Upload" data-entity-2="UC_Val" data-source-line="93" data-uid="lnk71" id="link_UC_Upload_UC_Val"><path d="M309.19,653.3394 C361.6,652.4894 421.0508,651.5174 466.9408,650.7674" fill="none" id="UC_Upload-to-UC_Val" style="stroke:#181818;stroke-width:1;stroke-dasharray:7,7;"/><polygon fill="#181818" points="472.94,650.6694,463.8758,646.817,467.9407,650.7511,464.0066,654.8159,472.94,650.6694" style="stroke:#181818;stroke-width:1;"/><text fill="#000000" font-family="sans-serif" font-size="13" lengthAdjust="spacing" textLength="55.6563" x="360.5" y="648.2445">&#171;include&#187;</text></g><!--reverse link UC_Upload to UC_Del--><g class="link" data-entity-1="UC_Upload" data-entity-2="UC_Del" data-source-line="94" data-uid="lnk72" id="link_UC_Upload_UC_Del"><path d="M292.7534,669.3155 C347.3134,680.7055 419.24,695.7294 471.91,706.7194" fill="none" id="UC_Upload-backto-UC_Del" style="stroke:#181818;stroke-width:1;stroke-dasharray:7,7;"/><polygon fill="#181818" points="286.88,668.0894,294.8726,673.8442,291.7745,669.1112,296.5075,666.013,286.88,668.0894" style="stroke:#181818;stroke-width:1;"/><text fill="#000000" font-family="sans-serif" font-size="13" lengthAdjust="spacing" textLength="53.4917" x="361.5" y="680.2445">&#171;extend&#187;</text></g><!--reverse link UC_ConfSched to UC_Notify--><g class="link" data-entity-1="UC_ConfSched" data-entity-2="UC_Notify" data-source-line="95" data-uid="lnk73" id="link_UC_ConfSched_UC_Notify"><path d="M1140.1845,797.9571 C1152.3145,803.4571 1160.29,807.6294 1172,814.7494 C1243.91,858.4794 1320.41,923.2394 1354.61,953.2994" fill="none" id="UC_ConfSched-backto-UC_Notify" style="stroke:#181818;stroke-width:1;stroke-dasharray:7,7;"/><polygon fill="#181818" points="1134.72,795.4794,1141.2649,802.839,1139.2738,797.5441,1144.5686,795.553,1134.72,795.4794" style="stroke:#181818;stroke-width:1;"/><text fill="#000000" font-family="sans-serif" font-size="13" lengthAdjust="spacing" textLength="53.4917" x="1210.5" y="834.2445">&#171;extend&#187;</text></g><!--link MC_IDTheft to UC_Login--><g class="link" data-entity-1="MC_IDTheft" data-entity-2="UC_Login" data-source-line="98" data-uid="lnk74" id="link_MC_IDTheft_UC_Login"><path d="M570.58,776.7694 C584,771.5094 598.31,764.0494 609,753.7494 C631.05,732.5094 616.25,712.2294 639,691.7494 C684.16,651.0894 751.1329,636.6158 787.8629,631.2558" fill="none" id="MC_IDTheft-to-UC_Login" style="stroke:#181818;stroke-width:1;stroke-dasharray:7,7;"/><polygon fill="#181818" points="793.8,630.3894,784.3167,627.7309,788.8524,631.1114,785.4719,635.6471,793.8,630.3894" style="stroke:#181818;stroke-width:1;"/><text fill="#000000" font-family="sans-serif" font-size="13" lengthAdjust="spacing" textLength="68.6626" x="640" y="650.2445">&#171;threatens&#187;</text></g><!--link MC_Flood to UC_Create--><g class="link" data-entity-1="MC_Flood" data-entity-2="UC_Create" data-source-line="99" data-uid="lnk75" id="link_MC_Flood_UC_Create"><path d="M565.18,845.4394 C580.1,840.3494 596.97,832.4994 609,820.7494 C632.06,798.2394 615.1,776.3594 639,754.7494 C671.7,725.1894 713.6292,711.2992 751.3892,703.6592" fill="none" id="MC_Flood-to-UC_Create" style="stroke:#181818;stroke-width:1;stroke-dasharray:7,7;"/><polygon fill="#181818" points="757.27,702.4694,747.6555,700.3336,752.3693,703.4609,749.242,708.1747,757.27,702.4694" style="stroke:#181818;stroke-width:1;"/><text fill="#000000" font-family="sans-serif" font-size="13" lengthAdjust="spacing" textLength="68.6626" x="640" y="714.2445">&#171;threatens&#187;</text></g><!--link MC_MITM to UC_Notify--><g class="link" data-entity-1="MC_MITM" data-entity-2="UC_Notify" data-source-line="100" data-uid="lnk76" id="link_MC_MITM_UC_Notify"><path d="M1169.56,981.6294 C1210.79,979.2194 1256.6202,976.5498 1297.6402,974.1498" fill="none" id="MC_MITM-to-UC_Notify" style="stroke:#181818;stroke-width:1;stroke-dasharray:7,7;"/><polygon fill="#181818" points="1303.63,973.7994,1294.4117,970.3319,1298.6385,974.0914,1294.879,978.3182,1303.63,973.7994" style="stroke:#181818;stroke-width:1;"/><text fill="#000000" font-family="sans-serif" font-size="13" lengthAdjust="spacing" textLength="68.6626" x="1203" y="973.2445">&#171;threatens&#187;</text></g><!--link MC_Corrupt to UC_UpdSched--><g class="link" data-entity-1="MC_Corrupt" data-entity-2="UC_UpdSched" data-source-line="101" data-uid="lnk77" id="link_MC_Corrupt_UC_UpdSched"><path d="M583.97,976.1494 C619.34,968.2794 667.01,957.5594 709,947.7494 C728.26,943.2494 743.5892,939.5743 762.0092,935.1043" fill="none" id="MC_Corrupt-to-UC_UpdSched" style="stroke:#181818;stroke-width:1;stroke-dasharray:7,7;"/><polygon fill="#181818" points="767.84,933.6894,758.1505,931.9246,762.981,934.8685,760.0371,939.699,767.84,933.6894" style="stroke:#181818;stroke-width:1;"/><text fill="#000000" font-family="sans-serif" font-size="13" lengthAdjust="spacing" textLength="68.6626" x="640" y="944.2445">&#171;threatens&#187;</text></g><!--link Mit_MFA to MC_IDTheft--><g class="link" data-entity-1="Mit_MFA" data-entity-2="MC_IDTheft" data-source-line="103" data-uid="lnk78" id="link_Mit_MFA_MC_IDTheft"><path d="M310.83,772.7694 C363.9,776.3994 423.864,780.5091 469.384,783.6291" fill="none" id="Mit_MFA-to-MC_IDTheft" style="stroke:#181818;stroke-width:1;stroke-dasharray:7,7;"/><polygon fill="#181818" points="475.37,784.0394,466.6646,779.4333,470.3817,783.6975,466.1175,787.4146,475.37,784.0394" style="stroke:#181818;stroke-width:1;"/><text fill="#000000" font-family="sans-serif" font-size="13" lengthAdjust="spacing" textLength="66.479" x="355" y="773.2445">&#171;mitigates&#187;</text></g><!--link Mit_Monitor to MC_Flood--><g class="link" data-entity-1="Mit_Monitor" data-entity-2="MC_Flood" data-source-line="104" data-uid="lnk79" id="link_Mit_Monitor_MC_Flood"><path d="M300.51,898.0294 C337.33,891.0194 381.94,882.4894 422,874.7494 C445.9,870.1294 466.8817,866.0317 487.7817,861.9417" fill="none" id="Mit_Monitor-to-MC_Flood" style="stroke:#181818;stroke-width:1;stroke-dasharray:7,7;"/><polygon fill="#181818" points="493.67,860.7894,484.0693,858.5923,488.7631,861.7496,485.6057,866.4434,493.67,860.7894" style="stroke:#181818;stroke-width:1;"/><text fill="#000000" font-family="sans-serif" font-size="13" lengthAdjust="spacing" textLength="66.479" x="355" y="871.2445">&#171;mitigates&#187;</text></g><!--link Mit_Rate to MC_Flood--><g class="link" data-entity-1="Mit_Rate" data-entity-2="MC_Flood" data-source-line="105" data-uid="lnk80" id="link_Mit_Rate_MC_Flood"><path d="M288.38,841.9494 C349.38,844.9394 432.4572,848.996 483.5272,851.496" fill="none" id="Mit_Rate-to-MC_Flood" style="stroke:#181818;stroke-width:1;stroke-dasharray:7,7;"/><polygon fill="#181818" points="489.52,851.7894,480.7263,847.3541,484.526,851.5449,480.3352,855.3445,489.52,851.7894" style="stroke:#181818;stroke-width:1;"/><text fill="#000000" font-family="sans-serif" font-size="13" lengthAdjust="spacing" textLength="66.479" x="355" y="842.2445">&#171;mitigates&#187;</text></g><!--link Mit_Encrypt to MC_MITM--><g class="link" data-entity-1="Mit_Encrypt" data-entity-2="MC_MITM" data-source-line="106" data-uid="lnk81" id="link_Mit_Encrypt_MC_MITM"><path d="M866.06,988.2394 C909.56,987.7694 968.5504,987.1342 1018.5104,986.5942" fill="none" id="Mit_Encrypt-to-MC_MITM" style="stroke:#181818;stroke-width:1;stroke-dasharray:7,7;"/><polygon fill="#181818" points="1024.51,986.5294,1015.4673,982.6269,1019.5103,986.5834,1015.5538,990.6264,1024.51,986.5294" style="stroke:#181818;stroke-width:1;"/><text fill="#000000" font-family="sans-serif" font-size="13" lengthAdjust="spacing" textLength="66.479" x="927" y="984.2445">&#171;mitigates&#187;</text></g><!--link Mit_Backup to MC_Corrupt--><g class="link" data-entity-1="Mit_Backup" data-entity-2="MC_Corrupt" data-source-line="107" data-uid="lnk82" id="link_Mit_Backup_MC_Corrupt"><path d="M281.73,986.9394 C331.88,987.1094 398.18,987.3192 451.75,987.4992" fill="none" id="Mit_Backup-to-MC_Corrupt" style="stroke:#181818;stroke-width:1;stroke-dasharray:7,7;"/><polygon fill="#181818" points="457.75,987.5194,448.7635,983.4892,452.75,987.5026,448.7366,991.4891,457.75,987.5194" style="stroke:#181818;stroke-width:1;"/><text fill="#000000" font-family="sans-serif" font-size="13" lengthAdjust="spacing" textLength="66.479" x="355" y="984.2445">&#171;mitigates&#187;</text></g><!--SRC=[ZLPBJniz5DtFhx2erCS2s5TH90WW8P4A9S2sSZmtYHMFFR8zvOi-zR_t-fcn9tsm079yVAxlEvPR0UI-7Hw4UYTBRWO3P47nrnsdEqqxSacUO4VPaRo1Dbn9ylaDMLIG9RLi_wLf16mjiOfeljjRqd8Dp2AlCGSkU-eaUieET0ThUqHRxfZAdO2ceSmgJTPsQ47Q-Ea5ADk3ZfzksexB-FyjbOS4MukIeCbi5fuydpTD5YONzvTFGBNaSaVMHsEXko3_DmH_Ff4Lx0P1DNcDVXgFemHpJb-iXurXcc_0USJKe95nGQWXhullU5QIEte0TExOuVCpwvaUIzQpLWoC8LPJQQYFJURYKKbcUwNmhn7APhFuVqb2zq6sHA2gajbmG4lc2dgbBK4x6-6Y49W1BPb2xNX-rvFxKDaSx1xTv8nQSC7JsImUr4ODe4rgpBlIxSaeeYLneS6ftJ0CjCp-1hHaOkrj-J4ny1FV7YT6iMxQ0TF_vECoikiEAijxO0ToyuDoGJTSS9kr_KbL4-ZDEehdf81TJsMPabkkkmbxWVWP-clVElzDnKRu37djKlvDMRvrEHWLaSUgQ3nARhdJBcFXuFe9Gj4Mku9Xgh1VJb5ZPudFTm-6V2Hll0LbJWzsPrN6gE3UkmT-yWp1INqAok3w3WHKN8IQsBEZiMJ8vrkySI2CQuODyANKcp4bbFxwlkSMvjoD5KmjmShTsjcrFvjx_IN6ukx5mUJ3nkdzGGOdetAXgGKy_lVhIoe9b-uDfEDjAw3MMJw-BFykir1Q3ptELshf1ezhbNGUXNBaBD_vQldTmEi6WUKJnYezzNYgBnJuldougUueh2Fa6pzRIO_DgNH79OFJdK0fxsdKnP4iUCTjQM8rwNYGJ1_xWdGVe9AtSSKmz3ukcNcBuD0tFvlcKrelc0CBEenVqoJmyZ8DzXA9ixG4mrGiiJYiIZ2D7BGUrrbfFO7HUXeb9UnxjOHYdvNWo9ZVbgMf00Lc79jZo0_l38mJDsR52OCMt0uk3NWaqFmsSyz8sxbyIKATeTn-DUoRgWPTXzHOh7Tdxz6PaVYDP0N2bvNPyzuq8R7awceUrpBvYjyNk6G2SuLV6CfpjsMd17Sh2Q1tvmcpgoiVoxuNmGRyvwed4EAkZfouZskIhwnaoELaQYXGiepRiBLANATH9cHxAXJh9T729fn69XPbfgKDDgMcTVKFrAmQ_SXNQrTSyISzN4NdZFfrb7p5vF-E4atXEfa6BByqaaAXbppNn7iNsUlHC2qhRRHDueD2jfoEzNT16fJAIoD5AYJi3CtlXCWQFQfYfPaVYKKqnzGcJd5F73tMyRhW57Z9K_ydQdZlEU8grTeVMN5c9wBtwnmlJEn4IuxLp5y0]--></g></svg>