<svg xmlns="http://www.w3.org/2000/svg" xmlns:xlink="http://www.w3.org/1999/xlink" contentStyleType="text/css" data-diagram-type="DESCRIPTION" height="841px" preserveAspectRatio="none" style="width:1144px;height:841px;background:#FFFFFF;" version="1.1" viewBox="0 0 1144 841" width="1144px" zoomAndPan="magnify"><title>EduFlow Misuse Case Diagram - Architectural Best Practice Version</title><defs/><g><g class="title" data-source-line="1"><text fill="#000000" font-family="sans-serif" font-size="14" font-weight="bold" lengthAdjust="spacing" textLength="453.5918" x="338.2041" y="24.5332">EduFlow Misuse Case Diagram - Architectural Best Practice Version</text></g><!--cluster EduFlow Security Perimeter--><g class="cluster" data-entity="EduFlow Security Perimeter" data-source-line="12" data-uid="ent0006" id="cluster_EduFlow Security Perimeter"><rect fill="none" height="597" rx="2.5" ry="2.5" style="stroke:#181818;stroke-width:1;" width="948" x="190" y="125.1794"/><text fill="#000000" font-family="sans-serif" font-size="14" font-weight="bold" lengthAdjust="spacing" textLength="185.9443" x="571.0278" y="141.7126">EduFlow Security Perimeter</text></g><!--entity UC_Access--><g class="entity" data-entity="UC_Access" data-source-line="14" data-uid="ent0007" id="entity_UC_Access"><ellipse cx="1033.9687" cy="363.9731" fill="#F1F1F1" rx="69.4687" ry="16.2937" style="stroke:#181818;stroke-width:0.5;"/><text fill="#000000" font-family="sans-serif" font-size="14" lengthAdjust="spacing" textLength="99.5996" x="984.1689" y="369.2778">Access Account</text></g><!--entity UC_Transact--><g class="entity" data-entity="UC_Transact" data-source-line="15" data-uid="ent0008" id="entity_UC_Transact"><ellipse cx="334.5228" cy="687.1839" fill="#F1F1F1" rx="80.5228" ry="18.5046" style="stroke:#181818;stroke-width:0.5;"/><text fill="#000000" font-family="sans-serif" font-size="14" lengthAdjust="spacing" textLength="127.6201" x="270.7128" y="692.4886">Execute Transaction</text></g><!--entity UC_Resource--><g class="entity" data-entity="UC_Resource" data-source-line="16" data-uid="ent0009" id="entity_UC_Resource"><ellipse cx="1034.0431" cy="613.188" fill="#F1F1F1" rx="88.0431" ry="20.0086" style="stroke:#181818;stroke-width:0.5;"/><text fill="#000000" font-family="sans-serif" font-size="14" lengthAdjust="spacing" textLength="145.5234" x="961.2814" y="618.4927">Resource Management</text></g><!--entity UC_Live--><g class="entity" data-entity="UC_Live" data-source-line="17" data-uid="ent0010" id="entity_UC_Live"><ellipse cx="1034.1599" cy="270.3113" fill="#F1F1F1" rx="81.1599" ry="18.632" style="stroke:#181818;stroke-width:0.5;"/><text fill="#000000" font-family="sans-serif" font-size="14" lengthAdjust="spacing" textLength="129.165" x="969.5773" y="275.616">Real-time Interaction</text></g><!--entity MC_Brute--><g class="entity" data-entity="MC_Brute" data-source-line="20" data-uid="ent0011" id="entity_MC_Brute"><ellipse cx="703.2547" cy="364.0303" fill="#000000" rx="112.2547" ry="24.8509" style="stroke:#181818;stroke-width:0.5;"/><text fill="#FFFFFF" font-family="sans-serif" font-size="14" lengthAdjust="spacing" textLength="199.9854" x="603.2621" y="369.335">Brute Force / Credential Stuffing</text></g><!--entity MC_DDoS--><g class="entity" data-entity="MC_DDoS" data-source-line="21" data-uid="ent0012" id="entity_MC_DDoS"><ellipse cx="703.6659" cy="270.1311" fill="#000000" rx="59.6659" ry="15.4517" style="stroke:#181818;stroke-width:0.5;"/><text fill="#FFFFFF" font-family="sans-serif" font-size="14" lengthAdjust="spacing" textLength="80.1377" x="663.5971" y="275.4358">DDoS Attack</text></g><!--entity MC_Hijack--><g class="entity" data-entity="MC_Hijack" data-source-line="22" data-uid="ent0013" id="entity_MC_Hijack"><ellipse cx="703.6428" cy="444.3079" fill="#000000" rx="73.6428" ry="17.1286" style="stroke:#181818;stroke-width:0.5;"/><text fill="#FFFFFF" font-family="sans-serif" font-size="14" lengthAdjust="spacing" textLength="110.4961" x="648.3948" y="449.6126">Session Hijacking</text></g><!--entity MC_SQLi--><g class="entity" data-entity="MC_SQLi" data-source-line="23" data-uid="ent0014" id="entity_MC_SQLi"><ellipse cx="703.4308" cy="574.1311" fill="#000000" rx="62.4308" ry="15.4517" style="stroke:#181818;stroke-width:0.5;"/><text fill="#FFFFFF" font-family="sans-serif" font-size="14" lengthAdjust="spacing" textLength="84.0479" x="661.4069" y="579.4358">SQL Injection</text></g><!--entity MC_Ransom--><g class="entity" data-entity="MC_Ransom" data-source-line="24" data-uid="ent0015" id="entity_MC_Ransom"><ellipse cx="703.7285" cy="648.1251" fill="#000000" rx="102.7285" ry="22.9457" style="stroke:#181818;stroke-width:0.5;"/><text fill="#FFFFFF" font-family="sans-serif" font-size="14" lengthAdjust="spacing" textLength="178.9717" x="614.2427" y="653.4298">Ransomware / Data Deletion</text></g><!--entity Mit_MFA--><g class="entity" data-entity="Mit_MFA" data-source-line="27" data-uid="ent0016" id="entity_Mit_MFA"><ellipse cx="334.5246" cy="355.3843" fill="#F1F1F1" rx="116.5246" ry="25.7049" style="stroke:#181818;stroke-width:0.5;"/><text fill="#000000" font-family="sans-serif" font-size="14" lengthAdjust="spacing" textLength="209.2822" x="229.8834" y="360.689">Multi-Factor Authentication (MFA)</text></g><!--entity Mit_WAF--><g class="entity" data-entity="Mit_WAF" data-source-line="28" data-uid="ent0017" id="entity_Mit_WAF"><ellipse cx="334.4322" cy="269.9658" fill="#F1F1F1" rx="106.9322" ry="23.7864" style="stroke:#181818;stroke-width:0.5;"/><text fill="#000000" font-family="sans-serif" font-size="14" lengthAdjust="spacing" textLength="188.2959" x="240.2842" y="275.2705">Adaptive Rate Limiting &amp; WAF</text></g><!--entity Mit_TLS--><g class="entity" data-entity="Mit_TLS" data-source-line="29" data-uid="ent0018" id="entity_Mit_TLS"><ellipse cx="334.4791" cy="444.2752" fill="#F1F1F1" rx="128.4791" ry="28.0958" style="stroke:#181818;stroke-width:0.5;"/><text fill="#000000" font-family="sans-serif" font-size="14" lengthAdjust="spacing" textLength="235.0059" x="216.9762" y="449.5799">TLS 1.3 Encryption &amp; Secure Cookies</text></g><!--entity Mit_SecureCode--><g class="entity" data-entity="Mit_SecureCode" data-source-line="30" data-uid="ent0019" id="entity_Mit_SecureCode"><ellipse cx="334.7316" cy="530.1257" fill="#F1F1F1" rx="102.7316" ry="22.9463" style="stroke:#181818;stroke-width:0.5;"/><text fill="#000000" font-family="sans-serif" font-size="14" lengthAdjust="spacing" textLength="178.9785" x="245.2423" y="535.4304">Input Parameterized Queries</text></g><!--entity Mit_Backup--><g class="entity" data-entity="Mit_Backup" data-source-line="31" data-uid="ent0020" id="entity_Mit_Backup"><ellipse cx="334.5912" cy="610.9976" fill="#F1F1F1" rx="99.5912" ry="22.3182" style="stroke:#181818;stroke-width:0.5;"/><text fill="#000000" font-family="sans-serif" font-size="14" lengthAdjust="spacing" textLength="171.9512" x="248.6156" y="616.3023">Off-site Immutable Backups</text></g><!--entity Mit_IDS--><g class="entity" data-entity="Mit_IDS" data-source-line="32" data-uid="ent0021" id="entity_Mit_IDS"><ellipse cx="334.5249" cy="186.3844" fill="#F1F1F1" rx="114.0249" ry="25.205" style="stroke:#181818;stroke-width:0.5;"/><text fill="#000000" font-family="sans-serif" font-size="14" lengthAdjust="spacing" textLength="203.8477" x="232.6011" y="191.689">Intrusion Detection System (IDS)</text></g><!--entity User--><g class="entity" data-entity="User" data-source-line="7" data-uid="ent0002" id="entity_User"><ellipse cx="74.5205" cy="405.6794" fill="#F1F1F1" rx="8" ry="8" style="stroke:#181818;stroke-width:0.5;"/><path d="M74.5205,413.6794 L74.5205,440.6794 M61.5205,421.6794 L87.5205,421.6794 M74.5205,440.6794 L61.5205,455.6794 M74.5205,440.6794 L87.5205,455.6794" fill="none" style="stroke:#181818;stroke-width:0.5;"/><text fill="#000000" font-family="sans-serif" font-size="14" lengthAdjust="spacing" textLength="98.041" x="25.5" y="471.7126">Legitimate User</text></g><!--entity Admin--><g class="entity" data-entity="Admin" data-source-line="8" data-uid="ent0003" id="entity_Admin"><ellipse cx="74.4653" cy="155.6794" fill="#F1F1F1" rx="8" ry="8" style="stroke:#181818;stroke-width:0.5;"/><path d="M74.4653,163.6794 L74.4653,190.6794 M61.4653,171.6794 L87.4653,171.6794 M74.4653,190.6794 L61.4653,205.6794 M74.4653,190.6794 L87.4653,205.6794" fill="none" style="stroke:#181818;stroke-width:0.5;"/><text fill="#000000" font-family="sans-serif" font-size="14" lengthAdjust="spacing" textLength="136.9307" x="6" y="221.7126">Security Administrator</text></g><!--entity Bank--><g class="entity" data-entity="Bank" data-source-line="9" data-uid="ent0004" id="entity_Bank"><ellipse cx="74.6929" cy="656.6794" fill="#F1F1F1" rx="8" ry="8" style="stroke:#181818;stroke-width:0.5;"/><path d="M74.6929,664.6794 L74.6929,691.6794 M61.6929,672.6794 L87.6929,672.6794 M74.6929,691.6794 L61.6929,706.6794 M74.6929,691.6794 L87.6929,706.6794" fill="none" style="stroke:#181818;stroke-width:0.5;"/><text fill="#000000" font-family="sans-serif" font-size="14" lengthAdjust="spacing" textLength="114.3857" x="17.5" y="722.7126">Payment Gateway</text></g><!--entity Attacker--><g class="entity" data-entity="Attacker" data-source-line="10" data-uid="ent0005" id="entity_Attacker"><ellipse cx="334.2998" cy="766.7888" fill="#FF0000" rx="8" ry="8" style="stroke:#181818;stroke-width:0.5;"/><path d="M334.2998,774.7888 L334.2998,801.7888 M321.2998,782.7888 L347.2998,782.7888 M334.2998,801.7888 L321.2998,816.7888 M334.2998,801.7888 L347.2998,816.7888" fill="none" style="stroke:#181818;stroke-width:0.5;"/><text fill="#000000" font-family="sans-serif" font-size="14" lengthAdjust="spacing" textLength="51.3516" x="308.624" y="832.822">Attacker</text><text fill="#000000" font-family="sans-serif" font-size="14" font-style="italic" lengthAdjust="spacing" textLength="92.5996" x="288" y="755.2126">&#171;Threat Actor&#187;</text></g><!--link User to UC_Access--><g class="link" data-entity-1="User" data-entity-2="UC_Access" data-source-line="36" data-uid="lnk22" id="link_User_UC_Access"><path d="M89.1,396.9694 C116.57,318.0194 176.55,146.9994 182,143.1794 C322.71,44.6094 914.78,243.2094 916,244.1794 C940,263.1794 925.89,283.0994 946,306.1794 C961.74,324.2494 984.38,339.0994 1002.62,349.2594" fill="none" id="User-UC_Access" style="stroke:#181818;stroke-width:1;"/></g><!--link User to UC_Transact--><g class="link" data-entity-1="User" data-entity-2="UC_Transact" data-source-line="37" data-uid="lnk23" id="link_User_UC_Transact"><path d="M84.15,475.5994 C96.96,524.3794 125.77,606.4394 182,651.1794 C203.16,668.0094 230.9,677.1894 256.86,682.1194" fill="none" id="User-UC_Transact" style="stroke:#181818;stroke-width:1;"/></g><!--link Bank to UC_Transact--><g class="link" data-entity-1="Bank" data-entity-2="UC_Transact" data-source-line="38" data-uid="lnk24" id="link_Bank_UC_Transact"><path d="M131.8,687.1794 C167.53,687.1794 214.32,687.1794 253.83,687.1794" fill="none" id="Bank-UC_Transact" style="stroke:#181818;stroke-width:1;"/></g><!--link Admin to Mit_IDS--><g class="link" data-entity-1="Admin" data-entity-2="Mit_IDS" data-source-line="39" data-uid="lnk25" id="link_Admin_Mit_IDS"><path d="M143.29,186.1794 C166.88,186.1794 194.02,186.1794 220.28,186.1794" fill="none" id="Admin-Mit_IDS" style="stroke:#181818;stroke-width:1;"/></g><!--link Attacker to MC_Brute--><g class="link" data-entity-1="Attacker" data-entity-2="MC_Brute" data-source-line="41" data-uid="lnk26" id="link_Attacker_MC_Brute"><path d="M382.17,768.4994 C444.88,741.6294 549.81,694.9994 561,679.1794 C630.72,580.6094 518.03,505.3794 591,409.1794 C599.89,397.4494 612.35,388.7694 625.72,382.3494" fill="none" id="Attacker-MC_Brute" style="stroke:#181818;stroke-width:1;"/></g><!--link Attacker to MC_DDoS--><g class="link" data-entity-1="Attacker" data-entity-2="MC_DDoS" data-source-line="42" data-uid="lnk27" id="link_Attacker_MC_DDoS"><path d="M382.2,770.0994 C407.77,758.7794 439.03,742.4694 463,722.1794 C479.96,707.8194 476.75,697.3394 493,682.1794 C519.32,657.6194 542.33,668.9494 561,638.1794 C634.42,517.1894 508.99,436.5194 591,321.1794 C606.3,299.6694 632.93,287.0294 656.34,279.7194" fill="none" id="Attacker-MC_DDoS" style="stroke:#181818;stroke-width:1;"/></g><!--link Attacker to MC_Hijack--><g class="link" data-entity-1="Attacker" data-entity-2="MC_Hijack" data-source-line="43" data-uid="lnk28" id="link_Attacker_MC_Hijack"><path d="M382.09,780.0794 C440.94,768.8894 537.39,746.9894 561,720.1794 C614.31,659.6394 551.59,611.5594 591,541.1794 C610.93,505.5794 649.12,476.7894 675.19,460.0694" fill="none" id="Attacker-MC_Hijack" style="stroke:#181818;stroke-width:1;"/></g><!--link Attacker to MC_SQLi--><g class="link" data-entity-1="Attacker" data-entity-2="MC_SQLi" data-source-line="44" data-uid="lnk29" id="link_Attacker_MC_SQLi"><path d="M382.2,797.0994 C432.96,803.8694 513.2,805.5994 561,761.1794 C612.08,713.7094 544.1,658.7794 591,607.1794 C604.65,592.1694 624.76,583.8494 644.16,579.2994" fill="none" id="Attacker-MC_SQLi" style="stroke:#181818;stroke-width:1;"/></g><!--link Attacker to MC_Ransom--><g class="link" data-entity-1="Attacker" data-entity-2="MC_Ransom" data-source-line="45" data-uid="lnk30" id="link_Attacker_MC_Ransom"><path d="M382.17,803.1394 C429.36,815.5694 503.36,827.4994 561,802.1794 C622.33,775.2394 668.76,707.1394 689.91,671.1994" fill="none" id="Attacker-MC_Ransom" style="stroke:#181818;stroke-width:1;"/></g><!--link MC_Brute to UC_Access--><g class="link" data-entity-1="MC_Brute" data-entity-2="UC_Access" data-source-line="48" data-uid="lnk31" id="link_MC_Brute_UC_Access"><path d="M816.17,364.1794 C865.28,364.1794 915.39,364.1794 958.23,364.1794" fill="none" id="MC_Brute-to-UC_Access" style="stroke:#181818;stroke-width:1;stroke-dasharray:7,7;"/><polygon fill="#181818" points="964.23,364.1794,955.23,360.1794,959.23,364.1794,955.23,368.1794,964.23,364.1794" style="stroke:#181818;stroke-width:1;"/><text fill="#000000" font-family="sans-serif" font-size="13" lengthAdjust="spacing" textLength="68.6626" x="847" y="360.6745">&#171;threatens&#187;</text></g><!--link MC_Hijack to UC_Access--><g class="link" data-entity-1="MC_Hijack" data-entity-2="UC_Access" data-source-line="49" data-uid="lnk32" id="link_MC_Hijack_UC_Access"><path d="M754.75,431.9394 C817.3,416.7094 917.5302,392.2985 979.0702,377.3185" fill="none" id="MC_Hijack-to-UC_Access" style="stroke:#181818;stroke-width:1;stroke-dasharray:7,7;"/><polygon fill="#181818" points="984.9,375.8994,975.2093,374.1415,980.0419,377.0819,977.1014,381.9145,984.9,375.8994" style="stroke:#181818;stroke-width:1;"/><text fill="#000000" font-family="sans-serif" font-size="13" lengthAdjust="spacing" textLength="68.6626" x="847" y="391.6745">&#171;threatens&#187;</text></g><!--link MC_DDoS to UC_Live--><g class="link" data-entity-1="MC_DDoS" data-entity-2="UC_Live" data-source-line="50" data-uid="lnk33" id="link_MC_DDoS_UC_Live"><path d="M763.23,270.1794 C816.1,270.1794 888.27,270.1794 946.87,270.1794" fill="none" id="MC_DDoS-to-UC_Live" style="stroke:#181818;stroke-width:1;stroke-dasharray:7,7;"/><polygon fill="#181818" points="952.87,270.1794,943.87,266.1794,947.87,270.1794,943.87,274.1794,952.87,270.1794" style="stroke:#181818;stroke-width:1;"/><text fill="#000000" font-family="sans-serif" font-size="13" lengthAdjust="spacing" textLength="68.6626" x="847" y="266.6745">&#171;threatens&#187;</text></g><!--link MC_SQLi to UC_Resource--><g class="link" data-entity-1="MC_SQLi" data-entity-2="UC_Resource" data-source-line="51" data-uid="lnk34" id="link_MC_SQLi_UC_Resource"><path d="M760.23,580.7994 C813.95,587.1694 889.7619,596.1714 949.7619,603.3014" fill="none" id="MC_SQLi-to-UC_Resource" style="stroke:#181818;stroke-width:1;stroke-dasharray:7,7;"/><polygon fill="#181818" points="955.72,604.0094,947.2549,598.9753,950.7549,603.4194,946.3109,606.9194,955.72,604.0094" style="stroke:#181818;stroke-width:1;"/><text fill="#000000" font-family="sans-serif" font-size="13" lengthAdjust="spacing" textLength="68.6626" x="847" y="588.6745">&#171;threatens&#187;</text></g><!--link MC_Ransom to UC_Resource--><g class="link" data-entity-1="MC_Ransom" data-entity-2="UC_Resource" data-source-line="52" data-uid="lnk35" id="link_MC_Ransom_UC_Resource"><path d="M805.73,650.4494 C840.79,649.9994 880.25,648.1194 916,643.1794 C937.6,640.1894 955.1714,636.2581 975.3014,630.7681" fill="none" id="MC_Ransom-to-UC_Resource" style="stroke:#181818;stroke-width:1;stroke-dasharray:7,7;"/><polygon fill="#181818" points="981.09,629.1894,971.3547,627.6984,976.2662,630.505,973.4596,635.4165,981.09,629.1894" style="stroke:#181818;stroke-width:1;"/><text fill="#000000" font-family="sans-serif" font-size="13" lengthAdjust="spacing" textLength="68.6626" x="847" y="639.6745">&#171;threatens&#187;</text></g><!--link Mit_MFA to MC_Brute--><g class="link" data-entity-1="Mit_MFA" data-entity-2="MC_Brute" data-source-line="55" data-uid="lnk36" id="link_Mit_MFA_MC_Brute"><path d="M450.36,357.9994 C495.36,359.0994 540.7918,360.2115 585.4118,361.3115" fill="none" id="Mit_MFA-to-MC_Brute" style="stroke:#181818;stroke-width:1;stroke-dasharray:7,7;"/><polygon fill="#181818" points="591.41,361.4594,582.5113,357.2388,586.4115,361.3361,582.3142,365.2364,591.41,361.4594" style="stroke:#181818;stroke-width:1;"/><text fill="#000000" font-family="sans-serif" font-size="13" lengthAdjust="spacing" textLength="66.479" x="494" y="355.6745">&#171;mitigates&#187;</text></g><!--link Mit_TLS to MC_Hijack--><g class="link" data-entity-1="Mit_TLS" data-entity-2="MC_Hijack" data-source-line="56" data-uid="lnk37" id="link_Mit_TLS_MC_Hijack"><path d="M463.09,444.1794 C518.86,444.1794 576.25,444.1794 623.79,444.1794" fill="none" id="Mit_TLS-to-MC_Hijack" style="stroke:#181818;stroke-width:1;stroke-dasharray:7,7;"/><polygon fill="#181818" points="629.79,444.1794,620.79,440.1794,624.79,444.1794,620.79,448.1794,629.79,444.1794" style="stroke:#181818;stroke-width:1;"/><text fill="#000000" font-family="sans-serif" font-size="13" lengthAdjust="spacing" textLength="66.479" x="494" y="440.6745">&#171;mitigates&#187;</text></g><!--link Mit_WAF to MC_DDoS--><g class="link" data-entity-1="Mit_WAF" data-entity-2="MC_DDoS" data-source-line="57" data-uid="lnk38" id="link_Mit_WAF_MC_DDoS"><path d="M441.65,270.1794 C507.49,270.1794 583.59,270.1794 637.9,270.1794" fill="none" id="Mit_WAF-to-MC_DDoS" style="stroke:#181818;stroke-width:1;stroke-dasharray:7,7;"/><polygon fill="#181818" points="643.9,270.1794,634.9,266.1794,638.9,270.1794,634.9,274.1794,643.9,270.1794" style="stroke:#181818;stroke-width:1;"/><text fill="#000000" font-family="sans-serif" font-size="13" lengthAdjust="spacing" textLength="66.479" x="494" y="266.6745">&#171;mitigates&#187;</text></g><!--link Mit_SecureCode to MC_SQLi--><g class="link" data-entity-1="Mit_SecureCode" data-entity-2="MC_SQLi" data-source-line="58" data-uid="lnk39" id="link_Mit_SecureCode_MC_SQLi"><path d="M425.28,540.9394 C494.56,549.2494 582.2626,559.7656 641.0226,566.8056" fill="none" id="Mit_SecureCode-to-MC_SQLi" style="stroke:#181818;stroke-width:1;stroke-dasharray:7,7;"/><polygon fill="#181818" points="646.98,567.5194,638.5197,562.4772,642.0155,566.9246,637.5681,570.4203,646.98,567.5194" style="stroke:#181818;stroke-width:1;"/><text fill="#000000" font-family="sans-serif" font-size="13" lengthAdjust="spacing" textLength="66.479" x="494" y="546.6745">&#171;mitigates&#187;</text></g><!--link Mit_Backup to MC_Ransom--><g class="link" data-entity-1="Mit_Backup" data-entity-2="MC_Ransom" data-source-line="59" data-uid="lnk40" id="link_Mit_Backup_MC_Ransom"><path d="M425.75,620.2794 C481.67,625.9194 547.3703,632.537 603.7603,638.227" fill="none" id="Mit_Backup-to-MC_Ransom" style="stroke:#181818;stroke-width:1;stroke-dasharray:7,7;"/><polygon fill="#181818" points="609.73,638.8294,601.177,633.946,604.7553,638.3274,600.3739,641.9056,609.73,638.8294" style="stroke:#181818;stroke-width:1;"/><text fill="#000000" font-family="sans-serif" font-size="13" lengthAdjust="spacing" textLength="66.479" x="494" y="624.6745">&#171;mitigates&#187;</text></g><!--link Mit_IDS to MC_DDoS--><g class="link" data-entity-1="Mit_IDS" data-entity-2="MC_DDoS" data-source-line="60" data-uid="lnk41" id="link_Mit_IDS_MC_DDoS"><path d="M414.23,204.1994 C488.68,221.2394 591.8912,244.8609 652.2812,258.6809" fill="none" id="Mit_IDS-to-MC_DDoS" style="stroke:#181818;stroke-width:1;stroke-dasharray:7,7;"/><polygon fill="#181818" points="658.13,260.0194,650.2491,254.1125,653.256,258.904,648.4645,261.9109,658.13,260.0194" style="stroke:#181818;stroke-width:1;"/><text fill="#000000" font-family="sans-serif" font-size="13" lengthAdjust="spacing" textLength="56.3735" x="499" y="219.6745">&#171;detects&#187;</text></g><!--SRC=[ZLLBRzf04BxxLuo8b903YQhU8eJ48xH8eAOuQO_HrXxC1djjxOvBQTN_tjbTsu1hbN80U-QRzpS3IKeH7kDodkPxM4bJ6eIfuA-P58aM6GnWhAEj98oer2A52Hg29oqYaX725zH6vYe8KjmGK0vQ9bk2M6h6MuNPILK8wwWGqKua6DA18rgrK4cAGN03uuXoRG9XV-35e0PXeBV4H9BC1A6JzIhzECwaSe0Ger9BEdYHDAG50shSHAYTWps9GuQAu0Dxsej3uuU84-9Om-7pLgCWdyPe15ThZ8EWoH1wTNkQW4-ePOR4IS6l0FXp0zDS8ynBvQhcDhrKVJHEprsDR5DxuoX2OpXKb9UAUZR1b-chbvuZ7tzmDAxzMGjbX7DRmslHkS4QJLvgdibAAEwphRasg5Lj0v4EkCC82yMrdCTOokyUNjLtGWq3VTynStlkS1ZbQQuVzfOjeucssSzpcz4zJ3N6d93apeHKRZPI9SDx1n-vYAlfgpUucgGybd_udStoi1fUsuDJNNGGSgkvKFWetnZOaOXN_8UZpqlkt9idUji9A-Lb5siUP9xjXROzcWaICCCKk_nvPEsn6Gh9H5ZuaM_GdrfgeSvGc59ZUqYhCYKvc5TBKDBMZYNoJlgh-VZMHvJqoYyjyiQY8EO5hErIBcN6uLK2r_1rF6-i-FdSwdaPmhkxz_2e8dqeN9nhlqgSSPxl99h6cB7dnWjLb7nkx06n-oP_OWoVItuuCVA-fddSulUdpMPWkCkmoBAIn3TUvGathooEflwz7P9qwHWoG_B3XV1W23FeBsRXiJ_y4loszskDgUkVsSh21Ew03GOdUtqYQLRNdQUMp9ys5jRUW-P8MM6r8csXPNrRvYdSbbfEjcMULxQAwWekiiBcqYpatTteM0eyyBaa1qHbHgFWk2uNSMuxAvIzBbqOjpKLfhbd7RXg6ouXWxCL2UqV12Q7e2AtCs_gjBQP1wEBukbOWwegkr3C-1hbQkp273bQGrsfNL3FoHfMLTe5P8Ry5JTsbBM8Fm00]--></g></svg>