<svg xmlns="http://www.w3.org/2000/svg" xmlns:xlink="http://www.w3.org/1999/xlink" contentStyleType="text/css" data-diagram-type="SEQUENCE" height="514px" preserveAspectRatio="none" style="width:636px;height:514px;background:#FFFFFF;" version="1.1" viewBox="0 0 636 514" width="636px" zoomAndPan="magnify"><title>Reschedule Lesson &#8212; Teacher (Detailed)</title><defs/><g><text fill="#000000" font-family="sans-serif" font-size="14" font-weight="bold" lengthAdjust="spacing" textLength="275.0781" x="181.8716" y="29.5332">Reschedule Lesson &#8212; Teacher (Detailed)</text><g><title>LMS .Scheduler.</title><rect fill="#FFFFFF" height="260.6484" style="stroke:#181818;stroke-width:1;" width="10" x="344.4307" y="153.5703"/></g><g><title>Student</title><rect fill="#FFFFFF" height="30.3516" style="stroke:#181818;stroke-width:1;" width="10" x="583.6904" y="183.9219"/></g><rect fill="none" height="155.5938" style="stroke:#000000;stroke-width:1.5;" width="619.8213" x="10" y="229.2734"/><g><title>Teacher</title><rect fill="#000000" fill-opacity="0.00000" height="311" width="8" x="44.6792" y="121.2188"/><line style="stroke:#181818;stroke-width:0.5;stroke-dasharray:5,5;" x1="48" x2="48" y1="121.2188" y2="432.2188"/></g><g><title>LMS .Scheduler.</title><rect fill="#000000" fill-opacity="0.00000" height="311" width="8" x="345.4307" y="121.2188"/><line style="stroke:#181818;stroke-width:0.5;stroke-dasharray:5,5;" x1="348.9102" x2="348.9102" y1="121.2188" y2="432.2188"/></g><g><title>Student</title><rect fill="#000000" fill-opacity="0.00000" height="311" width="8" x="584.6904" y="121.2188"/><line style="stroke:#181818;stroke-width:0.5;stroke-dasharray:5,5;" x1="588.5596" x2="588.5596" y1="121.2188" y2="432.2188"/></g><g class="participant participant-head" data-participant="T"><text fill="#000000" font-family="sans-serif" font-size="14" lengthAdjust="spacing" textLength="51.3584" x="20" y="118.1426">Teacher</text><ellipse cx="48.6792" cy="52.1094" fill="#E2E2F0" rx="8" ry="8" style="stroke:#181818;stroke-width:0.5;"/><path d="M48.6792,60.1094 L48.6792,87.1094 M35.6792,68.1094 L61.6792,68.1094 M48.6792,87.1094 L35.6792,102.1094 M48.6792,87.1094 L61.6792,102.1094" fill="none" style="stroke:#181818;stroke-width:0.5;"/></g><g class="participant participant-tail" data-participant="T"><text fill="#000000" font-family="sans-serif" font-size="14" lengthAdjust="spacing" textLength="51.3584" x="20" y="445.752">Teacher</text><ellipse cx="48.6792" cy="457.3281" fill="#E2E2F0" rx="8" ry="8" style="stroke:#181818;stroke-width:0.5;"/><path d="M48.6792,465.3281 L48.6792,492.3281 M35.6792,473.3281 L61.6792,473.3281 M48.6792,492.3281 L35.6792,507.3281 M48.6792,492.3281 L61.6792,507.3281" fill="none" style="stroke:#181818;stroke-width:0.5;"/></g><g class="participant participant-head" data-participant="LMS"><rect fill="#E2E2F0" height="31.6094" rx="2.5" ry="2.5" style="stroke:#181818;stroke-width:0.5;" width="119.041" x="289.9102" y="88.6094"/><text fill="#000000" font-family="sans-serif" font-size="14" lengthAdjust="spacing" textLength="105.041" x="296.9102" y="110.1426">LMS (Scheduler)</text></g><g class="participant participant-tail" data-participant="LMS"><rect fill="#E2E2F0" height="31.6094" rx="2.5" ry="2.5" style="stroke:#181818;stroke-width:0.5;" width="119.041" x="289.9102" y="431.2188"/><text fill="#000000" font-family="sans-serif" font-size="14" lengthAdjust="spacing" textLength="105.041" x="296.9102" y="452.752">LMS (Scheduler)</text></g><g class="participant participant-head" data-participant="S"><rect fill="#E2E2F0" height="31.6094" rx="2.5" ry="2.5" style="stroke:#181818;stroke-width:0.5;" width="62.2617" x="557.5596" y="88.6094"/><text fill="#000000" font-family="sans-serif" font-size="14" lengthAdjust="spacing" textLength="48.2617" x="564.5596" y="110.1426">Student</text></g><g class="participant participant-tail" data-participant="S"><rect fill="#E2E2F0" height="31.6094" rx="2.5" ry="2.5" style="stroke:#181818;stroke-width:0.5;" width="62.2617" x="557.5596" y="431.2188"/><text fill="#000000" font-family="sans-serif" font-size="14" lengthAdjust="spacing" textLength="48.2617" x="564.5596" y="452.752">Student</text></g><g><title>LMS .Scheduler.</title><rect fill="#FFFFFF" height="260.6484" style="stroke:#181818;stroke-width:1;" width="10" x="344.4307" y="153.5703"/></g><g><title>Student</title><rect fill="#FFFFFF" height="30.3516" style="stroke:#181818;stroke-width:1;" width="10" x="583.6904" y="183.9219"/></g><g class="message" data-participant-1="T" data-participant-2="LMS"><polygon fill="#181818" points="332.4307,149.5703,342.4307,153.5703,332.4307,157.5703,336.4307,153.5703" style="stroke:#181818;stroke-width:1;"/><line style="stroke:#181818;stroke-width:1;" x1="48.6792" x2="338.4307" y1="153.5703" y2="153.5703"/><text fill="#000000" font-family="sans-serif" font-size="13" lengthAdjust="spacing" textLength="276.7515" x="55.6792" y="148.7139">Request reschedule(lessonId, proposedTimes[])</text></g><g class="message" data-participant-1="LMS" data-participant-2="S"><polygon fill="#181818" points="571.6904,179.9219,581.6904,183.9219,571.6904,187.9219,575.6904,183.9219" style="stroke:#181818;stroke-width:1;"/><line style="stroke:#181818;stroke-width:1;" x1="354.4307" x2="577.6904" y1="183.9219" y2="183.9219"/><text fill="#000000" font-family="sans-serif" font-size="13" lengthAdjust="spacing" textLength="210.2598" x="361.4307" y="179.0654">Request availability(proposedTimes)</text></g><g class="message" data-participant-1="S" data-participant-2="LMS"><polygon fill="#181818" points="365.4307,210.2734,355.4307,214.2734,365.4307,218.2734,361.4307,214.2734" style="stroke:#181818;stroke-width:1;"/><line style="stroke:#181818;stroke-width:1;stroke-dasharray:2,2;" x1="359.4307" x2="587.6904" y1="214.2734" y2="214.2734"/><text fill="#000000" font-family="sans-serif" font-size="13" lengthAdjust="spacing" textLength="166.1816" x="371.4307" y="209.417">Availability(choice or ranges)</text></g><path d="M10,229.2734 L70.1709,229.2734 L70.1709,237.625 L60.1709,247.625 L10,247.625 L10,229.2734" fill="#EEEEEE" style="stroke:#000000;stroke-width:1.5;"/><rect fill="none" height="155.5938" style="stroke:#000000;stroke-width:1.5;" width="619.8213" x="10" y="229.2734"/><text fill="#000000" font-family="sans-serif" font-size="13" font-weight="bold" lengthAdjust="spacing" textLength="15.1709" x="25" y="243.7686">alt</text><text fill="#000000" font-family="sans-serif" font-size="11" font-weight="bold" lengthAdjust="spacing" textLength="98.3877" x="85.1709" y="242.6924">[consensus found]</text><g class="message" data-participant-1="LMS" data-participant-2="T"><polygon fill="#181818" points="59.6792,265.9766,49.6792,269.9766,59.6792,273.9766,55.6792,269.9766" style="stroke:#181818;stroke-width:1;"/><line style="stroke:#181818;stroke-width:1;" x1="53.6792" x2="343.4307" y1="269.9766" y2="269.9766"/><text fill="#000000" font-family="sans-serif" font-size="13" lengthAdjust="spacing" textLength="180.6035" x="65.6792" y="265.1201">Confirm new time(chosenTime)</text></g><g class="message" data-participant-1="LMS" data-participant-2="S"><polygon fill="#181818" points="576.6904,296.3281,586.6904,300.3281,576.6904,304.3281,580.6904,300.3281" style="stroke:#181818;stroke-width:1;"/><line style="stroke:#181818;stroke-width:1;" x1="354.4307" x2="582.6904" y1="300.3281" y2="300.3281"/><text fill="#000000" font-family="sans-serif" font-size="13" lengthAdjust="spacing" textLength="173.3862" x="361.4307" y="295.4717">Notify confirmed(chosenTime)</text></g><line style="stroke:#000000;stroke-width:1;stroke-dasharray:2,2;" x1="10" x2="629.8213" y1="309.3281" y2="309.3281"/><text fill="#000000" font-family="sans-serif" font-size="11" font-weight="bold" lengthAdjust="spacing" textLength="81.2861" x="15" y="320.7471">[no consensus]</text><g class="message" data-participant-1="LMS" data-participant-2="T"><polygon fill="#181818" points="59.6792,342.5156,49.6792,346.5156,59.6792,350.5156,55.6792,346.5156" style="stroke:#181818;stroke-width:1;"/><line style="stroke:#181818;stroke-width:1;" x1="53.6792" x2="343.4307" y1="346.5156" y2="346.5156"/><text fill="#000000" font-family="sans-serif" font-size="13" lengthAdjust="spacing" textLength="208.8506" x="65.6792" y="341.6592">Notify conflict/need manual handling</text></g><g class="message" data-participant-1="LMS" data-participant-2="S"><polygon fill="#181818" points="576.6904,372.8672,586.6904,376.8672,576.6904,380.8672,580.6904,376.8672" style="stroke:#181818;stroke-width:1;"/><line style="stroke:#181818;stroke-width:1;" x1="354.4307" x2="582.6904" y1="376.8672" y2="376.8672"/><text fill="#000000" font-family="sans-serif" font-size="13" lengthAdjust="spacing" textLength="171.9707" x="361.4307" y="372.0107">Notify proposed times expired</text></g><g class="message" data-participant-1="LMS" data-participant-2="T"><polygon fill="#181818" points="59.6792,410.2188,49.6792,414.2188,59.6792,418.2188,55.6792,414.2188" style="stroke:#181818;stroke-width:1;"/><line style="stroke:#181818;stroke-width:1;stroke-dasharray:2,2;" x1="53.6792" x2="348.4307" y1="414.2188" y2="414.2188"/><text fill="#000000" font-family="sans-serif" font-size="13" lengthAdjust="spacing" textLength="255.7979" x="65.6792" y="409.3623">Update lesson schedule(lessonId, newTime)</text></g><!--SRC=[RL6zJWCn3Dxp55QdEmd4tW49mO9K6BXZGWmcSLjBQN8ala8t7e8dv4bmUlsvapebihy_syBY2LuespMvNhyBoZa6-FlvXPPGgmcg1n9aJwus1gt4TEfWXjPqc8GjTnW4Pekd1ghc89RgMO5eRG9gf7UahxOQOrgulYsGkQRux2aBf5EQok_JFBehw5BiOYRNyeRostjTal0MXVRonLPbHYAurSZumPvbLqt88sfZb7Qqlnipx3go9T1P4uPL8JaQqGnw0Hj3ff3x3ClO1sS03Z7QETp7iEIqWK1V8EfQ11LS0jHdeBe-H-7bhcWLFBa9a7mc2F7iDF4OKJrRkGb43ZOOUlImnk0yXzKbh-Cszi4oq7V7YPmX7M5Ov23_shaox702k70IdMs8ELfDESO_]--></g></svg>