<svg xmlns="http://www.w3.org/2000/svg" xmlns:xlink="http://www.w3.org/1999/xlink" contentStyleType="text/css" data-diagram-type="DESCRIPTION" height="509px" preserveAspectRatio="none" style="width:576px;height:509px;background:#FFFFFF;" version="1.1" viewBox="0 0 576 509" width="576px" zoomAndPan="magnify"><defs/><g><!--cluster Student Use-Cases--><g class="cluster" data-entity="Student Use-Cases" data-source-line="8" data-uid="ent0003" id="cluster_Student Use-Cases"><rect fill="none" height="496" rx="2.5" ry="2.5" style="stroke:#181818;stroke-width:1;" width="463" x="107.5" y="7"/><text fill="#000000" font-family="sans-serif" font-size="14" font-weight="bold" lengthAdjust="spacing" textLength="127.5928" x="275.2036" y="23.5332">Student Use-Cases</text></g><!--entity UC_Create--><g class="entity" data-entity="UC_Create" data-source-line="9" data-uid="ent0004" id="entity_UC_Create"><ellipse cx="206.3141" cy="59.0628" fill="#F1F1F1" rx="68.3141" ry="16.0628" style="stroke:#181818;stroke-width:0.5;"/><text fill="#000000" font-family="sans-serif" font-size="14" lengthAdjust="spacing" textLength="96.4961" x="158.0661" y="64.3675">Create Account</text></g><!--entity UC_Log--><g class="entity" data-entity="UC_Log" data-source-line="10" data-uid="ent0005" id="entity_UC_Log"><ellipse cx="206.7219" cy="125.9517" fill="#F1F1F1" rx="27.2219" ry="15.4517" style="stroke:#181818;stroke-width:0.5;"/><text fill="#000000" font-family="sans-serif" font-size="14" lengthAdjust="spacing" textLength="34.2549" x="189.5944" y="131.2564">Login</text></g><!--entity UC_Sub--><g class="entity" data-entity="UC_Sub" data-source-line="11" data-uid="ent0006" id="entity_UC_Sub"><ellipse cx="206.6025" cy="196.0205" fill="#F1F1F1" rx="83.1025" ry="19.0205" style="stroke:#181818;stroke-width:0.5;"/><text fill="#000000" font-family="sans-serif" font-size="14" lengthAdjust="spacing" textLength="133.8408" x="139.6821" y="201.3252">Subscribe to Courses</text></g><!--entity UC_Slot--><g class="entity" data-entity="UC_Slot" data-source-line="12" data-uid="ent0007" id="entity_UC_Slot"><ellipse cx="480.43" cy="330.9517" fill="#F1F1F1" rx="56.93" ry="15.4517" style="stroke:#181818;stroke-width:0.5;"/><text fill="#000000" font-family="sans-serif" font-size="14" lengthAdjust="spacing" textLength="76.2686" x="442.2957" y="336.2564">Choose Slot</text></g><!--entity UC_Pay--><g class="entity" data-entity="UC_Pay" data-source-line="13" data-uid="ent0008" id="entity_UC_Pay"><ellipse cx="480.2585" cy="263.8517" fill="#F1F1F1" rx="69.7585" ry="16.3517" style="stroke:#181818;stroke-width:0.5;"/><text fill="#000000" font-family="sans-serif" font-size="14" lengthAdjust="spacing" textLength="100.3721" x="430.0725" y="269.1564">Make Payments</text></g><!--entity UC_Attend--><g class="entity" data-entity="UC_Attend" data-source-line="14" data-uid="ent0009" id="entity_UC_Attend"><ellipse cx="206.3192" cy="266.0638" fill="#F1F1F1" rx="68.3192" ry="16.0638" style="stroke:#181818;stroke-width:0.5;"/><text fill="#000000" font-family="sans-serif" font-size="14" lengthAdjust="spacing" textLength="96.5098" x="158.0643" y="271.3685">Attend Lessons</text></g><!--entity UC_Join--><g class="entity" data-entity="UC_Join" data-source-line="15" data-uid="ent0010" id="entity_UC_Join"><ellipse cx="206.3328" cy="332.9517" fill="#F1F1F1" rx="55.8328" ry="15.4517" style="stroke:#181818;stroke-width:0.5;"/><text fill="#000000" font-family="sans-serif" font-size="14" lengthAdjust="spacing" textLength="74.7168" x="168.9744" y="338.2564">Join Lesson</text></g><!--entity UC_View--><g class="entity" data-entity="UC_View" data-source-line="16" data-uid="ent0011" id="entity_UC_View"><ellipse cx="206.3894" cy="400.1779" fill="#F1F1F1" rx="68.8894" ry="16.1779" style="stroke:#181818;stroke-width:0.5;"/><text fill="#000000" font-family="sans-serif" font-size="14" lengthAdjust="spacing" textLength="98.0479" x="157.3654" y="405.4826">View Recording</text></g><!--entity UC_Resched--><g class="entity" data-entity="UC_Resched" data-source-line="17" data-uid="ent0012" id="entity_UC_Resched"><ellipse cx="206.6212" cy="469.1242" fill="#F1F1F1" rx="78.6212" ry="18.1242" style="stroke:#181818;stroke-width:0.5;"/><text fill="#000000" font-family="sans-serif" font-size="14" lengthAdjust="spacing" textLength="122.9717" x="145.1354" y="474.4289">Reschedule Lesson</text></g><!--entity UC_Prob--><g class="entity" data-entity="UC_Prob" data-source-line="18" data-uid="ent0013" id="entity_UC_Prob"><ellipse cx="480.3868" cy="398.1774" fill="#F1F1F1" rx="68.8868" ry="16.1774" style="stroke:#181818;stroke-width:0.5;"/><text fill="#000000" font-family="sans-serif" font-size="14" lengthAdjust="spacing" textLength="98.041" x="431.3663" y="403.4821">Report Problem</text></g><!--entity UC_Verify--><g class="entity" data-entity="UC_Verify" data-source-line="19" data-uid="ent0014" id="entity_UC_Verify"><ellipse cx="480.3086" cy="58.9517" fill="#F1F1F1" rx="55.8086" ry="15.4517" style="stroke:#181818;stroke-width:0.5;"/><text fill="#000000" font-family="sans-serif" font-size="14" lengthAdjust="spacing" textLength="74.6826" x="442.9673" y="64.2564">Verify Email</text></g><!--entity UC_Auth--><g class="entity" data-entity="UC_Auth" data-source-line="20" data-uid="ent0015" id="entity_UC_Auth"><ellipse cx="480.4507" cy="195.1901" fill="#F1F1F1" rx="73.9507" ry="17.1901" style="stroke:#181818;stroke-width:0.5;"/><text fill="#000000" font-family="sans-serif" font-size="14" lengthAdjust="spacing" textLength="111.2822" x="424.8095" y="200.4948">Authenticate User</text></g><!--entity UC_Reset--><g class="entity" data-entity="UC_Reset" data-source-line="21" data-uid="ent0016" id="entity_UC_Reset"><ellipse cx="480.3463" cy="125.9693" fill="#F1F1F1" rx="70.3463" ry="16.4693" style="stroke:#181818;stroke-width:0.5;"/><text fill="#000000" font-family="sans-serif" font-size="14" lengthAdjust="spacing" textLength="101.9307" x="429.381" y="131.274">Reset Password</text></g><!--entity S--><g class="entity" data-entity="S" data-source-line="6" data-uid="ent0002" id="entity_S"><ellipse cx="33" cy="243" fill="#F1F1F1" rx="16" ry="16" style="stroke:#181818;stroke-width:0.5;"/><path d="M33,263 C37,263 40,263 44,259 C52,259 60,267 60,275 L60,279 C60,283 56,287 52,287 L14,287 C10,287 6,283 6,279 L6,275 C6,267 14,259 22,259 C26,263 29,263 33,263" fill="#F1F1F1" style="stroke:#181818;stroke-width:0.5;"/><text fill="#000000" font-family="sans-serif" font-size="14" lengthAdjust="spacing" textLength="48.2617" x="8.8691" y="302.0332">Student</text></g><!--link S to UC_Create--><g class="link" data-entity-1="S" data-entity-2="UC_Create" data-source-line="24" data-uid="lnk17" id="link_S_UC_Create"><path d="M39.01,226.19 C45.97,187.12 62.24,128.39 99.5,93 C112.81,80.36 130.84,72.41 148.25,67.43" fill="none" id="S-UC_Create" style="stroke:#181818;stroke-width:1;"/></g><!--link S to UC_Log--><g class="link" data-entity-1="S" data-entity-2="UC_Log" data-source-line="25" data-uid="lnk18" id="link_S_UC_Log"><path d="M49.75,226.4 C60.62,203.72 77.16,176.4 99.5,159 C122.92,140.76 156.52,132.53 179.58,128.86" fill="none" id="S-UC_Log" style="stroke:#181818;stroke-width:1;"/></g><!--link S to UC_Sub--><g class="link" data-entity-1="S" data-entity-2="UC_Sub" data-source-line="26" data-uid="lnk19" id="link_S_UC_Sub"><path d="M60.65,251 C72.37,244.71 86.42,237.58 99.5,232 C117.56,224.3 137.86,217.07 155.84,211.14" fill="none" id="S-UC_Sub" style="stroke:#181818;stroke-width:1;"/></g><!--link S to UC_Attend--><g class="link" data-entity-1="S" data-entity-2="UC_Attend" data-source-line="27" data-uid="lnk20" id="link_S_UC_Attend"><path d="M60.8,266 C81.43,266 110.88,266 137.84,266" fill="none" id="S-UC_Attend" style="stroke:#181818;stroke-width:1;"/></g><!--link S to UC_Join--><g class="link" data-entity-1="S" data-entity-2="UC_Join" data-source-line="28" data-uid="lnk21" id="link_S_UC_Join"><path d="M60.65,280.61 C72.37,286.73 86.42,293.65 99.5,299 C121.23,307.9 146.21,316.01 166.46,322.07" fill="none" id="S-UC_Join" style="stroke:#181818;stroke-width:1;"/></g><!--link S to UC_View--><g class="link" data-entity-1="S" data-entity-2="UC_View" data-source-line="29" data-uid="lnk22" id="link_S_UC_View"><path d="M51.95,305.91 C63.02,326.46 79.02,350.41 99.5,366 C114.57,377.47 133.64,385.14 151.43,390.24" fill="none" id="S-UC_View" style="stroke:#181818;stroke-width:1;"/></g><!--link S to UC_Resched--><g class="link" data-entity-1="S" data-entity-2="UC_Resched" data-source-line="30" data-uid="lnk23" id="link_S_UC_Resched"><path d="M39.8,305.74 C47.3,343.37 63.91,399.02 99.5,433 C111.8,444.74 128.08,452.66 144.17,458" fill="none" id="S-UC_Resched" style="stroke:#181818;stroke-width:1;"/></g><!--link UC_Create to UC_Verify--><g class="link" data-entity-1="UC_Create" data-entity-2="UC_Verify" data-source-line="32" data-uid="lnk24" id="link_UC_Create_UC_Verify"><path d="M275.09,59 C321.03,59 375.05,59 418.16,59" fill="none" id="UC_Create-to-UC_Verify" style="stroke:#181818;stroke-width:1;stroke-dasharray:7,7;"/><polygon fill="#181818" points="424.16,59,415.16,55,419.16,59,415.16,63,424.16,59" style="stroke:#181818;stroke-width:1;"/><text fill="#000000" font-family="sans-serif" font-size="13" lengthAdjust="spacing" textLength="55.6563" x="320.5" y="55.4951">&#171;include&#187;</text></g><!--link UC_Log to UC_Auth--><g class="link" data-entity-1="UC_Log" data-entity-2="UC_Auth" data-source-line="33" data-uid="lnk25" id="link_UC_Log_UC_Auth"><path d="M231.64,132.12 C276.04,143.39 365.6641,166.1252 424.3041,180.9952" fill="none" id="UC_Log-to-UC_Auth" style="stroke:#181818;stroke-width:1;stroke-dasharray:7,7;"/><polygon fill="#181818" points="430.12,182.47,422.3793,176.3805,425.2734,181.241,420.4129,184.1351,430.12,182.47" style="stroke:#181818;stroke-width:1;"/><text fill="#000000" font-family="sans-serif" font-size="13" lengthAdjust="spacing" textLength="55.6563" x="320.5" y="153.4951">&#171;include&#187;</text></g><!--reverse link UC_Log to UC_Reset--><g class="link" data-entity-1="UC_Log" data-entity-2="UC_Reset" data-source-line="34" data-uid="lnk26" id="link_UC_Log_UC_Reset"><path d="M239.58,126 C279.8,126 352.34,126 409.88,126" fill="none" id="UC_Log-backto-UC_Reset" style="stroke:#181818;stroke-width:1;stroke-dasharray:7,7;"/><polygon fill="#181818" points="233.58,126,242.58,130,238.58,126,242.58,122,233.58,126" style="stroke:#181818;stroke-width:1;"/><text fill="#000000" font-family="sans-serif" font-size="13" lengthAdjust="spacing" textLength="53.4917" x="321.5" y="122.4951">&#171;extend&#187;</text></g><!--link UC_Sub to UC_Pay--><g class="link" data-entity-1="UC_Sub" data-entity-2="UC_Pay" data-source-line="35" data-uid="lnk27" id="link_UC_Sub_UC_Pay"><path d="M248.53,212.57 C261.81,218.31 276.46,225.06 289.5,232 C303.43,239.42 304.53,245.99 319.5,251 C348.44,260.68 375.9048,264.2207 404.7148,265.3707" fill="none" id="UC_Sub-to-UC_Pay" style="stroke:#181818;stroke-width:1;stroke-dasharray:7,7;"/><polygon fill="#181818" points="410.71,265.61,401.8767,261.2542,405.714,265.4106,401.5576,269.2479,410.71,265.61" style="stroke:#181818;stroke-width:1;"/><text fill="#000000" font-family="sans-serif" font-size="13" lengthAdjust="spacing" textLength="55.6563" x="320.5" y="247.4951">&#171;include&#187;</text></g><!--link UC_Sub to UC_Slot--><g class="link" data-entity-1="UC_Sub" data-entity-2="UC_Slot" data-source-line="36" data-uid="lnk28" id="link_UC_Sub_UC_Slot"><path d="M256.72,211.24 C268.41,216.49 280.17,223.31 289.5,232 C310.45,251.51 297.09,271.19 319.5,289 C349.29,312.68 385.1649,322.2804 418.5749,326.8304" fill="none" id="UC_Sub-to-UC_Slot" style="stroke:#181818;stroke-width:1;stroke-dasharray:7,7;"/><polygon fill="#181818" points="424.52,327.64,416.1421,322.4621,419.5657,326.9653,415.0626,330.3889,424.52,327.64" style="stroke:#181818;stroke-width:1;"/><text fill="#000000" font-family="sans-serif" font-size="13" lengthAdjust="spacing" textLength="55.6563" x="320.5" y="285.4951">&#171;include&#187;</text></g><!--reverse link UC_Attend to UC_Prob--><g class="link" data-entity-1="UC_Attend" data-entity-2="UC_Prob" data-source-line="37" data-uid="lnk29" id="link_UC_Attend_UC_Prob"><path d="M259.1606,279.8538 C272.1006,284.9638 279.71,289.96 289.5,300 C315.42,326.6 290.25,355.11 319.5,378 C346.84,399.39 385.23,404.75 417.56,404.59" fill="none" id="UC_Attend-backto-UC_Prob" style="stroke:#181818;stroke-width:1;stroke-dasharray:7,7;"/><polygon fill="#181818" points="253.58,277.65,260.4817,284.6761,258.2305,279.4865,263.4201,277.2353,253.58,277.65" style="stroke:#181818;stroke-width:1;"/><text fill="#000000" font-family="sans-serif" font-size="13" lengthAdjust="spacing" textLength="53.4917" x="321.5" y="374.4951">&#171;extend&#187;</text></g><!--SRC=[RP9BQiCm48RtEiNWVNo04WB1T5DIA37fjYZon1QHfI39kA7qxXtPbYetNLap_-TvAxnuy0QiR3iFZRGel3IQkQlKDsvv3pSkhhp5sjyLGf2vRXLcWEjuOqQfMxXmvNA52s_i_2CVqPaU6PjyKFkXGUs1EwWPIr6XYCB9uQRY3bq1NmnWS2Z8WgAoo3t2NWWpQ5-40AVgO_RctC6qKaUPZ5ohXxCJLfunD5wPmKvfPfIqLRhE6FhMogHSuPqZh_oAyCRlFPMTmf2TCtllKJTmGEUCJj3ipRaN8_L2HIYuSkHTuWX75COsDF981MzE7T693fk1HheEjmXhzcQiXpThpWhxr06PgxnevUKEppsNAcMTVAj61z_H7AG8Iw8TsjGh2NyAHCh9dHkfawmwzEoRiHescsonqGoBZE-mgVXU9XdDQMRHc4OJZTW-Ix6XB7U_lS0JRBTI2qLNkDknEML4GW__0zkoJELF17w6WcQ02eqHw2mU0sHwkAr7OBcU9KbOp3h73m00]--></g></svg>