<svg xmlns="http://www.w3.org/2000/svg" xmlns:xlink="http://www.w3.org/1999/xlink" contentStyleType="text/css" data-diagram-type="ACTIVITY" height="2011px" preserveAspectRatio="none" style="width:383px;height:2011px;background:#FFFFFF;" version="1.1" viewBox="0 0 383 2011" width="383px" zoomAndPan="magnify"><title>Student Flows - Legacy Version (Visual Match)</title><defs/><g><g class="title" data-source-line="1"><text fill="#000000" font-family="sans-serif" font-size="14" font-weight="bold" lengthAdjust="spacing" textLength="310.3857" x="35.0879" y="34.5332">Student Flows - Legacy Version (Visual Match)</text></g><rect fill="none" height="542.0781" style="stroke:#000000;stroke-width:1.5;" width="261.2358" x="38.6411" y="49.6094"/><path d="M100.772,49.6094 L100.772,60.2188 L90.772,70.2188 L38.6411,70.2188" fill="none" style="stroke:#000000;stroke-width:1.5;"/><text fill="#000000" font-family="sans-serif" font-size="14" lengthAdjust="spacing" textLength="52.1309" x="41.6411" y="65.1426">Register</text><ellipse cx="171.8545" cy="90.2188" fill="#222222" rx="10" ry="10" style="stroke:#222222;stroke-width:1;"/><rect fill="#F1F1F1" height="35.0938" rx="12.5" ry="12.5" style="stroke:#181818;stroke-width:0.5;" width="64.6836" x="139.5127" y="120.2188"/><text fill="#000000" font-family="sans-serif" font-size="12" lengthAdjust="spacing" textLength="44.6836" x="149.5127" y="142.6758">Register</text><rect fill="#F1F1F1" height="35.0938" rx="12.5" ry="12.5" style="stroke:#181818;stroke-width:0.5;" width="112.0449" x="115.832" y="219.3125"/><text fill="#000000" font-family="sans-serif" font-size="12" lengthAdjust="spacing" textLength="92.0449" x="125.832" y="241.7695">Enter Information</text><polygon fill="#F1F1F1" points="171.8545,175.3125,183.8545,187.3125,171.8545,199.3125,159.8545,187.3125,171.8545,175.3125" style="stroke:#181818;stroke-width:0.5;"/><polygon fill="#F1F1F1" points="156.5657,284.4063,187.1433,284.4063,199.1433,296.4063,187.1433,308.4063,156.5657,308.4063,144.5657,296.4063,156.5657,284.4063" style="stroke:#181818;stroke-width:0.5;"/><text fill="#000000" font-family="sans-serif" font-size="11" lengthAdjust="spacing" textLength="30.5776" x="156.5657" y="300.9072">Valid?</text><text fill="#000000" font-family="sans-serif" font-size="11" lengthAdjust="spacing" textLength="22.0107" x="199.1433" y="293.9893">YES</text><rect fill="#F1F1F1" height="35.0938" rx="12.5" ry="12.5" style="stroke:#181818;stroke-width:0.5;" width="38" x="251.877" y="219.3125"/><text fill="#000000" font-family="sans-serif" font-size="12" lengthAdjust="spacing" textLength="18" x="261.877" y="241.7695">NO</text><rect fill="#F1F1F1" height="35.0938" rx="12.5" ry="12.5" style="stroke:#181818;stroke-width:0.5;" width="167.416" x="88.1465" y="328.4063"/><text fill="#000000" font-family="sans-serif" font-size="12" lengthAdjust="spacing" textLength="147.416" x="98.1465" y="350.8633">Choose Verification method</text><rect fill="#F1F1F1" height="35.0938" rx="12.5" ry="12.5" style="stroke:#181818;stroke-width:0.5;" width="140.0762" x="101.8164" y="383.5"/><text fill="#000000" font-family="sans-serif" font-size="12" lengthAdjust="spacing" textLength="120.0762" x="111.8164" y="405.957">Send Verification code</text><polygon fill="#F1F1F1" points="150.7649,438.5938,192.9441,438.5938,204.9441,450.5938,192.9441,462.5938,150.7649,462.5938,138.7649,450.5938,150.7649,438.5938" style="stroke:#181818;stroke-width:0.5;"/><text fill="#000000" font-family="sans-serif" font-size="11" lengthAdjust="spacing" textLength="42.1792" x="150.7649" y="455.0947">Correct?</text><text fill="#000000" font-family="sans-serif" font-size="11" lengthAdjust="spacing" textLength="22.0107" x="116.7542" y="448.1768">YES</text><text fill="#000000" font-family="sans-serif" font-size="11" lengthAdjust="spacing" textLength="16.5" x="204.9441" y="448.1768">NO</text><rect fill="#F1F1F1" height="35.0938" rx="12.5" ry="12.5" style="stroke:#181818;stroke-width:0.5;" width="109.3848" x="58.6411" y="472.5938"/><text fill="#000000" font-family="sans-serif" font-size="12" lengthAdjust="spacing" textLength="89.3848" x="68.6411" y="495.0508">Account Created</text><rect fill="#F1F1F1" height="35.0938" rx="12.5" ry="12.5" style="stroke:#181818;stroke-width:0.5;" width="84.6992" x="188.0259" y="472.5938"/><text fill="#000000" font-family="sans-serif" font-size="12" lengthAdjust="spacing" textLength="64.6992" x="198.0259" y="495.0508">Wrong code</text><polygon fill="#F1F1F1" points="171.8545,513.6875,183.8545,525.6875,171.8545,537.6875,159.8545,525.6875,171.8545,513.6875" style="stroke:#181818;stroke-width:0.5;"/><ellipse cx="171.8545" cy="568.6875" fill="none" rx="11" ry="11" style="stroke:#222222;stroke-width:1;"/><ellipse cx="171.8545" cy="568.6875" fill="#222222" rx="6" ry="6" style="stroke:#222222;stroke-width:1;"/><rect fill="none" height="367.8906" style="stroke:#000000;stroke-width:1.5;" width="209.7305" x="90.1465" y="601.6875"/><path d="M134.4014,601.6875 L134.4014,612.2969 L124.4014,622.2969 L90.1465,622.2969" fill="none" style="stroke:#000000;stroke-width:1.5;"/><text fill="#000000" font-family="sans-serif" font-size="14" lengthAdjust="spacing" textLength="34.2549" x="93.1465" y="617.2207">Login</text><ellipse cx="171.8545" cy="642.2969" fill="#222222" rx="10" ry="10" style="stroke:#222222;stroke-width:1;"/><rect fill="#F1F1F1" height="35.0938" rx="12.5" ry="12.5" style="stroke:#181818;stroke-width:0.5;" width="112.0449" x="115.832" y="716.2969"/><text fill="#000000" font-family="sans-serif" font-size="12" lengthAdjust="spacing" textLength="92.0449" x="125.832" y="738.7539">Enter Information</text><polygon fill="#F1F1F1" points="171.8545,672.2969,183.8545,684.2969,171.8545,696.2969,159.8545,684.2969,171.8545,672.2969" style="stroke:#181818;stroke-width:0.5;"/><polygon fill="#F1F1F1" points="156.5657,781.3906,187.1433,781.3906,199.1433,793.3906,187.1433,805.3906,156.5657,805.3906,144.5657,793.3906,156.5657,781.3906" style="stroke:#181818;stroke-width:0.5;"/><text fill="#000000" font-family="sans-serif" font-size="11" lengthAdjust="spacing" textLength="30.5776" x="156.5657" y="797.8916">Valid?</text><text fill="#000000" font-family="sans-serif" font-size="11" lengthAdjust="spacing" textLength="22.0107" x="199.1433" y="790.9736">YES</text><rect fill="#F1F1F1" height="35.0938" rx="12.5" ry="12.5" style="stroke:#181818;stroke-width:0.5;" width="38" x="251.877" y="716.2969"/><text fill="#000000" font-family="sans-serif" font-size="12" lengthAdjust="spacing" textLength="18" x="261.877" y="738.7539">NO</text><rect fill="#F1F1F1" height="35.0938" rx="12.5" ry="12.5" style="stroke:#181818;stroke-width:0.5;" width="143.416" x="100.1465" y="825.3906"/><text fill="#000000" font-family="sans-serif" font-size="12" lengthAdjust="spacing" textLength="123.416" x="110.1465" y="847.8477">Send Login Notification</text><rect fill="#F1F1F1" height="35.0938" rx="12.5" ry="12.5" style="stroke:#181818;stroke-width:0.5;" width="119.3867" x="112.1611" y="880.4844"/><text fill="#000000" font-family="sans-serif" font-size="12" lengthAdjust="spacing" textLength="99.3867" x="122.1611" y="902.9414">Login Successfully</text><ellipse cx="171.8545" cy="946.5781" fill="none" rx="11" ry="11" style="stroke:#222222;stroke-width:1;"/><ellipse cx="171.8545" cy="946.5781" fill="#222222" rx="6" ry="6" style="stroke:#222222;stroke-width:1;"/><rect fill="none" height="567.1719" style="stroke:#000000;stroke-width:1.5;" width="361.5615" x="11" y="979.5781"/><path d="M126.8203,979.5781 L126.8203,990.1875 L116.8203,1000.1875 L11,1000.1875" fill="none" style="stroke:#000000;stroke-width:1.5;"/><text fill="#000000" font-family="sans-serif" font-size="14" lengthAdjust="spacing" textLength="105.8203" x="14" y="995.1113">Forget Password</text><ellipse cx="171.8545" cy="1020.1875" fill="#222222" rx="10" ry="10" style="stroke:#222222;stroke-width:1;"/><rect fill="#F1F1F1" height="35.0938" rx="12.5" ry="12.5" style="stroke:#181818;stroke-width:0.5;" width="109.373" x="117.168" y="1050.1875"/><text fill="#000000" font-family="sans-serif" font-size="12" lengthAdjust="spacing" textLength="89.373" x="127.168" y="1072.6445">Forget password</text><rect fill="#F1F1F1" height="35.0938" rx="12.5" ry="12.5" style="stroke:#181818;stroke-width:0.5;" width="176.75" x="83.4795" y="1105.2813"/><text fill="#000000" font-family="sans-serif" font-size="12" lengthAdjust="spacing" textLength="156.75" x="93.4795" y="1127.7383">Enter Email or phone number</text><polygon fill="#F1F1F1" points="156.8772,1160.375,186.8318,1160.375,198.8318,1172.375,186.8318,1184.375,156.8772,1184.375,144.8772,1172.375,156.8772,1160.375" style="stroke:#181818;stroke-width:0.5;"/><text fill="#000000" font-family="sans-serif" font-size="11" lengthAdjust="spacing" textLength="29.9546" x="156.8772" y="1176.876">Exist?</text><text fill="#000000" font-family="sans-serif" font-size="11" lengthAdjust="spacing" textLength="16.5" x="128.3772" y="1169.958">NO</text><text fill="#000000" font-family="sans-serif" font-size="11" lengthAdjust="spacing" textLength="22.0107" x="198.8318" y="1169.958">YES</text><rect fill="#F1F1F1" height="35.0938" rx="12.5" ry="12.5" style="stroke:#181818;stroke-width:0.5;" width="133.0215" x="26.4028" y="1194.375"/><text fill="#000000" font-family="sans-serif" font-size="12" lengthAdjust="spacing" textLength="113.0215" x="36.4028" y="1216.832">Account doesn't exist</text><ellipse cx="92.9136" cy="1260.4688" fill="none" rx="11" ry="11" style="stroke:#222222;stroke-width:1;"/><ellipse cx="92.9136" cy="1260.4688" fill="#222222" rx="6" ry="6" style="stroke:#222222;stroke-width:1;"/><rect fill="#F1F1F1" height="35.0938" rx="12.5" ry="12.5" style="stroke:#181818;stroke-width:0.5;" width="142.7422" x="179.4243" y="1194.375"/><text fill="#000000" font-family="sans-serif" font-size="12" lengthAdjust="spacing" textLength="122.7422" x="189.4243" y="1216.832">Send Verification Code</text><rect fill="#F1F1F1" height="35.0938" rx="12.5" ry="12.5" style="stroke:#181818;stroke-width:0.5;" width="80.7031" x="210.4438" y="1293.4688"/><text fill="#000000" font-family="sans-serif" font-size="12" lengthAdjust="spacing" textLength="60.7031" x="220.4438" y="1315.9258">Enter Code</text><polygon fill="#F1F1F1" points="250.7954,1249.4688,262.7954,1261.4688,250.7954,1273.4688,238.7954,1261.4688,250.7954,1249.4688" style="stroke:#181818;stroke-width:0.5;"/><polygon fill="#F1F1F1" points="215.0293,1358.5625,286.5615,1358.5625,298.5615,1370.5625,286.5615,1382.5625,215.0293,1382.5625,203.0293,1370.5625,215.0293,1358.5625" style="stroke:#181818;stroke-width:0.5;"/><text fill="#000000" font-family="sans-serif" font-size="11" lengthAdjust="spacing" textLength="71.5322" x="215.0293" y="1375.0635">Correct Code?</text><text fill="#000000" font-family="sans-serif" font-size="11" lengthAdjust="spacing" textLength="22.0107" x="298.5615" y="1368.1455">YES</text><rect fill="#F1F1F1" height="35.0938" rx="12.5" ry="12.5" style="stroke:#181818;stroke-width:0.5;" width="38" x="322.5615" y="1293.4688"/><text fill="#000000" font-family="sans-serif" font-size="12" lengthAdjust="spacing" textLength="18" x="332.5615" y="1315.9258">NO</text><rect fill="#F1F1F1" height="35.0938" rx="12.5" ry="12.5" style="stroke:#181818;stroke-width:0.5;" width="118.0566" x="191.7671" y="1402.5625"/><text fill="#000000" font-family="sans-serif" font-size="12" lengthAdjust="spacing" textLength="98.0566" x="201.7671" y="1425.0195">Change Password</text><rect fill="#F1F1F1" height="35.0938" rx="12.5" ry="12.5" style="stroke:#181818;stroke-width:0.5;" width="124.7305" x="188.4302" y="1457.6563"/><text fill="#000000" font-family="sans-serif" font-size="12" lengthAdjust="spacing" textLength="104.7305" x="198.4302" y="1480.1133">Password Changed</text><ellipse cx="171.8545" cy="1523.75" fill="none" rx="11" ry="11" style="stroke:#222222;stroke-width:1;"/><ellipse cx="171.8545" cy="1523.75" fill="#222222" rx="6" ry="6" style="stroke:#222222;stroke-width:1;"/><rect fill="none" height="443.9844" style="stroke:#000000;stroke-width:1.5;" width="319.5005" x="14.4028" y="1556.75"/><path d="M86.6577,1556.75 L86.6577,1567.3594 L76.6577,1577.3594 L14.4028,1577.3594" fill="none" style="stroke:#000000;stroke-width:1.5;"/><text fill="#000000" font-family="sans-serif" font-size="14" lengthAdjust="spacing" textLength="62.2549" x="17.4028" y="1572.2832">Subscribe</text><ellipse cx="171.8545" cy="1597.3594" fill="#222222" rx="10" ry="10" style="stroke:#222222;stroke-width:1;"/><rect fill="#F1F1F1" height="35.0938" rx="12.5" ry="12.5" style="stroke:#181818;stroke-width:0.5;" width="73.3613" x="135.1738" y="1627.3594"/><text fill="#000000" font-family="sans-serif" font-size="12" lengthAdjust="spacing" textLength="53.3613" x="145.1738" y="1649.8164">Subscribe</text><polygon fill="#F1F1F1" points="124.4707,1682.4531,219.2383,1682.4531,231.2383,1694.4531,219.2383,1706.4531,124.4707,1706.4531,112.4707,1694.4531,124.4707,1682.4531" style="stroke:#181818;stroke-width:0.5;"/><text fill="#000000" font-family="sans-serif" font-size="11" lengthAdjust="spacing" textLength="94.7676" x="124.4707" y="1698.9541">Verification Result?</text><text fill="#000000" font-family="sans-serif" font-size="11" lengthAdjust="spacing" textLength="81.936" x="30.5347" y="1692.0361">Account Created</text><text fill="#000000" font-family="sans-serif" font-size="11" lengthAdjust="spacing" textLength="59.3076" x="231.2383" y="1692.0361">Wrong code</text><rect fill="#F1F1F1" height="35.0938" rx="12.5" ry="12.5" style="stroke:#181818;stroke-width:0.5;" width="132.0488" x="29.8057" y="1716.4531"/><text fill="#000000" font-family="sans-serif" font-size="12" lengthAdjust="spacing" textLength="112.0488" x="39.8057" y="1738.9102">Show Course Details</text><rect fill="#F1F1F1" height="35.0938" rx="12.5" ry="12.5" style="stroke:#181818;stroke-width:0.5;" width="132.0488" x="181.8545" y="1716.4531"/><text fill="#000000" font-family="sans-serif" font-size="12" lengthAdjust="spacing" textLength="112.0488" x="191.8545" y="1738.9102">Show Course Details</text><polygon fill="#F1F1F1" points="171.8545,1757.5469,183.8545,1769.5469,171.8545,1781.5469,159.8545,1769.5469,171.8545,1757.5469" style="stroke:#181818;stroke-width:0.5;"/><line style="stroke:#181818;stroke-width:1.5;" x1="98.1641" x2="237.8721" y1="1801.5469" y2="1801.5469"/><rect fill="#F1F1F1" height="35.0938" rx="12.5" ry="12.5" style="stroke:#181818;stroke-width:0.5;" width="104.0352" x="46.1465" y="1856.5938"/><text fill="#000000" font-family="sans-serif" font-size="12" lengthAdjust="spacing" textLength="84.0352" x="56.1465" y="1879.0508">Put In Favorites</text><rect fill="#F1F1F1" height="35.0938" rx="12.5" ry="12.5" style="stroke:#181818;stroke-width:0.5;" width="119.3809" x="178.1816" y="1821.5469"/><text fill="#000000" font-family="sans-serif" font-size="12" lengthAdjust="spacing" textLength="99.3809" x="188.1816" y="1844.0039">Select The Course</text><rect fill="#F1F1F1" height="35.0938" rx="12.5" ry="12.5" style="stroke:#181818;stroke-width:0.5;" width="40.6777" x="217.5332" y="1891.6406"/><text fill="#000000" font-family="sans-serif" font-size="12" lengthAdjust="spacing" textLength="20.6777" x="227.5332" y="1914.0977">Pay</text><line style="stroke:#181818;stroke-width:1.5;" x1="98.1641" x2="237.8721" y1="1946.7344" y2="1946.7344"/><ellipse cx="171.8545" cy="1977.7344" fill="none" rx="11" ry="11" style="stroke:#222222;stroke-width:1;"/><ellipse cx="171.8545" cy="1977.7344" fill="#222222" rx="6" ry="6" style="stroke:#222222;stroke-width:1;"/><line style="stroke:#181818;stroke-width:1;" x1="171.8545" x2="171.8545" y1="100.2188" y2="120.2188"/><polygon fill="#181818" points="167.8545,110.2188,171.8545,120.2188,175.8545,110.2188,171.8545,114.2188" style="stroke:#181818;stroke-width:1;"/><line style="stroke:#181818;stroke-width:1;" x1="171.8545" x2="171.8545" y1="199.3125" y2="219.3125"/><polygon fill="#181818" points="167.8545,209.3125,171.8545,219.3125,175.8545,209.3125,171.8545,213.3125" style="stroke:#181818;stroke-width:1;"/><line style="stroke:#181818;stroke-width:1;" x1="199.1433" x2="270.877" y1="296.4063" y2="296.4063"/><line style="stroke:#181818;stroke-width:1;" x1="270.877" x2="270.877" y1="254.4063" y2="296.4063"/><polygon fill="#181818" points="266.877,264.4063,270.877,254.4063,274.877,264.4063,270.877,260.4063" style="stroke:#181818;stroke-width:1;"/><line style="stroke:#181818;stroke-width:1;" x1="270.877" x2="270.877" y1="187.3125" y2="219.3125"/><line style="stroke:#181818;stroke-width:1;" x1="270.877" x2="183.8545" y1="187.3125" y2="187.3125"/><polygon fill="#181818" points="193.8545,183.3125,183.8545,187.3125,193.8545,191.3125,189.8545,187.3125" style="stroke:#181818;stroke-width:1;"/><line style="stroke:#181818;stroke-width:1;" x1="171.8545" x2="171.8545" y1="254.4063" y2="284.4063"/><polygon fill="#181818" points="167.8545,274.4063,171.8545,284.4063,175.8545,274.4063,171.8545,278.4063" style="stroke:#181818;stroke-width:1;"/><line style="stroke:#181818;stroke-width:1;" x1="171.8545" x2="171.8545" y1="155.3125" y2="175.3125"/><polygon fill="#181818" points="167.8545,165.3125,171.8545,175.3125,175.8545,165.3125,171.8545,169.3125" style="stroke:#181818;stroke-width:1;"/><line style="stroke:#181818;stroke-width:1;" x1="171.8545" x2="171.8545" y1="308.4063" y2="328.4063"/><polygon fill="#181818" points="167.8545,318.4063,171.8545,328.4063,175.8545,318.4063,171.8545,322.4063" style="stroke:#181818;stroke-width:1;"/><line style="stroke:#181818;stroke-width:1;" x1="171.8545" x2="171.8545" y1="363.5" y2="383.5"/><polygon fill="#181818" points="167.8545,373.5,171.8545,383.5,175.8545,373.5,171.8545,377.5" style="stroke:#181818;stroke-width:1;"/><line style="stroke:#181818;stroke-width:1;" x1="138.7649" x2="113.3335" y1="450.5938" y2="450.5938"/><line style="stroke:#181818;stroke-width:1;" x1="113.3335" x2="113.3335" y1="450.5938" y2="472.5938"/><polygon fill="#181818" points="109.3335,462.5938,113.3335,472.5938,117.3335,462.5938,113.3335,466.5938" style="stroke:#181818;stroke-width:1;"/><line style="stroke:#181818;stroke-width:1;" x1="204.9441" x2="230.3755" y1="450.5938" y2="450.5938"/><line style="stroke:#181818;stroke-width:1;" x1="230.3755" x2="230.3755" y1="450.5938" y2="472.5938"/><polygon fill="#181818" points="226.3755,462.5938,230.3755,472.5938,234.3755,462.5938,230.3755,466.5938" style="stroke:#181818;stroke-width:1;"/><line style="stroke:#181818;stroke-width:1;" x1="113.3335" x2="113.3335" y1="507.6875" y2="525.6875"/><line style="stroke:#181818;stroke-width:1;" x1="113.3335" x2="159.8545" y1="525.6875" y2="525.6875"/><polygon fill="#181818" points="149.8545,521.6875,159.8545,525.6875,149.8545,529.6875,153.8545,525.6875" style="stroke:#181818;stroke-width:1;"/><line style="stroke:#181818;stroke-width:1;" x1="230.3755" x2="230.3755" y1="507.6875" y2="525.6875"/><line style="stroke:#181818;stroke-width:1;" x1="230.3755" x2="183.8545" y1="525.6875" y2="525.6875"/><polygon fill="#181818" points="193.8545,521.6875,183.8545,525.6875,193.8545,529.6875,189.8545,525.6875" style="stroke:#181818;stroke-width:1;"/><line style="stroke:#181818;stroke-width:1;" x1="171.8545" x2="171.8545" y1="418.5938" y2="438.5938"/><polygon fill="#181818" points="167.8545,428.5938,171.8545,438.5938,175.8545,428.5938,171.8545,432.5938" style="stroke:#181818;stroke-width:1;"/><line style="stroke:#181818;stroke-width:1;" x1="171.8545" x2="171.8545" y1="537.6875" y2="557.6875"/><polygon fill="#181818" points="167.8545,547.6875,171.8545,557.6875,175.8545,547.6875,171.8545,551.6875" style="stroke:#181818;stroke-width:1;"/><line style="stroke:#181818;stroke-width:1;" x1="171.8545" x2="171.8545" y1="696.2969" y2="716.2969"/><polygon fill="#181818" points="167.8545,706.2969,171.8545,716.2969,175.8545,706.2969,171.8545,710.2969" style="stroke:#181818;stroke-width:1;"/><line style="stroke:#181818;stroke-width:1;" x1="199.1433" x2="270.877" y1="793.3906" y2="793.3906"/><line style="stroke:#181818;stroke-width:1;" x1="270.877" x2="270.877" y1="751.3906" y2="793.3906"/><polygon fill="#181818" points="266.877,761.3906,270.877,751.3906,274.877,761.3906,270.877,757.3906" style="stroke:#181818;stroke-width:1;"/><line style="stroke:#181818;stroke-width:1;" x1="270.877" x2="270.877" y1="684.2969" y2="716.2969"/><line style="stroke:#181818;stroke-width:1;" x1="270.877" x2="183.8545" y1="684.2969" y2="684.2969"/><polygon fill="#181818" points="193.8545,680.2969,183.8545,684.2969,193.8545,688.2969,189.8545,684.2969" style="stroke:#181818;stroke-width:1;"/><line style="stroke:#181818;stroke-width:1;" x1="171.8545" x2="171.8545" y1="751.3906" y2="781.3906"/><polygon fill="#181818" points="167.8545,771.3906,171.8545,781.3906,175.8545,771.3906,171.8545,775.3906" style="stroke:#181818;stroke-width:1;"/><line style="stroke:#181818;stroke-width:1;" x1="171.8545" x2="171.8545" y1="652.2969" y2="672.2969"/><polygon fill="#181818" points="167.8545,662.2969,171.8545,672.2969,175.8545,662.2969,171.8545,666.2969" style="stroke:#181818;stroke-width:1;"/><line style="stroke:#181818;stroke-width:1;" x1="171.8545" x2="171.8545" y1="805.3906" y2="825.3906"/><polygon fill="#181818" points="167.8545,815.3906,171.8545,825.3906,175.8545,815.3906,171.8545,819.3906" style="stroke:#181818;stroke-width:1;"/><line style="stroke:#181818;stroke-width:1;" x1="171.8545" x2="171.8545" y1="860.4844" y2="880.4844"/><polygon fill="#181818" points="167.8545,870.4844,171.8545,880.4844,175.8545,870.4844,171.8545,874.4844" style="stroke:#181818;stroke-width:1;"/><line style="stroke:#181818;stroke-width:1;" x1="171.8545" x2="171.8545" y1="915.5781" y2="935.5781"/><polygon fill="#181818" points="167.8545,925.5781,171.8545,935.5781,175.8545,925.5781,171.8545,929.5781" style="stroke:#181818;stroke-width:1;"/><line style="stroke:#181818;stroke-width:1;" x1="171.8545" x2="171.8545" y1="1030.1875" y2="1050.1875"/><polygon fill="#181818" points="167.8545,1040.1875,171.8545,1050.1875,175.8545,1040.1875,171.8545,1044.1875" style="stroke:#181818;stroke-width:1;"/><line style="stroke:#181818;stroke-width:1;" x1="171.8545" x2="171.8545" y1="1085.2813" y2="1105.2813"/><polygon fill="#181818" points="167.8545,1095.2813,171.8545,1105.2813,175.8545,1095.2813,171.8545,1099.2813" style="stroke:#181818;stroke-width:1;"/><line style="stroke:#181818;stroke-width:1;" x1="92.9136" x2="92.9136" y1="1229.4688" y2="1249.4688"/><polygon fill="#181818" points="88.9136,1239.4688,92.9136,1249.4688,96.9136,1239.4688,92.9136,1243.4688" style="stroke:#181818;stroke-width:1;"/><line style="stroke:#181818;stroke-width:1;" x1="250.7954" x2="250.7954" y1="1273.4688" y2="1293.4688"/><polygon fill="#181818" points="246.7954,1283.4688,250.7954,1293.4688,254.7954,1283.4688,250.7954,1287.4688" style="stroke:#181818;stroke-width:1;"/><line style="stroke:#181818;stroke-width:1;" x1="298.5615" x2="341.5615" y1="1370.5625" y2="1370.5625"/><line style="stroke:#181818;stroke-width:1;" x1="341.5615" x2="341.5615" y1="1328.5625" y2="1370.5625"/><polygon fill="#181818" points="337.5615,1338.5625,341.5615,1328.5625,345.5615,1338.5625,341.5615,1334.5625" style="stroke:#181818;stroke-width:1;"/><line style="stroke:#181818;stroke-width:1;" x1="341.5615" x2="341.5615" y1="1261.4688" y2="1293.4688"/><line style="stroke:#181818;stroke-width:1;" x1="341.5615" x2="262.7954" y1="1261.4688" y2="1261.4688"/><polygon fill="#181818" points="272.7954,1257.4688,262.7954,1261.4688,272.7954,1265.4688,268.7954,1261.4688" style="stroke:#181818;stroke-width:1;"/><line style="stroke:#181818;stroke-width:1;" x1="250.7954" x2="250.7954" y1="1328.5625" y2="1358.5625"/><polygon fill="#181818" points="246.7954,1348.5625,250.7954,1358.5625,254.7954,1348.5625,250.7954,1352.5625" style="stroke:#181818;stroke-width:1;"/><line style="stroke:#181818;stroke-width:1;" x1="250.7954" x2="250.7954" y1="1229.4688" y2="1249.4688"/><polygon fill="#181818" points="246.7954,1239.4688,250.7954,1249.4688,254.7954,1239.4688,250.7954,1243.4688" style="stroke:#181818;stroke-width:1;"/><line style="stroke:#181818;stroke-width:1;" x1="250.7954" x2="250.7954" y1="1382.5625" y2="1402.5625"/><polygon fill="#181818" points="246.7954,1392.5625,250.7954,1402.5625,254.7954,1392.5625,250.7954,1396.5625" style="stroke:#181818;stroke-width:1;"/><line style="stroke:#181818;stroke-width:1;" x1="250.7954" x2="250.7954" y1="1437.6563" y2="1457.6563"/><polygon fill="#181818" points="246.7954,1447.6563,250.7954,1457.6563,254.7954,1447.6563,250.7954,1451.6563" style="stroke:#181818;stroke-width:1;"/><line style="stroke:#181818;stroke-width:1;" x1="144.8772" x2="92.9136" y1="1172.375" y2="1172.375"/><line style="stroke:#181818;stroke-width:1;" x1="92.9136" x2="92.9136" y1="1172.375" y2="1194.375"/><polygon fill="#181818" points="88.9136,1184.375,92.9136,1194.375,96.9136,1184.375,92.9136,1188.375" style="stroke:#181818;stroke-width:1;"/><line style="stroke:#181818;stroke-width:1;" x1="198.8318" x2="250.7954" y1="1172.375" y2="1172.375"/><line style="stroke:#181818;stroke-width:1;" x1="250.7954" x2="250.7954" y1="1172.375" y2="1194.375"/><polygon fill="#181818" points="246.7954,1184.375,250.7954,1194.375,254.7954,1184.375,250.7954,1188.375" style="stroke:#181818;stroke-width:1;"/><line style="stroke:#181818;stroke-width:1;" x1="250.7954" x2="250.7954" y1="1492.75" y2="1497.75"/><line style="stroke:#181818;stroke-width:1;" x1="250.7954" x2="171.8545" y1="1497.75" y2="1497.75"/><line style="stroke:#181818;stroke-width:1;" x1="171.8545" x2="171.8545" y1="1497.75" y2="1512.75"/><polygon fill="#181818" points="167.8545,1502.75,171.8545,1512.75,175.8545,1502.75,171.8545,1506.75" style="stroke:#181818;stroke-width:1;"/><line style="stroke:#181818;stroke-width:1;" x1="171.8545" x2="171.8545" y1="1140.375" y2="1160.375"/><polygon fill="#181818" points="167.8545,1150.375,171.8545,1160.375,175.8545,1150.375,171.8545,1154.375" style="stroke:#181818;stroke-width:1;"/><line style="stroke:#181818;stroke-width:1;" x1="171.8545" x2="171.8545" y1="1607.3594" y2="1627.3594"/><polygon fill="#181818" points="167.8545,1617.3594,171.8545,1627.3594,175.8545,1617.3594,171.8545,1621.3594" style="stroke:#181818;stroke-width:1;"/><line style="stroke:#181818;stroke-width:1;" x1="112.4707" x2="95.8301" y1="1694.4531" y2="1694.4531"/><line style="stroke:#181818;stroke-width:1;" x1="95.8301" x2="95.8301" y1="1694.4531" y2="1716.4531"/><polygon fill="#181818" points="91.8301,1706.4531,95.8301,1716.4531,99.8301,1706.4531,95.8301,1710.4531" style="stroke:#181818;stroke-width:1;"/><line style="stroke:#181818;stroke-width:1;" x1="231.2383" x2="247.8789" y1="1694.4531" y2="1694.4531"/><line style="stroke:#181818;stroke-width:1;" x1="247.8789" x2="247.8789" y1="1694.4531" y2="1716.4531"/><polygon fill="#181818" points="243.8789,1706.4531,247.8789,1716.4531,251.8789,1706.4531,247.8789,1710.4531" style="stroke:#181818;stroke-width:1;"/><line style="stroke:#181818;stroke-width:1;" x1="95.8301" x2="95.8301" y1="1751.5469" y2="1769.5469"/><line style="stroke:#181818;stroke-width:1;" x1="95.8301" x2="159.8545" y1="1769.5469" y2="1769.5469"/><polygon fill="#181818" points="149.8545,1765.5469,159.8545,1769.5469,149.8545,1773.5469,153.8545,1769.5469" style="stroke:#181818;stroke-width:1;"/><line style="stroke:#181818;stroke-width:1;" x1="247.8789" x2="247.8789" y1="1751.5469" y2="1769.5469"/><line style="stroke:#181818;stroke-width:1;" x1="247.8789" x2="183.8545" y1="1769.5469" y2="1769.5469"/><polygon fill="#181818" points="193.8545,1765.5469,183.8545,1769.5469,193.8545,1773.5469,189.8545,1769.5469" style="stroke:#181818;stroke-width:1;"/><line style="stroke:#181818;stroke-width:1;" x1="171.8545" x2="171.8545" y1="1662.4531" y2="1682.4531"/><polygon fill="#181818" points="167.8545,1672.4531,171.8545,1682.4531,175.8545,1672.4531,171.8545,1676.4531" style="stroke:#181818;stroke-width:1;"/><line style="stroke:#181818;stroke-width:1;" x1="237.8721" x2="237.8721" y1="1856.6406" y2="1891.6406"/><polygon fill="#181818" points="233.8721,1881.6406,237.8721,1891.6406,241.8721,1881.6406,237.8721,1885.6406" style="stroke:#181818;stroke-width:1;"/><line style="stroke:#181818;stroke-width:1;" x1="98.1641" x2="98.1641" y1="1803.0469" y2="1856.5938"/><polygon fill="#181818" points="94.1641,1846.5938,98.1641,1856.5938,102.1641,1846.5938,98.1641,1850.5938" style="stroke:#181818;stroke-width:1;"/><line style="stroke:#181818;stroke-width:1;" x1="237.8721" x2="237.8721" y1="1803.0469" y2="1821.5469"/><polygon fill="#181818" points="233.8721,1811.5469,237.8721,1821.5469,241.8721,1811.5469,237.8721,1815.5469" style="stroke:#181818;stroke-width:1;"/><line style="stroke:#181818;stroke-width:1;" x1="98.1641" x2="98.1641" y1="1891.6875" y2="1946.7344"/><polygon fill="#181818" points="94.1641,1936.7344,98.1641,1946.7344,102.1641,1936.7344,98.1641,1940.7344" style="stroke:#181818;stroke-width:1;"/><line style="stroke:#181818;stroke-width:1;" x1="237.8721" x2="237.8721" y1="1926.7344" y2="1946.7344"/><polygon fill="#181818" points="233.8721,1936.7344,237.8721,1946.7344,241.8721,1936.7344,237.8721,1940.7344" style="stroke:#181818;stroke-width:1;"/><line style="stroke:#181818;stroke-width:1;" x1="171.8545" x2="171.8545" y1="1781.5469" y2="1801.5469"/><polygon fill="#181818" points="167.8545,1791.5469,171.8545,1801.5469,175.8545,1791.5469,171.8545,1795.5469" style="stroke:#181818;stroke-width:1;"/><line style="stroke:#181818;stroke-width:1;" x1="171.8545" x2="171.8545" y1="1948.2344" y2="1966.7344"/><polygon fill="#181818" points="167.8545,1956.7344,171.8545,1966.7344,175.8545,1956.7344,171.8545,1960.7344" style="stroke:#181818;stroke-width:1;"/><!--SRC=[jLDDZzem4BtpAqPxsN3W3y2XscKJXCGIb51GZyOP4ckD7TbEAQhwt-iu9XzBjEgbEILvCszctfinp724r5GP2WCHbrSDCzXWJkWD3gWqamA20zCLuV1E32scayapp6OpICBLEjs72KIR-5Z_cPH46MRgZAS4SwODgYVuFG7xQ6CnzpQ_GmltgR14qY0E3OM5O2tEKbr8pTM4dGZzk1ALpRTnFm-k1RFz1mV2MVPj2an3y2DCfqsbPI6bndeCTcRKiS45JI6pXcEUeiY6C9KPDY0xGx2KIY4rbjWKA7hKBlk5KbbPrPRATeAU4xcj66pZNjnHIP7tc6rHTlQgo7Bovoxe9bwjjwDgRcJEnAEK_rCx9ush2rjfMe6yS0sGLfIYrkUAyzjYPA0eJbRX7dOlQNgCaxVHqIAfSZIm8rfVfSf6ziL7b3x2Tz3C6bu8uo0Lb8KK2AAwdEwBLViN_hARrhetCELkNYPHYsS3M8SkMjmDqlavDFvnRPQjkIE-zFeTnZqOysYEtq2N-DaZl-D4vDZgr_7Cxx-W2Sc-Nhxq-skwJDQluQXBQNNILB4JZlZJOftk0sqIr1NlNFXqDNrP2tcrWrRAAlw6nZgh-pVLdT4_vRHpDlsMdFKkPLSPUoSGaPzICOC-nmK1oGaJVRDvRS2-G5zd8F6jhTOhuPNz2m00]--></g></svg>