<svg xmlns="http://www.w3.org/2000/svg" xmlns:xlink="http://www.w3.org/1999/xlink" contentStyleType="text/css" data-diagram-type="ACTIVITY" height="2498px" preserveAspectRatio="none" style="width:1220px;height:2498px;background:#FFFFFF;" version="1.1" viewBox="0 0 1220 2498" width="1220px" zoomAndPan="magnify"><title>Student Flows - Architectural Best Practice Version</title><defs/><g><g class="title" data-source-line="1"><text fill="#000000" font-family="sans-serif" font-size="14" font-weight="bold" lengthAdjust="spacing" textLength="342.3096" x="437.6707" y="34.5332">Student Flows - Architectural Best Practice Version</text></g><rect fill="none" height="22.6406" style="stroke:none;stroke-width:1;" width="1187.6509" x="15" y="51.0645"/><rect fill="none" height="650.1846" style="stroke:#000000;stroke-width:1.5;" width="417.0361" x="91.417" y="78.7051"/><path d="M209.5684,78.7051 L209.5684,89.3145 L199.5684,99.3145 L91.417,99.3145" fill="none" style="stroke:#000000;stroke-width:1.5;"/><text fill="#000000" font-family="sans-serif" font-size="14" lengthAdjust="spacing" textLength="108.1514" x="94.417" y="94.2383">User Registration</text><ellipse cx="303.604" cy="119.3145" fill="#222222" rx="10" ry="10" style="stroke:#222222;stroke-width:1;"/><rect fill="#F1F1F1" height="35.0938" rx="12.5" ry="12.5" style="stroke:#181818;stroke-width:0.5;" width="156.043" x="225.5825" y="149.3145"/><text fill="#000000" font-family="sans-serif" font-size="12" lengthAdjust="spacing" textLength="136.043" x="235.5825" y="171.7715">Submit Registration Form</text><rect fill="#F1F1F1" height="35.0938" rx="12.5" ry="12.5" style="stroke:#181818;stroke-width:0.5;" width="76.6836" x="143.4414" y="402.5957"/><text fill="#000000" font-family="sans-serif" font-size="12" lengthAdjust="spacing" textLength="56.6836" x="153.4414" y="425.0527">Enter OTP</text><polygon fill="#F1F1F1" points="181.7832,358.5957,193.7832,370.5957,181.7832,382.5957,169.7832,370.5957,181.7832,358.5957" style="stroke:#181818;stroke-width:0.5;"/><rect fill="#F1F1F1" height="35.0938" rx="12.5" ry="12.5" style="stroke:#181818;stroke-width:0.5;" width="142.0566" x="354.3965" y="303.502"/><text fill="#000000" font-family="sans-serif" font-size="12" lengthAdjust="spacing" textLength="122.0566" x="364.3965" y="325.959">Show Validation Errors</text><ellipse cx="303.604" cy="705.8896" fill="none" rx="11" ry="11" style="stroke:#222222;stroke-width:1;"/><ellipse cx="303.604" cy="705.8896" fill="#222222" rx="6" ry="6" style="stroke:#222222;stroke-width:1;"/><rect fill="none" height="458.0781" style="stroke:#000000;stroke-width:1.5;" width="380.7695" x="99.0483" y="738.8896"/><path d="M176.7515,738.8896 L176.7515,749.499 L166.7515,759.499 L99.0483,759.499" fill="none" style="stroke:#000000;stroke-width:1.5;"/><text fill="#000000" font-family="sans-serif" font-size="14" lengthAdjust="spacing" textLength="67.7031" x="102.0483" y="754.4229">User Login</text><ellipse cx="303.604" cy="779.499" fill="#222222" rx="10" ry="10" style="stroke:#222222;stroke-width:1;"/><rect fill="#F1F1F1" height="35.0938" rx="12.5" ry="12.5" style="stroke:#181818;stroke-width:0.5;" width="121.3789" x="242.9146" y="809.499"/><text fill="#000000" font-family="sans-serif" font-size="12" lengthAdjust="spacing" textLength="101.3789" x="252.9146" y="831.9561">Submit Credentials</text><rect fill="#F1F1F1" height="35.0938" rx="12.5" ry="12.5" style="stroke:#181818;stroke-width:0.5;" width="140.0645" x="143.3794" y="1073.874"/><text fill="#000000" font-family="sans-serif" font-size="12" lengthAdjust="spacing" textLength="120.0645" x="153.3794" y="1096.3311">Redirect to Dashboard</text><rect fill="#F1F1F1" height="35.0938" rx="12.5" ry="12.5" style="stroke:#181818;stroke-width:0.5;" width="132.043" x="327.7749" y="963.6865"/><text fill="#000000" font-family="sans-serif" font-size="12" lengthAdjust="spacing" textLength="112.043" x="337.7749" y="986.1436">Show Error Message</text><ellipse cx="303.604" cy="1173.9678" fill="none" rx="11" ry="11" style="stroke:#222222;stroke-width:1;"/><ellipse cx="303.604" cy="1173.9678" fill="#222222" rx="6" ry="6" style="stroke:#222222;stroke-width:1;"/><rect fill="none" height="513.1719" style="stroke:#000000;stroke-width:1.5;" width="356.1191" x="125.2119" y="1206.9678"/><path d="M259.7012,1206.9678 L259.7012,1217.5771 L249.7012,1227.5771 L125.2119,1227.5771" fill="none" style="stroke:#000000;stroke-width:1.5;"/><text fill="#000000" font-family="sans-serif" font-size="14" lengthAdjust="spacing" textLength="124.4893" x="128.2119" y="1222.501">Password Recovery</text><ellipse cx="303.604" cy="1247.5771" fill="#222222" rx="10" ry="10" style="stroke:#222222;stroke-width:1;"/><rect fill="#F1F1F1" height="35.0938" rx="12.5" ry="12.5" style="stroke:#181818;stroke-width:0.5;" width="155.3984" x="225.9048" y="1277.5771"/><text fill="#000000" font-family="sans-serif" font-size="12" lengthAdjust="spacing" textLength="135.3984" x="235.9048" y="1300.0342">Request Password Reset</text><rect fill="#F1F1F1" height="35.0938" rx="12.5" ry="12.5" style="stroke:#181818;stroke-width:0.5;" width="140.709" x="149.2197" y="1486.8584"/><text fill="#000000" font-family="sans-serif" font-size="12" lengthAdjust="spacing" textLength="120.709" x="159.2197" y="1509.3154">Submit New Password</text><rect fill="#F1F1F1" height="35.0938" rx="12.5" ry="12.5" style="stroke:#181818;stroke-width:0.5;" width="147.3945" x="313.9365" y="1431.7646"/><text fill="#000000" font-family="sans-serif" font-size="12" lengthAdjust="spacing" textLength="127.3945" x="323.9365" y="1454.2217">Show Generic Message</text><ellipse cx="303.604" cy="1697.1396" fill="none" rx="11" ry="11" style="stroke:#222222;stroke-width:1;"/><ellipse cx="303.604" cy="1697.1396" fill="#222222" rx="6" ry="6" style="stroke:#222222;stroke-width:1;"/><rect fill="none" height="756.4531" style="stroke:#000000;stroke-width:1.5;" width="474.4961" x="21" y="1730.1396"/><path d="M157.0615,1730.1396 L157.0615,1740.749 L147.0615,1750.749 L21,1750.749" fill="none" style="stroke:#000000;stroke-width:1.5;"/><text fill="#000000" font-family="sans-serif" font-size="14" lengthAdjust="spacing" textLength="126.0615" x="24" y="1745.6729">Course Subscription</text><ellipse cx="303.604" cy="1770.749" fill="#222222" rx="10" ry="10" style="stroke:#222222;stroke-width:1;"/><rect fill="#F1F1F1" height="35.0938" rx="12.5" ry="12.5" style="stroke:#181818;stroke-width:0.5;" width="142.0449" x="232.5815" y="1800.749"/><text fill="#000000" font-family="sans-serif" font-size="12" lengthAdjust="spacing" textLength="122.0449" x="242.5815" y="1823.2061">Browse Course Details</text><polygon fill="#F1F1F1" points="276.0852,1855.8428,331.1228,1855.8428,343.1228,1867.8428,331.1228,1879.8428,276.0852,1879.8428,264.0852,1867.8428,276.0852,1855.8428" style="stroke:#181818;stroke-width:0.5;"/><text fill="#000000" font-family="sans-serif" font-size="11" lengthAdjust="spacing" textLength="55.0376" x="276.0852" y="1872.3438">Interested?</text><text fill="#000000" font-family="sans-serif" font-size="11" lengthAdjust="spacing" textLength="22.0107" x="242.0745" y="1865.4258">YES</text><text fill="#000000" font-family="sans-serif" font-size="11" lengthAdjust="spacing" textLength="16.5" x="343.1228" y="1865.4258">NO</text><rect fill="#F1F1F1" height="35.0938" rx="12.5" ry="12.5" style="stroke:#181818;stroke-width:0.5;" width="107.3633" x="131.7178" y="1899.8428"/><text fill="#000000" font-family="sans-serif" font-size="12" lengthAdjust="spacing" textLength="87.3633" x="141.7178" y="1922.2998">Select Time Slot</text><rect fill="#F1F1F1" height="35.0938" rx="12.5" ry="12.5" style="stroke:#181818;stroke-width:0.5;" width="166.5781" x="102.1104" y="1954.9365"/><text fill="#000000" font-family="sans-serif" font-size="12" lengthAdjust="spacing" textLength="146.5781" x="112.1104" y="1977.3936">Click "Proceed to Payment"</text><rect fill="#F1F1F1" height="35.0938" rx="12.5" ry="12.5" style="stroke:#181818;stroke-width:0.5;" width="130.0625" x="33" y="2329.499"/><text fill="#000000" font-family="sans-serif" font-size="12" lengthAdjust="spacing" textLength="110.0625" x="43" y="2351.9561">Show Success Page</text><rect fill="#F1F1F1" height="35.0938" rx="12.5" ry="12.5" style="stroke:#181818;stroke-width:0.5;" width="130.707" x="207.4141" y="2274.4053"/><text fill="#000000" font-family="sans-serif" font-size="12" lengthAdjust="spacing" textLength="110.707" x="217.4141" y="2296.8623">Show Payment Error</text><rect fill="#F1F1F1" height="35.0938" rx="12.5" ry="12.5" style="stroke:#181818;stroke-width:0.5;" width="107.375" x="368.1211" y="1899.8428"/><text fill="#000000" font-family="sans-serif" font-size="12" lengthAdjust="spacing" textLength="87.375" x="378.1211" y="1922.2998">Add to Favorites</text><polygon fill="#F1F1F1" points="303.604,2408.5928,315.604,2420.5928,303.604,2432.5928,291.604,2420.5928,303.604,2408.5928" style="stroke:#181818;stroke-width:0.5;"/><ellipse cx="303.604" cy="2463.5928" fill="none" rx="11" ry="11" style="stroke:#222222;stroke-width:1;"/><ellipse cx="303.604" cy="2463.5928" fill="#222222" rx="6" ry="6" style="stroke:#222222;stroke-width:1;"/><line style="stroke:#000000;stroke-width:1.5;" x1="15" x2="15" y1="51.0645" y2="2486.5928"/><rect fill="none" height="650.1846" style="stroke:#000000;stroke-width:1.5;" width="327.7334" x="613.2217" y="78.7051"/><path d="M731.373,78.7051 L731.373,89.3145 L721.373,99.3145 L613.2217,99.3145" fill="none" style="stroke:#000000;stroke-width:1.5;"/><text fill="#000000" font-family="sans-serif" font-size="14" lengthAdjust="spacing" textLength="108.1514" x="616.2217" y="94.2383">User Registration</text><rect fill="#F1F1F1" height="35.0938" rx="12.5" ry="12.5" style="stroke:#181818;stroke-width:0.5;" width="122.0703" x="764.3735" y="204.4082"/><text fill="#000000" font-family="sans-serif" font-size="12" lengthAdjust="spacing" textLength="102.0703" x="774.3735" y="226.8652">Validate Input Data</text><polygon fill="#F1F1F1" points="796.9741,259.502,853.8433,259.502,865.8433,271.502,853.8433,283.502,796.9741,283.502,784.9741,271.502,796.9741,259.502" style="stroke:#181818;stroke-width:0.5;"/><text fill="#000000" font-family="sans-serif" font-size="11" lengthAdjust="spacing" textLength="56.8691" x="796.9741" y="276.0029">Data Valid?</text><text fill="#000000" font-family="sans-serif" font-size="11" lengthAdjust="spacing" textLength="22.0107" x="762.9634" y="269.085">YES</text><text fill="#000000" font-family="sans-serif" font-size="11" lengthAdjust="spacing" textLength="16.5" x="865.8433" y="269.085">NO</text><rect fill="#F1F1F1" height="35.0938" rx="12.5" ry="12.5" style="stroke:#181818;stroke-width:0.5;" width="78.6758" x="664.25" y="472.6895"/><text fill="#000000" font-family="sans-serif" font-size="12" lengthAdjust="spacing" textLength="58.6758" x="674.25" y="495.1465">Verify OTP</text><polygon fill="#F1F1F1" points="669.6641,527.7832,737.5117,527.7832,749.5117,539.7832,737.5117,551.7832,669.6641,551.7832,657.6641,539.7832,669.6641,527.7832" style="stroke:#181818;stroke-width:0.5;"/><text fill="#000000" font-family="sans-serif" font-size="11" lengthAdjust="spacing" textLength="22.0107" x="707.5879" y="563.2021">YES</text><text fill="#000000" font-family="sans-serif" font-size="11" lengthAdjust="spacing" textLength="67.8477" x="669.6641" y="544.2842">OTP Correct?</text><text fill="#000000" font-family="sans-serif" font-size="11" lengthAdjust="spacing" textLength="16.5" x="749.5117" y="537.3662">NO</text><rect fill="#F1F1F1" height="35.0938" rx="12.5" ry="12.5" style="stroke:#181818;stroke-width:0.5;" width="82.6895" x="773.5117" y="437.6426"/><text fill="#000000" font-family="sans-serif" font-size="12" lengthAdjust="spacing" textLength="62.6895" x="783.5117" y="460.0996">Invalid OTP</text><rect fill="#F1F1F1" height="35.0938" rx="12.5" ry="12.5" style="stroke:#181818;stroke-width:0.5;" width="131.3809" x="637.8975" y="584.7021"/><text fill="#000000" font-family="sans-serif" font-size="12" lengthAdjust="spacing" textLength="111.3809" x="647.8975" y="607.1592">Create User Account</text><rect fill="#F1F1F1" height="35.0938" rx="12.5" ry="12.5" style="stroke:#181818;stroke-width:0.5;" width="99.3594" x="653.9082" y="639.7959"/><text fill="#000000" font-family="sans-serif" font-size="12" lengthAdjust="spacing" textLength="79.3594" x="663.9082" y="662.2529">Notify Success</text><rect fill="none" height="458.0781" style="stroke:#000000;stroke-width:1.5;" width="294.5889" x="620.853" y="738.8896"/><path d="M698.5562,738.8896 L698.5562,749.499 L688.5562,759.499 L620.853,759.499" fill="none" style="stroke:#000000;stroke-width:1.5;"/><text fill="#000000" font-family="sans-serif" font-size="14" lengthAdjust="spacing" textLength="67.7031" x="623.853" y="754.4229">User Login</text><rect fill="#F1F1F1" height="35.0938" rx="12.5" ry="12.5" style="stroke:#181818;stroke-width:0.5;" width="115.3848" x="767.7163" y="864.5928"/><text fill="#000000" font-family="sans-serif" font-size="12" lengthAdjust="spacing" textLength="95.3848" x="777.7163" y="887.0498">Authenticate User</text><polygon fill="#F1F1F1" points="801.5637,919.6865,849.2537,919.6865,861.2537,931.6865,849.2537,943.6865,801.5637,943.6865,789.5637,931.6865,801.5637,919.6865" style="stroke:#181818;stroke-width:0.5;"/><text fill="#000000" font-family="sans-serif" font-size="11" lengthAdjust="spacing" textLength="47.6899" x="801.5637" y="936.1875">Success?</text><text fill="#000000" font-family="sans-serif" font-size="11" lengthAdjust="spacing" textLength="22.0107" x="767.553" y="929.2695">YES</text><text fill="#000000" font-family="sans-serif" font-size="11" lengthAdjust="spacing" textLength="16.5" x="861.2537" y="929.2695">NO</text><rect fill="#F1F1F1" height="35.0938" rx="12.5" ry="12.5" style="stroke:#181818;stroke-width:0.5;" width="188.7266" x="640.853" y="963.6865"/><text fill="#000000" font-family="sans-serif" font-size="12" lengthAdjust="spacing" textLength="168.7266" x="650.853" y="986.1436">Generate Session Token (JWT)</text><rect fill="#F1F1F1" height="35.0938" rx="12.5" ry="12.5" style="stroke:#181818;stroke-width:0.5;" width="180.084" x="645.1743" y="1018.7803"/><text fill="#000000" font-family="sans-serif" font-size="12" lengthAdjust="spacing" textLength="160.084" x="655.1743" y="1041.2373">Update Last Login Timestamp</text><polygon fill="#F1F1F1" points="825.4087,1118.9678,837.4087,1130.9678,825.4087,1142.9678,813.4087,1130.9678,825.4087,1118.9678" style="stroke:#181818;stroke-width:0.5;"/><rect fill="none" height="513.1719" style="stroke:#000000;stroke-width:1.5;" width="269.9385" x="647.0166" y="1206.9678"/><path d="M781.5059,1206.9678 L781.5059,1217.5771 L771.5059,1227.5771 L647.0166,1227.5771" fill="none" style="stroke:#000000;stroke-width:1.5;"/><text fill="#000000" font-family="sans-serif" font-size="14" lengthAdjust="spacing" textLength="124.4893" x="650.0166" y="1222.501">Password Recovery</text><rect fill="#F1F1F1" height="35.0938" rx="12.5" ry="12.5" style="stroke:#181818;stroke-width:0.5;" width="156.0664" x="747.3755" y="1332.6709"/><text fill="#000000" font-family="sans-serif" font-size="12" lengthAdjust="spacing" textLength="136.0664" x="757.3755" y="1355.1279">Check Account Existence</text><polygon fill="#F1F1F1" points="794.541,1387.7646,856.2764,1387.7646,868.2764,1399.7646,856.2764,1411.7646,794.541,1411.7646,782.541,1399.7646,794.541,1387.7646" style="stroke:#181818;stroke-width:0.5;"/><text fill="#000000" font-family="sans-serif" font-size="11" lengthAdjust="spacing" textLength="61.7354" x="794.541" y="1404.2656">User Exists?</text><text fill="#000000" font-family="sans-serif" font-size="11" lengthAdjust="spacing" textLength="22.0107" x="760.5303" y="1397.3477">YES</text><text fill="#000000" font-family="sans-serif" font-size="11" lengthAdjust="spacing" textLength="16.5" x="868.2764" y="1397.3477">NO</text><rect fill="#F1F1F1" height="35.0938" rx="12.5" ry="12.5" style="stroke:#181818;stroke-width:0.5;" width="146.0645" x="668.3467" y="1541.9521"/><text fill="#000000" font-family="sans-serif" font-size="12" lengthAdjust="spacing" textLength="126.0645" x="678.3467" y="1564.4092">Update Password Hash</text><rect fill="#F1F1F1" height="35.0938" rx="12.5" ry="12.5" style="stroke:#181818;stroke-width:0.5;" width="148.7246" x="667.0166" y="1597.0459"/><text fill="#000000" font-family="sans-serif" font-size="12" lengthAdjust="spacing" textLength="128.7246" x="677.0166" y="1619.5029">Revoke Active Sessions</text><polygon fill="#F1F1F1" points="825.4087,1642.1396,837.4087,1654.1396,825.4087,1666.1396,813.4087,1654.1396,825.4087,1642.1396" style="stroke:#181818;stroke-width:0.5;"/><rect fill="none" height="756.4531" style="stroke:#000000;stroke-width:1.5;" width="410.502" x="518.4531" y="1730.1396"/><path d="M654.5146,1730.1396 L654.5146,1740.749 L644.5146,1750.749 L518.4531,1750.749" fill="none" style="stroke:#000000;stroke-width:1.5;"/><text fill="#000000" font-family="sans-serif" font-size="14" lengthAdjust="spacing" textLength="126.0615" x="521.4531" y="1745.6729">Course Subscription</text><rect fill="#F1F1F1" height="35.0938" rx="12.5" ry="12.5" style="stroke:#181818;stroke-width:0.5;" width="168.6992" x="622.8545" y="2010.0303"/><text fill="#000000" font-family="sans-serif" font-size="12" lengthAdjust="spacing" textLength="148.6992" x="632.8545" y="2032.4873">Lock Time Slot (Temporary)</text><rect fill="#F1F1F1" height="35.0938" rx="12.5" ry="12.5" style="stroke:#181818;stroke-width:0.5;" width="129.3828" x="642.5127" y="2065.124"/><text fill="#000000" font-family="sans-serif" font-size="12" lengthAdjust="spacing" textLength="109.3828" x="652.5127" y="2087.5811">Initialize Transaction</text><rect fill="#F1F1F1" height="35.0938" rx="12.5" ry="12.5" style="stroke:#181818;stroke-width:0.5;" width="122.6973" x="558.4873" y="2219.3115"/><text fill="#000000" font-family="sans-serif" font-size="12" lengthAdjust="spacing" textLength="102.6973" x="568.4873" y="2241.7686">Confirm Enrollment</text><rect fill="#F1F1F1" height="35.0938" rx="12.5" ry="12.5" style="stroke:#181818;stroke-width:0.5;" width="178.7656" x="530.4531" y="2274.4053"/><text fill="#000000" font-family="sans-serif" font-size="12" lengthAdjust="spacing" textLength="158.7656" x="540.4531" y="2296.8623">Update Student Subscriptions</text><rect fill="#F1F1F1" height="35.0938" rx="12.5" ry="12.5" style="stroke:#181818;stroke-width:0.5;" width="118.0391" x="735.5527" y="2219.3115"/><text fill="#000000" font-family="sans-serif" font-size="12" lengthAdjust="spacing" textLength="98.0391" x="745.5527" y="2241.7686">Release Time Slot</text><line style="stroke:#000000;stroke-width:1.5;" x1="512.4531" x2="512.4531" y1="51.0645" y2="2486.5928"/><rect fill="none" height="650.1846" style="stroke:#000000;stroke-width:1.5;" width="234.1953" x="962.9551" y="78.7051"/><path d="M1081.1064,78.7051 L1081.1064,89.3145 L1071.1064,99.3145 L962.9551,99.3145" fill="none" style="stroke:#000000;stroke-width:1.5;"/><text fill="#000000" font-family="sans-serif" font-size="14" lengthAdjust="spacing" textLength="108.1514" x="965.9551" y="94.2383">User Registration</text><rect fill="#F1F1F1" height="35.0938" rx="12.5" ry="12.5" style="stroke:#181818;stroke-width:0.5;" width="140.7324" x="982.9551" y="303.502"/><text fill="#000000" font-family="sans-serif" font-size="12" lengthAdjust="spacing" textLength="120.7324" x="992.9551" y="325.959">Generate &amp; Send OTP</text><rect fill="none" height="513.1719" style="stroke:#000000;stroke-width:1.5;" width="176.4004" x="996.75" y="1206.9678"/><path d="M1131.2393,1206.9678 L1131.2393,1217.5771 L1121.2393,1227.5771 L996.75,1227.5771" fill="none" style="stroke:#000000;stroke-width:1.5;"/><text fill="#000000" font-family="sans-serif" font-size="14" lengthAdjust="spacing" textLength="124.4893" x="999.75" y="1222.501">Password Recovery</text><rect fill="#F1F1F1" height="35.0938" rx="12.5" ry="12.5" style="stroke:#181818;stroke-width:0.5;" width="140.0762" x="1021.0742" y="1431.7646"/><text fill="#000000" font-family="sans-serif" font-size="12" lengthAdjust="spacing" textLength="120.0762" x="1031.0742" y="1454.2217">Send Reset Link/Code</text><rect fill="none" height="756.4531" style="stroke:#000000;stroke-width:1.5;" width="234.1953" x="950.9551" y="1730.1396"/><path d="M1087.0166,1730.1396 L1087.0166,1740.749 L1077.0166,1750.749 L950.9551,1750.749" fill="none" style="stroke:#000000;stroke-width:1.5;"/><text fill="#000000" font-family="sans-serif" font-size="14" lengthAdjust="spacing" textLength="126.0615" x="953.9551" y="1745.6729">Course Subscription</text><rect fill="#F1F1F1" height="35.0938" rx="12.5" ry="12.5" style="stroke:#181818;stroke-width:0.5;" width="180.7344" x="966.5703" y="2120.2178"/><text fill="#000000" font-family="sans-serif" font-size="12" lengthAdjust="spacing" textLength="160.7344" x="976.5703" y="2142.6748">Process Financial Transaction</text><polygon fill="#F1F1F1" points="1004.051,2175.3115,1109.824,2175.3115,1121.824,2187.3115,1109.824,2199.3115,1004.051,2199.3115,992.051,2187.3115,1004.051,2175.3115" style="stroke:#181818;stroke-width:0.5;"/><text fill="#000000" font-family="sans-serif" font-size="11" lengthAdjust="spacing" textLength="105.7729" x="1004.051" y="2191.8125">Payment Successful?</text><text fill="#000000" font-family="sans-serif" font-size="11" lengthAdjust="spacing" textLength="22.0107" x="970.0403" y="2184.8945">YES</text><text fill="#000000" font-family="sans-serif" font-size="11" lengthAdjust="spacing" textLength="16.5" x="1121.824" y="2184.8945">NO</text><polygon fill="#F1F1F1" points="1056.9375,2374.5928,1068.9375,2386.5928,1056.9375,2398.5928,1044.9375,2386.5928,1056.9375,2374.5928" style="stroke:#181818;stroke-width:0.5;"/><line style="stroke:#000000;stroke-width:1.5;" x1="944.9551" x2="944.9551" y1="51.0645" y2="2486.5928"/><line style="stroke:#000000;stroke-width:1.5;" x1="1201.1504" x2="1201.1504" y1="51.0645" y2="2486.5928"/><line style="stroke:#181818;stroke-width:1;" x1="303.604" x2="303.604" y1="129.3145" y2="149.3145"/><polygon fill="#181818" points="299.604,139.3145,303.604,149.3145,307.604,139.3145,303.604,143.3145" style="stroke:#181818;stroke-width:1;"/><line style="stroke:#181818;stroke-width:1;" x1="181.7832" x2="181.7832" y1="382.5957" y2="402.5957"/><polygon fill="#181818" points="177.7832,392.5957,181.7832,402.5957,185.7832,392.5957,181.7832,396.5957" style="stroke:#181818;stroke-width:1;"/><line style="stroke:#181818;stroke-width:1;" x1="303.604" x2="303.604" y1="789.499" y2="809.499"/><polygon fill="#181818" points="299.604,799.499,303.604,809.499,307.604,799.499,303.604,803.499" style="stroke:#181818;stroke-width:1;"/><line style="stroke:#181818;stroke-width:1;" x1="303.604" x2="303.604" y1="1257.5771" y2="1277.5771"/><polygon fill="#181818" points="299.604,1267.5771,303.604,1277.5771,307.604,1267.5771,303.604,1271.5771" style="stroke:#181818;stroke-width:1;"/><line style="stroke:#181818;stroke-width:1;" x1="303.604" x2="303.604" y1="1780.749" y2="1800.749"/><polygon fill="#181818" points="299.604,1790.749,303.604,1800.749,307.604,1790.749,303.604,1794.749" style="stroke:#181818;stroke-width:1;"/><line style="stroke:#181818;stroke-width:1;" x1="185.3994" x2="185.3994" y1="1934.9365" y2="1954.9365"/><polygon fill="#181818" points="181.3994,1944.9365,185.3994,1954.9365,189.3994,1944.9365,185.3994,1948.9365" style="stroke:#181818;stroke-width:1;"/><line style="stroke:#181818;stroke-width:1;" x1="264.0852" x2="185.3994" y1="1867.8428" y2="1867.8428"/><line style="stroke:#181818;stroke-width:1;" x1="185.3994" x2="185.3994" y1="1867.8428" y2="1899.8428"/><polygon fill="#181818" points="181.3994,1889.8428,185.3994,1899.8428,189.3994,1889.8428,185.3994,1893.8428" style="stroke:#181818;stroke-width:1;"/><line style="stroke:#181818;stroke-width:1;" x1="343.1228" x2="421.8086" y1="1867.8428" y2="1867.8428"/><line style="stroke:#181818;stroke-width:1;" x1="421.8086" x2="421.8086" y1="1867.8428" y2="1899.8428"/><polygon fill="#181818" points="417.8086,1889.8428,421.8086,1899.8428,425.8086,1889.8428,421.8086,1893.8428" style="stroke:#181818;stroke-width:1;"/><line style="stroke:#181818;stroke-width:1;" x1="421.8086" x2="421.8086" y1="1934.9365" y2="2420.5928"/><line style="stroke:#181818;stroke-width:1;" x1="421.8086" x2="315.604" y1="2420.5928" y2="2420.5928"/><polygon fill="#181818" points="325.604,2416.5928,315.604,2420.5928,325.604,2424.5928,321.604,2420.5928" style="stroke:#181818;stroke-width:1;"/><line style="stroke:#181818;stroke-width:1;" x1="303.604" x2="303.604" y1="1835.8428" y2="1855.8428"/><polygon fill="#181818" points="299.604,1845.8428,303.604,1855.8428,307.604,1845.8428,303.604,1849.8428" style="stroke:#181818;stroke-width:1;"/><line style="stroke:#181818;stroke-width:1;" x1="303.604" x2="303.604" y1="2432.5928" y2="2452.5928"/><polygon fill="#181818" points="299.604,2442.5928,303.604,2452.5928,307.604,2442.5928,303.604,2446.5928" style="stroke:#181818;stroke-width:1;"/><line style="stroke:#181818;stroke-width:1;" x1="749.5117" x2="814.8564" y1="539.7832" y2="539.7832"/><line style="stroke:#181818;stroke-width:1;" x1="814.8564" x2="814.8564" y1="472.7363" y2="539.7832"/><polygon fill="#181818" points="810.8564,482.7363,814.8564,472.7363,818.8564,482.7363,814.8564,478.7363" style="stroke:#181818;stroke-width:1;"/><line style="stroke:#181818;stroke-width:1;" x1="703.5879" x2="703.5879" y1="507.7832" y2="527.7832"/><polygon fill="#181818" points="699.5879,517.7832,703.5879,527.7832,707.5879,517.7832,703.5879,521.7832" style="stroke:#181818;stroke-width:1;"/><line style="stroke:#181818;stroke-width:1;" x1="703.5879" x2="703.5879" y1="551.7832" y2="584.7021"/><polygon fill="#181818" points="699.5879,574.7021,703.5879,584.7021,707.5879,574.7021,703.5879,578.7021" style="stroke:#181818;stroke-width:1;"/><line style="stroke:#181818;stroke-width:1;" x1="703.5879" x2="703.5879" y1="619.7959" y2="639.7959"/><polygon fill="#181818" points="699.5879,629.7959,703.5879,639.7959,707.5879,629.7959,703.5879,633.7959" style="stroke:#181818;stroke-width:1;"/><line style="stroke:#181818;stroke-width:1;" x1="703.5879" x2="703.5879" y1="674.8896" y2="679.8896"/><line style="stroke:#181818;stroke-width:1;" x1="703.5879" x2="303.604" y1="679.8896" y2="679.8896"/><line style="stroke:#181818;stroke-width:1;" x1="303.604" x2="303.604" y1="679.8896" y2="694.8896"/><polygon fill="#181818" points="299.604,684.8896,303.604,694.8896,307.604,684.8896,303.604,688.8896" style="stroke:#181818;stroke-width:1;"/><line style="stroke:#181818;stroke-width:1;" x1="825.4087" x2="825.4087" y1="239.502" y2="259.502"/><polygon fill="#181818" points="821.4087,249.502,825.4087,259.502,829.4087,249.502,825.4087,253.502" style="stroke:#181818;stroke-width:1;"/><line style="stroke:#181818;stroke-width:1;" x1="735.2163" x2="735.2163" y1="998.7803" y2="1018.7803"/><polygon fill="#181818" points="731.2163,1008.7803,735.2163,1018.7803,739.2163,1008.7803,735.2163,1012.7803" style="stroke:#181818;stroke-width:1;"/><line style="stroke:#181818;stroke-width:1;" x1="789.5637" x2="735.2163" y1="931.6865" y2="931.6865"/><line style="stroke:#181818;stroke-width:1;" x1="735.2163" x2="735.2163" y1="931.6865" y2="963.6865"/><polygon fill="#181818" points="731.2163,953.6865,735.2163,963.6865,739.2163,953.6865,735.2163,957.6865" style="stroke:#181818;stroke-width:1;"/><line style="stroke:#181818;stroke-width:1;" x1="825.4087" x2="825.4087" y1="899.6865" y2="919.6865"/><polygon fill="#181818" points="821.4087,909.6865,825.4087,919.6865,829.4087,909.6865,825.4087,913.6865" style="stroke:#181818;stroke-width:1;"/><line style="stroke:#181818;stroke-width:1;" x1="741.3789" x2="741.3789" y1="1577.0459" y2="1597.0459"/><polygon fill="#181818" points="737.3789,1587.0459,741.3789,1597.0459,745.3789,1587.0459,741.3789,1591.0459" style="stroke:#181818;stroke-width:1;"/><line style="stroke:#181818;stroke-width:1;" x1="741.3789" x2="741.3789" y1="1632.1396" y2="1654.1396"/><line style="stroke:#181818;stroke-width:1;" x1="741.3789" x2="813.4087" y1="1654.1396" y2="1654.1396"/><polygon fill="#181818" points="803.4087,1650.1396,813.4087,1654.1396,803.4087,1658.1396,807.4087,1654.1396" style="stroke:#181818;stroke-width:1;"/><line style="stroke:#181818;stroke-width:1;" x1="825.4087" x2="825.4087" y1="1367.7646" y2="1387.7646"/><polygon fill="#181818" points="821.4087,1377.7646,825.4087,1387.7646,829.4087,1377.7646,825.4087,1381.7646" style="stroke:#181818;stroke-width:1;"/><line style="stroke:#181818;stroke-width:1;" x1="707.2041" x2="707.2041" y1="2045.124" y2="2065.124"/><polygon fill="#181818" points="703.2041,2055.124,707.2041,2065.124,711.2041,2055.124,707.2041,2059.124" style="stroke:#181818;stroke-width:1;"/><line style="stroke:#181818;stroke-width:1;" x1="619.8359" x2="619.8359" y1="2254.4053" y2="2274.4053"/><polygon fill="#181818" points="615.8359,2264.4053,619.8359,2274.4053,623.8359,2264.4053,619.8359,2268.4053" style="stroke:#181818;stroke-width:1;"/><line style="stroke:#181818;stroke-width:1;" x1="1056.9375" x2="1056.9375" y1="2155.3115" y2="2175.3115"/><polygon fill="#181818" points="1052.9375,2165.3115,1056.9375,2175.3115,1060.9375,2165.3115,1056.9375,2169.3115" style="stroke:#181818;stroke-width:1;"/><line style="stroke:#181818;stroke-width:1;" x1="303.604" x2="303.604" y1="184.4082" y2="189.4082"/><line style="stroke:#181818;stroke-width:1;" x1="303.604" x2="825.4087" y1="189.4082" y2="189.4082"/><line style="stroke:#181818;stroke-width:1;" x1="825.4087" x2="825.4087" y1="189.4082" y2="204.4082"/><polygon fill="#181818" points="821.4087,194.4082,825.4087,204.4082,829.4087,194.4082,825.4087,198.4082" style="stroke:#181818;stroke-width:1;"/><line style="stroke:#181818;stroke-width:1;" x1="181.7832" x2="181.7832" y1="437.6895" y2="455.1895"/><line style="stroke:#181818;stroke-width:1;" x1="181.7832" x2="703.5879" y1="455.1895" y2="455.1895"/><line style="stroke:#181818;stroke-width:1;" x1="703.5879" x2="703.5879" y1="455.1895" y2="472.6895"/><polygon fill="#181818" points="699.5879,462.6895,703.5879,472.6895,707.5879,462.6895,703.5879,466.6895" style="stroke:#181818;stroke-width:1;"/><line style="stroke:#181818;stroke-width:1;" x1="814.8564" x2="814.8564" y1="370.5957" y2="437.6426"/><line style="stroke:#181818;stroke-width:1;" x1="814.8564" x2="193.7832" y1="370.5957" y2="370.5957"/><polygon fill="#181818" points="203.7832,366.5957,193.7832,370.5957,203.7832,374.5957,199.7832,370.5957" style="stroke:#181818;stroke-width:1;"/><line style="stroke:#181818;stroke-width:1;" x1="1053.3213" x2="1053.3213" y1="338.5957" y2="343.5957"/><line style="stroke:#181818;stroke-width:1;" x1="1053.3213" x2="181.7832" y1="343.5957" y2="343.5957"/><line style="stroke:#181818;stroke-width:1;" x1="181.7832" x2="181.7832" y1="343.5957" y2="358.5957"/><polygon fill="#181818" points="177.7832,348.5957,181.7832,358.5957,185.7832,348.5957,181.7832,352.5957" style="stroke:#181818;stroke-width:1;"/><line style="stroke:#181818;stroke-width:1;" x1="784.9741" x2="772.9741" y1="271.502" y2="271.502"/><line style="stroke:#181818;stroke-width:1;" x1="772.9741" x2="772.9741" y1="271.502" y2="289.502"/><line style="stroke:#181818;stroke-width:1;" x1="772.9741" x2="1053.3213" y1="289.502" y2="289.502"/><line style="stroke:#181818;stroke-width:1;" x1="1053.3213" x2="1053.3213" y1="289.502" y2="303.502"/><polygon fill="#181818" points="1049.3213,293.502,1053.3213,303.502,1057.3213,293.502,1053.3213,297.502" style="stroke:#181818;stroke-width:1;"/><line style="stroke:#181818;stroke-width:1;" x1="865.8433" x2="877.8433" y1="271.502" y2="271.502"/><line style="stroke:#181818;stroke-width:1;" x1="877.8433" x2="877.8433" y1="271.502" y2="289.502"/><line style="stroke:#181818;stroke-width:1;" x1="877.8433" x2="425.4248" y1="289.502" y2="289.502"/><line style="stroke:#181818;stroke-width:1;" x1="425.4248" x2="425.4248" y1="289.502" y2="303.502"/><polygon fill="#181818" points="421.4248,293.502,425.4248,303.502,429.4248,293.502,425.4248,297.502" style="stroke:#181818;stroke-width:1;"/><line style="stroke:#181818;stroke-width:1;" x1="303.604" x2="303.604" y1="844.5928" y2="849.5928"/><line style="stroke:#181818;stroke-width:1;" x1="303.604" x2="825.4087" y1="849.5928" y2="849.5928"/><line style="stroke:#181818;stroke-width:1;" x1="825.4087" x2="825.4087" y1="849.5928" y2="864.5928"/><polygon fill="#181818" points="821.4087,854.5928,825.4087,864.5928,829.4087,854.5928,825.4087,858.5928" style="stroke:#181818;stroke-width:1;"/><line style="stroke:#181818;stroke-width:1;" x1="735.2163" x2="735.2163" y1="1053.874" y2="1058.874"/><line style="stroke:#181818;stroke-width:1;" x1="735.2163" x2="213.4116" y1="1058.874" y2="1058.874"/><line style="stroke:#181818;stroke-width:1;" x1="213.4116" x2="213.4116" y1="1058.874" y2="1073.874"/><polygon fill="#181818" points="209.4116,1063.874,213.4116,1073.874,217.4116,1063.874,213.4116,1067.874" style="stroke:#181818;stroke-width:1;"/><line style="stroke:#181818;stroke-width:1;" x1="861.2537" x2="873.2537" y1="931.6865" y2="931.6865"/><line style="stroke:#181818;stroke-width:1;" x1="873.2537" x2="873.2537" y1="931.6865" y2="949.6865"/><line style="stroke:#181818;stroke-width:1;" x1="873.2537" x2="393.7964" y1="949.6865" y2="949.6865"/><line style="stroke:#181818;stroke-width:1;" x1="393.7964" x2="393.7964" y1="949.6865" y2="963.6865"/><polygon fill="#181818" points="389.7964,953.6865,393.7964,963.6865,397.7964,953.6865,393.7964,957.6865" style="stroke:#181818;stroke-width:1;"/><line style="stroke:#181818;stroke-width:1;" x1="213.4116" x2="213.4116" y1="1108.9678" y2="1130.9678"/><line style="stroke:#181818;stroke-width:1;" x1="213.4116" x2="813.4087" y1="1130.9678" y2="1130.9678"/><polygon fill="#181818" points="803.4087,1126.9678,813.4087,1130.9678,803.4087,1134.9678,807.4087,1130.9678" style="stroke:#181818;stroke-width:1;"/><line style="stroke:#181818;stroke-width:1;" x1="393.7964" x2="393.7964" y1="998.7803" y2="1112.9678"/><line style="stroke:#181818;stroke-width:1;" x1="393.7964" x2="855.4087" y1="1112.9678" y2="1112.9678"/><line style="stroke:#181818;stroke-width:1;" x1="855.4087" x2="855.4087" y1="1112.9678" y2="1130.9678"/><line style="stroke:#181818;stroke-width:1;" x1="855.4087" x2="837.4087" y1="1130.9678" y2="1130.9678"/><polygon fill="#181818" points="847.4087,1126.9678,837.4087,1130.9678,847.4087,1134.9678,843.4087,1130.9678" style="stroke:#181818;stroke-width:1;"/><line style="stroke:#181818;stroke-width:1;" x1="825.4087" x2="825.4087" y1="1142.9678" y2="1147.9678"/><line style="stroke:#181818;stroke-width:1;" x1="825.4087" x2="303.604" y1="1147.9678" y2="1147.9678"/><line style="stroke:#181818;stroke-width:1;" x1="303.604" x2="303.604" y1="1147.9678" y2="1162.9678"/><polygon fill="#181818" points="299.604,1152.9678,303.604,1162.9678,307.604,1152.9678,303.604,1156.9678" style="stroke:#181818;stroke-width:1;"/><line style="stroke:#181818;stroke-width:1;" x1="303.604" x2="303.604" y1="1312.6709" y2="1317.6709"/><line style="stroke:#181818;stroke-width:1;" x1="303.604" x2="825.4087" y1="1317.6709" y2="1317.6709"/><line style="stroke:#181818;stroke-width:1;" x1="825.4087" x2="825.4087" y1="1317.6709" y2="1332.6709"/><polygon fill="#181818" points="821.4087,1322.6709,825.4087,1332.6709,829.4087,1322.6709,825.4087,1326.6709" style="stroke:#181818;stroke-width:1;"/><line style="stroke:#181818;stroke-width:1;" x1="1091.1123" x2="1091.1123" y1="1466.8584" y2="1471.8584"/><line style="stroke:#181818;stroke-width:1;" x1="1091.1123" x2="219.5742" y1="1471.8584" y2="1471.8584"/><line style="stroke:#181818;stroke-width:1;" x1="219.5742" x2="219.5742" y1="1471.8584" y2="1486.8584"/><polygon fill="#181818" points="215.5742,1476.8584,219.5742,1486.8584,223.5742,1476.8584,219.5742,1480.8584" style="stroke:#181818;stroke-width:1;"/><line style="stroke:#181818;stroke-width:1;" x1="219.5742" x2="219.5742" y1="1521.9521" y2="1526.9521"/><line style="stroke:#181818;stroke-width:1;" x1="219.5742" x2="741.3789" y1="1526.9521" y2="1526.9521"/><line style="stroke:#181818;stroke-width:1;" x1="741.3789" x2="741.3789" y1="1526.9521" y2="1541.9521"/><polygon fill="#181818" points="737.3789,1531.9521,741.3789,1541.9521,745.3789,1531.9521,741.3789,1535.9521" style="stroke:#181818;stroke-width:1;"/><line style="stroke:#181818;stroke-width:1;" x1="782.541" x2="770.541" y1="1399.7646" y2="1399.7646"/><line style="stroke:#181818;stroke-width:1;" x1="770.541" x2="770.541" y1="1399.7646" y2="1417.7646"/><line style="stroke:#181818;stroke-width:1;" x1="770.541" x2="1091.1123" y1="1417.7646" y2="1417.7646"/><line style="stroke:#181818;stroke-width:1;" x1="1091.1123" x2="1091.1123" y1="1417.7646" y2="1431.7646"/><polygon fill="#181818" points="1087.1123,1421.7646,1091.1123,1431.7646,1095.1123,1421.7646,1091.1123,1425.7646" style="stroke:#181818;stroke-width:1;"/><line style="stroke:#181818;stroke-width:1;" x1="868.2764" x2="880.2764" y1="1399.7646" y2="1399.7646"/><line style="stroke:#181818;stroke-width:1;" x1="880.2764" x2="880.2764" y1="1399.7646" y2="1417.7646"/><line style="stroke:#181818;stroke-width:1;" x1="880.2764" x2="387.6338" y1="1417.7646" y2="1417.7646"/><line style="stroke:#181818;stroke-width:1;" x1="387.6338" x2="387.6338" y1="1417.7646" y2="1431.7646"/><polygon fill="#181818" points="383.6338,1421.7646,387.6338,1431.7646,391.6338,1421.7646,387.6338,1425.7646" style="stroke:#181818;stroke-width:1;"/><line style="stroke:#181818;stroke-width:1;" x1="387.6338" x2="387.6338" y1="1466.8584" y2="1636.1396"/><line style="stroke:#181818;stroke-width:1;" x1="387.6338" x2="855.4087" y1="1636.1396" y2="1636.1396"/><line style="stroke:#181818;stroke-width:1;" x1="855.4087" x2="855.4087" y1="1636.1396" y2="1654.1396"/><line style="stroke:#181818;stroke-width:1;" x1="855.4087" x2="837.4087" y1="1654.1396" y2="1654.1396"/><polygon fill="#181818" points="847.4087,1650.1396,837.4087,1654.1396,847.4087,1658.1396,843.4087,1654.1396" style="stroke:#181818;stroke-width:1;"/><line style="stroke:#181818;stroke-width:1;" x1="825.4087" x2="825.4087" y1="1666.1396" y2="1671.1396"/><line style="stroke:#181818;stroke-width:1;" x1="825.4087" x2="303.604" y1="1671.1396" y2="1671.1396"/><line style="stroke:#181818;stroke-width:1;" x1="303.604" x2="303.604" y1="1671.1396" y2="1686.1396"/><polygon fill="#181818" points="299.604,1676.1396,303.604,1686.1396,307.604,1676.1396,303.604,1680.1396" style="stroke:#181818;stroke-width:1;"/><line style="stroke:#181818;stroke-width:1;" x1="185.3994" x2="185.3994" y1="1990.0303" y2="1995.0303"/><line style="stroke:#181818;stroke-width:1;" x1="185.3994" x2="707.2041" y1="1995.0303" y2="1995.0303"/><line style="stroke:#181818;stroke-width:1;" x1="707.2041" x2="707.2041" y1="1995.0303" y2="2010.0303"/><polygon fill="#181818" points="703.2041,2000.0303,707.2041,2010.0303,711.2041,2000.0303,707.2041,2004.0303" style="stroke:#181818;stroke-width:1;"/><line style="stroke:#181818;stroke-width:1;" x1="707.2041" x2="707.2041" y1="2100.2178" y2="2105.2178"/><line style="stroke:#181818;stroke-width:1;" x1="707.2041" x2="1056.9375" y1="2105.2178" y2="2105.2178"/><line style="stroke:#181818;stroke-width:1;" x1="1056.9375" x2="1056.9375" y1="2105.2178" y2="2120.2178"/><polygon fill="#181818" points="1052.9375,2110.2178,1056.9375,2120.2178,1060.9375,2110.2178,1056.9375,2114.2178" style="stroke:#181818;stroke-width:1;"/><line style="stroke:#181818;stroke-width:1;" x1="619.8359" x2="619.8359" y1="2309.499" y2="2314.499"/><line style="stroke:#181818;stroke-width:1;" x1="619.8359" x2="98.0313" y1="2314.499" y2="2314.499"/><line style="stroke:#181818;stroke-width:1;" x1="98.0313" x2="98.0313" y1="2314.499" y2="2329.499"/><polygon fill="#181818" points="94.0313,2319.499,98.0313,2329.499,102.0313,2319.499,98.0313,2323.499" style="stroke:#181818;stroke-width:1;"/><line style="stroke:#181818;stroke-width:1;" x1="794.5723" x2="794.5723" y1="2254.4053" y2="2259.4053"/><line style="stroke:#181818;stroke-width:1;" x1="794.5723" x2="272.7676" y1="2259.4053" y2="2259.4053"/><line style="stroke:#181818;stroke-width:1;" x1="272.7676" x2="272.7676" y1="2259.4053" y2="2274.4053"/><polygon fill="#181818" points="268.7676,2264.4053,272.7676,2274.4053,276.7676,2264.4053,272.7676,2268.4053" style="stroke:#181818;stroke-width:1;"/><line style="stroke:#181818;stroke-width:1;" x1="992.051" x2="619.8359" y1="2187.3115" y2="2187.3115"/><line style="stroke:#181818;stroke-width:1;" x1="619.8359" x2="619.8359" y1="2187.3115" y2="2219.3115"/><polygon fill="#181818" points="615.8359,2209.3115,619.8359,2219.3115,623.8359,2209.3115,619.8359,2213.3115" style="stroke:#181818;stroke-width:1;"/><line style="stroke:#181818;stroke-width:1;" x1="1121.824" x2="1133.824" y1="2187.3115" y2="2187.3115"/><line style="stroke:#181818;stroke-width:1;" x1="1133.824" x2="1133.824" y1="2187.3115" y2="2205.3115"/><line style="stroke:#181818;stroke-width:1;" x1="1133.824" x2="794.5723" y1="2205.3115" y2="2205.3115"/><line style="stroke:#181818;stroke-width:1;" x1="794.5723" x2="794.5723" y1="2205.3115" y2="2219.3115"/><polygon fill="#181818" points="790.5723,2209.3115,794.5723,2219.3115,798.5723,2209.3115,794.5723,2213.3115" style="stroke:#181818;stroke-width:1;"/><line style="stroke:#181818;stroke-width:1;" x1="98.0313" x2="98.0313" y1="2364.5928" y2="2386.5928"/><line style="stroke:#181818;stroke-width:1;" x1="98.0313" x2="1044.9375" y1="2386.5928" y2="2386.5928"/><polygon fill="#181818" points="1034.9375,2382.5928,1044.9375,2386.5928,1034.9375,2390.5928,1038.9375,2386.5928" style="stroke:#181818;stroke-width:1;"/><line style="stroke:#181818;stroke-width:1;" x1="272.7676" x2="272.7676" y1="2309.499" y2="2368.5928"/><line style="stroke:#181818;stroke-width:1;" x1="272.7676" x2="1086.9375" y1="2368.5928" y2="2368.5928"/><line style="stroke:#181818;stroke-width:1;" x1="1086.9375" x2="1086.9375" y1="2368.5928" y2="2386.5928"/><line style="stroke:#181818;stroke-width:1;" x1="1086.9375" x2="1068.9375" y1="2386.5928" y2="2386.5928"/><polygon fill="#181818" points="1078.9375,2382.5928,1068.9375,2386.5928,1078.9375,2390.5928,1074.9375,2386.5928" style="stroke:#181818;stroke-width:1;"/><line style="stroke:#181818;stroke-width:1;" x1="1056.9375" x2="1056.9375" y1="2398.5928" y2="2402.5928"/><line style="stroke:#181818;stroke-width:1;" x1="1056.9375" x2="273.604" y1="2402.5928" y2="2402.5928"/><line style="stroke:#181818;stroke-width:1;" x1="273.604" x2="273.604" y1="2402.5928" y2="2420.5928"/><line style="stroke:#181818;stroke-width:1;" x1="273.604" x2="291.604" y1="2420.5928" y2="2420.5928"/><polygon fill="#181818" points="281.604,2416.5928,291.604,2420.5928,281.604,2424.5928,285.604,2420.5928" style="stroke:#181818;stroke-width:1;"/><text fill="#000000" font-family="sans-serif" font-size="18" lengthAdjust="spacing" textLength="125.0596" x="201.1968" y="69.75">Student (Client)</text><text fill="#000000" font-family="sans-serif" font-size="18" lengthAdjust="spacing" textLength="151.0313" x="653.1885" y="69.75">LMS Core (Server)</text><text fill="#000000" font-family="sans-serif" font-size="18" lengthAdjust="spacing" textLength="166.0781" x="990.0137" y="69.75">External (Bank/Auth)</text><!--SRC=[dPPDSzem48Rl_8eT3YqScDxXq05YA1q2Z4sIwL6H5wp1IAuaGsZJ_zwLm7ma9d729K7IhdRtVNQ55JP5Y6mUexGmIDNMG0kwcYV28hUvPYdqq5YOQSQju0Ztg8rGibPxBgmQ_LJGt-PpxNby6q5VQOH6X7g3sgq5JnQr93-D7fEhRztS9hHS-mgjLWl2O3YAva48W_7qmQtKCgQji7G3rEyCQWXnAOpLp2tLuMyDw5DojLisbcpzV-qeVrmBUs4C0wNNdRrzIPpUx9wb8cOMOIIptC8Disnl8HRGSD_0d_ZU19kWXCQl86hwVU-rFDDYkpr4YTev_m8HoXYcyrddP5oUaljep93PurVlAv1qrQM7jn8xsf5wOh6xD7naVBLbEcwFvCPbTxcxlnssYI1G6hJb_6jYWueW33GcqoP8PL_KejtNw5Br4dOvLxcq9v_jYR8kZ2Zd78tPRs1gqBkhKfDsbAWj7EHouWPQAsrELyHe6K_sZcKi5WT0L5RxLx0tdWv7a-lWZTLIV9muojkT4omrxx3cy70dUL6d4sc7kfHZTk8eeZCkthbQkLC_7-RDinhVPPxaCQFkzRd0NAofbTawguHTEyHOEA71Ake4apmgWkJJMdc1u9P2Palil2dCO1eEWpdCkb7qC0rlIYMQCMEsIiVKubnHLNVLbGhnT-v7sic5GVkEMlq4-QeW6O8d6YieEPuqyypuTVEvyU1dWWy5neBs-oh6Qa8Tq9lWzfZJcU4R8w5Wv5Y97oHpvvo03Q55MLknEUBs-NRru0fU3OBehXVrmr4lA9M_ht9DzrFcXckHVUnnw6bwvX0EFcveKeYYMvsI8pTR2H2yCkT9gTIrXMidY59rFjZeIiAaFjEA8yQkSsPijwOewXKL6IkoFtg6nXpNcT9CxyvRUoI5cp3Y3y9SCsdSqwnafp9gFZnZO20aavmybRjnnJY4NupgHPwM5wNIwzDNSY7q6WAfLPewlvVFLy5ZeU2vlER5ItSTjXDmXw19W-LPAxqcjrBm8QdEoB94zie15TNqm_0iecCFl8wjtOqzHmEsKPf-b9ahRVCV]--></g></svg>