<svg xmlns="http://www.w3.org/2000/svg" xmlns:xlink="http://www.w3.org/1999/xlink" contentStyleType="text/css" data-diagram-type="ACTIVITY" height="1247px" preserveAspectRatio="none" style="width:392px;height:1247px;background:#FFFFFF;" version="1.1" viewBox="0 0 392 1247" width="392px" zoomAndPan="magnify"><title>Teacher Flows - Legacy Version (Visual Match)</title><defs/><g><g class="title" data-source-line="1"><text fill="#000000" font-family="sans-serif" font-size="14" font-weight="bold" lengthAdjust="spacing" textLength="311.9785" x="38.5894" y="34.5332">Teacher Flows - Legacy Version (Visual Match)</text></g><rect fill="none" height="388.9844" style="stroke:#000000;stroke-width:1.5;" width="369.5449" x="11.6123" y="49.6094"/><path d="M119.6602,49.6094 L119.6602,60.2188 L109.6602,70.2188 L11.6123,70.2188" fill="none" style="stroke:#000000;stroke-width:1.5;"/><text fill="#000000" font-family="sans-serif" font-size="14" lengthAdjust="spacing" textLength="98.0479" x="14.6123" y="65.1426">Upload Material</text><ellipse cx="196.4697" cy="90.2188" fill="#222222" rx="10" ry="10" style="stroke:#222222;stroke-width:1;"/><rect fill="#F1F1F1" height="35.0938" rx="12.5" ry="12.5" style="stroke:#181818;stroke-width:0.5;" width="125.3926" x="133.7734" y="120.2188"/><text fill="#000000" font-family="sans-serif" font-size="12" lengthAdjust="spacing" textLength="105.3926" x="143.7734" y="142.6758">Select Pdf/video file</text><rect fill="#F1F1F1" height="35.0938" rx="12.5" ry="12.5" style="stroke:#181818;stroke-width:0.5;" width="159.3887" x="116.7754" y="175.3125"/><text fill="#000000" font-family="sans-serif" font-size="12" lengthAdjust="spacing" textLength="139.3887" x="126.7754" y="197.7695">Validate File size &amp; format</text><polygon fill="#F1F1F1" points="175.3748,230.4063,217.5647,230.4063,229.5647,242.4063,217.5647,254.4063,175.3748,254.4063,163.3748,242.4063,175.3748,230.4063" style="stroke:#181818;stroke-width:0.5;"/><text fill="#000000" font-family="sans-serif" font-size="11" lengthAdjust="spacing" textLength="42.1899" x="175.3748" y="246.9072">Is Valid?</text><text fill="#000000" font-family="sans-serif" font-size="11" lengthAdjust="spacing" textLength="22.0107" x="141.364" y="239.9893">YES</text><text fill="#000000" font-family="sans-serif" font-size="11" lengthAdjust="spacing" textLength="16.5" x="229.5647" y="239.9893">NO</text><rect fill="#F1F1F1" height="35.0938" rx="12.5" ry="12.5" style="stroke:#181818;stroke-width:0.5;" width="155.3926" x="28.4873" y="264.4063"/><text fill="#000000" font-family="sans-serif" font-size="12" lengthAdjust="spacing" textLength="135.3926" x="38.4873" y="286.8633">Store file &amp; link to Course</text><rect fill="#F1F1F1" height="35.0938" rx="12.5" ry="12.5" style="stroke:#181818;stroke-width:0.5;" width="163.918" x="24.2246" y="319.5"/><text fill="#000000" font-family="sans-serif" font-size="12" lengthAdjust="spacing" textLength="143.918" x="34.2246" y="341.957">Display "Upload Complete"</text><rect fill="#F1F1F1" height="35.0938" rx="12.5" ry="12.5" style="stroke:#181818;stroke-width:0.5;" width="157.2266" x="208.1426" y="264.4063"/><text fill="#000000" font-family="sans-serif" font-size="12" lengthAdjust="spacing" textLength="137.2266" x="218.1426" y="286.8633">Display "Invalid File error"</text><polygon fill="#F1F1F1" points="196.4697,360.5938,208.4697,372.5938,196.4697,384.5938,184.4697,372.5938,196.4697,360.5938" style="stroke:#181818;stroke-width:0.5;"/><ellipse cx="196.4697" cy="415.5938" fill="none" rx="11" ry="11" style="stroke:#222222;stroke-width:1;"/><ellipse cx="196.4697" cy="415.5938" fill="#222222" rx="6" ry="6" style="stroke:#222222;stroke-width:1;"/><rect fill="none" height="278.7969" style="stroke:#000000;stroke-width:1.5;" width="318.1035" x="37.5894" y="448.5938"/><path d="M121.5269,448.5938 L121.5269,459.2031 L111.5269,469.2031 L37.5894,469.2031" fill="none" style="stroke:#000000;stroke-width:1.5;"/><text fill="#000000" font-family="sans-serif" font-size="14" lengthAdjust="spacing" textLength="73.9375" x="40.5894" y="464.127">Reschedule</text><ellipse cx="196.4697" cy="489.2031" fill="#222222" rx="10" ry="10" style="stroke:#222222;stroke-width:1;"/><rect fill="#F1F1F1" height="35.0938" rx="12.5" ry="12.5" style="stroke:#181818;stroke-width:0.5;" width="130.7246" x="131.1074" y="519.2031"/><text fill="#000000" font-family="sans-serif" font-size="12" lengthAdjust="spacing" textLength="110.7246" x="141.1074" y="541.6602">Input Availability Slot</text><polygon fill="#F1F1F1" points="170.7932,574.2969,222.1462,574.2969,234.1462,586.2969,222.1462,598.2969,170.7932,598.2969,158.7932,586.2969,170.7932,574.2969" style="stroke:#181818;stroke-width:0.5;"/><text fill="#000000" font-family="sans-serif" font-size="11" lengthAdjust="spacing" textLength="51.353" x="170.7932" y="590.7979">is conflict?</text><text fill="#000000" font-family="sans-serif" font-size="11" lengthAdjust="spacing" textLength="22.0107" x="136.7825" y="583.8799">YES</text><text fill="#000000" font-family="sans-serif" font-size="11" lengthAdjust="spacing" textLength="16.5" x="234.1462" y="583.8799">NO</text><rect fill="#F1F1F1" height="35.0938" rx="12.5" ry="12.5" style="stroke:#181818;stroke-width:0.5;" width="128.709" x="57.5894" y="608.2969"/><text fill="#000000" font-family="sans-serif" font-size="12" lengthAdjust="spacing" textLength="108.709" x="67.5894" y="630.7539">show error message</text><rect fill="#F1F1F1" height="35.0938" rx="12.5" ry="12.5" style="stroke:#181818;stroke-width:0.5;" width="129.3945" x="206.2983" y="608.2969"/><text fill="#000000" font-family="sans-serif" font-size="12" lengthAdjust="spacing" textLength="109.3945" x="216.2983" y="630.7539">Store New Schedule</text><polygon fill="#F1F1F1" points="196.4697,649.3906,208.4697,661.3906,196.4697,673.3906,184.4697,661.3906,196.4697,649.3906" style="stroke:#181818;stroke-width:0.5;"/><ellipse cx="196.4697" cy="704.3906" fill="none" rx="11" ry="11" style="stroke:#222222;stroke-width:1;"/><ellipse cx="196.4697" cy="704.3906" fill="#222222" rx="6" ry="6" style="stroke:#222222;stroke-width:1;"/><rect fill="none" height="499.1719" style="stroke:#000000;stroke-width:1.5;" width="366.3691" x="11" y="737.3906"/><path d="M122.1787,737.3906 L122.1787,748 L112.1787,758 L11,758" fill="none" style="stroke:#000000;stroke-width:1.5;"/><text fill="#000000" font-family="sans-serif" font-size="14" lengthAdjust="spacing" textLength="101.1787" x="14" y="752.9238">Conduct Lesson</text><ellipse cx="196.4697" cy="778" fill="#222222" rx="10" ry="10" style="stroke:#222222;stroke-width:1;"/><rect fill="#F1F1F1" height="35.0938" rx="12.5" ry="12.5" style="stroke:#181818;stroke-width:0.5;" width="134.5684" x="129.1855" y="808"/><text fill="#000000" font-family="sans-serif" font-size="12" lengthAdjust="spacing" textLength="114.5684" x="139.1855" y="830.457">Select "Start session"</text><rect fill="#F1F1F1" height="35.0938" rx="12.5" ry="12.5" style="stroke:#181818;stroke-width:0.5;" width="143.4043" x="124.7676" y="863.0938"/><text fill="#000000" font-family="sans-serif" font-size="12" lengthAdjust="spacing" textLength="123.4043" x="134.7676" y="885.5508">Verify Schedule &amp; Auth</text><rect fill="#F1F1F1" height="35.0938" rx="12.5" ry="12.5" style="stroke:#181818;stroke-width:0.5;" width="154.7246" x="119.1074" y="918.1875"/><text fill="#000000" font-family="sans-serif" font-size="12" lengthAdjust="spacing" textLength="134.7246" x="129.1074" y="940.6445">Fetch Lesson Permission</text><polygon fill="#F1F1F1" points="161.6167,973.2813,231.3228,973.2813,243.3228,985.2813,231.3228,997.2813,161.6167,997.2813,149.6167,985.2813,161.6167,973.2813" style="stroke:#181818;stroke-width:0.5;"/><text fill="#000000" font-family="sans-serif" font-size="11" lengthAdjust="spacing" textLength="69.7061" x="161.6167" y="989.7822">is Authorized?</text><text fill="#000000" font-family="sans-serif" font-size="11" lengthAdjust="spacing" textLength="22.0107" x="127.606" y="982.8643">YES</text><text fill="#000000" font-family="sans-serif" font-size="11" lengthAdjust="spacing" textLength="16.5" x="243.3228" y="982.8643">NO</text><rect fill="#F1F1F1" height="35.0938" rx="12.5" ry="12.5" style="stroke:#181818;stroke-width:0.5;" width="161.3809" x="26.2871" y="1007.2813"/><text fill="#000000" font-family="sans-serif" font-size="12" lengthAdjust="spacing" textLength="141.3809" x="36.2871" y="1029.7383">Initialize Virtual Classroom</text><rect fill="#F1F1F1" height="35.0938" rx="12.5" ry="12.5" style="stroke:#181818;stroke-width:0.5;" width="163.4316" x="25.2617" y="1062.375"/><text fill="#000000" font-family="sans-serif" font-size="12" lengthAdjust="spacing" textLength="143.4316" x="35.2617" y="1084.832">Log Session into Database</text><rect fill="#F1F1F1" height="35.0938" rx="12.5" ry="12.5" style="stroke:#181818;stroke-width:0.5;" width="166.7305" x="23.6123" y="1117.4688"/><text fill="#000000" font-family="sans-serif" font-size="12" lengthAdjust="spacing" textLength="146.7305" x="33.6123" y="1139.9258">Provide live session access</text><rect fill="#F1F1F1" height="35.0938" rx="12.5" ry="12.5" style="stroke:#181818;stroke-width:0.5;" width="151.2383" x="210.3428" y="1007.2813"/><text fill="#000000" font-family="sans-serif" font-size="12" lengthAdjust="spacing" textLength="131.2383" x="220.3428" y="1029.7383">Display "Access Denied"</text><polygon fill="#F1F1F1" points="196.4697,1158.5625,208.4697,1170.5625,196.4697,1182.5625,184.4697,1170.5625,196.4697,1158.5625" style="stroke:#181818;stroke-width:0.5;"/><ellipse cx="196.4697" cy="1213.5625" fill="none" rx="11" ry="11" style="stroke:#222222;stroke-width:1;"/><ellipse cx="196.4697" cy="1213.5625" fill="#222222" rx="6" ry="6" style="stroke:#222222;stroke-width:1;"/><line style="stroke:#181818;stroke-width:1;" x1="196.4697" x2="196.4697" y1="100.2188" y2="120.2188"/><polygon fill="#181818" points="192.4697,110.2188,196.4697,120.2188,200.4697,110.2188,196.4697,114.2188" style="stroke:#181818;stroke-width:1;"/><line style="stroke:#181818;stroke-width:1;" x1="196.4697" x2="196.4697" y1="155.3125" y2="175.3125"/><polygon fill="#181818" points="192.4697,165.3125,196.4697,175.3125,200.4697,165.3125,196.4697,169.3125" style="stroke:#181818;stroke-width:1;"/><line style="stroke:#181818;stroke-width:1;" x1="106.1836" x2="106.1836" y1="299.5" y2="319.5"/><polygon fill="#181818" points="102.1836,309.5,106.1836,319.5,110.1836,309.5,106.1836,313.5" style="stroke:#181818;stroke-width:1;"/><line style="stroke:#181818;stroke-width:1;" x1="163.3748" x2="106.1836" y1="242.4063" y2="242.4063"/><line style="stroke:#181818;stroke-width:1;" x1="106.1836" x2="106.1836" y1="242.4063" y2="264.4063"/><polygon fill="#181818" points="102.1836,254.4063,106.1836,264.4063,110.1836,254.4063,106.1836,258.4063" style="stroke:#181818;stroke-width:1;"/><line style="stroke:#181818;stroke-width:1;" x1="229.5647" x2="286.7559" y1="242.4063" y2="242.4063"/><line style="stroke:#181818;stroke-width:1;" x1="286.7559" x2="286.7559" y1="242.4063" y2="264.4063"/><polygon fill="#181818" points="282.7559,254.4063,286.7559,264.4063,290.7559,254.4063,286.7559,258.4063" style="stroke:#181818;stroke-width:1;"/><line style="stroke:#181818;stroke-width:1;" x1="106.1836" x2="106.1836" y1="354.5938" y2="372.5938"/><line style="stroke:#181818;stroke-width:1;" x1="106.1836" x2="184.4697" y1="372.5938" y2="372.5938"/><polygon fill="#181818" points="174.4697,368.5938,184.4697,372.5938,174.4697,376.5938,178.4697,372.5938" style="stroke:#181818;stroke-width:1;"/><line style="stroke:#181818;stroke-width:1;" x1="286.7559" x2="286.7559" y1="299.5" y2="372.5938"/><line style="stroke:#181818;stroke-width:1;" x1="286.7559" x2="208.4697" y1="372.5938" y2="372.5938"/><polygon fill="#181818" points="218.4697,368.5938,208.4697,372.5938,218.4697,376.5938,214.4697,372.5938" style="stroke:#181818;stroke-width:1;"/><line style="stroke:#181818;stroke-width:1;" x1="196.4697" x2="196.4697" y1="210.4063" y2="230.4063"/><polygon fill="#181818" points="192.4697,220.4063,196.4697,230.4063,200.4697,220.4063,196.4697,224.4063" style="stroke:#181818;stroke-width:1;"/><line style="stroke:#181818;stroke-width:1;" x1="196.4697" x2="196.4697" y1="384.5938" y2="404.5938"/><polygon fill="#181818" points="192.4697,394.5938,196.4697,404.5938,200.4697,394.5938,196.4697,398.5938" style="stroke:#181818;stroke-width:1;"/><line style="stroke:#181818;stroke-width:1;" x1="196.4697" x2="196.4697" y1="499.2031" y2="519.2031"/><polygon fill="#181818" points="192.4697,509.2031,196.4697,519.2031,200.4697,509.2031,196.4697,513.2031" style="stroke:#181818;stroke-width:1;"/><line style="stroke:#181818;stroke-width:1;" x1="158.7932" x2="121.9438" y1="586.2969" y2="586.2969"/><line style="stroke:#181818;stroke-width:1;" x1="121.9438" x2="121.9438" y1="586.2969" y2="608.2969"/><polygon fill="#181818" points="117.9438,598.2969,121.9438,608.2969,125.9438,598.2969,121.9438,602.2969" style="stroke:#181818;stroke-width:1;"/><line style="stroke:#181818;stroke-width:1;" x1="234.1462" x2="270.9956" y1="586.2969" y2="586.2969"/><line style="stroke:#181818;stroke-width:1;" x1="270.9956" x2="270.9956" y1="586.2969" y2="608.2969"/><polygon fill="#181818" points="266.9956,598.2969,270.9956,608.2969,274.9956,598.2969,270.9956,602.2969" style="stroke:#181818;stroke-width:1;"/><line style="stroke:#181818;stroke-width:1;" x1="121.9438" x2="121.9438" y1="643.3906" y2="661.3906"/><line style="stroke:#181818;stroke-width:1;" x1="121.9438" x2="184.4697" y1="661.3906" y2="661.3906"/><polygon fill="#181818" points="174.4697,657.3906,184.4697,661.3906,174.4697,665.3906,178.4697,661.3906" style="stroke:#181818;stroke-width:1;"/><line style="stroke:#181818;stroke-width:1;" x1="270.9956" x2="270.9956" y1="643.3906" y2="661.3906"/><line style="stroke:#181818;stroke-width:1;" x1="270.9956" x2="208.4697" y1="661.3906" y2="661.3906"/><polygon fill="#181818" points="218.4697,657.3906,208.4697,661.3906,218.4697,665.3906,214.4697,661.3906" style="stroke:#181818;stroke-width:1;"/><line style="stroke:#181818;stroke-width:1;" x1="196.4697" x2="196.4697" y1="554.2969" y2="574.2969"/><polygon fill="#181818" points="192.4697,564.2969,196.4697,574.2969,200.4697,564.2969,196.4697,568.2969" style="stroke:#181818;stroke-width:1;"/><line style="stroke:#181818;stroke-width:1;" x1="196.4697" x2="196.4697" y1="673.3906" y2="693.3906"/><polygon fill="#181818" points="192.4697,683.3906,196.4697,693.3906,200.4697,683.3906,196.4697,687.3906" style="stroke:#181818;stroke-width:1;"/><line style="stroke:#181818;stroke-width:1;" x1="196.4697" x2="196.4697" y1="788" y2="808"/><polygon fill="#181818" points="192.4697,798,196.4697,808,200.4697,798,196.4697,802" style="stroke:#181818;stroke-width:1;"/><line style="stroke:#181818;stroke-width:1;" x1="196.4697" x2="196.4697" y1="843.0938" y2="863.0938"/><polygon fill="#181818" points="192.4697,853.0938,196.4697,863.0938,200.4697,853.0938,196.4697,857.0938" style="stroke:#181818;stroke-width:1;"/><line style="stroke:#181818;stroke-width:1;" x1="196.4697" x2="196.4697" y1="898.1875" y2="918.1875"/><polygon fill="#181818" points="192.4697,908.1875,196.4697,918.1875,200.4697,908.1875,196.4697,912.1875" style="stroke:#181818;stroke-width:1;"/><line style="stroke:#181818;stroke-width:1;" x1="106.9775" x2="106.9775" y1="1042.375" y2="1062.375"/><polygon fill="#181818" points="102.9775,1052.375,106.9775,1062.375,110.9775,1052.375,106.9775,1056.375" style="stroke:#181818;stroke-width:1;"/><line style="stroke:#181818;stroke-width:1;" x1="106.9775" x2="106.9775" y1="1097.4688" y2="1117.4688"/><polygon fill="#181818" points="102.9775,1107.4688,106.9775,1117.4688,110.9775,1107.4688,106.9775,1111.4688" style="stroke:#181818;stroke-width:1;"/><line style="stroke:#181818;stroke-width:1;" x1="149.6167" x2="106.9775" y1="985.2813" y2="985.2813"/><line style="stroke:#181818;stroke-width:1;" x1="106.9775" x2="106.9775" y1="985.2813" y2="1007.2813"/><polygon fill="#181818" points="102.9775,997.2813,106.9775,1007.2813,110.9775,997.2813,106.9775,1001.2813" style="stroke:#181818;stroke-width:1;"/><line style="stroke:#181818;stroke-width:1;" x1="243.3228" x2="285.9619" y1="985.2813" y2="985.2813"/><line style="stroke:#181818;stroke-width:1;" x1="285.9619" x2="285.9619" y1="985.2813" y2="1007.2813"/><polygon fill="#181818" points="281.9619,997.2813,285.9619,1007.2813,289.9619,997.2813,285.9619,1001.2813" style="stroke:#181818;stroke-width:1;"/><line style="stroke:#181818;stroke-width:1;" x1="106.9775" x2="106.9775" y1="1152.5625" y2="1170.5625"/><line style="stroke:#181818;stroke-width:1;" x1="106.9775" x2="184.4697" y1="1170.5625" y2="1170.5625"/><polygon fill="#181818" points="174.4697,1166.5625,184.4697,1170.5625,174.4697,1174.5625,178.4697,1170.5625" style="stroke:#181818;stroke-width:1;"/><line style="stroke:#181818;stroke-width:1;" x1="285.9619" x2="285.9619" y1="1042.375" y2="1170.5625"/><line style="stroke:#181818;stroke-width:1;" x1="285.9619" x2="208.4697" y1="1170.5625" y2="1170.5625"/><polygon fill="#181818" points="218.4697,1166.5625,208.4697,1170.5625,218.4697,1174.5625,214.4697,1170.5625" style="stroke:#181818;stroke-width:1;"/><line style="stroke:#181818;stroke-width:1;" x1="196.4697" x2="196.4697" y1="953.2813" y2="973.2813"/><polygon fill="#181818" points="192.4697,963.2813,196.4697,973.2813,200.4697,963.2813,196.4697,967.2813" style="stroke:#181818;stroke-width:1;"/><line style="stroke:#181818;stroke-width:1;" x1="196.4697" x2="196.4697" y1="1182.5625" y2="1202.5625"/><polygon fill="#181818" points="192.4697,1192.5625,196.4697,1202.5625,200.4697,1192.5625,196.4697,1196.5625" style="stroke:#181818;stroke-width:1;"/><!--SRC=[XP9FZzf03CNl-HGMXnOEgFVsK4L9K96o116Wwd4sSS3gP1pDJ42qwdUlyuVLhaHsSnh5xyqyspzFNYFiKHLdjB3IV7MmX1HFghZ14QqZDZ0_ackLXYVbY_CY23x3Shc4mpRDmXYUmdsoMuSfhDBiPrS86cKz-SuuEpIQLTaPqPBIC_WRW7pEYwG_VSrHO-5XMrPVBbGYGqKQlmsrez9KYXLMyWyS_K7u11NRMlb1GHNCrmvwtVS5-3DAs5z9lkYhm_sUBVQNYbUJ-GsU8UBMkl6LNXMJQxIwlGIEk6uqUfmD6jGEORx95WySQtFfdXyoehLixoPJKZMsoqtmxpwtNP97FvBua2OFHxP39xieMuqFfhKsJUiXl2ZIwfaq-HlacbzDWnmKR2fDXPyOY3lpTSW9DJgdJZZPup2x3LuX7oEztrcKRU93j8SqoVDiyx2xY4tPohvJUPhDD0-plFi5JcJYczs148ggsqiQsMZO-lDONA7GELuCMxGrzTuti-daR0MaALpMHeBAFWMr8rdVKHzfvPnbhb_nal89yY4Ra16YOkNLith3rDPoHxH0Ty5x8w2AGauVKnNsEeZH49PJGFq7]--></g></svg>