<svg xmlns="http://www.w3.org/2000/svg" xmlns:xlink="http://www.w3.org/1999/xlink" contentStyleType="text/css" data-diagram-type="DESCRIPTION" height="445px" preserveAspectRatio="none" style="width:593px;height:445px;background:#FFFFFF;" version="1.1" viewBox="0 0 593 445" width="593px" zoomAndPan="magnify"><defs/><g><!--cluster Teacher Use-Cases--><g class="cluster" data-entity="Teacher Use-Cases" data-source-line="8" data-uid="ent0003" id="cluster_Teacher Use-Cases"><rect fill="none" height="364" rx="2.5" ry="2.5" style="stroke:#181818;stroke-width:1;" width="480" x="107.5" y="7"/><text fill="#000000" font-family="sans-serif" font-size="14" font-weight="bold" lengthAdjust="spacing" textLength="129.1855" x="282.9072" y="23.5332">Teacher Use-Cases</text></g><!--entity UC_Create--><g class="entity" data-entity="UC_Create" data-source-line="9" data-uid="ent0004" id="entity_UC_Create"><ellipse cx="210.3309" cy="59.1662" fill="#F1F1F1" rx="66.3309" ry="15.6662" style="stroke:#181818;stroke-width:0.5;"/><text fill="#000000" font-family="sans-serif" font-size="14" lengthAdjust="spacing" textLength="91.0547" x="164.8035" y="64.4709">Create Lesson</text></g><!--entity UC_Start--><g class="entity" data-entity="UC_Start" data-source-line="10" data-uid="ent0005" id="entity_UC_Start"><ellipse cx="210.5783" cy="124.9517" fill="#F1F1F1" rx="58.5783" ry="15.4517" style="stroke:#181818;stroke-width:0.5;"/><text fill="#000000" font-family="sans-serif" font-size="14" lengthAdjust="spacing" textLength="78.5996" x="171.2785" y="130.2564">Start Lesson</text></g><!--entity UC_Conduct--><g class="entity" data-entity="UC_Conduct" data-source-line="11" data-uid="ent0006" id="entity_UC_Conduct"><ellipse cx="210.5623" cy="333.9125" fill="#F1F1F1" rx="70.0623" ry="16.4125" style="stroke:#181818;stroke-width:0.5;"/><text fill="#000000" font-family="sans-serif" font-size="14" lengthAdjust="spacing" textLength="101.1787" x="159.9729" y="339.2171">Conduct Lesson</text></g><!--entity UC_Upload--><g class="entity" data-entity="UC_Upload" data-source-line="12" data-uid="ent0007" id="entity_UC_Upload"><ellipse cx="210.5422" cy="195.8084" fill="#F1F1F1" rx="87.0422" ry="19.8084" style="stroke:#181818;stroke-width:0.5;"/><text fill="#000000" font-family="sans-serif" font-size="14" lengthAdjust="spacing" textLength="143.1787" x="138.9529" y="201.1131">Upload PDFs &amp; Videos</text></g><!--entity UC_Rec--><g class="entity" data-entity="UC_Rec" data-source-line="13" data-uid="ent0008" id="entity_UC_Rec"><ellipse cx="492.7593" cy="336.7519" fill="#F1F1F1" rx="74.2593" ry="17.2519" style="stroke:#181818;stroke-width:0.5;"/><text fill="#000000" font-family="sans-serif" font-size="14" lengthAdjust="spacing" textLength="112.0684" x="436.7252" y="342.0566">Upload Recording</text></g><!--entity UC_SetSch--><g class="entity" data-entity="UC_SetSch" data-source-line="14" data-uid="ent0009" id="entity_UC_SetSch"><ellipse cx="210.3894" cy="266.9517" fill="#F1F1F1" rx="61.8894" ry="15.4517" style="stroke:#181818;stroke-width:0.5;"/><text fill="#000000" font-family="sans-serif" font-size="14" lengthAdjust="spacing" textLength="83.2822" x="168.7483" y="272.2564">Set Schedule</text></g><!--entity UC_Rep--><g class="entity" data-entity="UC_Rep" data-source-line="15" data-uid="ent0010" id="entity_UC_Rep"><ellipse cx="492.7964" cy="128.0593" fill="#F1F1F1" rx="78.2964" ry="18.0593" style="stroke:#181818;stroke-width:0.5;"/><text fill="#000000" font-family="sans-serif" font-size="14" lengthAdjust="spacing" textLength="122.1719" x="431.7105" y="133.364">Replace/Delete File</text></g><!--entity UC_Valid--><g class="entity" data-entity="UC_Valid" data-source-line="16" data-uid="ent0011" id="entity_UC_Valid"><ellipse cx="492.9762" cy="58.9517" fill="#F1F1F1" rx="57.4762" ry="15.4517" style="stroke:#181818;stroke-width:0.5;"/><text fill="#000000" font-family="sans-serif" font-size="14" lengthAdjust="spacing" textLength="77.041" x="454.4557" y="64.2564">Validate File</text></g><!--entity UC_ConfSch--><g class="entity" data-entity="UC_ConfSch" data-source-line="17" data-uid="ent0012" id="entity_UC_ConfSch"><ellipse cx="492.948" cy="198.1896" fill="#F1F1F1" rx="73.948" ry="17.1896" style="stroke:#181818;stroke-width:0.5;"/><text fill="#000000" font-family="sans-serif" font-size="14" lengthAdjust="spacing" textLength="111.2754" x="437.3103" y="203.4943">Confirm Schedule</text></g><!--entity UC_UpdtSch--><g class="entity" data-entity="UC_UpdtSch" data-source-line="18" data-uid="ent0013" id="entity_UC_UpdtSch"><ellipse cx="492.9439" cy="266.8888" fill="#F1F1F1" rx="72.4439" ry="16.8888" style="stroke:#181818;stroke-width:0.5;"/><text fill="#000000" font-family="sans-serif" font-size="14" lengthAdjust="spacing" textLength="107.4131" x="439.2374" y="272.1935">Update Schedule</text></g><!--entity T--><g class="entity" data-entity="T" data-source-line="6" data-uid="ent0002" id="entity_T"><ellipse cx="33" cy="217" fill="#F1F1F1" rx="16" ry="16" style="stroke:#181818;stroke-width:0.5;"/><path d="M33,237 C37,237 40,237 44,233 C52,233 60,241 60,249 L60,253 C60,257 56,261 52,261 L14,261 C10,261 6,257 6,253 L6,249 C6,241 14,233 22,233 C26,237 29,237 33,237" fill="#F1F1F1" style="stroke:#181818;stroke-width:0.5;"/><text fill="#000000" font-family="sans-serif" font-size="14" lengthAdjust="spacing" textLength="51.3584" x="7.3208" y="276.0332">Teacher</text></g><!--link T to UC_Create--><g class="link" data-entity-1="T" data-entity-2="UC_Create" data-source-line="21" data-uid="lnk14" id="link_T_UC_Create"><path d="M41.87,200.23 C50.5,166.83 67.58,120.16 99.5,92 C114.08,79.15 133.51,71.29 151.98,66.5" fill="none" id="T-UC_Create" style="stroke:#181818;stroke-width:1;"/></g><!--link T to UC_Start--><g class="link" data-entity-1="T" data-entity-2="UC_Start" data-source-line="22" data-uid="lnk15" id="link_T_UC_Start"><path d="M58.32,200.1 C69.25,185.03 83.35,168.92 99.5,158 C117.59,145.78 140.33,137.98 160.43,133.05" fill="none" id="T-UC_Start" style="stroke:#181818;stroke-width:1;"/></g><!--link T to UC_Conduct--><g class="link" data-entity-1="T" data-entity-2="UC_Conduct" data-source-line="23" data-uid="lnk16" id="link_T_UC_Conduct"><path d="M60.5,269.29 C71.65,280.19 85.32,291.87 99.5,300 C117.36,310.25 138.66,317.75 157.73,323.06" fill="none" id="T-UC_Conduct" style="stroke:#181818;stroke-width:1;"/></g><!--link T to UC_Upload--><g class="link" data-entity-1="T" data-entity-2="UC_Upload" data-source-line="24" data-uid="lnk17" id="link_T_UC_Upload"><path d="M60.65,233.32 C84.53,227.34 120.39,218.35 150.93,210.69" fill="none" id="T-UC_Upload" style="stroke:#181818;stroke-width:1;"/></g><!--link T to UC_SetSch--><g class="link" data-entity-1="T" data-entity-2="UC_SetSch" data-source-line="25" data-uid="lnk18" id="link_T_UC_SetSch"><path d="M60.65,244.11 C86.16,248.03 125.34,254.06 157.1,258.94" fill="none" id="T-UC_SetSch" style="stroke:#181818;stroke-width:1;"/></g><!--link T to UC_Rec--><g class="link" data-entity-1="T" data-entity-2="UC_Rec" data-source-line="26" data-uid="lnk19" id="link_T_UC_Rec"><path d="M42.58,279.75 C51.36,309.76 68.3,348.92 99.5,368 C214.38,438.26 384.88,382.03 457.37,352.38" fill="none" id="T-UC_Rec" style="stroke:#181818;stroke-width:1;"/></g><!--link UC_Upload to UC_Valid--><g class="link" data-entity-1="UC_Upload" data-entity-2="UC_Valid" data-source-line="28" data-uid="lnk20" id="link_UC_Upload_UC_Valid"><path d="M257.62,179 C270.97,173.2 285.24,166.1 297.5,158 C312.72,147.96 312.26,140.02 327.5,130 C362.76,106.83 375.76,108.71 414.5,92 C429.81,85.4 441.3273,80.4852 455.5273,74.4552" fill="none" id="UC_Upload-to-UC_Valid" style="stroke:#181818;stroke-width:1;stroke-dasharray:7,7;"/><polygon fill="#181818" points="461.05,72.11,451.2025,71.946,456.4478,74.0643,454.3294,79.3096,461.05,72.11" style="stroke:#181818;stroke-width:1;"/><text fill="#000000" font-family="sans-serif" font-size="13" lengthAdjust="spacing" textLength="55.6563" x="328.5" y="100.4951">&#171;include&#187;</text></g><!--reverse link UC_Upload to UC_Rep--><g class="link" data-entity-1="UC_Upload" data-entity-2="UC_Rep" data-source-line="29" data-uid="lnk21" id="link_UC_Upload_UC_Rep"><path d="M276.8213,180.1672 C326.3513,168.1672 390.44,152.63 438.29,141.02" fill="none" id="UC_Upload-backto-UC_Rep" style="stroke:#181818;stroke-width:1;stroke-dasharray:7,7;"/><polygon fill="#181818" points="270.99,181.58,280.6788,183.3483,275.8494,180.4027,278.7951,175.5733,270.99,181.58" style="stroke:#181818;stroke-width:1;"/><text fill="#000000" font-family="sans-serif" font-size="13" lengthAdjust="spacing" textLength="53.4917" x="329.5" y="152.4951">&#171;extend&#187;</text></g><!--reverse link UC_Conduct to UC_Rec--><g class="link" data-entity-1="UC_Conduct" data-entity-2="UC_Rec" data-source-line="30" data-uid="lnk22" id="link_UC_Conduct_UC_Rec"><path d="M286.4797,334.8045 C328.3297,335.2545 375.71,335.76 418.38,336.22" fill="none" id="UC_Conduct-backto-UC_Rec" style="stroke:#181818;stroke-width:1;stroke-dasharray:7,7;"/><polygon fill="#181818" points="280.48,334.74,289.4365,338.8365,285.4797,334.7938,289.5225,330.837,280.48,334.74" style="stroke:#181818;stroke-width:1;"/><text fill="#000000" font-family="sans-serif" font-size="13" lengthAdjust="spacing" textLength="53.4917" x="329.5" y="332.4951">&#171;extend&#187;</text></g><!--link UC_SetSch to UC_ConfSch--><g class="link" data-entity-1="UC_SetSch" data-entity-2="UC_ConfSch" data-source-line="31" data-uid="lnk23" id="link_UC_SetSch_UC_ConfSch"><path d="M255.33,256.22 C305.87,243.79 382.9536,224.8227 436.0236,211.7727" fill="none" id="UC_SetSch-to-UC_ConfSch" style="stroke:#181818;stroke-width:1;stroke-dasharray:7,7;"/><polygon fill="#181818" points="441.85,210.34,432.1552,208.6048,436.9946,211.5339,434.0655,216.3734,441.85,210.34" style="stroke:#181818;stroke-width:1;"/><text fill="#000000" font-family="sans-serif" font-size="13" lengthAdjust="spacing" textLength="55.6563" x="328.5" y="223.4951">&#171;include&#187;</text></g><!--reverse link UC_SetSch to UC_UpdtSch--><g class="link" data-entity-1="UC_SetSch" data-entity-2="UC_UpdtSch" data-source-line="32" data-uid="lnk24" id="link_UC_SetSch_UC_UpdtSch"><path d="M278.71,267 C322.15,267 374.62,267 420.26,267" fill="none" id="UC_SetSch-backto-UC_UpdtSch" style="stroke:#181818;stroke-width:1;stroke-dasharray:7,7;"/><polygon fill="#181818" points="272.71,267,281.71,271,277.71,267,281.71,263,272.71,267" style="stroke:#181818;stroke-width:1;"/><text fill="#000000" font-family="sans-serif" font-size="13" lengthAdjust="spacing" textLength="53.4917" x="329.5" y="263.4951">&#171;extend&#187;</text></g><!--SRC=[RP4_Ry8m4CLtVufJXcwaEq8i8AOE5H3MwcGVmSBOaUs8LbM_Uvt4TateUE_zV7-U5PqzU0DMjXSFGbhYNXhDt5Ng3YtUe4D-nPOE_aiH33RgLb41k0iASvUwXJCgLph8lR7JGxoJCpTYRDJWICWlP04T71dBNQ5AHkDeiK57he9l1j0xug62QcC9FS4REMTqDRnlDX-JM687ZzRFg55xw6MqwFaSYse9DfqoAE1zktFm0YSfoBY4Jzu_z9wuiIB4aiWWFAn87WxXLj4hoYkI3r99xQbJoEbrIuh2tJlv1mUh94-efC0PCugpcy_Itfuc3_fiTDEDxUPaaCSbVnWxmc9Hv9_AAUXinZnJ7GFBy7HoAeUGMAQWhjVv35Z2QYKrLxsWzRg0LdKTynWH-lIanKIaByu8VqAc1TAacCFph8Z5HZ64nsQ_]--></g></svg>