<svg xmlns="http://www.w3.org/2000/svg" xmlns:xlink="http://www.w3.org/1999/xlink" contentStyleType="text/css" data-diagram-type="ACTIVITY" height="1815px" preserveAspectRatio="none" style="width:1356px;height:1815px;background:#FFFFFF;" version="1.1" viewBox="0 0 1356 1815" width="1356px" zoomAndPan="magnify"><title>Teacher Flows - Architectural Best Practice Version</title><defs/><g><g class="title" data-source-line="1"><text fill="#000000" font-family="sans-serif" font-size="14" font-weight="bold" lengthAdjust="spacing" textLength="343.9023" x="504.5618" y="34.5332">Teacher Flows - Architectural Best Practice Version</text></g><rect fill="none" height="22.6406" style="stroke:none;stroke-width:1;" width="1323.0259" x="15" y="51.0645"/><rect fill="none" height="678.4531" style="stroke:#000000;stroke-width:1.5;" width="365.834" x="37.0718" y="78.7051"/><path d="M243.9536,78.7051 L243.9536,89.3145 L233.9536,99.3145 L37.0718,99.3145" fill="none" style="stroke:#000000;stroke-width:1.5;"/><text fill="#000000" font-family="sans-serif" font-size="14" lengthAdjust="spacing" textLength="196.8818" x="40.0718" y="94.2383">Material Upload &amp; Management</text><ellipse cx="224.1592" cy="119.3145" fill="#222222" rx="10" ry="10" style="stroke:#222222;stroke-width:1;"/><rect fill="#F1F1F1" height="35.0938" rx="12.5" ry="12.5" style="stroke:#181818;stroke-width:0.5;" width="139.3555" x="154.4814" y="149.3145"/><text fill="#000000" font-family="sans-serif" font-size="12" lengthAdjust="spacing" textLength="119.3555" x="164.4814" y="171.7715">Select File (PDF/MP4)</text><rect fill="#F1F1F1" height="35.0938" rx="12.5" ry="12.5" style="stroke:#181818;stroke-width:0.5;" width="162.0605" x="143.1289" y="204.4082"/><text fill="#000000" font-family="sans-serif" font-size="12" lengthAdjust="spacing" textLength="142.0605" x="153.1289" y="226.8652">Check local file constraints</text><rect fill="#F1F1F1" height="35.0938" rx="12.5" ry="12.5" style="stroke:#181818;stroke-width:0.5;" width="161.2578" x="57.0718" y="634.0645"/><text fill="#000000" font-family="sans-serif" font-size="12" lengthAdjust="spacing" textLength="141.2578" x="67.0718" y="656.5215">Show "Upload Successful"</text><rect fill="#F1F1F1" height="35.0938" rx="12.5" ry="12.5" style="stroke:#181818;stroke-width:0.5;" width="144.5762" x="238.3296" y="578.9707"/><text fill="#000000" font-family="sans-serif" font-size="12" lengthAdjust="spacing" textLength="124.5762" x="248.3296" y="601.4277">Show "Validation Error"</text><ellipse cx="224.1592" cy="734.1582" fill="none" rx="11" ry="11" style="stroke:#222222;stroke-width:1;"/><ellipse cx="224.1592" cy="734.1582" fill="#222222" rx="6" ry="6" style="stroke:#222222;stroke-width:1;"/><rect fill="none" height="458.0781" style="stroke:#000000;stroke-width:1.5;" width="379.4922" x="37.249" y="767.1582"/><path d="M191.2344,767.1582 L191.2344,777.7676 L181.2344,787.7676 L37.249,787.7676" fill="none" style="stroke:#000000;stroke-width:1.5;"/><text fill="#000000" font-family="sans-serif" font-size="14" lengthAdjust="spacing" textLength="143.9854" x="40.249" y="782.6914">Schedule Management</text><ellipse cx="224.1592" cy="807.7676" fill="#222222" rx="10" ry="10" style="stroke:#222222;stroke-width:1;"/><rect fill="#F1F1F1" height="35.0938" rx="12.5" ry="12.5" style="stroke:#181818;stroke-width:0.5;" width="158.0645" x="145.127" y="837.7676"/><text fill="#000000" font-family="sans-serif" font-size="12" lengthAdjust="spacing" textLength="138.0645" x="155.127" y="860.2246">Input New Availability Slot</text><rect fill="#F1F1F1" height="35.0938" rx="12.5" ry="12.5" style="stroke:#181818;stroke-width:0.5;" width="141.3828" x="63.5947" y="991.9551"/><text fill="#000000" font-family="sans-serif" font-size="12" lengthAdjust="spacing" textLength="121.3828" x="73.5947" y="1014.4121">Show Conflict Warning</text><rect fill="#F1F1F1" height="35.0938" rx="12.5" ry="12.5" style="stroke:#181818;stroke-width:0.5;" width="154.0742" x="57.249" y="1047.0488"/><text fill="#000000" font-family="sans-serif" font-size="12" lengthAdjust="spacing" textLength="134.0742" x="67.249" y="1069.5059">Suggest Alternative Slots</text><rect fill="#F1F1F1" height="35.0938" rx="12.5" ry="12.5" style="stroke:#181818;stroke-width:0.5;" width="140.0703" x="243.9971" y="1102.1426"/><text fill="#000000" font-family="sans-serif" font-size="12" lengthAdjust="spacing" textLength="120.0703" x="253.9971" y="1124.5996">Update Calendar View</text><ellipse cx="224.1592" cy="1202.2363" fill="none" rx="11" ry="11" style="stroke:#222222;stroke-width:1;"/><ellipse cx="224.1592" cy="1202.2363" fill="#222222" rx="6" ry="6" style="stroke:#222222;stroke-width:1;"/><rect fill="none" height="568.2656" style="stroke:#000000;stroke-width:1.5;" width="407.7412" x="21" y="1235.2363"/><path d="M171.0889,1235.2363 L171.0889,1245.8457 L161.0889,1255.8457 L21,1255.8457" fill="none" style="stroke:#000000;stroke-width:1.5;"/><text fill="#000000" font-family="sans-serif" font-size="14" lengthAdjust="spacing" textLength="140.0889" x="24" y="1250.7695">Live Lesson Execution</text><ellipse cx="224.1592" cy="1275.8457" fill="#222222" rx="10" ry="10" style="stroke:#222222;stroke-width:1;"/><rect fill="#F1F1F1" height="35.0938" rx="12.5" ry="12.5" style="stroke:#181818;stroke-width:0.5;" width="154.5664" x="146.876" y="1305.8457"/><text fill="#000000" font-family="sans-serif" font-size="12" lengthAdjust="spacing" textLength="134.5664" x="156.876" y="1328.3027">Click "Start Live Session"</text><rect fill="#F1F1F1" height="35.0938" rx="12.5" ry="12.5" style="stroke:#181818;stroke-width:0.5;" width="176.0527" x="33" y="1680.4082"/><text fill="#000000" font-family="sans-serif" font-size="12" lengthAdjust="spacing" textLength="156.0527" x="43" y="1702.8652">Redirect to Virtual Classroom</text><rect fill="#F1F1F1" height="35.0938" rx="12.5" ry="12.5" style="stroke:#181818;stroke-width:0.5;" width="171.9102" x="241.3369" y="1460.0332"/><text fill="#000000" font-family="sans-serif" font-size="12" lengthAdjust="spacing" textLength="151.9102" x="251.3369" y="1482.4902">Show "Access Denied" Error</text><ellipse cx="224.1592" cy="1780.502" fill="none" rx="11" ry="11" style="stroke:#222222;stroke-width:1;"/><ellipse cx="224.1592" cy="1780.502" fill="#222222" rx="6" ry="6" style="stroke:#222222;stroke-width:1;"/><line style="stroke:#000000;stroke-width:1.5;" x1="15" x2="15" y1="51.0645" y2="1803.502"/><rect fill="none" height="678.4531" style="stroke:#000000;stroke-width:1.5;" width="365.834" x="467.0972" y="78.7051"/><path d="M673.979,78.7051 L673.979,89.3145 L663.979,99.3145 L467.0972,99.3145" fill="none" style="stroke:#000000;stroke-width:1.5;"/><text fill="#000000" font-family="sans-serif" font-size="14" lengthAdjust="spacing" textLength="196.8818" x="470.0972" y="94.2383">Material Upload &amp; Management</text><rect fill="#F1F1F1" height="35.0938" rx="12.5" ry="12.5" style="stroke:#181818;stroke-width:0.5;" width="160.7598" x="573.8047" y="259.502"/><text fill="#000000" font-family="sans-serif" font-size="12" lengthAdjust="spacing" textLength="140.7598" x="583.8047" y="281.959">Request Upload Signature</text><rect fill="#F1F1F1" height="35.0938" rx="12.5" ry="12.5" style="stroke:#181818;stroke-width:0.5;" width="184.7305" x="561.8193" y="424.7832"/><text fill="#000000" font-family="sans-serif" font-size="12" lengthAdjust="spacing" textLength="164.7305" x="571.8193" y="447.2402">Validate File Integrity &amp; Format</text><polygon fill="#F1F1F1" points="628.5054,479.877,679.8638,479.877,691.8638,491.877,679.8638,503.877,628.5054,503.877,616.5054,491.877,628.5054,479.877" style="stroke:#181818;stroke-width:0.5;"/><text fill="#000000" font-family="sans-serif" font-size="11" lengthAdjust="spacing" textLength="51.3584" x="628.5054" y="496.3779">File Valid?</text><text fill="#000000" font-family="sans-serif" font-size="11" lengthAdjust="spacing" textLength="22.0107" x="594.4946" y="489.46">YES</text><text fill="#000000" font-family="sans-serif" font-size="11" lengthAdjust="spacing" textLength="16.5" x="691.8638" y="489.46">NO</text><rect fill="#F1F1F1" height="35.0938" rx="12.5" ry="12.5" style="stroke:#181818;stroke-width:0.5;" width="143.3867" x="496.0327" y="523.877"/><text fill="#000000" font-family="sans-serif" font-size="12" lengthAdjust="spacing" textLength="123.3867" x="506.0327" y="546.334">Link Material to Course</text><rect fill="#F1F1F1" height="35.0938" rx="12.5" ry="12.5" style="stroke:#181818;stroke-width:0.5;" width="158.0762" x="488.688" y="578.9707"/><text fill="#000000" font-family="sans-serif" font-size="12" lengthAdjust="spacing" textLength="138.0762" x="498.688" y="601.4277">Update Material Metadata</text><polygon fill="#F1F1F1" points="654.1846,679.1582,666.1846,691.1582,654.1846,703.1582,642.1846,691.1582,654.1846,679.1582" style="stroke:#181818;stroke-width:0.5;"/><rect fill="none" height="458.0781" style="stroke:#000000;stroke-width:1.5;" width="377.6567" x="467.2744" y="767.1582"/><path d="M621.2598,767.1582 L621.2598,777.7676 L611.2598,787.7676 L467.2744,787.7676" fill="none" style="stroke:#000000;stroke-width:1.5;"/><text fill="#000000" font-family="sans-serif" font-size="14" lengthAdjust="spacing" textLength="143.9854" x="470.2744" y="782.6914">Schedule Management</text><rect fill="#F1F1F1" height="35.0938" rx="12.5" ry="12.5" style="stroke:#181818;stroke-width:0.5;" width="171.4063" x="568.4814" y="892.8613"/><text fill="#000000" font-family="sans-serif" font-size="12" lengthAdjust="spacing" textLength="151.4063" x="578.4814" y="915.3184">Search for Booking Conflicts</text><polygon fill="#F1F1F1" points="616.5896,947.9551,691.7795,947.9551,703.7795,959.9551,691.7795,971.9551,616.5896,971.9551,604.5896,959.9551,616.5896,947.9551" style="stroke:#181818;stroke-width:0.5;"/><text fill="#000000" font-family="sans-serif" font-size="11" lengthAdjust="spacing" textLength="75.1899" x="616.5896" y="964.4561">Conflict Exists?</text><text fill="#000000" font-family="sans-serif" font-size="11" lengthAdjust="spacing" textLength="22.0107" x="582.5789" y="957.5381">YES</text><text fill="#000000" font-family="sans-serif" font-size="11" lengthAdjust="spacing" textLength="16.5" x="703.7795" y="957.5381">NO</text><rect fill="#F1F1F1" height="35.0938" rx="12.5" ry="12.5" style="stroke:#181818;stroke-width:0.5;" width="165.418" x="661.3486" y="991.9551"/><text fill="#000000" font-family="sans-serif" font-size="12" lengthAdjust="spacing" textLength="145.418" x="671.3486" y="1014.4121">Atomic Update of Schedule</text><rect fill="#F1F1F1" height="35.0938" rx="12.5" ry="12.5" style="stroke:#181818;stroke-width:0.5;" width="148.7363" x="669.6895" y="1047.0488"/><text fill="#000000" font-family="sans-serif" font-size="12" lengthAdjust="spacing" textLength="128.7363" x="679.6895" y="1069.5059">Notify Affected Students</text><polygon fill="#F1F1F1" points="654.1846,1147.2363,666.1846,1159.2363,654.1846,1171.2363,642.1846,1159.2363,654.1846,1147.2363" style="stroke:#181818;stroke-width:0.5;"/><rect fill="none" height="568.2656" style="stroke:#000000;stroke-width:1.5;" width="418.1899" x="438.7412" y="1235.2363"/><path d="M588.8301,1235.2363 L588.8301,1245.8457 L578.8301,1255.8457 L438.7412,1255.8457" fill="none" style="stroke:#000000;stroke-width:1.5;"/><text fill="#000000" font-family="sans-serif" font-size="14" lengthAdjust="spacing" textLength="140.0889" x="441.7412" y="1250.7695">Live Lesson Execution</text><rect fill="#F1F1F1" height="35.0938" rx="12.5" ry="12.5" style="stroke:#181818;stroke-width:0.5;" width="164.75" x="571.8096" y="1360.9395"/><text fill="#000000" font-family="sans-serif" font-size="12" lengthAdjust="spacing" textLength="144.75" x="581.8096" y="1383.3965">Authorize Session Request</text><polygon fill="#F1F1F1" points="619.0254,1416.0332,689.3438,1416.0332,701.3438,1428.0332,689.3438,1440.0332,619.0254,1440.0332,607.0254,1428.0332,619.0254,1416.0332" style="stroke:#181818;stroke-width:0.5;"/><text fill="#000000" font-family="sans-serif" font-size="11" lengthAdjust="spacing" textLength="70.3184" x="619.0254" y="1432.5342">Is Authorized?</text><text fill="#000000" font-family="sans-serif" font-size="11" lengthAdjust="spacing" textLength="22.0107" x="585.0146" y="1425.6162">YES</text><text fill="#000000" font-family="sans-serif" font-size="11" lengthAdjust="spacing" textLength="16.5" x="701.3438" y="1425.6162">NO</text><rect fill="#F1F1F1" height="35.0938" rx="12.5" ry="12.5" style="stroke:#181818;stroke-width:0.5;" width="144.7227" x="478.6904" y="1570.2207"/><text fill="#000000" font-family="sans-serif" font-size="12" lengthAdjust="spacing" textLength="124.7227" x="488.6904" y="1592.6777">Log Session Start Time</text><rect fill="#F1F1F1" height="35.0938" rx="12.5" ry="12.5" style="stroke:#181818;stroke-width:0.5;" width="200.6211" x="450.7412" y="1625.3145"/><text fill="#000000" font-family="sans-serif" font-size="12" lengthAdjust="spacing" textLength="180.6211" x="460.7412" y="1647.7715">Broadcast "Lesson Started" Event</text><polygon fill="#F1F1F1" points="654.1846,1725.502,666.1846,1737.502,654.1846,1749.502,642.1846,1737.502,654.1846,1725.502" style="stroke:#181818;stroke-width:0.5;"/><line style="stroke:#000000;stroke-width:1.5;" x1="432.7412" x2="432.7412" y1="51.0645" y2="1803.502"/><rect fill="none" height="678.4531" style="stroke:#000000;stroke-width:1.5;" width="266.8618" x="866.9312" y="78.7051"/><path d="M1073.813,78.7051 L1073.813,89.3145 L1063.813,99.3145 L866.9312,99.3145" fill="none" style="stroke:#000000;stroke-width:1.5;"/><text fill="#000000" font-family="sans-serif" font-size="14" lengthAdjust="spacing" textLength="196.8818" x="869.9312" y="94.2383">Material Upload &amp; Management</text><rect fill="#F1F1F1" height="35.0938" rx="12.5" ry="12.5" style="stroke:#181818;stroke-width:0.5;" width="200.0938" x="878.9312" y="314.5957"/><text fill="#000000" font-family="sans-serif" font-size="12" lengthAdjust="spacing" textLength="180.0938" x="888.9312" y="337.0527">Upload File to Cloud Storage (S3)</text><rect fill="#F1F1F1" height="35.0938" rx="12.5" ry="12.5" style="stroke:#181818;stroke-width:0.5;" width="106.0273" x="925.9644" y="369.6895"/><text fill="#000000" font-family="sans-serif" font-size="12" lengthAdjust="spacing" textLength="86.0273" x="935.9644" y="392.1465">Return File URL</text><rect fill="#F1F1F1" height="35.0938" rx="12.5" ry="12.5" style="stroke:#181818;stroke-width:0.5;" width="112.7129" x="1009.0801" y="523.877"/><text fill="#000000" font-family="sans-serif" font-size="12" lengthAdjust="spacing" textLength="92.7129" x="1019.0801" y="546.334">Purge Invalid File</text><line style="stroke:#000000;stroke-width:1.5;" x1="860.9312" x2="860.9312" y1="51.0645" y2="1803.502"/><rect fill="none" height="568.2656" style="stroke:#000000;stroke-width:1.5;" width="188.7324" x="1143.793" y="1235.2363"/><path d="M1293.8818,1235.2363 L1293.8818,1245.8457 L1283.8818,1255.8457 L1143.793,1255.8457" fill="none" style="stroke:#000000;stroke-width:1.5;"/><text fill="#000000" font-family="sans-serif" font-size="14" lengthAdjust="spacing" textLength="140.0889" x="1146.793" y="1250.7695">Live Lesson Execution</text><rect fill="#F1F1F1" height="35.0938" rx="12.5" ry="12.5" style="stroke:#181818;stroke-width:0.5;" width="157.3672" x="1159.4756" y="1460.0332"/><text fill="#000000" font-family="sans-serif" font-size="12" lengthAdjust="spacing" textLength="137.3672" x="1169.4756" y="1482.4902">Provision WebRTC Room</text><rect fill="#F1F1F1" height="35.0938" rx="12.5" ry="12.5" style="stroke:#181818;stroke-width:0.5;" width="164.7324" x="1155.793" y="1515.127"/><text fill="#000000" font-family="sans-serif" font-size="12" lengthAdjust="spacing" textLength="144.7324" x="1165.793" y="1537.584">Initialize Recording Service</text><line style="stroke:#000000;stroke-width:1.5;" x1="1137.793" x2="1137.793" y1="51.0645" y2="1803.502"/><line style="stroke:#000000;stroke-width:1.5;" x1="1336.5254" x2="1336.5254" y1="51.0645" y2="1803.502"/><line style="stroke:#181818;stroke-width:1;" x1="224.1592" x2="224.1592" y1="129.3145" y2="149.3145"/><polygon fill="#181818" points="220.1592,139.3145,224.1592,149.3145,228.1592,139.3145,224.1592,143.3145" style="stroke:#181818;stroke-width:1;"/><line style="stroke:#181818;stroke-width:1;" x1="224.1592" x2="224.1592" y1="184.4082" y2="204.4082"/><polygon fill="#181818" points="220.1592,194.4082,224.1592,204.4082,228.1592,194.4082,224.1592,198.4082" style="stroke:#181818;stroke-width:1;"/><line style="stroke:#181818;stroke-width:1;" x1="224.1592" x2="224.1592" y1="817.7676" y2="837.7676"/><polygon fill="#181818" points="220.1592,827.7676,224.1592,837.7676,228.1592,827.7676,224.1592,831.7676" style="stroke:#181818;stroke-width:1;"/><line style="stroke:#181818;stroke-width:1;" x1="134.2861" x2="134.2861" y1="1027.0488" y2="1047.0488"/><polygon fill="#181818" points="130.2861,1037.0488,134.2861,1047.0488,138.2861,1037.0488,134.2861,1041.0488" style="stroke:#181818;stroke-width:1;"/><line style="stroke:#181818;stroke-width:1;" x1="224.1592" x2="224.1592" y1="1285.8457" y2="1305.8457"/><polygon fill="#181818" points="220.1592,1295.8457,224.1592,1305.8457,228.1592,1295.8457,224.1592,1299.8457" style="stroke:#181818;stroke-width:1;"/><line style="stroke:#181818;stroke-width:1;" x1="567.7261" x2="567.7261" y1="558.9707" y2="578.9707"/><polygon fill="#181818" points="563.7261,568.9707,567.7261,578.9707,571.7261,568.9707,567.7261,572.9707" style="stroke:#181818;stroke-width:1;"/><line style="stroke:#181818;stroke-width:1;" x1="616.5054" x2="567.7261" y1="491.877" y2="491.877"/><line style="stroke:#181818;stroke-width:1;" x1="567.7261" x2="567.7261" y1="491.877" y2="523.877"/><polygon fill="#181818" points="563.7261,513.877,567.7261,523.877,571.7261,513.877,567.7261,517.877" style="stroke:#181818;stroke-width:1;"/><line style="stroke:#181818;stroke-width:1;" x1="654.1846" x2="654.1846" y1="459.877" y2="479.877"/><polygon fill="#181818" points="650.1846,469.877,654.1846,479.877,658.1846,469.877,654.1846,473.877" style="stroke:#181818;stroke-width:1;"/><line style="stroke:#181818;stroke-width:1;" x1="744.0576" x2="744.0576" y1="1027.0488" y2="1047.0488"/><polygon fill="#181818" points="740.0576,1037.0488,744.0576,1047.0488,748.0576,1037.0488,744.0576,1041.0488" style="stroke:#181818;stroke-width:1;"/><line style="stroke:#181818;stroke-width:1;" x1="703.7795" x2="744.0576" y1="959.9551" y2="959.9551"/><line style="stroke:#181818;stroke-width:1;" x1="744.0576" x2="744.0576" y1="959.9551" y2="991.9551"/><polygon fill="#181818" points="740.0576,981.9551,744.0576,991.9551,748.0576,981.9551,744.0576,985.9551" style="stroke:#181818;stroke-width:1;"/><line style="stroke:#181818;stroke-width:1;" x1="654.1846" x2="654.1846" y1="927.9551" y2="947.9551"/><polygon fill="#181818" points="650.1846,937.9551,654.1846,947.9551,658.1846,937.9551,654.1846,941.9551" style="stroke:#181818;stroke-width:1;"/><line style="stroke:#181818;stroke-width:1;" x1="551.0518" x2="551.0518" y1="1605.3145" y2="1625.3145"/><polygon fill="#181818" points="547.0518,1615.3145,551.0518,1625.3145,555.0518,1615.3145,551.0518,1619.3145" style="stroke:#181818;stroke-width:1;"/><line style="stroke:#181818;stroke-width:1;" x1="654.1846" x2="654.1846" y1="1396.0332" y2="1416.0332"/><polygon fill="#181818" points="650.1846,1406.0332,654.1846,1416.0332,658.1846,1406.0332,654.1846,1410.0332" style="stroke:#181818;stroke-width:1;"/><line style="stroke:#181818;stroke-width:1;" x1="978.978" x2="978.978" y1="349.6895" y2="369.6895"/><polygon fill="#181818" points="974.978,359.6895,978.978,369.6895,982.978,359.6895,978.978,363.6895" style="stroke:#181818;stroke-width:1;"/><line style="stroke:#181818;stroke-width:1;" x1="1238.1592" x2="1238.1592" y1="1495.127" y2="1515.127"/><polygon fill="#181818" points="1234.1592,1505.127,1238.1592,1515.127,1242.1592,1505.127,1238.1592,1509.127" style="stroke:#181818;stroke-width:1;"/><line style="stroke:#181818;stroke-width:1;" x1="224.1592" x2="224.1592" y1="239.502" y2="244.502"/><line style="stroke:#181818;stroke-width:1;" x1="224.1592" x2="654.1846" y1="244.502" y2="244.502"/><line style="stroke:#181818;stroke-width:1;" x1="654.1846" x2="654.1846" y1="244.502" y2="259.502"/><polygon fill="#181818" points="650.1846,249.502,654.1846,259.502,658.1846,249.502,654.1846,253.502" style="stroke:#181818;stroke-width:1;"/><line style="stroke:#181818;stroke-width:1;" x1="654.1846" x2="654.1846" y1="294.5957" y2="299.5957"/><line style="stroke:#181818;stroke-width:1;" x1="654.1846" x2="978.978" y1="299.5957" y2="299.5957"/><line style="stroke:#181818;stroke-width:1;" x1="978.978" x2="978.978" y1="299.5957" y2="314.5957"/><polygon fill="#181818" points="974.978,304.5957,978.978,314.5957,982.978,304.5957,978.978,308.5957" style="stroke:#181818;stroke-width:1;"/><line style="stroke:#181818;stroke-width:1;" x1="978.978" x2="978.978" y1="404.7832" y2="409.7832"/><line style="stroke:#181818;stroke-width:1;" x1="978.978" x2="654.1846" y1="409.7832" y2="409.7832"/><line style="stroke:#181818;stroke-width:1;" x1="654.1846" x2="654.1846" y1="409.7832" y2="424.7832"/><polygon fill="#181818" points="650.1846,414.7832,654.1846,424.7832,658.1846,414.7832,654.1846,418.7832" style="stroke:#181818;stroke-width:1;"/><line style="stroke:#181818;stroke-width:1;" x1="567.7261" x2="567.7261" y1="614.0645" y2="619.0645"/><line style="stroke:#181818;stroke-width:1;" x1="567.7261" x2="137.7007" y1="619.0645" y2="619.0645"/><line style="stroke:#181818;stroke-width:1;" x1="137.7007" x2="137.7007" y1="619.0645" y2="634.0645"/><polygon fill="#181818" points="133.7007,624.0645,137.7007,634.0645,141.7007,624.0645,137.7007,628.0645" style="stroke:#181818;stroke-width:1;"/><line style="stroke:#181818;stroke-width:1;" x1="1065.4365" x2="1065.4365" y1="558.9707" y2="563.9707"/><line style="stroke:#181818;stroke-width:1;" x1="1065.4365" x2="310.6177" y1="563.9707" y2="563.9707"/><line style="stroke:#181818;stroke-width:1;" x1="310.6177" x2="310.6177" y1="563.9707" y2="578.9707"/><polygon fill="#181818" points="306.6177,568.9707,310.6177,578.9707,314.6177,568.9707,310.6177,572.9707" style="stroke:#181818;stroke-width:1;"/><line style="stroke:#181818;stroke-width:1;" x1="691.8638" x2="1065.4365" y1="491.877" y2="491.877"/><line style="stroke:#181818;stroke-width:1;" x1="1065.4365" x2="1065.4365" y1="491.877" y2="523.877"/><polygon fill="#181818" points="1061.4365,513.877,1065.4365,523.877,1069.4365,513.877,1065.4365,517.877" style="stroke:#181818;stroke-width:1;"/><line style="stroke:#181818;stroke-width:1;" x1="137.7007" x2="137.7007" y1="669.1582" y2="691.1582"/><line style="stroke:#181818;stroke-width:1;" x1="137.7007" x2="642.1846" y1="691.1582" y2="691.1582"/><polygon fill="#181818" points="632.1846,687.1582,642.1846,691.1582,632.1846,695.1582,636.1846,691.1582" style="stroke:#181818;stroke-width:1;"/><line style="stroke:#181818;stroke-width:1;" x1="310.6177" x2="310.6177" y1="614.0645" y2="673.1582"/><line style="stroke:#181818;stroke-width:1;" x1="310.6177" x2="684.1846" y1="673.1582" y2="673.1582"/><line style="stroke:#181818;stroke-width:1;" x1="684.1846" x2="684.1846" y1="673.1582" y2="691.1582"/><line style="stroke:#181818;stroke-width:1;" x1="684.1846" x2="666.1846" y1="691.1582" y2="691.1582"/><polygon fill="#181818" points="676.1846,687.1582,666.1846,691.1582,676.1846,695.1582,672.1846,691.1582" style="stroke:#181818;stroke-width:1;"/><line style="stroke:#181818;stroke-width:1;" x1="654.1846" x2="654.1846" y1="703.1582" y2="708.1582"/><line style="stroke:#181818;stroke-width:1;" x1="654.1846" x2="224.1592" y1="708.1582" y2="708.1582"/><line style="stroke:#181818;stroke-width:1;" x1="224.1592" x2="224.1592" y1="708.1582" y2="723.1582"/><polygon fill="#181818" points="220.1592,713.1582,224.1592,723.1582,228.1592,713.1582,224.1592,717.1582" style="stroke:#181818;stroke-width:1;"/><line style="stroke:#181818;stroke-width:1;" x1="224.1592" x2="224.1592" y1="872.8613" y2="877.8613"/><line style="stroke:#181818;stroke-width:1;" x1="224.1592" x2="654.1846" y1="877.8613" y2="877.8613"/><line style="stroke:#181818;stroke-width:1;" x1="654.1846" x2="654.1846" y1="877.8613" y2="892.8613"/><polygon fill="#181818" points="650.1846,882.8613,654.1846,892.8613,658.1846,882.8613,654.1846,886.8613" style="stroke:#181818;stroke-width:1;"/><line style="stroke:#181818;stroke-width:1;" x1="744.0576" x2="744.0576" y1="1082.1426" y2="1087.1426"/><line style="stroke:#181818;stroke-width:1;" x1="744.0576" x2="314.0322" y1="1087.1426" y2="1087.1426"/><line style="stroke:#181818;stroke-width:1;" x1="314.0322" x2="314.0322" y1="1087.1426" y2="1102.1426"/><polygon fill="#181818" points="310.0322,1092.1426,314.0322,1102.1426,318.0322,1092.1426,314.0322,1096.1426" style="stroke:#181818;stroke-width:1;"/><line style="stroke:#181818;stroke-width:1;" x1="604.5896" x2="134.2861" y1="959.9551" y2="959.9551"/><line style="stroke:#181818;stroke-width:1;" x1="134.2861" x2="134.2861" y1="959.9551" y2="991.9551"/><polygon fill="#181818" points="130.2861,981.9551,134.2861,991.9551,138.2861,981.9551,134.2861,985.9551" style="stroke:#181818;stroke-width:1;"/><line style="stroke:#181818;stroke-width:1;" x1="134.2861" x2="134.2861" y1="1082.1426" y2="1159.2363"/><line style="stroke:#181818;stroke-width:1;" x1="134.2861" x2="642.1846" y1="1159.2363" y2="1159.2363"/><polygon fill="#181818" points="632.1846,1155.2363,642.1846,1159.2363,632.1846,1163.2363,636.1846,1159.2363" style="stroke:#181818;stroke-width:1;"/><line style="stroke:#181818;stroke-width:1;" x1="314.0322" x2="314.0322" y1="1137.2363" y2="1141.2363"/><line style="stroke:#181818;stroke-width:1;" x1="314.0322" x2="684.1846" y1="1141.2363" y2="1141.2363"/><line style="stroke:#181818;stroke-width:1;" x1="684.1846" x2="684.1846" y1="1141.2363" y2="1159.2363"/><line style="stroke:#181818;stroke-width:1;" x1="684.1846" x2="666.1846" y1="1159.2363" y2="1159.2363"/><polygon fill="#181818" points="676.1846,1155.2363,666.1846,1159.2363,676.1846,1163.2363,672.1846,1159.2363" style="stroke:#181818;stroke-width:1;"/><line style="stroke:#181818;stroke-width:1;" x1="654.1846" x2="654.1846" y1="1171.2363" y2="1176.2363"/><line style="stroke:#181818;stroke-width:1;" x1="654.1846" x2="224.1592" y1="1176.2363" y2="1176.2363"/><line style="stroke:#181818;stroke-width:1;" x1="224.1592" x2="224.1592" y1="1176.2363" y2="1191.2363"/><polygon fill="#181818" points="220.1592,1181.2363,224.1592,1191.2363,228.1592,1181.2363,224.1592,1185.2363" style="stroke:#181818;stroke-width:1;"/><line style="stroke:#181818;stroke-width:1;" x1="224.1592" x2="224.1592" y1="1340.9395" y2="1345.9395"/><line style="stroke:#181818;stroke-width:1;" x1="224.1592" x2="654.1846" y1="1345.9395" y2="1345.9395"/><line style="stroke:#181818;stroke-width:1;" x1="654.1846" x2="654.1846" y1="1345.9395" y2="1360.9395"/><polygon fill="#181818" points="650.1846,1350.9395,654.1846,1360.9395,658.1846,1350.9395,654.1846,1354.9395" style="stroke:#181818;stroke-width:1;"/><line style="stroke:#181818;stroke-width:1;" x1="1238.1592" x2="1238.1592" y1="1550.2207" y2="1555.2207"/><line style="stroke:#181818;stroke-width:1;" x1="1238.1592" x2="551.0518" y1="1555.2207" y2="1555.2207"/><line style="stroke:#181818;stroke-width:1;" x1="551.0518" x2="551.0518" y1="1555.2207" y2="1570.2207"/><polygon fill="#181818" points="547.0518,1560.2207,551.0518,1570.2207,555.0518,1560.2207,551.0518,1564.2207" style="stroke:#181818;stroke-width:1;"/><line style="stroke:#181818;stroke-width:1;" x1="551.0518" x2="551.0518" y1="1660.4082" y2="1665.4082"/><line style="stroke:#181818;stroke-width:1;" x1="551.0518" x2="121.0264" y1="1665.4082" y2="1665.4082"/><line style="stroke:#181818;stroke-width:1;" x1="121.0264" x2="121.0264" y1="1665.4082" y2="1680.4082"/><polygon fill="#181818" points="117.0264,1670.4082,121.0264,1680.4082,125.0264,1670.4082,121.0264,1674.4082" style="stroke:#181818;stroke-width:1;"/><line style="stroke:#181818;stroke-width:1;" x1="607.0254" x2="595.0254" y1="1428.0332" y2="1428.0332"/><line style="stroke:#181818;stroke-width:1;" x1="595.0254" x2="595.0254" y1="1428.0332" y2="1446.0332"/><line style="stroke:#181818;stroke-width:1;" x1="595.0254" x2="1238.1592" y1="1446.0332" y2="1446.0332"/><line style="stroke:#181818;stroke-width:1;" x1="1238.1592" x2="1238.1592" y1="1446.0332" y2="1460.0332"/><polygon fill="#181818" points="1234.1592,1450.0332,1238.1592,1460.0332,1242.1592,1450.0332,1238.1592,1454.0332" style="stroke:#181818;stroke-width:1;"/><line style="stroke:#181818;stroke-width:1;" x1="701.3438" x2="713.3438" y1="1428.0332" y2="1428.0332"/><line style="stroke:#181818;stroke-width:1;" x1="713.3438" x2="713.3438" y1="1428.0332" y2="1446.0332"/><line style="stroke:#181818;stroke-width:1;" x1="713.3438" x2="327.292" y1="1446.0332" y2="1446.0332"/><line style="stroke:#181818;stroke-width:1;" x1="327.292" x2="327.292" y1="1446.0332" y2="1460.0332"/><polygon fill="#181818" points="323.292,1450.0332,327.292,1460.0332,331.292,1450.0332,327.292,1454.0332" style="stroke:#181818;stroke-width:1;"/><line style="stroke:#181818;stroke-width:1;" x1="121.0264" x2="121.0264" y1="1715.502" y2="1737.502"/><line style="stroke:#181818;stroke-width:1;" x1="121.0264" x2="642.1846" y1="1737.502" y2="1737.502"/><polygon fill="#181818" points="632.1846,1733.502,642.1846,1737.502,632.1846,1741.502,636.1846,1737.502" style="stroke:#181818;stroke-width:1;"/><line style="stroke:#181818;stroke-width:1;" x1="327.292" x2="327.292" y1="1495.127" y2="1719.502"/><line style="stroke:#181818;stroke-width:1;" x1="327.292" x2="684.1846" y1="1719.502" y2="1719.502"/><line style="stroke:#181818;stroke-width:1;" x1="684.1846" x2="684.1846" y1="1719.502" y2="1737.502"/><line style="stroke:#181818;stroke-width:1;" x1="684.1846" x2="666.1846" y1="1737.502" y2="1737.502"/><polygon fill="#181818" points="676.1846,1733.502,666.1846,1737.502,676.1846,1741.502,672.1846,1737.502" style="stroke:#181818;stroke-width:1;"/><line style="stroke:#181818;stroke-width:1;" x1="654.1846" x2="654.1846" y1="1749.502" y2="1754.502"/><line style="stroke:#181818;stroke-width:1;" x1="654.1846" x2="224.1592" y1="1754.502" y2="1754.502"/><line style="stroke:#181818;stroke-width:1;" x1="224.1592" x2="224.1592" y1="1754.502" y2="1769.502"/><polygon fill="#181818" points="220.1592,1759.502,224.1592,1769.502,228.1592,1759.502,224.1592,1763.502" style="stroke:#181818;stroke-width:1;"/><text fill="#000000" font-family="sans-serif" font-size="18" lengthAdjust="spacing" textLength="171.0791" x="138.3311" y="69.75">Teacher (Dashboard)</text><text fill="#000000" font-family="sans-serif" font-size="18" lengthAdjust="spacing" textLength="185.0449" x="554.3137" y="69.75">LMS Core (API Server)</text><text fill="#000000" font-family="sans-serif" font-size="18" lengthAdjust="spacing" textLength="200.0918" x="899.3162" y="69.75">External (Storage/Media)</text><text fill="#000000" font-family="sans-serif" font-size="18" lengthAdjust="spacing" textLength="183.085" x="1145.6167" y="69.75">External (Media/Video)</text><!--SRC=[dLLDZzem4BtpAqOSMlQ0zj2UkeSg6uAA53wK0AiUlSaaM1YRsWxijjl_th7piLI2BLjEo9vvdlVcpSHoAn2MoB8DQXWBTJGmX41d6sunivLc0kxHM5XebbcU8QnH6wvah_VIPWr6p6mU5TFvpKll9Pwc42gDC0WM4qXH7r2xy-Z9efO4DqYjqgp4sodcdD5LxoCCXqDOBU9vC89fi8oIIH33E9u_k8lUdcdBBRq9_IaZ44uWgxrGB8SFC6MIi7OeRHz-zO1-v-joDyOIal_t9KL1z63CYVrWCHhVJXUVR-xgkt23sHQ4okYTmWLaIXgh6PVMr26NIFhq17zKJh6cn9INaf6GsAHUri5dDrc-CAiW5AeYZ3gIKZwrHIP8cBAEMoNn5NMjcU0vwLVdJAJ5KdFxJ1gEbTunMqFm0WO-m8T_lG6xGGc3xr5wu-yzLCpb5hfUk39LfKt3iA7Xd-fYfcWPdR3NaCjjgXkqKKVejnfMMOR659Nerm0e376SpLzh-eUk7dDHwT8nFpXgNePtbjD8wAmOQQrqMutCUT4uJErxlrj79r4QVej6gpWwQ-QKtiihWV_huOdSLnPcU8JWmBXWZrouVgP2sIlia2AZAOT2QRXNQijbIQ6o43nhNUwiq1v1zCIDDUVzS8rs7T03qv8UE_5AMfMb6vX0-0vQVa1FmbpizHkyF69WrOvdq9XG5T1AVVBgJ5bUF4DG5BG8qCrObMCtuLVGQj139gZ_JCEQu_5jFuJpsMWLBY6EqdG-E-k9s96FoUlEOa-OLUxuNQu8IUKjcSkTW8TB2SwXN66AeB8RfVdFBWcQRVRgY8c1Bkh2VZYPHJ-3jskUe_fh4hKwS8__W8_9CeH4gTr9SoQIzA1Xeq8Ip9JEdJrTgVG5khlU1x4gEoAr84k-EpN1lQRraZ4oNxyHtOTXteVeG6wusWm9yTJkYqBBSCsrhOXyA9WnkYDsniVNx9p0hpuOeUI-BBTtBjZi3m00]--></g></svg>