<svg xmlns="http://www.w3.org/2000/svg" xmlns:xlink="http://www.w3.org/1999/xlink" contentStyleType="text/css" data-diagram-type="DESCRIPTION" height="1119px" preserveAspectRatio="none" style="width:894px;height:1119px;background:#FFFFFF;" version="1.1" viewBox="0 0 894 1119" width="894px" zoomAndPan="magnify"><title>EduFlow Use Case Diagram - Legacy Version (Visual Match)</title><defs/><g><g class="title" data-source-line="1"><text fill="#000000" font-family="sans-serif" font-size="14" font-weight="bold" lengthAdjust="spacing" textLength="399.8887" x="240.0557" y="24.5332">EduFlow Use Case Diagram - Legacy Version (Visual Match)</text></g><!--cluster E-Learning System--><g class="cluster" data-entity="E-Learning System" data-source-line="11" data-uid="ent0006" id="cluster_E-Learning System"><rect fill="none" height="857" rx="2.5" ry="2.5" style="stroke:#181818;stroke-width:1;" width="784" x="104" y="45.6094"/><text fill="#000000" font-family="sans-serif" font-size="14" font-weight="bold" lengthAdjust="spacing" textLength="126.8135" x="432.5933" y="62.1426">E-Learning System</text></g><!--entity UC_Sub--><g class="entity" data-entity="UC_Sub" data-source-line="13" data-uid="ent0007" id="entity_UC_Sub"><ellipse cx="221.8078" cy="164.3709" fill="#F1F1F1" rx="81.8078" ry="18.7616" style="stroke:#181818;stroke-width:0.5;"/><text fill="#000000" font-family="sans-serif" font-size="14" lengthAdjust="spacing" textLength="130.7305" x="156.4426" y="169.6756">Subscribe to courses</text></g><!--entity UC_Pay--><g class="entity" data-entity="UC_Pay" data-source-line="14" data-uid="ent0008" id="entity_UC_Pay"><ellipse cx="519.6772" cy="97.8448" fill="#F1F1F1" rx="69.1772" ry="16.2354" style="stroke:#181818;stroke-width:0.5;"/><text fill="#000000" font-family="sans-serif" font-size="14" lengthAdjust="spacing" textLength="98.8203" x="470.2671" y="103.1495">make payments</text></g><!--entity UC_Proc--><g class="entity" data-entity="UC_Proc" data-source-line="15" data-uid="ent0009" id="entity_UC_Proc"><ellipse cx="793.6101" cy="597.7314" fill="#F1F1F1" rx="78.6101" ry="18.122" style="stroke:#181818;stroke-width:0.5;"/><text fill="#000000" font-family="sans-serif" font-size="14" lengthAdjust="spacing" textLength="122.9443" x="732.138" y="603.0361">Process transaction</text></g><!--entity UC_Slot--><g class="entity" data-entity="UC_Slot" data-source-line="16" data-uid="ent0010" id="entity_UC_Slot"><ellipse cx="519.5775" cy="164.5611" fill="#F1F1F1" rx="53.0775" ry="15.4517" style="stroke:#181818;stroke-width:0.5;"/><text fill="#000000" font-family="sans-serif" font-size="14" lengthAdjust="spacing" textLength="70.8203" x="484.1674" y="169.8658">choose slot</text></g><!--entity UC_Disc--><g class="entity" data-entity="UC_Disc" data-source-line="17" data-uid="ent0011" id="entity_UC_Disc"><ellipse cx="793.6714" cy="99.4437" fill="#F1F1F1" rx="67.1714" ry="15.8343" style="stroke:#181818;stroke-width:0.5;"/><text fill="#000000" font-family="sans-serif" font-size="14" lengthAdjust="spacing" textLength="93.3789" x="746.9819" y="104.7483">Apply Discount</text></g><!--entity UC_Attend--><g class="entity" data-entity="UC_Attend" data-source-line="18" data-uid="ent0012" id="entity_UC_Attend"><ellipse cx="222.1116" cy="236.8317" fill="#F1F1F1" rx="66.6116" ry="15.7223" style="stroke:#181818;stroke-width:0.5;"/><text fill="#000000" font-family="sans-serif" font-size="14" lengthAdjust="spacing" textLength="91.834" x="176.1946" y="242.1364">Attend lessons</text></g><!--entity UC_Report--><g class="entity" data-entity="UC_Report" data-source-line="19" data-uid="ent0013" id="entity_UC_Report"><ellipse cx="519.3868" cy="231.7867" fill="#F1F1F1" rx="68.8868" ry="16.1774" style="stroke:#181818;stroke-width:0.5;"/><text fill="#000000" font-family="sans-serif" font-size="14" lengthAdjust="spacing" textLength="98.041" x="470.3663" y="237.0914">Report Problem</text></g><!--entity UC_Login--><g class="entity" data-entity="UC_Login" data-source-line="20" data-uid="ent0014" id="entity_UC_Login"><ellipse cx="221.9156" cy="307.5611" fill="#F1F1F1" rx="23.9156" ry="15.4517" style="stroke:#181818;stroke-width:0.5;"/><text fill="#000000" font-family="sans-serif" font-size="14" lengthAdjust="spacing" textLength="29.5791" x="207.126" y="312.8658">login</text></g><!--entity UC_Auth--><g class="entity" data-entity="UC_Auth" data-source-line="21" data-uid="ent0015" id="entity_UC_Auth"><ellipse cx="519.4507" cy="736.7995" fill="#F1F1F1" rx="73.9507" ry="17.1901" style="stroke:#181818;stroke-width:0.5;"/><text fill="#000000" font-family="sans-serif" font-size="14" lengthAdjust="spacing" textLength="111.2822" x="463.8095" y="742.1042">Authenticate User</text></g><!--entity UC_Reset--><g class="entity" data-entity="UC_Reset" data-source-line="22" data-uid="ent0016" id="entity_UC_Reset"><ellipse cx="519.3463" cy="299.5786" fill="#F1F1F1" rx="70.3463" ry="16.4693" style="stroke:#181818;stroke-width:0.5;"/><text fill="#000000" font-family="sans-serif" font-size="14" lengthAdjust="spacing" textLength="101.9307" x="468.381" y="304.8833">Reset Password</text></g><!--entity UC_Create--><g class="entity" data-entity="UC_Create" data-source-line="23" data-uid="ent0017" id="entity_UC_Create"><ellipse cx="221.8141" cy="526.6722" fill="#F1F1F1" rx="68.3141" ry="16.0628" style="stroke:#181818;stroke-width:0.5;"/><text fill="#000000" font-family="sans-serif" font-size="14" lengthAdjust="spacing" textLength="96.4961" x="173.5661" y="531.9769">Create Account</text></g><!--entity UC_Verify--><g class="entity" data-entity="UC_Verify" data-source-line="24" data-uid="ent0018" id="entity_UC_Verify"><ellipse cx="519.3046" cy="804.5611" fill="#F1F1F1" rx="28.3046" ry="15.4517" style="stroke:#181818;stroke-width:0.5;"/><text fill="#000000" font-family="sans-serif" font-size="14" lengthAdjust="spacing" textLength="35.7861" x="501.4116" y="809.8658">Verfiy</text></g><!--entity UC_Resched--><g class="entity" data-entity="UC_Resched" data-source-line="25" data-uid="ent0019" id="entity_UC_Resched"><ellipse cx="222.1212" cy="457.7336" fill="#F1F1F1" rx="78.6212" ry="18.1242" style="stroke:#181818;stroke-width:0.5;"/><text fill="#000000" font-family="sans-serif" font-size="14" lengthAdjust="spacing" textLength="122.9717" x="160.6354" y="463.0383">Reschedule Lesson</text></g><!--entity UC_Check--><g class="entity" data-entity="UC_Check" data-source-line="26" data-uid="ent0020" id="entity_UC_Check"><ellipse cx="519.3359" cy="525.6765" fill="#F1F1F1" rx="73.3359" ry="17.0672" style="stroke:#181818;stroke-width:0.5;"/><text fill="#000000" font-family="sans-serif" font-size="14" lengthAdjust="spacing" textLength="109.71" x="464.4809" y="530.9812">Check Availability</text></g><!--entity UC_Note--><g class="entity" data-entity="UC_Note" data-source-line="27" data-uid="ent0021" id="entity_UC_Note"><ellipse cx="793.3377" cy="783.3769" fill="#F1F1F1" rx="71.8377" ry="16.7675" style="stroke:#181818;stroke-width:0.5;"/><text fill="#000000" font-family="sans-serif" font-size="14" lengthAdjust="spacing" textLength="105.8408" x="740.4173" y="788.6816">Send Notification</text></g><!--entity UC_SetSched--><g class="entity" data-entity="UC_SetSched" data-source-line="28" data-uid="ent0022" id="entity_UC_SetSched"><ellipse cx="221.8894" cy="388.5611" fill="#F1F1F1" rx="61.8894" ry="15.4517" style="stroke:#181818;stroke-width:0.5;"/><text fill="#000000" font-family="sans-serif" font-size="14" lengthAdjust="spacing" textLength="83.2822" x="180.2483" y="393.8658">Set Schedule</text></g><!--entity UC_ConfSched--><g class="entity" data-entity="UC_ConfSched" data-source-line="29" data-uid="ent0023" id="entity_UC_ConfSched"><ellipse cx="793.7351" cy="412.5564" fill="#F1F1F1" rx="72.7351" ry="16.947" style="stroke:#181818;stroke-width:0.5;"/><text fill="#000000" font-family="sans-serif" font-size="14" lengthAdjust="spacing" textLength="108.165" x="739.6526" y="417.8611">confirm Schedule</text></g><!--entity UC_UpdtSched--><g class="entity" data-entity="UC_UpdtSched" data-source-line="30" data-uid="ent0024" id="entity_UC_UpdtSched"><ellipse cx="519.5439" cy="456.8181" fill="#F1F1F1" rx="71.5439" ry="16.7088" style="stroke:#181818;stroke-width:0.5;"/><text fill="#000000" font-family="sans-serif" font-size="14" lengthAdjust="spacing" textLength="105.0752" x="467.0063" y="462.1228">Update schedule</text></g><!--entity UC_Init--><g class="entity" data-entity="UC_Init" data-source-line="31" data-uid="ent0025" id="entity_UC_Init"><ellipse cx="222.0538" cy="593.7201" fill="#F1F1F1" rx="66.0538" ry="15.6108" style="stroke:#181818;stroke-width:0.5;"/><text fill="#000000" font-family="sans-serif" font-size="14" lengthAdjust="spacing" textLength="90.2822" x="176.9127" y="599.0248">Initiate Lesson</text></g><!--entity UC_Rec--><g class="entity" data-entity="UC_Rec" data-source-line="32" data-uid="ent0026" id="entity_UC_Rec"><ellipse cx="519.2593" cy="595.3612" fill="#F1F1F1" rx="74.2593" ry="17.2519" style="stroke:#181818;stroke-width:0.5;"/><text fill="#000000" font-family="sans-serif" font-size="14" lengthAdjust="spacing" textLength="112.0684" x="463.2252" y="600.6659">Upload Recording</text></g><!--entity UC_Upload--><g class="entity" data-entity="UC_Upload" data-source-line="33" data-uid="ent0027" id="entity_UC_Upload"><ellipse cx="222.0422" cy="667.4178" fill="#F1F1F1" rx="87.0422" ry="19.8084" style="stroke:#181818;stroke-width:0.5;"/><text fill="#000000" font-family="sans-serif" font-size="14" lengthAdjust="spacing" textLength="143.1787" x="150.4529" y="672.7225">Upload PDFs &amp; Videos</text></g><!--entity UC_Val--><g class="entity" data-entity="UC_Val" data-source-line="34" data-uid="ent0028" id="entity_UC_Val"><ellipse cx="519.4762" cy="870.5611" fill="#F1F1F1" rx="57.4762" ry="15.4517" style="stroke:#181818;stroke-width:0.5;"/><text fill="#000000" font-family="sans-serif" font-size="14" lengthAdjust="spacing" textLength="77.041" x="480.9557" y="875.8658">Validate File</text></g><!--entity UC_Del--><g class="entity" data-entity="UC_Del" data-source-line="35" data-uid="ent0029" id="entity_UC_Del"><ellipse cx="519.2964" cy="666.6687" fill="#F1F1F1" rx="78.2964" ry="18.0593" style="stroke:#181818;stroke-width:0.5;"/><text fill="#000000" font-family="sans-serif" font-size="14" lengthAdjust="spacing" textLength="122.1719" x="458.2105" y="671.9734">Replace/Delete File</text></g><!--entity UC_Monitor--><g class="entity" data-entity="UC_Monitor" data-source-line="36" data-uid="ent0030" id="entity_UC_Monitor"><ellipse cx="222.0207" cy="745.4135" fill="#F1F1F1" rx="102.0207" ry="22.8041" style="stroke:#181818;stroke-width:0.5;"/><text fill="#000000" font-family="sans-serif" font-size="14" lengthAdjust="spacing" textLength="177.3926" x="133.3244" y="750.7182">monitor system performance</text></g><!--entity UC_Support--><g class="entity" data-entity="UC_Support" data-source-line="37" data-uid="ent0031" id="entity_UC_Support"><ellipse cx="221.9125" cy="824.4919" fill="#F1F1F1" rx="92.4125" ry="20.8825" style="stroke:#181818;stroke-width:0.5;"/><text fill="#000000" font-family="sans-serif" font-size="14" lengthAdjust="spacing" textLength="155.6475" x="144.0888" y="829.7966">provide technical support</text></g><!--entity Student--><g class="entity" data-entity="Student" data-source-line="6" data-uid="ent0002" id="entity_Student"><ellipse cx="31.6309" cy="277.1094" fill="#F1F1F1" rx="8" ry="8" style="stroke:#181818;stroke-width:0.5;"/><path d="M31.6309,285.1094 L31.6309,312.1094 M18.6309,293.1094 L44.6309,293.1094 M31.6309,312.1094 L18.6309,327.1094 M31.6309,312.1094 L44.6309,327.1094" fill="none" style="stroke:#181818;stroke-width:0.5;"/><text fill="#000000" font-family="sans-serif" font-size="14" lengthAdjust="spacing" textLength="48.2617" x="7.5" y="343.1426">Student</text></g><!--entity Teacher--><g class="entity" data-entity="Teacher" data-source-line="7" data-uid="ent0003" id="entity_Teacher"><ellipse cx="31.6792" cy="486.1094" fill="#F1F1F1" rx="8" ry="8" style="stroke:#181818;stroke-width:0.5;"/><path d="M31.6792,494.1094 L31.6792,521.1094 M18.6792,502.1094 L44.6792,502.1094 M31.6792,521.1094 L18.6792,536.1094 M31.6792,521.1094 L44.6792,536.1094" fill="none" style="stroke:#181818;stroke-width:0.5;"/><text fill="#000000" font-family="sans-serif" font-size="14" lengthAdjust="spacing" textLength="51.3584" x="6" y="552.1426">Teacher</text></g><!--entity Admin--><g class="entity" data-entity="Admin" data-source-line="8" data-uid="ent0004" id="entity_Admin"><ellipse cx="31.3413" cy="868.1094" fill="#F1F1F1" rx="8" ry="8" style="stroke:#181818;stroke-width:0.5;"/><path d="M31.3413,876.1094 L31.3413,903.1094 M18.3413,884.1094 L44.3413,884.1094 M31.3413,903.1094 L18.3413,918.1094 M31.3413,903.1094 L44.3413,918.1094" fill="none" style="stroke:#181818;stroke-width:0.5;"/><text fill="#000000" font-family="sans-serif" font-size="14" lengthAdjust="spacing" textLength="39.6826" x="11.5" y="934.1426">Admin</text></g><!--entity Bank--><g class="entity" data-entity="Bank" data-source-line="9" data-uid="ent0005" id="entity_Bank"><ellipse cx="519.4551" cy="930.1094" fill="#F1F1F1" rx="8" ry="8" style="stroke:#181818;stroke-width:0.5;"/><path d="M519.4551,938.1094 L519.4551,965.1094 M506.4551,946.1094 L532.4551,946.1094 M519.4551,965.1094 L506.4551,980.1094 M519.4551,965.1094 L532.4551,980.1094" fill="none" style="stroke:#181818;stroke-width:0.5;"/><text fill="#000000" font-family="sans-serif" font-size="14" lengthAdjust="spacing" textLength="31.9102" x="503.5" y="996.1426">Bank</text></g><!--link Student to UC_Sub--><g class="link" data-entity-1="Student" data-entity-2="UC_Sub" data-source-line="41" data-uid="lnk32" id="link_Student_UC_Sub"><path d="M48.11,268.3594 C58.65,246.4694 74.57,220.3394 96,203.6094 C113.03,190.3294 134.63,181.5294 155.07,175.7294" fill="none" id="Student-UC_Sub" style="stroke:#181818;stroke-width:1;"/></g><!--link Student to UC_Attend--><g class="link" data-entity-1="Student" data-entity-2="UC_Attend" data-source-line="42" data-uid="lnk33" id="link_Student_UC_Attend"><path d="M55.53,294.3394 C67.38,287.8494 82.19,280.2394 96,274.6094 C122.15,263.9494 152.43,254.6694 176.64,247.9494" fill="none" id="Student-UC_Attend" style="stroke:#181818;stroke-width:1;"/></g><!--link Student to UC_Login--><g class="link" data-entity-1="Student" data-entity-2="UC_Login" data-source-line="43" data-uid="lnk34" id="link_Student_UC_Login"><path d="M55.61,307.6094 C91.89,307.6094 161.78,307.6094 197.99,307.6094" fill="none" id="Student-UC_Login" style="stroke:#181818;stroke-width:1;"/></g><!--link Student to UC_Create--><g class="link" data-entity-1="Student" data-entity-2="UC_Create" data-source-line="44" data-uid="lnk35" id="link_Student_UC_Create"><path d="M35.42,346.9794 C40.64,388.9194 55.24,454.4194 96,492.6094 C112.49,508.0694 135.3,516.6294 156.92,521.3294" fill="none" id="Student-UC_Create" style="stroke:#181818;stroke-width:1;"/></g><!--link Student to UC_Resched--><g class="link" data-entity-1="Student" data-entity-2="UC_Resched" data-source-line="45" data-uid="lnk36" id="link_Student_UC_Resched"><path d="M45.38,346.6394 C55.46,371.4694 71.88,402.4494 96,421.6094 C112.62,434.8194 133.89,443.1794 154.15,448.4794" fill="none" id="Student-UC_Resched" style="stroke:#181818;stroke-width:1;"/></g><!--link Teacher to UC_SetSched--><g class="link" data-entity-1="Teacher" data-entity-2="UC_SetSched" data-source-line="47" data-uid="lnk37" id="link_Teacher_UC_SetSched"><path d="M50.29,477.3294 C60.95,457.9094 76.3,435.6694 96,421.6094 C116.01,407.3394 141.77,399.2394 164.7,394.6394" fill="none" id="Teacher-UC_SetSched" style="stroke:#181818;stroke-width:1;"/></g><!--link Teacher to UC_Init--><g class="link" data-entity-1="Teacher" data-entity-2="UC_Init" data-source-line="48" data-uid="lnk38" id="link_Teacher_UC_Init"><path d="M57.01,535.9994 C68.35,544.2194 82.33,553.3394 96,559.6094 C119.5,570.4094 147.12,578.3594 170.4,583.8494" fill="none" id="Teacher-UC_Init" style="stroke:#181818;stroke-width:1;"/></g><!--link Teacher to UC_Upload--><g class="link" data-entity-1="Teacher" data-entity-2="UC_Upload" data-source-line="49" data-uid="lnk39" id="link_Teacher_UC_Upload"><path d="M46.74,555.8594 C57.11,579.3794 73.32,608.1994 96,626.6094 C112.49,640.0094 133.49,649.0794 153.56,655.1994" fill="none" id="Teacher-UC_Upload" style="stroke:#181818;stroke-width:1;"/></g><!--link Teacher to UC_Resched--><g class="link" data-entity-1="Teacher" data-entity-2="UC_Resched" data-source-line="50" data-uid="lnk40" id="link_Teacher_UC_Resched"><path d="M57.05,506.7594 C68.76,502.2094 83.01,496.8794 96,492.6094 C119.87,484.7794 146.66,477.1294 169.3,470.9894" fill="none" id="Teacher-UC_Resched" style="stroke:#181818;stroke-width:1;"/></g><!--link Bank to UC_Proc--><g class="link" data-entity-1="Bank" data-entity-2="UC_Proc" data-source-line="52" data-uid="lnk41" id="link_Bank_UC_Proc"><path d="M535.77,951.5394 C552.4,941.1594 579.14,922.9394 598,902.6094 C686.85,806.8594 759.72,665.3594 783.92,615.6594" fill="none" id="Bank-UC_Proc" style="stroke:#181818;stroke-width:1;"/></g><!--link Admin to UC_Verify--><g class="link" data-entity-1="Admin" data-entity-2="UC_Verify" data-source-line="54" data-uid="lnk42" id="link_Admin_UC_Verify"><path d="M51.91,910.4794 C61.99,915.9494 74.73,921.8394 87,924.6094 C227.45,956.3994 293.75,1008.2094 411,924.6094 C444.3,900.8694 413.12,867.5394 441,837.6094 C454.66,822.9594 475.89,814.5394 492.68,809.8794" fill="none" id="Admin-UC_Verify" style="stroke:#181818;stroke-width:1;"/></g><!--link Admin to UC_Auth--><g class="link" data-entity-1="Admin" data-entity-2="UC_Auth" data-source-line="55" data-uid="lnk43" id="link_Admin_UC_Auth"><path d="M51.5,898.8894 C98.87,899.0294 225.47,895.9794 324,862.6094 C366.45,848.2394 377.56,841.4594 411,811.6094 C427.58,796.8194 423.66,785.5094 441,771.6094 C451.71,763.0294 464.87,756.0594 477.28,750.6694" fill="none" id="Admin-UC_Auth" style="stroke:#181818;stroke-width:1;"/></g><!--link Admin to UC_Monitor--><g class="link" data-entity-1="Admin" data-entity-2="UC_Monitor" data-source-line="56" data-uid="lnk44" id="link_Admin_UC_Monitor"><path d="M45.98,859.3394 C56.21,834.9694 72.55,804.7494 96,785.6094 C109.77,774.3794 126.76,766.2794 143.72,760.4394" fill="none" id="Admin-UC_Monitor" style="stroke:#181818;stroke-width:1;"/></g><!--link Admin to UC_Support--><g class="link" data-entity-1="Admin" data-entity-2="UC_Support" data-source-line="57" data-uid="lnk45" id="link_Admin_UC_Support"><path d="M51.71,888.8694 C62.05,883.7694 75.1,877.5694 87,872.6094 C113.69,861.4994 143.97,850.5194 168.99,841.8694" fill="none" id="Admin-UC_Support" style="stroke:#181818;stroke-width:1;"/></g><!--link Admin to UC_Note--><g class="link" data-entity-1="Admin" data-entity-2="UC_Note" data-source-line="58" data-uid="lnk46" id="link_Admin_UC_Note"><path d="M51.57,933.1694 C62.41,949.4094 77.52,967.4094 96,977.6094 C291.92,1085.8194 395.37,1112.6794 598,1017.6094 C697.24,971.0594 763.39,846.2394 784.89,800.6194" fill="none" id="Admin-UC_Note" style="stroke:#181818;stroke-width:1;"/></g><!--link UC_Sub to UC_Pay--><g class="link" data-entity-1="UC_Sub" data-entity-2="UC_Pay" data-source-line="61" data-uid="lnk47" id="link_UC_Sub_UC_Pay"><path d="M281.38,151.3794 C336.38,138.9094 411.9985,121.7661 463.6885,110.0461" fill="none" id="UC_Sub-to-UC_Pay" style="stroke:#181818;stroke-width:1;stroke-dasharray:7,7;"/><polygon fill="#181818" points="469.54,108.7194,459.8783,106.8085,464.6638,109.825,461.6473,114.6105,469.54,108.7194" style="stroke:#181818;stroke-width:1;"/><text fill="#000000" font-family="sans-serif" font-size="13" lengthAdjust="spacing" textLength="55.6563" x="355" y="120.1045">&#171;include&#187;</text></g><!--link UC_Sub to UC_Slot--><g class="link" data-entity-1="UC_Sub" data-entity-2="UC_Slot" data-source-line="62" data-uid="lnk48" id="link_UC_Sub_UC_Slot"><path d="M304.14,164.6094 C355.91,164.6094 415.48,164.6094 460.38,164.6094" fill="none" id="UC_Sub-to-UC_Slot" style="stroke:#181818;stroke-width:1;stroke-dasharray:7,7;"/><polygon fill="#181818" points="466.38,164.6094,457.38,160.6094,461.38,164.6094,457.38,168.6094,466.38,164.6094" style="stroke:#181818;stroke-width:1;"/><text fill="#000000" font-family="sans-serif" font-size="13" lengthAdjust="spacing" textLength="55.6563" x="355" y="161.1045">&#171;include&#187;</text></g><!--link UC_Pay to UC_Proc--><g class="link" data-entity-1="UC_Pay" data-entity-2="UC_Proc" data-source-line="63" data-uid="lnk49" id="link_UC_Pay_UC_Proc"><path d="M564.55,109.8294 C576.65,114.9394 588.92,121.9994 598,131.6094 C700.51,240.2194 654.8,309.9394 715,446.6094 C736.62,495.6894 763.758,546.0634 779.328,574.1134" fill="none" id="UC_Pay-to-UC_Proc" style="stroke:#181818;stroke-width:1;stroke-dasharray:7,7;"/><polygon fill="#181818" points="782.24,579.3594,781.3694,569.5491,779.8134,574.9877,774.3747,573.4317,782.24,579.3594" style="stroke:#181818;stroke-width:1;"/><text fill="#000000" font-family="sans-serif" font-size="13" lengthAdjust="spacing" textLength="55.6563" x="629" y="166.1045">&#171;include&#187;</text></g><!--reverse link UC_Pay to UC_Disc--><g class="link" data-entity-1="UC_Pay" data-entity-2="UC_Disc" data-source-line="64" data-uid="lnk50" id="link_UC_Pay_UC_Disc"><path d="M594.7898,98.1636 C636.7998,98.4736 684.4,98.8194 726.07,99.1294" fill="none" id="UC_Pay-backto-UC_Disc" style="stroke:#181818;stroke-width:1;stroke-dasharray:7,7;"/><polygon fill="#181818" points="588.79,98.1194,597.7602,102.1857,593.7899,98.1563,597.8193,94.1859,588.79,98.1194" style="stroke:#181818;stroke-width:1;"/><text fill="#000000" font-family="sans-serif" font-size="13" lengthAdjust="spacing" textLength="53.4917" x="630" y="95.1045">&#171;extend&#187;</text></g><!--reverse link UC_Attend to UC_Report--><g class="link" data-entity-1="UC_Attend" data-entity-2="UC_Report" data-source-line="65" data-uid="lnk51" id="link_UC_Attend_UC_Report"><path d="M294.5791,235.4071 C342.6991,234.5871 401.87,233.5894 450.54,232.7594" fill="none" id="UC_Attend-backto-UC_Report" style="stroke:#181818;stroke-width:1;stroke-dasharray:7,7;"/><polygon fill="#181818" points="288.58,235.5094,297.6468,239.3555,293.5793,235.4242,297.5105,231.3566,288.58,235.5094" style="stroke:#181818;stroke-width:1;"/><text fill="#000000" font-family="sans-serif" font-size="13" lengthAdjust="spacing" textLength="53.4917" x="356" y="230.1045">&#171;extend&#187;</text></g><!--link UC_Login to UC_Auth--><g class="link" data-entity-1="UC_Login" data-entity-2="UC_Auth" data-source-line="66" data-uid="lnk52" id="link_UC_Login_UC_Auth"><path d="M243.98,314.1594 C285.25,328.3394 376.03,366.2294 411,434.6094 C465.37,540.9294 370.72,605.0694 441,701.6094 C448.21,711.5194 453.4448,716.1595 464.5948,721.3195" fill="none" id="UC_Login-to-UC_Auth" style="stroke:#181818;stroke-width:1;stroke-dasharray:7,7;"/><polygon fill="#181818" points="470.04,723.8394,463.5522,716.4294,465.5023,721.7394,460.1923,723.6896,470.04,723.8394" style="stroke:#181818;stroke-width:1;"/><text fill="#000000" font-family="sans-serif" font-size="13" lengthAdjust="spacing" textLength="55.6563" x="355" y="368.1045">&#171;include&#187;</text></g><!--reverse link UC_Login to UC_Reset--><g class="link" data-entity-1="UC_Login" data-entity-2="UC_Reset" data-source-line="67" data-uid="lnk53" id="link_UC_Login_UC_Reset"><path d="M252.1878,306.8269 C295.3878,305.6569 383.72,303.2594 449.17,301.4894" fill="none" id="UC_Login-backto-UC_Reset" style="stroke:#181818;stroke-width:1;stroke-dasharray:7,7;"/><polygon fill="#181818" points="246.19,306.9894,255.295,310.7442,251.1882,306.854,255.0784,302.7472,246.19,306.9894" style="stroke:#181818;stroke-width:1;"/><text fill="#000000" font-family="sans-serif" font-size="13" lengthAdjust="spacing" textLength="53.4917" x="356" y="300.1045">&#171;extend&#187;</text></g><!--link UC_Create to UC_Verify--><g class="link" data-entity-1="UC_Create" data-entity-2="UC_Verify" data-source-line="68" data-uid="lnk54" id="link_UC_Create_UC_Verify"><path d="M276.91,536.2994 C293.46,541.3694 310.78,549.0394 324,560.6094 C346.73,580.5194 337.03,596.6194 354,621.6094 C375.2,652.8594 391.73,652.1394 411,684.6094 C431.66,719.4294 413.51,740.8994 441,770.6094 C454.67,785.3894 470.1393,792.4116 486.9293,797.3016" fill="none" id="UC_Create-to-UC_Verify" style="stroke:#181818;stroke-width:1;stroke-dasharray:7,7;"/><polygon fill="#181818" points="492.69,798.9794,485.1675,792.6223,487.8895,797.5812,482.9305,800.3032,492.69,798.9794" style="stroke:#181818;stroke-width:1;"/><text fill="#000000" font-family="sans-serif" font-size="13" lengthAdjust="spacing" textLength="55.6563" x="355" y="618.1045">&#171;include&#187;</text></g><!--link UC_Resched to UC_Check--><g class="link" data-entity-1="UC_Resched" data-entity-2="UC_Check" data-source-line="69" data-uid="lnk55" id="link_UC_Resched_UC_Check"><path d="M273.25,471.2794 C289.92,476.7894 308.24,483.9194 324,492.6094 C338.95,500.8594 338.05,510.5194 354,516.6094 C384.06,528.0894 413.47,531.2392 443.72,531.1392" fill="none" id="UC_Resched-to-UC_Check" style="stroke:#181818;stroke-width:1;stroke-dasharray:7,7;"/><polygon fill="#181818" points="449.72,531.1194,440.7068,527.1491,444.72,531.1359,440.7333,535.1491,449.72,531.1194" style="stroke:#181818;stroke-width:1;"/><text fill="#000000" font-family="sans-serif" font-size="13" lengthAdjust="spacing" textLength="55.6563" x="355" y="513.1045">&#171;include&#187;</text></g><!--link UC_Check to UC_Note--><g class="link" data-entity-1="UC_Check" data-entity-2="UC_Note" data-source-line="70" data-uid="lnk56" id="link_UC_Check_UC_Note"><path d="M560.54,539.8094 C573.17,545.2794 586.74,552.2494 598,560.6094 C681.51,622.6494 751.2812,721.0708 778.1912,761.6008" fill="none" id="UC_Check-to-UC_Note" style="stroke:#181818;stroke-width:1;stroke-dasharray:7,7;"/><polygon fill="#181818" points="781.51,766.5994,779.8642,756.889,778.7443,762.4339,773.1994,761.3141,781.51,766.5994" style="stroke:#181818;stroke-width:1;"/><text fill="#000000" font-family="sans-serif" font-size="13" lengthAdjust="spacing" textLength="55.6563" x="629" y="583.1045">&#171;include&#187;</text></g><!--link UC_SetSched to UC_ConfSched--><g class="link" data-entity-1="UC_SetSched" data-entity-2="UC_ConfSched" data-source-line="71" data-uid="lnk57" id="link_UC_SetSched_UC_ConfSched"><path d="M274.74,380.3894 C360.66,368.1994 537.89,349.3794 685,374.6094 C710.56,378.9994 732.562,386.5646 753.372,395.1346" fill="none" id="UC_SetSched-to-UC_ConfSched" style="stroke:#181818;stroke-width:1;stroke-dasharray:7,7;"/><polygon fill="#181818" points="758.92,397.4194,752.1212,390.2936,754.2967,395.5154,749.0749,397.6909,758.92,397.4194" style="stroke:#181818;stroke-width:1;"/><text fill="#000000" font-family="sans-serif" font-size="13" lengthAdjust="spacing" textLength="55.6563" x="492" y="359.1045">&#171;include&#187;</text></g><!--link UC_UpdtSched to UC_ConfSched--><g class="link" data-entity-1="UC_UpdtSched" data-entity-2="UC_ConfSched" data-source-line="72" data-uid="lnk58" id="link_UC_UpdtSched_UC_ConfSched"><path d="M586.7,462.4194 C616.94,463.5894 653.06,462.8994 685,456.6094 C712.7,451.1694 736.8632,441.1617 757.9632,430.8117" fill="none" id="UC_UpdtSched-to-UC_ConfSched" style="stroke:#181818;stroke-width:1;stroke-dasharray:7,7;"/><polygon fill="#181818" points="763.35,428.1694,753.5082,428.5417,758.861,430.3713,757.0313,435.7241,763.35,428.1694" style="stroke:#181818;stroke-width:1;"/><text fill="#000000" font-family="sans-serif" font-size="13" lengthAdjust="spacing" textLength="55.6563" x="629" y="453.1045">&#171;include&#187;</text></g><!--reverse link UC_SetSched to UC_UpdtSched--><g class="link" data-entity-1="UC_SetSched" data-entity-2="UC_UpdtSched" data-source-line="73" data-uid="lnk59" id="link_UC_SetSched_UC_UpdtSched"><path d="M276.1794,400.0068 C293.9694,405.0868 307.97,410.9094 324,421.6094 C341.04,432.9994 335.39,448.0494 354,456.6094 C388.77,472.6094 432.21,471.8594 465.72,467.5094" fill="none" id="UC_SetSched-backto-UC_UpdtSched" style="stroke:#181818;stroke-width:1;stroke-dasharray:7,7;"/><polygon fill="#181818" points="270.41,398.3594,277.9658,404.6768,275.2178,399.7323,280.1624,396.9843,270.41,398.3594" style="stroke:#181818;stroke-width:1;"/><text fill="#000000" font-family="sans-serif" font-size="13" lengthAdjust="spacing" textLength="53.4917" x="356" y="453.1045">&#171;extend&#187;</text></g><!--link UC_Init to UC_Rec--><g class="link" data-entity-1="UC_Init" data-entity-2="UC_Rec" data-source-line="74" data-uid="lnk60" id="link_UC_Init_UC_Rec"><path d="M288.21,594.0594 C334.53,594.3694 390.7801,594.7482 438.8801,595.0782" fill="none" id="UC_Init-to-UC_Rec" style="stroke:#181818;stroke-width:1;stroke-dasharray:7,7;"/><polygon fill="#181818" points="444.88,595.1194,435.9077,591.0577,439.8801,595.0851,435.8528,599.0575,444.88,595.1194" style="stroke:#181818;stroke-width:1;"/><text fill="#000000" font-family="sans-serif" font-size="13" lengthAdjust="spacing" textLength="55.6563" x="355" y="591.1045">&#171;include&#187;</text></g><!--link UC_Upload to UC_Val--><g class="link" data-entity-1="UC_Upload" data-entity-2="UC_Val" data-source-line="75" data-uid="lnk61" id="link_UC_Upload_UC_Val"><path d="M279.41,682.6994 C294.63,688.2294 310.59,695.4394 324,704.6094 C340.24,715.7294 425.05,826.0794 441,837.6094 C453.21,846.4394 462.5561,851.3039 476.0361,856.6039" fill="none" id="UC_Upload-to-UC_Val" style="stroke:#181818;stroke-width:1;stroke-dasharray:7,7;"/><polygon fill="#181818" points="481.62,858.7994,474.7078,851.7836,476.9667,856.9698,471.7805,859.2288,481.62,858.7994" style="stroke:#181818;stroke-width:1;"/><text fill="#000000" font-family="sans-serif" font-size="13" lengthAdjust="spacing" textLength="55.6563" x="355" y="736.1045">&#171;include&#187;</text></g><!--reverse link UC_Upload to UC_Del--><g class="link" data-entity-1="UC_Upload" data-entity-2="UC_Del" data-source-line="76" data-uid="lnk62" id="link_UC_Upload_UC_Del"><path d="M269.5691,687.413 C307.5791,701.643 360.15,715.7694 411,706.6094 C436.48,702.0294 463.8,691.7894 484.53,682.8094" fill="none" id="UC_Upload-backto-UC_Del" style="stroke:#181818;stroke-width:1;stroke-dasharray:7,7;"/><polygon fill="#181818" points="263.95,685.3094,270.9763,692.211,268.6326,687.0624,273.7811,684.7188,263.95,685.3094" style="stroke:#181818;stroke-width:1;"/><text fill="#000000" font-family="sans-serif" font-size="13" lengthAdjust="spacing" textLength="53.4917" x="356" y="703.1045">&#171;extend&#187;</text></g><!--SRC=[ZLHDRnen4BtlhnXnQDe3z5v5aIX9f4YaYaAJQsMy0sjXx9NjJRgg-jyxzdeDzXAf702_UPuPl_bmmac4kxgxb_eTNYp2Yj7NhM1xmuumXpNk6U_X5OqLMi7dLs4x9k6HETvygIg9EmTEWn7xna4j3797lCeUX6gPTz4oVc1xtBYU0dapKtk9LSMuqmOshgjHkNZwYOmtQE9fMH-5Yl-_CtMegdGTPdVpDJAZXDh3fhSEZpFuKm5zhj8hR3Xt5hb_qcpJRIqtOei-NwuxGumPC0ilgrzaoyb7Ta1AlJzISedrnFgSzMGqHsl16QOi2ozFN3BbPDveJRzMQfV2ql-Sj6nRsPFybX9KYUVF1SyvL3L8YgvLId10S-Opjjeue7osqgiqC0SqPqgz5od_jJyKCJlNa1o2CuTUP9F2ag4CQf5YCclVjQbFGGdDYIk3tjkIP-yTq9n97RWJ_SYWazZraw3KFNL7xR4Ekfp5zOOYSeFy0Cit9YJR2YbSyXqiHUzuiNze9tR-zMTb9WnBgeDDp2FL6TrccW7NQYVCSS9U4Nw1_jBMNYfRi0c-vFn12ISyFvV2mwLRgLaDpyYfKZHE9z7uHUBJxRs5J_0gQjJsb8It5GLZKeICxyKfMm8dxIaPnw-tAB7W4bGCfQRiQHdOCF3GKaTeSsIAfokF0oE_rXhzHjc2Gzuegfy4sxM-_K_J7uxLtwgwWWVbq0opRAkudc0-7xT4ZiI1oy5XT78iTdGEZdrPnRqtXXcx9OT3wN8eofw3oQlVcH4BswWA2pKYSO3EeJ36vy2evZasQdMEXI4WwPvHXk6mZMXjDGW6YyLDt9tm3QwlXUAIDBYvAUn-5Ku9_jReW9vmcN2zM8nBCX3mjo_AO8zxCbBYBYn9eM1Z7A_2DCv0IMxyTYkzn5KMtGpwJXt5weoqOGjDM0CSELxU2zh5BacUngqnfQOLyH_Sv3Q-zNItVA_lnz4XBOjBOSF260MXkVk8CbOGPHxb7m00]--></g></svg>