<svg xmlns="http://www.w3.org/2000/svg" xmlns:xlink="http://www.w3.org/1999/xlink" contentStyleType="text/css" data-diagram-type="DESCRIPTION" height="1042px" preserveAspectRatio="none" style="width:1183px;height:1042px;background:#FFFFFF;" version="1.1" viewBox="0 0 1183 1042" width="1183px" zoomAndPan="magnify"><title>EduFlow Use Case Diagram - Architectural Best Practice Version</title><defs/><g><g class="title" data-source-line="1"><text fill="#000000" font-family="sans-serif" font-size="14" font-weight="bold" lengthAdjust="spacing" textLength="431.8125" x="368.5938" y="24.5332">EduFlow Use Case Diagram - Architectural Best Practice Version</text></g><!--cluster EduFlow Platform--><g class="cluster" data-entity="EduFlow Platform" data-source-line="20" data-uid="ent0013" id="cluster_EduFlow Platform"><rect fill="none" height="878" rx="2.5" ry="2.5" style="stroke:#181818;stroke-width:1;" width="889" x="288" y="64.2894"/><text fill="#000000" font-family="sans-serif" font-size="14" font-weight="bold" lengthAdjust="spacing" textLength="119" x="673" y="80.8226">EduFlow Platform</text></g><!--cluster Authentication & Identity--><g class="cluster" data-entity="Authentication . Identity" data-source-line="22" data-uid="ent0014" id="cluster_Authentication . Identity"><rect fill="#F0F8FF" height="221" rx="2.5" ry="2.5" style="stroke:#181818;stroke-width:1;" width="485" x="332.5" y="697.2894"/><text fill="#000000" font-family="sans-serif" font-size="14" font-weight="bold" lengthAdjust="spacing" textLength="165.6621" x="492.1689" y="713.8226">Authentication &amp; Identity</text></g><!--cluster Billing & Enrollment--><g class="cluster" data-entity="Billing . Enrollment" data-source-line="29" data-uid="ent0019" id="cluster_Billing . Enrollment"><rect fill="#FFFFF0" height="105" rx="2.5" ry="2.5" style="stroke:#181818;stroke-width:1;" width="816" x="337" y="108.2894"/><text fill="#000000" font-family="sans-serif" font-size="14" font-weight="bold" lengthAdjust="spacing" textLength="133.7793" x="678.1104" y="124.8226">Billing &amp; Enrollment</text></g><!--cluster Virtual Classroom & Teaching--><g class="cluster" data-entity="Virtual Classroom . Teaching" data-source-line="35" data-uid="ent0023" id="cluster_Virtual Classroom . Teaching"><rect fill="#F0FFF0" height="169" rx="2.5" ry="2.5" style="stroke:#181818;stroke-width:1;" width="530" x="312" y="237.2894"/><text fill="#000000" font-family="sans-serif" font-size="14" font-weight="bold" lengthAdjust="spacing" textLength="199.1582" x="477.4209" y="253.8226">Virtual Classroom &amp; Teaching</text></g><!--cluster System Administration--><g class="cluster" data-entity="System Administration" data-source-line="42" data-uid="ent0028" id="cluster_System Administration"><rect fill="#E6E6FA" height="243" rx="2.5" ry="2.5" style="stroke:#181818;stroke-width:1;" width="221" x="312" y="430.2894"/><text fill="#000000" font-family="sans-serif" font-size="14" font-weight="bold" lengthAdjust="spacing" textLength="152.4756" x="346.2622" y="446.8226">System Administration</text></g><!--entity UC_Manage--><g class="entity" data-entity="UC_Manage" data-source-line="23" data-uid="ent0015" id="entity_UC_Manage"><ellipse cx="422.5413" cy="750.4976" fill="#F1F1F1" rx="71.5413" ry="16.7083" style="stroke:#181818;stroke-width:0.5;"/><text fill="#000000" font-family="sans-serif" font-size="14" lengthAdjust="spacing" textLength="105.0684" x="370.0071" y="755.8023">Manage Account</text></g><!--entity UC_Login--><g class="entity" data-entity="UC_Login" data-source-line="24" data-uid="ent0016" id="entity_UC_Login"><ellipse cx="422.3384" cy="817.2411" fill="#F1F1F1" rx="61.3384" ry="15.4517" style="stroke:#181818;stroke-width:0.5;"/><text fill="#000000" font-family="sans-serif" font-size="14" lengthAdjust="spacing" textLength="82.5029" x="381.0869" y="822.5458">Secure Login</text></g><!--entity UC_MFA--><g class="entity" data-entity="UC_MFA" data-source-line="25" data-uid="ent0017" id="entity_UC_MFA"><ellipse cx="731.1365" cy="817.3167" fill="#F1F1F1" rx="70.6365" ry="16.5273" style="stroke:#181818;stroke-width:0.5;"/><text fill="#000000" font-family="sans-serif" font-size="14" lengthAdjust="spacing" textLength="102.6963" x="679.7883" y="822.6214">MFA Verification</text></g><!--entity UC_Reset--><g class="entity" data-entity="UC_Reset" data-source-line="26" data-uid="ent0018" id="entity_UC_Reset"><ellipse cx="422.448" cy="885.479" fill="#F1F1F1" rx="73.948" ry="17.1896" style="stroke:#181818;stroke-width:0.5;"/><text fill="#000000" font-family="sans-serif" font-size="14" lengthAdjust="spacing" textLength="111.2754" x="366.8103" y="890.7837">Reset Credentials</text></g><!--entity UC_Enroll--><g class="entity" data-entity="UC_Enroll" data-source-line="30" data-uid="ent0020" id="entity_UC_Enroll"><ellipse cx="422.4687" cy="162.0831" fill="#F1F1F1" rx="69.4687" ry="16.2937" style="stroke:#181818;stroke-width:0.5;"/><text fill="#000000" font-family="sans-serif" font-size="14" lengthAdjust="spacing" textLength="99.5996" x="372.6689" y="167.3878">Enroll in Course</text></g><!--entity UC_Pay--><g class="entity" data-entity="UC_Pay" data-source-line="31" data-uid="ent0021" id="entity_UC_Pay"><ellipse cx="730.9198" cy="165.3733" fill="#F1F1F1" rx="93.4198" ry="21.084" style="stroke:#181818;stroke-width:0.5;"/><text fill="#000000" font-family="sans-serif" font-size="14" lengthAdjust="spacing" textLength="157.958" x="651.9408" y="170.678">Process Secure Payment</text></g><!--entity UC_Coupon--><g class="entity" data-entity="UC_Coupon" data-source-line="32" data-uid="ent0022" id="entity_UC_Coupon"><ellipse cx="1040.1928" cy="166.1279" fill="#F1F1F1" rx="97.1928" ry="21.8386" style="stroke:#181818;stroke-width:0.5;"/><text fill="#000000" font-family="sans-serif" font-size="14" lengthAdjust="spacing" textLength="166.5439" x="956.9208" y="171.4326">Apply Promotional Coupon</text></g><!--entity UC_Conduct--><g class="entity" data-entity="UC_Conduct" data-source-line="36" data-uid="ent0024" id="entity_UC_Conduct"><ellipse cx="422.3164" cy="292.0526" fill="#F1F1F1" rx="81.8164" ry="18.7633" style="stroke:#181818;stroke-width:0.5;"/><text fill="#000000" font-family="sans-serif" font-size="14" lengthAdjust="spacing" textLength="130.751" x="356.9409" y="297.3573">Conduct Live Lesson</text></g><!--entity UC_Stream--><g class="entity" data-entity="UC_Stream" data-source-line="37" data-uid="ent0025" id="entity_UC_Stream"><ellipse cx="730.7814" cy="368.1456" fill="#F1F1F1" rx="94.7814" ry="21.3563" style="stroke:#181818;stroke-width:0.5;"/><text fill="#000000" font-family="sans-serif" font-size="14" lengthAdjust="spacing" textLength="161.0684" x="650.2472" y="373.4503">Stream &amp; Record Session</text></g><!--entity UC_Materials--><g class="entity" data-entity="UC_Materials" data-source-line="38" data-uid="ent0026" id="entity_UC_Materials"><ellipse cx="422.4426" cy="368.0779" fill="#F1F1F1" rx="94.4426" ry="21.2885" style="stroke:#181818;stroke-width:0.5;"/><text fill="#000000" font-family="sans-serif" font-size="14" lengthAdjust="spacing" textLength="160.2959" x="342.2947" y="373.3826">Manage Course Materials</text></g><!--entity UC_Interact--><g class="entity" data-entity="UC_Interact" data-source-line="39" data-uid="ent0027" id="entity_UC_Interact"><ellipse cx="730.7518" cy="292.4397" fill="#F1F1F1" rx="83.7518" ry="19.1504" style="stroke:#181818;stroke-width:0.5;"/><text fill="#000000" font-family="sans-serif" font-size="14" lengthAdjust="spacing" textLength="135.3926" x="663.0555" y="297.7444">Interaction (Chat/Poll)</text></g><!--entity UC_Approve--><g class="entity" data-entity="UC_Approve" data-source-line="43" data-uid="ent0029" id="entity_UC_Approve"><ellipse cx="422.4779" cy="484.285" fill="#F1F1F1" rx="77.9779" ry="17.9956" style="stroke:#181818;stroke-width:0.5;"/><text fill="#000000" font-family="sans-serif" font-size="14" lengthAdjust="spacing" textLength="121.3857" x="361.785" y="489.5896">Approve Instructors</text></g><!--entity UC_Health--><g class="entity" data-entity="UC_Health" data-source-line="44" data-uid="ent0030" id="entity_UC_Health"><ellipse cx="422.4396" cy="559.0773" fill="#F1F1F1" rx="94.4396" ry="21.2879" style="stroke:#181818;stroke-width:0.5;"/><text fill="#000000" font-family="sans-serif" font-size="14" lengthAdjust="spacing" textLength="160.2891" x="342.2951" y="564.382">System Health Monitoring</text></g><!--entity UC_Support--><g class="entity" data-entity="UC_Support" data-source-line="45" data-uid="ent0031" id="entity_UC_Support"><ellipse cx="422.5533" cy="636.4" fill="#F1F1F1" rx="91.0533" ry="20.6107" style="stroke:#181818;stroke-width:0.5;"/><text fill="#000000" font-family="sans-serif" font-size="14" lengthAdjust="spacing" textLength="152.5166" x="346.295" y="641.7047">Technical Support Tier 2</text></g><!--entity User--><g class="entity" data-entity="User" data-source-line="9" data-uid="ent0002" id="entity_User"><ellipse cx="65.5342" cy="656.2894" fill="#F1F1F1" rx="16" ry="16" style="stroke:#181818;stroke-width:0.5;"/><path d="M65.5342,676.2894 C69.5342,676.2894 72.5342,676.2894 76.5342,672.2894 C84.5342,672.2894 92.5342,680.2894 92.5342,688.2894 L92.5342,692.2894 C92.5342,696.2894 88.5342,700.2894 84.5342,700.2894 L46.5342,700.2894 C42.5342,700.2894 38.5342,696.2894 38.5342,692.2894 L38.5342,688.2894 C38.5342,680.2894 46.5342,672.2894 54.5342,672.2894 C58.5342,676.2894 61.5342,676.2894 65.5342,676.2894" fill="#F1F1F1" style="stroke:#181818;stroke-width:0.5;"/><text fill="#000000" font-family="sans-serif" font-size="14" lengthAdjust="spacing" textLength="119.0684" x="6" y="715.3226">Authenticated User</text></g><!--entity Student--><g class="entity" data-entity="Student" data-source-line="10" data-uid="ent0003" id="entity_Student"><ellipse cx="213.5" cy="139.2894" fill="#F1F1F1" rx="16" ry="16" style="stroke:#181818;stroke-width:0.5;"/><path d="M213.5,159.2894 C217.5,159.2894 220.5,159.2894 224.5,155.2894 C232.5,155.2894 240.5,163.2894 240.5,171.2894 L240.5,175.2894 C240.5,179.2894 236.5,183.2894 232.5,183.2894 L194.5,183.2894 C190.5,183.2894 186.5,179.2894 186.5,175.2894 L186.5,171.2894 C186.5,163.2894 194.5,155.2894 202.5,155.2894 C206.5,159.2894 209.5,159.2894 213.5,159.2894" fill="#F1F1F1" style="stroke:#181818;stroke-width:0.5;"/><text fill="#000000" font-family="sans-serif" font-size="14" lengthAdjust="spacing" textLength="48.2617" x="189.3691" y="198.3226">Student</text></g><!--entity Teacher--><g class="entity" data-entity="Teacher" data-source-line="11" data-uid="ent0004" id="entity_Teacher"><ellipse cx="213.5" cy="345.2894" fill="#F1F1F1" rx="16" ry="16" style="stroke:#181818;stroke-width:0.5;"/><path d="M213.5,365.2894 C217.5,365.2894 220.5,365.2894 224.5,361.2894 C232.5,361.2894 240.5,369.2894 240.5,377.2894 L240.5,381.2894 C240.5,385.2894 236.5,389.2894 232.5,389.2894 L194.5,389.2894 C190.5,389.2894 186.5,385.2894 186.5,381.2894 L186.5,377.2894 C186.5,369.2894 194.5,361.2894 202.5,361.2894 C206.5,365.2894 209.5,365.2894 213.5,365.2894" fill="#F1F1F1" style="stroke:#181818;stroke-width:0.5;"/><text fill="#000000" font-family="sans-serif" font-size="14" lengthAdjust="spacing" textLength="51.3584" x="187.8208" y="404.3226">Teacher</text></g><!--entity Admin--><g class="entity" data-entity="Admin" data-source-line="12" data-uid="ent0005" id="entity_Admin"><ellipse cx="213.5" cy="571.2894" fill="#F1F1F1" rx="16" ry="16" style="stroke:#181818;stroke-width:0.5;"/><path d="M213.5,591.2894 C217.5,591.2894 220.5,591.2894 224.5,587.2894 C232.5,587.2894 240.5,595.2894 240.5,603.2894 L240.5,607.2894 C240.5,611.2894 236.5,615.2894 232.5,615.2894 L194.5,615.2894 C190.5,615.2894 186.5,611.2894 186.5,607.2894 L186.5,603.2894 C186.5,595.2894 194.5,587.2894 202.5,587.2894 C206.5,591.2894 209.5,591.2894 213.5,591.2894" fill="#F1F1F1" style="stroke:#181818;stroke-width:0.5;"/><text fill="#000000" font-family="sans-serif" font-size="14" lengthAdjust="spacing" textLength="39.6826" x="193.6587" y="630.3226">Admin</text></g><!--entity Bank--><g class="entity" data-entity="Bank" data-source-line="13" data-uid="ent0006" id="entity_Bank"><ellipse cx="1040" cy="975.2894" fill="#F1F1F1" rx="16" ry="16" style="stroke:#181818;stroke-width:0.5;"/><path d="M1040,995.2894 C1044,995.2894 1047,995.2894 1051,991.2894 C1059,991.2894 1067,999.2894 1067,1007.2894 L1067,1011.2894 C1067,1015.2894 1063,1019.2894 1059,1019.2894 L1021,1019.2894 C1017,1019.2894 1013,1015.2894 1013,1011.2894 L1013,1007.2894 C1013,999.2894 1021,991.2894 1029,991.2894 C1033,995.2894 1036,995.2894 1040,995.2894" fill="#F1F1F1" style="stroke:#181818;stroke-width:0.5;"/><text fill="#000000" font-family="sans-serif" font-size="14" lengthAdjust="spacing" textLength="31.9102" x="1024.0449" y="1034.3226">Bank</text></g><!--reverse link User to Student--><g class="link" data-entity-1="User" data-entity-2="Student" data-source-line="16" data-uid="lnk8" id="link_User_Student"><path d="M82.6027,622.2571 C109.7827,526.0271 174.03,298.5094 201.25,202.1294" fill="none" id="User-backto-Student" style="stroke:#181818;stroke-width:1;"/><polygon fill="none" points="77.71,639.5794,88.3768,623.888,76.8286,620.6262,77.71,639.5794" style="stroke:#181818;stroke-width:1;"/></g><!--reverse link User to Teacher--><g class="link" data-entity-1="User" data-entity-2="Teacher" data-source-line="17" data-uid="lnk10" id="link_User_Teacher"><path d="M92.7883,623.2951 C120.7683,563.6851 165.69,467.9994 193.74,408.2494" fill="none" id="User-backto-Teacher" style="stroke:#181818;stroke-width:1;"/><polygon fill="none" points="85.14,639.5894,98.2197,625.8445,87.3569,620.7457,85.14,639.5894" style="stroke:#181818;stroke-width:1;"/></g><!--reverse link User to Admin--><g class="link" data-entity-1="User" data-entity-2="Admin" data-source-line="18" data-uid="lnk12" id="link_User_Admin"><path d="M140.5958,636.153 C161.7058,623.863 168.93,619.6594 185.95,609.7494" fill="none" id="User-backto-Admin" style="stroke:#181818;stroke-width:1;"/><polygon fill="none" points="125.04,645.2094,143.6146,641.3382,137.577,630.9677,125.04,645.2094" style="stroke:#181818;stroke-width:1;"/></g><!--link User to UC_Login--><g class="link" data-entity-1="User" data-entity-2="UC_Login" data-source-line="50" data-uid="lnk32" id="link_User_UC_Login"><path d="M125.19,712.6894 C167.21,735.4694 225.74,764.9094 280,784.2894 C309.69,794.8994 344.13,803.0094 371.59,808.5394" fill="none" id="User-UC_Login" style="stroke:#181818;stroke-width:1;"/></g><!--link User to UC_Reset--><g class="link" data-entity-1="User" data-entity-2="UC_Reset" data-source-line="51" data-uid="lnk33" id="link_User_UC_Reset"><path d="M104.83,719.0494 C144.91,758.2694 211.41,817.0394 280,850.2894 C305.05,862.4294 334.7,870.5994 360.37,875.9694" fill="none" id="User-UC_Reset" style="stroke:#181818;stroke-width:1;"/></g><!--link User to UC_Manage--><g class="link" data-entity-1="User" data-entity-2="UC_Manage" data-source-line="52" data-uid="lnk34" id="link_User_UC_Manage"><path d="M125.12,691.0094 C192.67,704.5194 302.73,726.5394 368.02,739.5894" fill="none" id="User-UC_Manage" style="stroke:#181818;stroke-width:1;"/></g><!--link Student to UC_Enroll--><g class="link" data-entity-1="Student" data-entity-2="UC_Enroll" data-source-line="54" data-uid="lnk35" id="link_Student_UC_Enroll"><path d="M241.14,162.2894 C269.2,162.2894 314.53,162.2894 352.73,162.2894" fill="none" id="Student-UC_Enroll" style="stroke:#181818;stroke-width:1;"/></g><!--link Student to UC_Interact--><g class="link" data-entity-1="Student" data-entity-2="UC_Interact" data-source-line="55" data-uid="lnk36" id="link_Student_UC_Interact"><path d="M241.07,144.8094 C252.54,138.2594 266.43,131.5994 280,128.2894 C420.76,93.9294 487.72,44.6094 606,128.2894 C638.7,151.4294 613.2,180.3494 636,213.2894 C653.35,238.3494 680.65,260.0694 701.37,274.3494" fill="none" id="Student-UC_Interact" style="stroke:#181818;stroke-width:1;"/></g><!--link Teacher to UC_Conduct--><g class="link" data-entity-1="Teacher" data-entity-2="UC_Conduct" data-source-line="57" data-uid="lnk37" id="link_Teacher_UC_Conduct"><path d="M241.01,350.1894 C252.59,342.8994 266.57,334.9094 280,329.2894 C305.18,318.7494 334.16,310.5394 359.32,304.5594" fill="none" id="Teacher-UC_Conduct" style="stroke:#181818;stroke-width:1;"/></g><!--link Teacher to UC_Materials--><g class="link" data-entity-1="Teacher" data-entity-2="UC_Materials" data-source-line="58" data-uid="lnk38" id="link_Teacher_UC_Materials"><path d="M241.14,368.2894 C263.3,368.2894 296.25,368.2894 327.93,368.2894" fill="none" id="Teacher-UC_Materials" style="stroke:#181818;stroke-width:1;"/></g><!--link Admin to UC_Approve--><g class="link" data-entity-1="Admin" data-entity-2="UC_Approve" data-source-line="60" data-uid="lnk39" id="link_Admin_UC_Approve"><path d="M241.19,555.6794 C251.89,542.7394 265.21,529.3094 280,520.2894 C302.18,506.7594 329.29,498.2894 353.81,492.9994" fill="none" id="Admin-UC_Approve" style="stroke:#181818;stroke-width:1;"/></g><!--link Admin to UC_Health--><g class="link" data-entity-1="Admin" data-entity-2="UC_Health" data-source-line="61" data-uid="lnk40" id="link_Admin_UC_Health"><path d="M241.14,589.7894 C267.56,585.3194 309.3,578.2594 345.97,572.0594" fill="none" id="Admin-UC_Health" style="stroke:#181818;stroke-width:1;"/></g><!--link Admin to UC_Support--><g class="link" data-entity-1="Admin" data-entity-2="UC_Support" data-source-line="62" data-uid="lnk41" id="link_Admin_UC_Support"><path d="M241.14,599.6894 C269.53,605.4594 315.6,614.7994 354.07,622.6094" fill="none" id="Admin-UC_Support" style="stroke:#181818;stroke-width:1;"/></g><!--link UC_Pay to Bank--><g class="link" data-entity-1="UC_Pay" data-entity-2="Bank" data-source-line="65" data-uid="lnk42" id="link_UC_Pay_Bank"><path d="M768.24,184.7294 C794.75,200.7894 829.53,225.9794 850,257.2894 C1002.96,491.1794 1032.16,841.4394 1037.71,958.5494" fill="none" id="UC_Pay-Bank" style="stroke:#181818;stroke-width:1;"/></g><!--link UC_Login to UC_MFA--><g class="link" data-entity-1="UC_Login" data-entity-2="UC_MFA" data-source-line="68" data-uid="lnk43" id="link_UC_Login_UC_MFA"><path d="M484.05,817.2894 C534.82,817.2894 601.33,817.2894 654.47,817.2894" fill="none" id="UC_Login-to-UC_MFA" style="stroke:#181818;stroke-width:1;stroke-dasharray:7,7;"/><polygon fill="#181818" points="660.47,817.2894,651.47,813.2894,655.47,817.2894,651.47,821.2894,660.47,817.2894" style="stroke:#181818;stroke-width:1;"/><text fill="#000000" font-family="sans-serif" font-size="13" lengthAdjust="spacing" textLength="55.6563" x="550" y="813.7845">&#171;include&#187;</text></g><!--link UC_Enroll to UC_Pay--><g class="link" data-entity-1="UC_Enroll" data-entity-2="UC_Pay" data-source-line="69" data-uid="lnk44" id="link_UC_Enroll_UC_Pay"><path d="M492.28,162.9594 C535.09,163.3794 584.6703,163.8715 631.3203,164.3215" fill="none" id="UC_Enroll-to-UC_Pay" style="stroke:#181818;stroke-width:1;stroke-dasharray:7,7;"/><polygon fill="#181818" points="637.32,164.3794,628.359,160.2927,632.3202,164.3311,628.2818,168.2924,637.32,164.3794" style="stroke:#181818;stroke-width:1;"/><text fill="#000000" font-family="sans-serif" font-size="13" lengthAdjust="spacing" textLength="55.6563" x="550" y="160.7845">&#171;include&#187;</text></g><!--reverse link UC_Pay to UC_Coupon--><g class="link" data-entity-1="UC_Pay" data-entity-2="UC_Coupon" data-source-line="70" data-uid="lnk45" id="link_UC_Pay_UC_Coupon"><path d="M830.53,165.6086 C867.96,165.7286 905.16,165.8494 942.94,165.9794" fill="none" id="UC_Pay-backto-UC_Coupon" style="stroke:#181818;stroke-width:1;stroke-dasharray:7,7;"/><polygon fill="#181818" points="824.53,165.5894,833.5171,169.6182,829.53,165.6054,833.5428,161.6182,824.53,165.5894" style="stroke:#181818;stroke-width:1;"/><text fill="#000000" font-family="sans-serif" font-size="13" lengthAdjust="spacing" textLength="53.4917" x="859" y="162.7845">&#171;extend&#187;</text></g><!--link UC_Conduct to UC_Stream--><g class="link" data-entity-1="UC_Conduct" data-entity-2="UC_Stream" data-source-line="71" data-uid="lnk46" id="link_UC_Conduct_UC_Stream"><path d="M479.36,306.1394 C532.11,319.2194 605.3163,337.3756 660.4963,351.0556" fill="none" id="UC_Conduct-to-UC_Stream" style="stroke:#181818;stroke-width:1;stroke-dasharray:7,7;"/><polygon fill="#181818" points="666.32,352.4994,658.547,346.4512,661.4669,351.2962,656.6219,354.2162,666.32,352.4994" style="stroke:#181818;stroke-width:1;"/><text fill="#000000" font-family="sans-serif" font-size="13" lengthAdjust="spacing" textLength="55.6563" x="550" y="320.7845">&#171;include&#187;</text></g><!--reverse link UC_Conduct to UC_Interact--><g class="link" data-entity-1="UC_Conduct" data-entity-2="UC_Interact" data-source-line="72" data-uid="lnk47" id="link_UC_Conduct_UC_Interact"><path d="M510.83,292.2894 C554.73,292.2894 602.8,292.2894 646.95,292.2894" fill="none" id="UC_Conduct-backto-UC_Interact" style="stroke:#181818;stroke-width:1;stroke-dasharray:7,7;"/><polygon fill="#181818" points="504.83,292.2894,513.83,296.2894,509.83,292.2894,513.83,288.2894,504.83,292.2894" style="stroke:#181818;stroke-width:1;"/><text fill="#000000" font-family="sans-serif" font-size="13" lengthAdjust="spacing" textLength="53.4917" x="551" y="288.7845">&#171;extend&#187;</text></g><!--SRC=[TLJ9Rjim4BthAmOEaBO7kK2FHM10SP8sG08OSPfhmL9ZYmX52YGLrqtpxnqkakdAqK6GPjuiRpOdd4IuhliRgNVmmo8i6Rsk1DiQra89bU6DSCXTRvY4IxGELePn9pZ24nehj2eAYHi7JeCHsyP1BGpXlS8-2zKnxwXZ_9bjSUts5CwhcTfAp02sORNU2RM53PCsrr0mRQ8Xsw7LBHR51qf2jCpieV9QMmGGpAhUDQWeEUQmzdJC39WD7mcoTdrDYFJtY8mtewwgMw7IzoLJppxEDrH8pCKV5XWbSoZxhloxY8wJaoDPS7KaAKRMC1lglPBCRRHfP_1Q03tXbU4oEXGSpk7M1nTkFuCpoedZBzbZilLFRv7xzitkcQ9gKt6uxfMBDLZ-ZD8fUesyDmXtUYlKW0q_9npVLBxjOfDo6btVL5Fm0rfqi3GOigQs3kYW2FYtud_Ebq9AFmRdSAsCbh95J-1Cl6ZgzWcg4GLKxQNkZSKXHfHFyIkZELeBYVIAxME4Q4M_KvEgw-IU9awtsdEcFQ1GtO5y_7k7pvCmhlScabbhj6w9MPWO8acy6grmN-Fk5BMbLdNF7To95-eE9Ps73AeJlNG6cO_nW5oRccXQc_KfgjyTc5X2kAVrCNd3Hi7KybQHYeLzXu_BXhdFAwhxfy5oKBzJdVNUEcpZvWdhJ1ggCybUKDMqLAydss4qLUHMaK4Vzd-8bbGdoXBZV4ScNGFtMWao2ns8Xb4njNj4tYYQTGdhlkkqSV0eAAilOpsZDB5xynU3MgFY_RE5ttmeoyD2POAu19aWhUVXnfJP71yBnweUZa-PZyMnzD2zuIwLUR5oMQf3BXee4hNht-Gepd_6CMoD1mytCsJdOLVO-IugBZ3WGWrWFb-aam5VuU92A2w9ss9HZ6m7YFSxWNZXnNn-MBm0GKfDrH4nx4toabPYucY09MT3JO_T_GC0]--></g></svg>