<svg xmlns="http://www.w3.org/2000/svg" xmlns:xlink="http://www.w3.org/1999/xlink" contentStyleType="text/css" data-diagram-type="SEQUENCE" height="472px" preserveAspectRatio="none" style="width:674px;height:472px;background:#FFFFFF;" version="1.1" viewBox="0 0 674 472" width="674px" zoomAndPan="magnify"><title>Student Join Lesson &#8212; User Flow</title><defs/><g><text fill="#000000" font-family="sans-serif" font-size="14" font-weight="bold" lengthAdjust="spacing" textLength="226.7959" x="223.0918" y="29.5332">Student Join Lesson &#8212; User Flow</text><g><title>LMS .Server.</title><rect fill="#FFFFFF" height="91.0547" style="stroke:#181818;stroke-width:1;" width="10" x="353.6597" y="183.9219"/></g><g><title>Student</title><rect fill="#000000" fill-opacity="0.00000" height="268.8125" width="8" x="36.1309" y="121.2188"/><line style="stroke:#181818;stroke-width:0.5;stroke-dasharray:5,5;" x1="40" x2="40" y1="121.2188" y2="390.0313"/></g><g><title>LMS .Client.</title><rect fill="#000000" fill-opacity="0.00000" height="268.8125" width="8" x="156.2407" y="121.2188"/><line style="stroke:#181818;stroke-width:0.5;stroke-dasharray:5,5;" x1="159.3442" x2="159.3442" y1="121.2188" y2="390.0313"/></g><g><title>LMS .Server.</title><rect fill="#000000" fill-opacity="0.00000" height="268.8125" width="8" x="354.6597" y="121.2188"/><line style="stroke:#181818;stroke-width:0.5;stroke-dasharray:5,5;" x1="358.0425" x2="358.0425" y1="121.2188" y2="390.0313"/></g><g><title>Media Server</title><rect fill="#000000" fill-opacity="0.00000" height="268.8125" width="8" x="616.3521" y="121.2188"/><line style="stroke:#181818;stroke-width:0.5;stroke-dasharray:5,5;" x1="619.7246" x2="619.7246" y1="121.2188" y2="390.0313"/></g><g class="participant participant-head" data-participant="S"><text fill="#000000" font-family="sans-serif" font-size="14" lengthAdjust="spacing" textLength="48.2617" x="13" y="118.1426">Student</text><ellipse cx="40.1309" cy="52.1094" fill="#E2E2F0" rx="8" ry="8" style="stroke:#181818;stroke-width:0.5;"/><path d="M40.1309,60.1094 L40.1309,87.1094 M27.1309,68.1094 L53.1309,68.1094 M40.1309,87.1094 L27.1309,102.1094 M40.1309,87.1094 L53.1309,102.1094" fill="none" style="stroke:#181818;stroke-width:0.5;"/></g><g class="participant participant-tail" data-participant="S"><text fill="#000000" font-family="sans-serif" font-size="14" lengthAdjust="spacing" textLength="48.2617" x="13" y="403.5645">Student</text><ellipse cx="40.1309" cy="415.1406" fill="#E2E2F0" rx="8" ry="8" style="stroke:#181818;stroke-width:0.5;"/><path d="M40.1309,423.1406 L40.1309,450.1406 M27.1309,431.1406 L53.1309,431.1406 M40.1309,450.1406 L27.1309,465.1406 M40.1309,450.1406 L53.1309,465.1406" fill="none" style="stroke:#181818;stroke-width:0.5;"/></g><g class="participant participant-head" data-participant="Client"><rect fill="#E2E2F0" height="31.6094" rx="2.5" ry="2.5" style="stroke:#181818;stroke-width:0.5;" width="91.793" x="114.3442" y="88.6094"/><text fill="#000000" font-family="sans-serif" font-size="14" lengthAdjust="spacing" textLength="77.793" x="121.3442" y="110.1426">LMS (Client)</text></g><g class="participant participant-tail" data-participant="Client"><rect fill="#E2E2F0" height="31.6094" rx="2.5" ry="2.5" style="stroke:#181818;stroke-width:0.5;" width="91.793" x="114.3442" y="389.0313"/><text fill="#000000" font-family="sans-serif" font-size="14" lengthAdjust="spacing" textLength="77.793" x="121.3442" y="410.5645">LMS (Client)</text></g><g class="participant participant-head" data-participant="LMS"><rect fill="#E2E2F0" height="31.6094" rx="2.5" ry="2.5" style="stroke:#181818;stroke-width:0.5;" width="97.2344" x="310.0425" y="88.6094"/><text fill="#000000" font-family="sans-serif" font-size="14" lengthAdjust="spacing" textLength="83.2344" x="317.0425" y="110.1426">LMS (Server)</text></g><g class="participant participant-tail" data-participant="LMS"><rect fill="#E2E2F0" height="31.6094" rx="2.5" ry="2.5" style="stroke:#181818;stroke-width:0.5;" width="97.2344" x="310.0425" y="389.0313"/><text fill="#000000" font-family="sans-serif" font-size="14" lengthAdjust="spacing" textLength="83.2344" x="317.0425" y="410.5645">LMS (Server)</text></g><g class="participant participant-head" data-participant="MS"><rect fill="#E2E2F0" height="31.6094" rx="2.5" ry="2.5" style="stroke:#181818;stroke-width:0.5;" width="97.2549" x="571.7246" y="88.6094"/><text fill="#000000" font-family="sans-serif" font-size="14" lengthAdjust="spacing" textLength="83.2549" x="578.7246" y="110.1426">Media Server</text></g><g class="participant participant-tail" data-participant="MS"><rect fill="#E2E2F0" height="31.6094" rx="2.5" ry="2.5" style="stroke:#181818;stroke-width:0.5;" width="97.2549" x="571.7246" y="389.0313"/><text fill="#000000" font-family="sans-serif" font-size="14" lengthAdjust="spacing" textLength="83.2549" x="578.7246" y="410.5645">Media Server</text></g><g><title>LMS .Server.</title><rect fill="#FFFFFF" height="91.0547" style="stroke:#181818;stroke-width:1;" width="10" x="353.6597" y="183.9219"/></g><g class="message" data-participant-1="S" data-participant-2="Client"><polygon fill="#181818" points="148.2407,149.5703,158.2407,153.5703,148.2407,157.5703,152.2407,153.5703" style="stroke:#181818;stroke-width:1;"/><line style="stroke:#181818;stroke-width:1;" x1="40.1309" x2="154.2407" y1="153.5703" y2="153.5703"/><text fill="#000000" font-family="sans-serif" font-size="13" lengthAdjust="spacing" textLength="96.1099" x="47.1309" y="148.7139">Open lesson link</text></g><g class="message" data-participant-1="Client" data-participant-2="LMS"><polygon fill="#181818" points="341.6597,179.9219,351.6597,183.9219,341.6597,187.9219,345.6597,183.9219" style="stroke:#181818;stroke-width:1;"/><line style="stroke:#181818;stroke-width:1;" x1="160.2407" x2="347.6597" y1="183.9219" y2="183.9219"/><text fill="#000000" font-family="sans-serif" font-size="13" lengthAdjust="spacing" textLength="135.8462" x="167.2407" y="179.0654">Request join(sessionId)</text></g><g class="message" data-participant-1="LMS" data-participant-2="MS"><polygon fill="#181818" points="608.3521,210.2734,618.3521,214.2734,608.3521,218.2734,612.3521,214.2734" style="stroke:#181818;stroke-width:1;"/><line style="stroke:#181818;stroke-width:1;" x1="363.6597" x2="614.3521" y1="214.2734" y2="214.2734"/><text fill="#000000" font-family="sans-serif" font-size="13" lengthAdjust="spacing" textLength="232.6924" x="370.6597" y="209.417">Authorize and add participant(sessionId)</text></g><g class="message" data-participant-1="MS" data-participant-2="LMS"><polygon fill="#181818" points="374.6597,240.625,364.6597,244.625,374.6597,248.625,370.6597,244.625" style="stroke:#181818;stroke-width:1;"/><line style="stroke:#181818;stroke-width:1;stroke-dasharray:2,2;" x1="368.6597" x2="619.3521" y1="244.625" y2="244.625"/><text fill="#000000" font-family="sans-serif" font-size="13" lengthAdjust="spacing" textLength="101.1816" x="380.6597" y="239.7686">Participant added</text></g><g class="message" data-participant-1="LMS" data-participant-2="Client"><polygon fill="#181818" points="171.2407,270.9766,161.2407,274.9766,171.2407,278.9766,167.2407,274.9766" style="stroke:#181818;stroke-width:1;"/><line style="stroke:#181818;stroke-width:1;stroke-dasharray:2,2;" x1="165.2407" x2="357.6597" y1="274.9766" y2="274.9766"/><text fill="#000000" font-family="sans-serif" font-size="13" lengthAdjust="spacing" textLength="169.4189" x="177.2407" y="270.1201">Join confirmation + streamUrl</text></g><g class="message" data-participant-1="Client" data-participant-2="MS"><polygon fill="#181818" points="608.3521,301.3281,618.3521,305.3281,608.3521,309.3281,612.3521,305.3281" style="stroke:#181818;stroke-width:1;"/><line style="stroke:#181818;stroke-width:1;" x1="160.2407" x2="614.3521" y1="305.3281" y2="305.3281"/><text fill="#000000" font-family="sans-serif" font-size="13" lengthAdjust="spacing" textLength="171.209" x="167.2407" y="300.4717">Connect to stream(streamUrl)</text></g><g class="message" data-participant-1="MS" data-participant-2="Client"><polygon fill="#181818" points="171.2407,331.6797,161.2407,335.6797,171.2407,339.6797,167.2407,335.6797" style="stroke:#181818;stroke-width:1;"/><line style="stroke:#181818;stroke-width:1;stroke-dasharray:2,2;" x1="165.2407" x2="619.3521" y1="335.6797" y2="335.6797"/><text fill="#000000" font-family="sans-serif" font-size="13" lengthAdjust="spacing" textLength="78.749" x="177.2407" y="330.8232">Media stream</text></g><path d="M5,348.6797 L5,374.6797 L655,374.6797 L655,358.6797 L645,348.6797 L5,348.6797" fill="#FEFFDD" style="stroke:#181818;stroke-width:0.5;"/><path d="M645,348.6797 L645,358.6797 L655,358.6797 L645,348.6797" fill="#FEFFDD" style="stroke:#181818;stroke-width:0.5;"/><text fill="#000000" font-family="sans-serif" font-size="13" lengthAdjust="spacing" textLength="231.9688" x="210.0054" y="367.1748">Student receives media and can interact</text><!--SRC=[RP5HIWGn38RVUugmJxEe5zW7GHO4PHV5OGzGseZHJZgscH5yyX2Uq9EOJdV7MV2j9D__vqyg906XbS4Z2zn7OjXXpf7Xv-iR3XaJt8RuOOnr4jCCsWojwMqISjHRBQns-nQQRI3jhbUbNz__G2sc4LE5j71ExD6JXOfCX0AcXQlhezy67dfa23LZ87upjL4GTTl04xuFc0LUTPScAqUHx_owB42Z5PncbY0gAFpD82ynqIU2PG_MUrW4MXeKoMd8uoApIj1NnqNCwPGkyZEbpefQm0LaIMYxGmh6urcSlnMA-JOoenEGU5Gqit1ESHfJxrNxnd1KmwYdW_QoE9s-Aw536Z53D-5bKMSPY0MJ1Z6_]--></g></svg>